<?xml version="1.0" encoding="utf-8"?>
<!-- Generator: Adobe Illustrator 19.1.0, SVG Export Plug-In . SVG Version: 6.00 Build 0)  -->
<svg version="1.1" id="Layer_1" xmlns="http://www.w3.org/2000/svg" xmlns:xlink="http://www.w3.org/1999/xlink" x="0px" y="0px"
	 viewBox="0 0 250 250" style="enable-background:new 0 0 250 250;" xml:space="preserve">
<style type="text/css">
	.st0{opacity:0.3;}
	.st1{fill:#FFFFFD;}
	.st2{fill:none;stroke:#F4EEE9;stroke-width:9.3745;stroke-linecap:round;stroke-miterlimit:10;}
	.st3{clip-path:url(#SVGID_2_);fill:url(#SVGID_3_);}
	.st4{clip-path:url(#SVGID_5_);fill:url(#SVGID_6_);}
	.st5{clip-path:url(#SVGID_8_);fill:url(#SVGID_9_);}
	.st6{clip-path:url(#SVGID_11_);fill:url(#SVGID_12_);}
	.st7{clip-path:url(#SVGID_14_);fill:url(#SVGID_15_);}
	.st8{clip-path:url(#SVGID_17_);fill:url(#SVGID_18_);}
	.st9{clip-path:url(#SVGID_20_);fill:url(#SVGID_21_);}
	.st10{clip-path:url(#SVGID_23_);fill:url(#SVGID_24_);}
	.st11{clip-path:url(#SVGID_26_);fill:url(#SVGID_27_);}
	.st12{clip-path:url(#SVGID_29_);fill:url(#SVGID_30_);}
	.st13{clip-path:url(#SVGID_32_);fill:url(#SVGID_33_);}
	.st14{clip-path:url(#SVGID_35_);fill:url(#SVGID_36_);}
	.st15{clip-path:url(#SVGID_38_);fill:url(#SVGID_39_);}
	.st16{clip-path:url(#SVGID_41_);fill:url(#SVGID_42_);}
	.st17{clip-path:url(#SVGID_44_);fill:url(#SVGID_45_);}
	.st18{clip-path:url(#SVGID_47_);fill:url(#SVGID_48_);}
	.st19{clip-path:url(#SVGID_50_);fill:url(#SVGID_51_);}
	.st20{clip-path:url(#SVGID_53_);fill:url(#SVGID_54_);}
	.st21{clip-path:url(#SVGID_56_);fill:url(#SVGID_57_);}
	.st22{clip-path:url(#SVGID_59_);fill:url(#SVGID_60_);}
	.st23{clip-path:url(#SVGID_62_);fill:url(#SVGID_63_);}
</style>
<g>
	<g>
		<g>
			<g class="st0">
				<path d="M196.9,244.8H57.7c-23.4,0-42.4-19-42.4-42.4V61.7c0-23.4,19-42.4,42.4-42.4h139.2c23.4,0,42.4,19,42.4,42.4v140.6
					C239.4,225.8,220.4,244.8,196.9,244.8z"/>
			</g>
			<g>
				<path class="st1" d="M194.6,237.7H55.4c-23.4,0-42.4-19-42.4-42.4V54.7c0-23.4,19-42.4,42.4-42.4h139.2
					c23.4,0,42.4,19,42.4,42.4v140.6C237,218.7,218,237.7,194.6,237.7z"/>
			</g>
		</g>
		<path class="st2" d="M27.2,69c0-23.4,19-42.4,42.4-42.4h16.5"/>
		<path class="st2" d="M222.8,181c0,23.4-19,42.4-42.4,42.4"/>
		<line class="st2" x1="105.8" y1="26.6" x2="129.7" y2="26.6"/>
	</g>
	<g>
		<g>
			<defs>
				<path id="SVGID_1_" d="M76.4,98.6v86.5c0,1.1,0.9,2,2,2h94.4c1.1,0,2-0.9,2-2v-31.5h-3.9v29.5H80.3V98.6H76.4z"/>
			</defs>
			<clipPath id="SVGID_2_">
				<use xlink:href="#SVGID_1_"  style="overflow:visible;"/>
			</clipPath>
			
				<linearGradient id="SVGID_3_" gradientUnits="userSpaceOnUse" x1="-3411.2852" y1="2374.7903" x2="-3410.9553" y2="2374.7903" gradientTransform="matrix(298.0068 0 0 -298.0068 1016662.5 707846.375)">
				<stop  offset="0" style="stop-color:#E300D6"/>
				<stop  offset="0.4662" style="stop-color:#4828BE"/>
				<stop  offset="1" style="stop-color:#4828BE"/>
			</linearGradient>
			<rect x="76.4" y="98.6" class="st3" width="98.3" height="88.5"/>
		</g>
		<g>
			<defs>
				<path id="SVGID_4_" d="M78.3,61.2c-1.1,0-2,0.9-2,2v31.5h3.9V65.1h90.5v84.6h3.9V63.2c0-1.1-0.9-2-2-2H78.3z"/>
			</defs>
			<clipPath id="SVGID_5_">
				<use xlink:href="#SVGID_4_"  style="overflow:visible;"/>
			</clipPath>
			
				<linearGradient id="SVGID_6_" gradientUnits="userSpaceOnUse" x1="-3411.2852" y1="2374.5356" x2="-3410.9553" y2="2374.5356" gradientTransform="matrix(298.0068 0 0 -298.0068 1016662.5 707733.125)">
				<stop  offset="0" style="stop-color:#E300D6"/>
				<stop  offset="0.4662" style="stop-color:#4828BE"/>
				<stop  offset="1" style="stop-color:#4828BE"/>
			</linearGradient>
			<rect x="76.4" y="61.2" class="st4" width="98.3" height="88.5"/>
		</g>
		<g>
			<defs>
				<path id="SVGID_7_" d="M139.9,164l-9.8,9.8l2.8,2.8l5.5-5.5c0.1,1.2,0.4,2.4,1.1,3.5c0.8,1.2,2.5,2.6,5.7,2.6H157v-3.9h-11.8
					c-1.9,0-2.3-0.7-2.5-0.9c-1-1.5-0.2-4.8,0.4-6.2c0.3-0.9,0-1.9-0.7-2.4c-0.3-0.2-0.7-0.3-1.1-0.3
					C140.8,163.5,140.3,163.7,139.9,164"/>
			</defs>
			<clipPath id="SVGID_8_">
				<use xlink:href="#SVGID_7_"  style="overflow:visible;"/>
			</clipPath>
			
				<linearGradient id="SVGID_9_" gradientUnits="userSpaceOnUse" x1="-3405.4314" y1="2372.2715" x2="-3405.1013" y2="2372.2715" gradientTransform="matrix(81.6967 0 0 -81.6967 278342.5625 193977.1094)">
				<stop  offset="0" style="stop-color:#E300D6"/>
				<stop  offset="0.4662" style="stop-color:#4828BE"/>
				<stop  offset="1" style="stop-color:#4828BE"/>
			</linearGradient>
			<rect x="130.1" y="163.5" class="st5" width="27" height="13.8"/>
		</g>
		<g>
			<defs>
				<rect id="SVGID_10_" x="161" y="173.3" width="3.9" height="3.9"/>
			</defs>
			<clipPath id="SVGID_11_">
				<use xlink:href="#SVGID_10_"  style="overflow:visible;"/>
			</clipPath>
			
				<linearGradient id="SVGID_12_" gradientUnits="userSpaceOnUse" x1="-3360.5359" y1="2351.2832" x2="-3360.2058" y2="2351.2832" gradientTransform="matrix(11.9203 0 0 -11.9203 40219.457 28203.209)">
				<stop  offset="0" style="stop-color:#E300D6"/>
				<stop  offset="0.4662" style="stop-color:#4828BE"/>
				<stop  offset="1" style="stop-color:#4828BE"/>
			</linearGradient>
			<rect x="161" y="173.3" class="st6" width="3.9" height="3.9"/>
		</g>
		<g>
			<defs>
				<path id="SVGID_13_" d="M89.5,87.1l-1.1-5.3l13.5-8.5l13.5,8.5l-1.1,5.3c-1.5,7.7-6.1,14.5-12.5,18.9
					C95.5,101.6,91,94.8,89.5,87.1 M100.9,69.4l-15.7,9.8c-0.7,0.4-1,1.2-0.9,2.1l1.3,6.6c1.8,8.9,7.1,16.9,14.8,21.8l0.5,0.3
					c0.3,0.2,0.7,0.3,1.1,0.3c0.4,0,0.7-0.1,1.1-0.3l0.5-0.3c7.6-5,13-12.9,14.8-21.8l1.3-6.6c0.2-0.8-0.2-1.6-0.9-2L103,69.4
					c-0.3-0.2-0.7-0.3-1-0.3C101.6,69.1,101.2,69.2,100.9,69.4"/>
			</defs>
			<clipPath id="SVGID_14_">
				<use xlink:href="#SVGID_13_"  style="overflow:visible;"/>
			</clipPath>
			
				<linearGradient id="SVGID_15_" gradientUnits="userSpaceOnUse" x1="-3406.6079" y1="2371.6345" x2="-3406.2778" y2="2371.6345" gradientTransform="matrix(107.283 0 0 -107.283 365555.4063 254525.8125)">
				<stop  offset="0" style="stop-color:#E300D6"/>
				<stop  offset="0.4662" style="stop-color:#4828BE"/>
				<stop  offset="1" style="stop-color:#4828BE"/>
			</linearGradient>
			<rect x="84.1" y="69.1" class="st7" width="35.6" height="41.3"/>
		</g>
		<g>
			<defs>
				<polygon id="SVGID_16_" points="100,80.9 100,86.8 94.1,86.8 94.1,90.7 100,90.7 100,96.6 103.9,96.6 103.9,90.7 109.8,90.7 
					109.8,86.8 103.9,86.8 103.9,80.9 				"/>
			</defs>
			<clipPath id="SVGID_17_">
				<use xlink:href="#SVGID_16_"  style="overflow:visible;"/>
			</clipPath>
			
				<linearGradient id="SVGID_18_" gradientUnits="userSpaceOnUse" x1="-3397.7864" y1="2366.1357" x2="-3397.4565" y2="2366.1357" gradientTransform="matrix(47.6811 0 0 -47.6811 162104.2344 112908.6641)">
				<stop  offset="0" style="stop-color:#E300D6"/>
				<stop  offset="0.4662" style="stop-color:#4828BE"/>
				<stop  offset="1" style="stop-color:#4828BE"/>
			</linearGradient>
			<rect x="94.1" y="80.9" class="st8" width="15.7" height="15.7"/>
		</g>
		<g>
			<defs>
				<path id="SVGID_19_" d="M127.5,75h35.4v15.7h-35.4V75z M125.6,71c-1.1,0-2,0.9-2,2v19.7c0,1.1,0.9,2,2,2h39.3c1.1,0,2-0.9,2-2
					V73c0-1.1-0.9-2-2-2H125.6z"/>
			</defs>
			<clipPath id="SVGID_20_">
				<use xlink:href="#SVGID_19_"  style="overflow:visible;"/>
			</clipPath>
			
				<linearGradient id="SVGID_21_" gradientUnits="userSpaceOnUse" x1="-3408.561" y1="2372.3218" x2="-3408.231" y2="2372.3218" gradientTransform="matrix(131.123 0 0 -131.123 447064.2813 311148.7188)">
				<stop  offset="0" style="stop-color:#E300D6"/>
				<stop  offset="0.4662" style="stop-color:#4828BE"/>
				<stop  offset="1" style="stop-color:#4828BE"/>
			</linearGradient>
			<rect x="123.6" y="71" class="st9" width="43.3" height="23.6"/>
		</g>
		<g>
			<defs>
				<rect id="SVGID_22_" x="153.1" y="102.5" width="13.8" height="3.9"/>
			</defs>
			<clipPath id="SVGID_23_">
				<use xlink:href="#SVGID_22_"  style="overflow:visible;"/>
			</clipPath>
			
				<linearGradient id="SVGID_24_" gradientUnits="userSpaceOnUse" x1="-3398.3416" y1="2365.4924" x2="-3398.0117" y2="2365.4924" gradientTransform="matrix(41.721 0 0 -41.721 141935.1406 98795.0547)">
				<stop  offset="0" style="stop-color:#E300D6"/>
				<stop  offset="0.4662" style="stop-color:#4828BE"/>
				<stop  offset="1" style="stop-color:#4828BE"/>
			</linearGradient>
			<rect x="153.1" y="102.5" class="st10" width="13.8" height="3.9"/>
		</g>
		<g>
			<defs>
				<rect id="SVGID_25_" x="123.6" y="102.5" width="25.6" height="3.9"/>
			</defs>
			<clipPath id="SVGID_26_">
				<use xlink:href="#SVGID_25_"  style="overflow:visible;"/>
			</clipPath>
			
				<linearGradient id="SVGID_27_" gradientUnits="userSpaceOnUse" x1="-3404.7954" y1="2370.342" x2="-3404.4656" y2="2370.342" gradientTransform="matrix(77.4818 0 0 -77.4818 263933.1563 183762.75)">
				<stop  offset="0" style="stop-color:#E300D6"/>
				<stop  offset="0.4662" style="stop-color:#4828BE"/>
				<stop  offset="1" style="stop-color:#4828BE"/>
			</linearGradient>
			<rect x="123.6" y="102.5" class="st11" width="25.6" height="3.9"/>
		</g>
		<g>
			<defs>
				<path id="SVGID_28_" d="M93.9,154.6l-4.3-4.3l-2.8,2.8l5.9,5.9c0.4,0.4,0.9,0.6,1.4,0.6c0,0,0.1,0,0.1,0c0.6,0,1.1-0.3,1.4-0.8
					l11.8-15.7l-3.1-2.4L93.9,154.6z"/>
			</defs>
			<clipPath id="SVGID_29_">
				<use xlink:href="#SVGID_28_"  style="overflow:visible;"/>
			</clipPath>
			
				<linearGradient id="SVGID_30_" gradientUnits="userSpaceOnUse" x1="-3401.4189" y1="2370.479" x2="-3401.0889" y2="2370.479" gradientTransform="matrix(62.6243 0 0 -62.6243 213098.1406 148599.6094)">
				<stop  offset="0" style="stop-color:#E300D6"/>
				<stop  offset="0.4662" style="stop-color:#4828BE"/>
				<stop  offset="1" style="stop-color:#4828BE"/>
			</linearGradient>
			<rect x="86.8" y="140.7" class="st12" width="20.7" height="18.9"/>
		</g>
		<g>
			<defs>
				<rect id="SVGID_31_" x="133.4" y="141.8" width="31.5" height="3.9"/>
			</defs>
			<clipPath id="SVGID_32_">
				<use xlink:href="#SVGID_31_"  style="overflow:visible;"/>
			</clipPath>
			
				<linearGradient id="SVGID_33_" gradientUnits="userSpaceOnUse" x1="-3406.7307" y1="2372.2405" x2="-3406.4006" y2="2372.2405" gradientTransform="matrix(95.3622 0 0 -95.3622 325006.6875 226365.8125)">
				<stop  offset="0" style="stop-color:#E300D6"/>
				<stop  offset="0.4662" style="stop-color:#4828BE"/>
				<stop  offset="1" style="stop-color:#4828BE"/>
			</linearGradient>
			<rect x="133.4" y="141.8" class="st13" width="31.5" height="3.9"/>
		</g>
		<g>
			<defs>
				<rect id="SVGID_34_" x="113.8" y="141.8" width="15.7" height="3.9"/>
			</defs>
			<clipPath id="SVGID_35_">
				<use xlink:href="#SVGID_34_"  style="overflow:visible;"/>
			</clipPath>
			
				<linearGradient id="SVGID_36_" gradientUnits="userSpaceOnUse" x1="-3398.624" y1="2368.4807" x2="-3398.2939" y2="2368.4807" gradientTransform="matrix(47.6811 0 0 -47.6811 162163.8438 113075.5469)">
				<stop  offset="0" style="stop-color:#E300D6"/>
				<stop  offset="0.4662" style="stop-color:#4828BE"/>
				<stop  offset="1" style="stop-color:#4828BE"/>
			</linearGradient>
			<rect x="113.8" y="141.8" class="st14" width="15.7" height="3.9"/>
		</g>
		<g>
			<defs>
				<rect id="SVGID_37_" x="113.8" y="155.6" width="33.4" height="3.9"/>
			</defs>
			<clipPath id="SVGID_38_">
				<use xlink:href="#SVGID_37_"  style="overflow:visible;"/>
			</clipPath>
			
				<linearGradient id="SVGID_39_" gradientUnits="userSpaceOnUse" x1="-3406.7642" y1="2372.7375" x2="-3406.4343" y2="2372.7375" gradientTransform="matrix(101.3223 0 0 -101.3223 345294.9375 240568.7969)">
				<stop  offset="0" style="stop-color:#E300D6"/>
				<stop  offset="0.4662" style="stop-color:#4828BE"/>
				<stop  offset="1" style="stop-color:#4828BE"/>
			</linearGradient>
			<rect x="113.8" y="155.6" class="st15" width="33.4" height="3.9"/>
		</g>
		<g>
			<defs>
				<rect id="SVGID_40_" x="151.1" y="155.6" width="13.8" height="3.9"/>
			</defs>
			<clipPath id="SVGID_41_">
				<use xlink:href="#SVGID_40_"  style="overflow:visible;"/>
			</clipPath>
			
				<linearGradient id="SVGID_42_" gradientUnits="userSpaceOnUse" x1="-3398.2458" y1="2368.0767" x2="-3397.916" y2="2368.0767" gradientTransform="matrix(41.721 0 0 -41.721 141929.1719 98955.9844)">
				<stop  offset="0" style="stop-color:#E300D6"/>
				<stop  offset="0.4662" style="stop-color:#4828BE"/>
				<stop  offset="1" style="stop-color:#4828BE"/>
			</linearGradient>
			<rect x="151.1" y="155.6" class="st16" width="13.8" height="3.9"/>
		</g>
		<g>
			<defs>
				<path id="SVGID_43_" d="M93.9,129l-4.3-4.3l-2.8,2.8l5.9,5.9c0.4,0.4,0.9,0.6,1.4,0.6c0,0,0.1,0,0.1,0c0.6,0,1.1-0.3,1.4-0.8
					l11.8-15.7l-3.1-2.4L93.9,129z"/>
			</defs>
			<clipPath id="SVGID_44_">
				<use xlink:href="#SVGID_43_"  style="overflow:visible;"/>
			</clipPath>
			
				<linearGradient id="SVGID_45_" gradientUnits="userSpaceOnUse" x1="-3401.4189" y1="2369.6501" x2="-3401.0889" y2="2369.6501" gradientTransform="matrix(62.6243 0 0 -62.6243 213098.1406 148522.125)">
				<stop  offset="0" style="stop-color:#E300D6"/>
				<stop  offset="0.4662" style="stop-color:#4828BE"/>
				<stop  offset="1" style="stop-color:#4828BE"/>
			</linearGradient>
			<rect x="86.8" y="115.1" class="st17" width="20.7" height="18.9"/>
		</g>
		<g>
			<defs>
				<rect id="SVGID_46_" x="113.8" y="130" width="33.4" height="3.9"/>
			</defs>
			<clipPath id="SVGID_47_">
				<use xlink:href="#SVGID_46_"  style="overflow:visible;"/>
			</clipPath>
			
				<linearGradient id="SVGID_48_" gradientUnits="userSpaceOnUse" x1="-3406.7642" y1="2372.2251" x2="-3406.4343" y2="2372.2251" gradientTransform="matrix(101.3223 0 0 -101.3223 345294.9375 240491.3125)">
				<stop  offset="0" style="stop-color:#E300D6"/>
				<stop  offset="0.4662" style="stop-color:#4828BE"/>
				<stop  offset="1" style="stop-color:#4828BE"/>
			</linearGradient>
			<rect x="113.8" y="130" class="st18" width="33.4" height="3.9"/>
		</g>
		<g>
			<defs>
				<rect id="SVGID_49_" x="151.1" y="130" width="13.8" height="3.9"/>
			</defs>
			<clipPath id="SVGID_50_">
				<use xlink:href="#SVGID_49_"  style="overflow:visible;"/>
			</clipPath>
			
				<linearGradient id="SVGID_51_" gradientUnits="userSpaceOnUse" x1="-3398.2458" y1="2366.8323" x2="-3397.916" y2="2366.8323" gradientTransform="matrix(41.721 0 0 -41.721 141929.1719 98878.5)">
				<stop  offset="0" style="stop-color:#E300D6"/>
				<stop  offset="0.4662" style="stop-color:#4828BE"/>
				<stop  offset="1" style="stop-color:#4828BE"/>
			</linearGradient>
			<rect x="151.1" y="130" class="st19" width="13.8" height="3.9"/>
		</g>
		<g>
			<defs>
				<rect id="SVGID_52_" x="133.4" y="116.3" width="31.5" height="3.9"/>
			</defs>
			<clipPath id="SVGID_53_">
				<use xlink:href="#SVGID_52_"  style="overflow:visible;"/>
			</clipPath>
			
				<linearGradient id="SVGID_54_" gradientUnits="userSpaceOnUse" x1="-3406.7307" y1="2371.696" x2="-3406.4006" y2="2371.696" gradientTransform="matrix(95.3622 0 0 -95.3622 325006.6875 226288.3281)">
				<stop  offset="0" style="stop-color:#E300D6"/>
				<stop  offset="0.4662" style="stop-color:#4828BE"/>
				<stop  offset="1" style="stop-color:#4828BE"/>
			</linearGradient>
			<rect x="133.4" y="116.3" class="st20" width="31.5" height="3.9"/>
		</g>
		<g>
			<defs>
				<rect id="SVGID_55_" x="113.8" y="116.3" width="15.7" height="3.9"/>
			</defs>
			<clipPath id="SVGID_56_">
				<use xlink:href="#SVGID_55_"  style="overflow:visible;"/>
			</clipPath>
			
				<linearGradient id="SVGID_57_" gradientUnits="userSpaceOnUse" x1="-3398.624" y1="2367.3921" x2="-3398.2939" y2="2367.3921" gradientTransform="matrix(47.6811 0 0 -47.6811 162163.8438 112998.0625)">
				<stop  offset="0" style="stop-color:#E300D6"/>
				<stop  offset="0.4662" style="stop-color:#4828BE"/>
				<stop  offset="1" style="stop-color:#4828BE"/>
			</linearGradient>
			<rect x="113.8" y="116.3" class="st21" width="15.7" height="3.9"/>
		</g>
		<g>
			<defs>
				<rect id="SVGID_58_" x="100" y="173.3" width="23.6" height="3.9"/>
			</defs>
			<clipPath id="SVGID_59_">
				<use xlink:href="#SVGID_58_"  style="overflow:visible;"/>
			</clipPath>
			
				<linearGradient id="SVGID_60_" gradientUnits="userSpaceOnUse" x1="-3403.3584" y1="2371.8806" x2="-3403.0286" y2="2371.8806" gradientTransform="matrix(71.5216 0 0 -71.5216 243513.7344 169816.0313)">
				<stop  offset="0" style="stop-color:#E300D6"/>
				<stop  offset="0.4662" style="stop-color:#4828BE"/>
				<stop  offset="1" style="stop-color:#4828BE"/>
			</linearGradient>
			<rect x="100" y="173.3" class="st22" width="23.6" height="3.9"/>
		</g>
		<g>
			<defs>
				<rect id="SVGID_61_" x="86.2" y="173.3" width="9.8" height="3.9"/>
			</defs>
			<clipPath id="SVGID_62_">
				<use xlink:href="#SVGID_61_"  style="overflow:visible;"/>
			</clipPath>
			
				<linearGradient id="SVGID_63_" gradientUnits="userSpaceOnUse" x1="-3387.5222" y1="2366.1133" x2="-3387.1924" y2="2366.1133" gradientTransform="matrix(29.8007 0 0 -29.8007 101036.6797 70687.0547)">
				<stop  offset="0" style="stop-color:#E300D6"/>
				<stop  offset="0.4662" style="stop-color:#4828BE"/>
				<stop  offset="1" style="stop-color:#4828BE"/>
			</linearGradient>
			<rect x="86.2" y="173.3" class="st23" width="9.8" height="3.9"/>
		</g>
	</g>
</g>
</svg>
