<?xml version="1.0" encoding="utf-8"?>
<!-- Generator: Adobe Illustrator 19.1.0, SVG Export Plug-In . SVG Version: 6.00 Build 0)  -->
<svg version="1.1" id="Layer_1" xmlns="http://www.w3.org/2000/svg" xmlns:xlink="http://www.w3.org/1999/xlink" x="0px" y="0px"
	 viewBox="0 0 250 250" style="enable-background:new 0 0 250 250;" xml:space="preserve">
<style type="text/css">
	.st0{opacity:0.3;}
	.st1{fill:#FFFFFD;}
	.st2{fill:none;stroke:#F4EEE9;stroke-width:9.3745;stroke-linecap:round;stroke-miterlimit:10;}
	.st3{clip-path:url(#SVGID_2_);fill:url(#SVGID_3_);}
	.st4{clip-path:url(#SVGID_5_);fill:url(#SVGID_6_);}
</style>
<g>
	<g>
		<g>
			<g class="st0">
				<path d="M196.9,244.8H57.7c-23.4,0-42.4-19-42.4-42.4V61.7c0-23.4,19-42.4,42.4-42.4h139.2c23.4,0,42.4,19,42.4,42.4v140.6
					C239.4,225.8,220.4,244.8,196.9,244.8z"/>
			</g>
			<g>
				<path class="st1" d="M194.6,237.7H55.4c-23.4,0-42.4-19-42.4-42.4V54.7c0-23.4,19-42.4,42.4-42.4h139.2
					c23.4,0,42.4,19,42.4,42.4v140.6C237,218.7,218,237.7,194.6,237.7z"/>
			</g>
		</g>
		<path class="st2" d="M27.2,69c0-23.4,19-42.4,42.4-42.4h16.5"/>
		<path class="st2" d="M222.8,181c0,23.4-19,42.4-42.4,42.4"/>
		<line class="st2" x1="105.8" y1="26.6" x2="129.7" y2="26.6"/>
	</g>
	<g>
		<g>
			<defs>
				<path id="SVGID_1_" d="M97.6,87.6h16v73.8H99.8L64,114.5v46.9H48V87.6h15l34.6,45.5V87.6z M97.6,83.6c-2.2,0-4,1.8-4,4v33.7
					L66.1,85.2c-0.7-1-1.9-1.6-3.2-1.6H48c-2.2,0-4,1.8-4,4v73.8c0,2.2,1.8,4,4,4h16c2.2,0,4-1.8,4-4v-35.2l28.6,37.6
					c0.7,1,1.9,1.6,3.1,1.6h13.8c2.2,0,4-1.8,4-4V87.6c0-2.2-1.8-4-4-4H97.6z"/>
			</defs>
			<clipPath id="SVGID_2_">
				<use xlink:href="#SVGID_1_"  style="overflow:visible;"/>
			</clipPath>
			
				<linearGradient id="SVGID_3_" gradientUnits="userSpaceOnUse" x1="-3403.9355" y1="2374.2151" x2="-3403.6057" y2="2374.2151" gradientTransform="matrix(222.8071 0 0 -222.8071 758465.125 529116.625)">
				<stop  offset="0" style="stop-color:#E300D6"/>
				<stop  offset="0.4662" style="stop-color:#4828BE"/>
				<stop  offset="1" style="stop-color:#4828BE"/>
			</linearGradient>
			<rect x="44" y="83.6" class="st3" width="73.5" height="81.8"/>
		</g>
		<g>
			<defs>
				<path id="SVGID_4_" d="M154.2,138.2c-3.4-3.6-5.2-8.4-5.2-13.6v-0.2c0-5.2,1.8-10,5.1-13.5c3.4-3.6,7.9-5.5,13.1-5.5
					c5.1,0,9.8,2,13.2,5.6c3.4,3.6,5.2,8.4,5.2,13.6v0.2c0,5.2-1.8,10-5.1,13.5c-3.4,3.6-7.9,5.5-13.1,5.5
					C162.3,143.8,157.6,141.8,154.2,138.2 M145,124.3v0.2c0,12.7,9.3,23.2,22.4,23.2c13.1,0,22.2-10.3,22.2-23v-0.2
					c0-12.7-9.3-23.2-22.4-23.2C154.1,101.3,145,111.7,145,124.3 M128,124.7v-0.2c0-21,16.6-38.2,39.3-38.2c22.8,0,39.1,17,39.1,38
					v0.2c0,21-16.6,38.2-39.3,38.2C144.4,162.7,128,145.7,128,124.7 M136.4,94.7c-7.9,7.9-12.3,18.4-12.3,29.8v0.2
					c0,11.3,4.3,21.9,12.2,29.7c8,7.9,19,12.3,30.9,12.3c11.9,0,23-4.4,31-12.4c7.9-7.9,12.3-18.4,12.3-29.8v-0.2
					c0-11.3-4.3-21.9-12.2-29.7c-8-7.9-19-12.3-30.9-12.3C155.4,82.4,144.4,86.8,136.4,94.7"/>
			</defs>
			<clipPath id="SVGID_5_">
				<use xlink:href="#SVGID_4_"  style="overflow:visible;"/>
			</clipPath>
			
				<linearGradient id="SVGID_6_" gradientUnits="userSpaceOnUse" x1="-3406.0554" y1="2374.481" x2="-3405.7256" y2="2374.481" gradientTransform="matrix(261.8015 0 0 -261.8015 891834.5625 621767.25)">
				<stop  offset="0" style="stop-color:#E300D6"/>
				<stop  offset="0.4662" style="stop-color:#4828BE"/>
				<stop  offset="1" style="stop-color:#4828BE"/>
			</linearGradient>
			<rect x="124.1" y="82.4" class="st4" width="86.4" height="84.3"/>
		</g>
	</g>
</g>
</svg>
