<?xml version="1.0" encoding="utf-8"?>
<!-- Generator: Adobe Illustrator 19.1.0, SVG Export Plug-In . SVG Version: 6.00 Build 0)  -->
<svg version="1.1" id="Layer_1" xmlns="http://www.w3.org/2000/svg" xmlns:xlink="http://www.w3.org/1999/xlink" x="0px" y="0px"
	 viewBox="0 0 250 250" style="enable-background:new 0 0 250 250;" xml:space="preserve">
<style type="text/css">
	.st0{opacity:0.3;}
	.st1{fill:#FFFFFD;}
	.st2{fill:none;stroke:#F4EEE9;stroke-width:9.3745;stroke-linecap:round;stroke-miterlimit:10;}
	.st3{clip-path:url(#SVGID_2_);fill:url(#SVGID_3_);}
	.st4{clip-path:url(#SVGID_5_);fill:url(#SVGID_6_);}
	.st5{clip-path:url(#SVGID_8_);fill:url(#SVGID_9_);}
	.st6{clip-path:url(#SVGID_11_);fill:url(#SVGID_12_);}
	.st7{clip-path:url(#SVGID_14_);fill:url(#SVGID_15_);}
	.st8{clip-path:url(#SVGID_17_);fill:url(#SVGID_18_);}
	.st9{clip-path:url(#SVGID_20_);fill:url(#SVGID_21_);}
	.st10{clip-path:url(#SVGID_23_);fill:url(#SVGID_24_);}
</style>
<g>
	<g>
		<g>
			<g class="st0">
				<path d="M196.9,244.8H57.7c-23.4,0-42.4-19-42.4-42.4V61.7c0-23.4,19-42.4,42.4-42.4h139.2c23.4,0,42.4,19,42.4,42.4v140.6
					C239.4,225.8,220.4,244.8,196.9,244.8z"/>
			</g>
			<g>
				<path class="st1" d="M194.6,237.7H55.4c-23.4,0-42.4-19-42.4-42.4V54.7c0-23.4,19-42.4,42.4-42.4h139.2
					c23.4,0,42.4,19,42.4,42.4v140.6C237,218.7,218,237.7,194.6,237.7z"/>
			</g>
		</g>
		<path class="st2" d="M27.2,69c0-23.4,19-42.4,42.4-42.4h16.5"/>
		<path class="st2" d="M222.8,181c0,23.4-19,42.4-42.4,42.4"/>
		<line class="st2" x1="105.8" y1="26.6" x2="129.7" y2="26.6"/>
	</g>
	<g>
		<g>
			<defs>
				<path id="SVGID_1_" d="M148.2,185.7c-2.6,0-4-1.3-4-4c0-2.3,0-4.6,0-6.9c0-2.1,1.1-3.5,2.9-3.8c2-0.3,3.4,0.7,3.9,2.8
					c0.3,1.3,1.1,1.7,2.3,1.7c5,0,10.1,0,15.1,0c3.1,0,5.3,2.2,5.3,5.2c-0.1,2.7-2.2,4.9-5,4.9c-3.5,0-6.9,0-10.4,0
					c-2.2,0-4.3,0-6.5,0C150.6,185.7,149.4,185.7,148.2,185.7 M135.2,173.1c0.4-1.7,2.6-2.5,4.3-1.9c0.9,0.3,1.3,0.8,1.2,2
					c-0.2,3.4-0.2,6.8,0,10.2c0.1,1.2-0.3,1.7-1.2,2c-0.2,0.1-0.4,0.2-0.6,0.2c-2.5,0-5.1,0-7.7,0v-9.9c0.2-0.1,0.3-0.1,0.4-0.1
					c0.3,0,0.5,0,0.7,0C133.9,175.6,134.8,175,135.2,173.1 M110.1,175.3c-1.2-1.9-1.1-3.3,0-5.1c1-1.8,2.2-2.4,4.2-2.4
					c2.2,0,3.4,0.6,4.5,2.6c1,1.8,1.4,3.2-0.1,4.7c0,0,0,0.1-0.1,0.1c-0.8,2-2.1,3-4.3,2.4c-0.4,0.1-0.8,0.2-1.1,0.2
					C111.8,177.8,111,176.7,110.1,175.3 M101.5,160h12.1c0.2,1.4,0.4,2.7,0.6,4.2c-0.5,0-1.2,0-1.9,0c-1.9,0.1-3.4,0.9-4.4,2.6
					c-0.7,1.2-1.4,2.3-2.1,3.5c-0.9,1.7-0.9,3.4,0,5.1c0.7,1.1,1.3,2.3,2,3.4c1,1.7,2.5,2.6,4.5,2.6c1.4,0,2.7,0,4.1,0
					c2-0.1,3.5-0.9,4.5-2.6c0.7-1.1,1.3-2.3,2-3.4c1-1.7,1-3.4,0-5.1c-0.9-1.5-1.7-3-2.6-4.5h7v19.8h-25.9V160z M71.7,160h25.9v25.6
					H71.7V160z M125.4,149.9c0-0.3,0.2-0.6,0.3-0.9c0.2,0.2,0.5,0.3,0.6,0.6c0.9,2,1.7,4,2.5,6c1.2,3-0.8,6.4-4.2,6.6
					c-2.4,0.1-4.7-0.3-7.1-0.5c0-0.2,0-0.3,0-0.5c0.5,0,1,0,1.5,0c0.9,0.1,1.9,0.2,2.8,0.3c1.3,0.1,2.1-0.6,2.2-1.8
					c0.1-1.3-0.5-2-1.8-2.2c-1.5-0.2-3-0.3-4.4-0.5c-0.3,0-0.5-0.1-0.7-0.5c0.5,0,1.1,0,1.6,0c1.2,0.1,2.3,0.3,3.4,0.4
					c1.4,0.1,2.3-0.5,2.4-1.7c0.2-1.4-0.4-2.1-1.9-2.3c-1.4-0.2-2.7-0.3-4.1-0.4c0-0.1,0-0.2,0-0.3c0.2,0,0.5-0.1,0.7-0.1
					c1.4,0.1,2.7,0.3,4.1,0.4c0.1,0,0.2,0,0.3,0C125,152.3,125.6,151.5,125.4,149.9 M116.5,140c2-0.2,4-0.3,5.9-0.5
					c-0.5,2.3-0.9,4.6-1.4,7h-4.5V140z M140.4,135.5h7c-0.6,1.2-1.6,1.7-2.7,1.9c-0.3,0-0.6,0.1-0.8,0.1
					C142.6,137.5,141.4,136.9,140.4,135.5 M86.8,130.5h25.9v25.6H86.8V130.5z M94.5,125.2c3.5,0,6.9-0.1,10.4,0c0.6,0,1.1,0.7,1.7,1
					c-0.1,0.1-0.2,0.3-0.2,0.4H93C93.1,125.7,93.6,125.2,94.5,125.2 M115.7,91.5c-0.7-0.2-1-0.5-0.9-1.3
					c0.8-13.2,11.8-23.7,25.1-23.8c3.9,0,7.9-0.1,11.7,0.3c10.9,1.1,20.6,10.7,21.8,21.6c0,0.4-0.3,1.1-0.6,1.3
					c-1.1,0.5-2.2,0.9-3.3,1.2c-0.9,0.3-1.5,0.7-1.6,1.6c-0.2,1.2,0.7,2.2,2,2.1c0.7-0.1,1.4-0.2,2.2-0.4c0,0.4,0,0.9,0.2,1.2
					c0.4,0.6,0.9,1.4,1.5,1.6c3.9,0.9,5.6,2.6,6.3,6.4c0.4,2.4,0.1,4.8-1.2,6.9c-1.2,2-2.9,3.2-5.3,3c-1.4-0.1-1.9,0.8-2.3,2
					c-2.2,7.2-6.8,12.3-13.8,15c-2.5,1-5.2,1.5-7.8,1.6c-4.6,0.1-9.4,0.2-13.9-0.5c-9.8-1.5-16.8-9.2-17.5-19.1
					c-0.4-5.5-0.1-11-0.1-16.2c2.1-1.1,4.1-2.2,6.1-3.3c1.1,2.6,3.3,4.2,6.4,4.2c3,0,5.1-1.9,7-4c2.9,5,10.2,5.7,14.8,1.1
					c1.6-1.5,2.9-3.3,4.1-4.8c0.8,0.7,1.8,1.5,2.8,2.3c1.2,1,2.3,1.1,3.1,0.3c0.8-0.9,0.5-1.8-0.5-3c-1.2-1.4-2.3-3-3.5-4.5
					c-0.5-0.6-1.2-1.3-1.8-1.3c-0.6,0-1.4,0.8-1.8,1.4c-1.6,2.2-2.8,4.5-4.5,6.6c-1.4,1.7-3.5,2.6-5.8,2.3c-2.7-0.3-3.9-1.8-3.4-4.5
					c0-0.3,0.1-0.6,0.2-0.8c0.3-1.1,0.1-2-1-2.5c-1.1-0.4-1.9,0-2.5,1c-1,1.4-2,2.9-3.1,4.2c-0.7,0.8-1.7,1.6-2.7,2.1
					c-2.2,1.2-4.3-0.1-4.3-2.6c0-1.3,0.3-2.7,0.7-4c0.5-1.8,0.3-2.7-0.8-3.2c-1.1-0.4-1.8,0.2-2.7,1.7c-1.3,2-2.7,4.1-4.2,5.9
					c-0.8,1-1.9,1.5-3.1,1.5C116.9,91.8,116.3,91.7,115.7,91.5 M135.6,62.8c-0.3,0.1-0.5,0.2-0.8,0.3c-13.3,2.6-23,13.9-23.7,27.4
					c-0.1,2,0.5,3.3,2.3,4c0.7,0.3,0.9,0.7,0.9,1.4c0,4.5-0.1,9.1,0,13.6c0.2,7.8,2.7,14.5,8.8,19.7c1.3,1.1,2.7,2,4.3,3.1
					c-1.1,0.9-2.1,2.1-3.3,2.6c-2.4,1-5,1.3-7.7,1c0-2,0-3.9,0-5.7c-0.1-2.2-1.5-3.5-3.6-3.6c-0.8,0-1.6,0-2.5,0
					c-0.1-0.4-0.2-0.7-0.2-1c-0.5-2.4-2.5-4.2-4.9-4.2c-3.6-0.1-7.3-0.1-10.9,0c-2.3,0-4.2,1.7-4.8,3.9c-0.1,0.4-0.2,0.8-0.3,1.3
					c-0.6,0-1.2,0-1.8,0c-3.1,0-4.3,1.2-4.3,4.3c0,7.9,0,15.8,0,23.7v1.5c-3.8,0-7.3,0-10.8,0c-2.9,0-4.2,1.3-4.2,4.2
					c0,8.2,0,16.3,0,24.5c0,3.3,1.2,4.5,4.5,4.5c21.5,0,43,0,64.5,0c2.2,0,4.3-0.2,5.7-1.5c1.7,0.5,3.2,1.4,4.7,1.4
					c7.3,0.1,14.5,0.1,21.8,0c4.1-0.1,7.7-3.4,8.3-7.4c0.6-4.3-1.9-8.4-6-9.7c-0.4-0.1-0.8-0.3-1.3-0.4c0-0.6,0-1.1,0-1.5
					c0-0.5,0-1.1,0-1.6c0-1.5-0.7-2.3-1.9-2.2c-1.1,0-1.8,0.8-1.8,2.2c0,1,0,2,0,3.1c-4,0-7.7,0-11.5,0c-0.3,0-0.7-0.4-0.9-0.8
					c-2.2-3.8-6.6-4.9-10.3-2.6c-0.5,0.3-0.9,0.3-1.4,0c-3.8-2.4-8.2-1.2-10.4,2.7c-0.1,0.2-0.3,0.5-0.7,1V167c3-0.1,5.9,0,8.7-0.5
					c10.7-1.7,18.7-7.4,23.7-17.1c1.8-3.4,0.4-7.4-2.9-9.1c-3.3-1.7-7.4-0.6-9.2,2.7c-1.8,3.3-4.1,6-7.3,7.9c-0.4,0.3-0.9,0.9-1,1.3
					c0,0.6,0.3,1.5,0.7,1.8c0.6,0.3,1.6,0.3,2.1,0c3.6-2,6.4-4.9,8.3-8.6c0.5-1,1.2-1.9,2.4-2.1c1.3-0.2,2.4,0.1,3.2,1.1
					c0.8,1.1,0.8,2.3,0.2,3.5c-4.9,10.1-17,16.6-28.2,15.1c-0.3,0-0.6-0.2-0.6-0.2c0.6-2,1.2-3.9,1.9-5.9c0.3,0,0.9,0,1.5,0
					c0.1,0,0.3,0,0.4,0c0.4,0,0.9,0,1.3,0c1.2-0.1,2-0.8,2-1.9c0-1-0.8-1.7-2-1.8c-0.9,0-1.9,0-2.8,0c-1.3,0-2.4-0.4-2.7-1.9
					c-0.1-0.7-0.5-1.4-0.8-2.1c-0.8-2.5-2.1-4.3-5.1-4c0.5-4.5,2.3-8.1,5.5-11c0.3-0.3,0.9-0.3,1.3-0.2c1.2,0.2,2.3,0.6,3.5,0.8
					c0.7,0.1,1,0.4,1.2,1c1.2,3.3,4,5.2,7.3,5.3c3.3,0.1,6.1-1.9,7.5-5.1c0.2-0.4,0.7-0.8,1.1-0.9c2.1-0.6,4.2-1.1,6.3-1.6
					c0.5-0.1,1.2,0,1.5,0.2c3,2.5,5.1,5.7,5.6,9.6c0.4,3,0.3,6.1,0.4,9.1c0.1,2.3,0,4.6,0,6.9c0,1.5,1.1,2.3,2.3,1.9
					c1.1-0.3,1.4-1.2,1.4-2.2c0-4.1,0-8.3,0-12.4c-0.1-5.9-2.1-11-6.5-15.1c-0.1-0.1-0.2-0.2-0.3-0.4c5.2-3.4,8.9-8,11.1-13.8
					c0.1-0.4,0.6-0.7,1-0.8c2.2-0.4,3.9-1.5,5.3-3.1c2.5-3,3.4-6.5,3-10.3c-0.5-4.3-2.5-7.8-6.7-9.7c-1.4-0.6-1.6-1.3-0.6-2.4
					c0.7-0.8,1-1.7,0.8-2.8c-1.8-12.1-8.5-20.2-20-24.4c-1.5-0.5-3-0.8-4.5-1.2H135.6z"/>
			</defs>
			<clipPath id="SVGID_2_">
				<use xlink:href="#SVGID_1_"  style="overflow:visible;"/>
			</clipPath>
			
				<linearGradient id="SVGID_3_" gradientUnits="userSpaceOnUse" x1="-3419.5305" y1="2378.741" x2="-3419.2007" y2="2378.741" gradientTransform="matrix(351.4407 0 0 -351.4407 1201830.125 836112.4375)">
				<stop  offset="0" style="stop-color:#E300D6"/>
				<stop  offset="0.4662" style="stop-color:#4828BE"/>
				<stop  offset="1" style="stop-color:#4828BE"/>
			</linearGradient>
			<rect x="67.9" y="62.8" class="st3" width="116.3" height="126.6"/>
		</g>
		<g>
			<defs>
				<path id="SVGID_4_" d="M134.6,117.6h13.1c-0.1,3.3-2.9,6-6.2,6.2c-0.1,0-0.2,0-0.3,0C137.8,123.8,135,121.3,134.6,117.6
					 M143.2,113.8c-0.7,0-1.3,0-2,0c-2.1,0-4.2,0-6.3,0c-2.9,0-4.4,1.8-4,4.6c0.8,5.3,5.1,9.1,10.4,9.1c5.2,0,9.4-3.8,10.2-9.1
					c0.4-2.8-1-4.6-3.9-4.6c-0.8,0-1.6,0-2.5,0C144.5,113.7,143.9,113.8,143.2,113.8"/>
			</defs>
			<clipPath id="SVGID_5_">
				<use xlink:href="#SVGID_4_"  style="overflow:visible;"/>
			</clipPath>
			
				<linearGradient id="SVGID_6_" gradientUnits="userSpaceOnUse" x1="-3446.9873" y1="2391.1611" x2="-3446.6575" y2="2391.1611" gradientTransform="matrix(62.7957 0 0 -62.7957 216586.7031 150275.1563)">
				<stop  offset="0" style="stop-color:#E300D6"/>
				<stop  offset="0.4662" style="stop-color:#4828BE"/>
				<stop  offset="1" style="stop-color:#4828BE"/>
			</linearGradient>
			<rect x="130.5" y="113.7" class="st4" width="21.4" height="13.8"/>
		</g>
		<g>
			<defs>
				<path id="SVGID_7_" d="M175.1,100.8c-1,0.3-1.5,1.2-1.2,2.4c0.1,0.4,0.2,0.9,0.3,1.3c0.2,1.1-0.1,2.1-1.1,2.8
					c-1.1,0.7-1.2,1.8-0.6,2.7c0.6,0.9,1.7,1,2.7,0.4c1.8-1.1,2.7-2.9,2.9-5c-0.2-1.1-0.4-2.2-0.8-3.2c-0.3-0.9-1-1.4-1.7-1.4
					C175.5,100.7,175.3,100.8,175.1,100.8"/>
			</defs>
			<clipPath id="SVGID_8_">
				<use xlink:href="#SVGID_7_"  style="overflow:visible;"/>
			</clipPath>
			
				<linearGradient id="SVGID_9_" gradientUnits="userSpaceOnUse" x1="-3532.9475" y1="2426.8699" x2="-3532.6177" y2="2426.8699" gradientTransform="matrix(18.1202 0 0 -18.1202 64189.9844 44081.3008)">
				<stop  offset="0" style="stop-color:#E300D6"/>
				<stop  offset="0.4662" style="stop-color:#4828BE"/>
				<stop  offset="1" style="stop-color:#4828BE"/>
			</linearGradient>
			<rect x="171.9" y="100.7" class="st5" width="6.2" height="10.3"/>
		</g>
		<g>
			<defs>
				<path id="SVGID_10_" d="M137.8,105.3c0,0.6,0,1.2,0,1.9c0,2.7,2,4.3,4.6,3.6c0.9-0.2,1.4-0.8,1.5-1.8c0-1-0.5-1.6-1.5-1.8
					c-0.2,0-0.5-0.1-0.9-0.1c0-0.7,0.1-1.3,0-1.8c-0.1-1-0.8-1.6-1.8-1.7c0,0-0.1,0-0.1,0C138.6,103.5,137.9,104.3,137.8,105.3"/>
			</defs>
			<clipPath id="SVGID_11_">
				<use xlink:href="#SVGID_10_"  style="overflow:visible;"/>
			</clipPath>
			
				<linearGradient id="SVGID_12_" gradientUnits="userSpaceOnUse" x1="-3526.9365" y1="2426.0723" x2="-3526.6067" y2="2426.0723" gradientTransform="matrix(18.4656 0 0 -18.4656 65264.8984 44906.4609)">
				<stop  offset="0" style="stop-color:#E300D6"/>
				<stop  offset="0.4662" style="stop-color:#4828BE"/>
				<stop  offset="1" style="stop-color:#4828BE"/>
			</linearGradient>
			<rect x="137.7" y="103.5" class="st6" width="6.1" height="7.9"/>
		</g>
		<g>
			<defs>
				<path id="SVGID_13_" d="M152.7,102.9c-0.1,1.2-0.1,2.5,0,3.7c0.1,1,0.9,1.5,1.8,1.5c1,0,1.7-0.7,1.8-1.7c0-0.5,0-1.1,0-1.6
					c0-0.5,0-1.1,0-1.6c-0.1-1.1-0.6-1.7-1.7-1.8c-0.1,0-0.1,0-0.2,0C153.5,101.4,152.9,102,152.7,102.9"/>
			</defs>
			<clipPath id="SVGID_14_">
				<use xlink:href="#SVGID_13_"  style="overflow:visible;"/>
			</clipPath>
			
				<linearGradient id="SVGID_15_" gradientUnits="userSpaceOnUse" x1="-3600.8762" y1="2457.2522" x2="-3600.5461" y2="2457.2522" gradientTransform="matrix(11.3213 0 0 -11.3213 40919.2578 27924.0879)">
				<stop  offset="0" style="stop-color:#E300D6"/>
				<stop  offset="0.4662" style="stop-color:#4828BE"/>
				<stop  offset="1" style="stop-color:#4828BE"/>
			</linearGradient>
			<rect x="152.6" y="101.4" class="st7" width="3.8" height="6.7"/>
		</g>
		<g>
			<defs>
				<path id="SVGID_16_" d="M125.4,102.7c-0.2,1.3-0.1,2.7,0,4c0.1,0.9,0.9,1.4,1.8,1.3c1-0.1,1.6-0.6,1.7-1.6c0.1-0.6,0-1.2,0-1.7
					c0-0.6,0-1.2,0-1.7c-0.1-0.9-0.6-1.5-1.6-1.6c-0.1,0-0.2,0-0.3,0C126.2,101.4,125.5,101.9,125.4,102.7"/>
			</defs>
			<clipPath id="SVGID_17_">
				<use xlink:href="#SVGID_16_"  style="overflow:visible;"/>
			</clipPath>
			
				<linearGradient id="SVGID_18_" gradientUnits="userSpaceOnUse" x1="-3599.7771" y1="2458.9541" x2="-3599.447" y2="2458.9541" gradientTransform="matrix(11.089 0 0 -11.089 40043.125 27372.0938)">
				<stop  offset="0" style="stop-color:#E300D6"/>
				<stop  offset="0.4662" style="stop-color:#4828BE"/>
				<stop  offset="1" style="stop-color:#4828BE"/>
			</linearGradient>
			<rect x="125.2" y="101.4" class="st8" width="3.7" height="6.7"/>
		</g>
		<g>
			<defs>
				<path id="SVGID_19_" d="M95,142.7c1.2-0.4,2.3-0.4,3.1-1c0.7-0.5,1.1-1.6,1.7-2.6c0.6,2.3,2,3.5,4.4,3.4c-1.8,1.4-2.6,3-1.6,5.3
					c-2-1.4-3.8-1.5-5.8,0C97.6,145.6,97.1,143.9,95,142.7 M99.7,134.2c-1.4,0-2.3,0.9-2.7,2.1c-0.6,1.7-1.6,2.8-3.6,2.6
					c-0.4,0-0.7,0.1-1.1,0.2c-2,0.5-3,3-1.5,4.4c1.9,1.7,3.2,3.4,1.9,5.7c-0.1,2.5,2.2,4,4.1,2.8c2-1.2,3.7-1.4,5.6,0
					c0.9,0.7,2,0.6,3-0.1c1-0.7,1.5-1.7,1.1-2.8c-0.8-2.3,0-3.9,1.8-5.4c0.9-0.6,1.1-1.7,0.7-2.8c-0.4-1.1-1.1-1.7-2.2-1.9
					c-0.2,0-0.5-0.1-0.7-0.1c-2,0.1-3.1-0.9-3.7-2.7C102,135.1,101.1,134.2,99.7,134.2C99.7,134.2,99.7,134.2,99.7,134.2"/>
			</defs>
			<clipPath id="SVGID_20_">
				<use xlink:href="#SVGID_19_"  style="overflow:visible;"/>
			</clipPath>
			
				<linearGradient id="SVGID_21_" gradientUnits="userSpaceOnUse" x1="-3448.2112" y1="2393.1665" x2="-3447.8813" y2="2393.1665" gradientTransform="matrix(58.1292 0 0 -58.1292 200531.9531 139256.6406)">
				<stop  offset="0" style="stop-color:#E300D6"/>
				<stop  offset="0.4662" style="stop-color:#4828BE"/>
				<stop  offset="1" style="stop-color:#4828BE"/>
			</linearGradient>
			<rect x="89.3" y="134.2" class="st9" width="20.2" height="19"/>
		</g>
		<g>
			<defs>
				<path id="SVGID_22_" d="M86,169.7c0.5-0.4,0.9-0.9,1.4-1.3c1-0.8,2.3-0.7,3.1,0.2c0.8,0.9,0.8,2-0.1,3c-1.8,2-3.7,3.9-5.5,5.9
					c-0.2,0-0.5,0-0.7,0c-1.8-1.9-3.6-3.9-5.4-5.8c-1-1-1-2.2-0.2-3.1c0.8-0.9,2.2-1,3.2-0.2c0.5,0.4,0.9,0.9,1.3,1.3
					c0.5,0.4,0.9,0.6,1.4,0.6C85.1,170.4,85.6,170.2,86,169.7 M84.7,165.8c-0.2-0.1-0.3-0.3-0.5-0.4c-2.7-2-6.2-1.7-8.3,0.8
					c-2.1,2.4-1.8,5.7,0.6,8.1c2.1,2.1,4.2,4.1,6.3,6.1c1.3,1.2,2.6,1.3,3.8,0.2c2.3-2.2,4.7-4.4,6.9-6.8c3-3.2,1.4-8.4-2.8-9.6
					c-0.6-0.2-1.1-0.2-1.7-0.2C87.3,164.1,86,164.8,84.7,165.8"/>
			</defs>
			<clipPath id="SVGID_23_">
				<use xlink:href="#SVGID_22_"  style="overflow:visible;"/>
			</clipPath>
			
				<linearGradient id="SVGID_24_" gradientUnits="userSpaceOnUse" x1="-3445.4761" y1="2393.0222" x2="-3445.146" y2="2393.0222" gradientTransform="matrix(62.1689 0 0 -62.1689 214275.7969 148944.1563)">
				<stop  offset="0" style="stop-color:#E300D6"/>
				<stop  offset="0.4662" style="stop-color:#4828BE"/>
				<stop  offset="1" style="stop-color:#4828BE"/>
			</linearGradient>
			<rect x="73.8" y="163.4" class="st10" width="22.6" height="18.4"/>
		</g>
	</g>
</g>
</svg>
