<?xml version="1.0" encoding="utf-8"?>
<!-- Generator: Adobe Illustrator 19.1.0, SVG Export Plug-In . SVG Version: 6.00 Build 0)  -->
<svg version="1.1" id="Layer_1" xmlns="http://www.w3.org/2000/svg" xmlns:xlink="http://www.w3.org/1999/xlink" x="0px" y="0px"
	 viewBox="0 0 250 250" style="enable-background:new 0 0 250 250;" xml:space="preserve">
<style type="text/css">
	.st0{opacity:0.3;}
	.st1{fill:#FFFFFD;}
	.st2{fill:none;stroke:#F4EEE9;stroke-width:9.3745;stroke-linecap:round;stroke-miterlimit:10;}
	.st3{clip-path:url(#SVGID_2_);fill:url(#SVGID_3_);}
	.st4{clip-path:url(#SVGID_5_);fill:url(#SVGID_6_);}
	.st5{clip-path:url(#SVGID_8_);fill:url(#SVGID_9_);}
	.st6{clip-path:url(#SVGID_11_);fill:url(#SVGID_12_);}
	.st7{clip-path:url(#SVGID_14_);fill:url(#SVGID_15_);}
	.st8{clip-path:url(#SVGID_17_);fill:url(#SVGID_18_);}
	.st9{clip-path:url(#SVGID_20_);fill:url(#SVGID_21_);}
	.st10{clip-path:url(#SVGID_23_);fill:url(#SVGID_24_);}
	.st11{clip-path:url(#SVGID_26_);fill:url(#SVGID_27_);}
	.st12{clip-path:url(#SVGID_29_);fill:url(#SVGID_30_);}
	.st13{clip-path:url(#SVGID_32_);fill:url(#SVGID_33_);}
	.st14{clip-path:url(#SVGID_35_);fill:url(#SVGID_36_);}
	.st15{clip-path:url(#SVGID_38_);fill:url(#SVGID_39_);}
	.st16{clip-path:url(#SVGID_41_);fill:url(#SVGID_42_);}
	.st17{clip-path:url(#SVGID_44_);fill:url(#SVGID_45_);}
	.st18{clip-path:url(#SVGID_47_);fill:url(#SVGID_48_);}
	.st19{clip-path:url(#SVGID_50_);fill:url(#SVGID_51_);}
</style>
<g>
	<g>
		<g>
			<g class="st0">
				<path d="M196.9,244.8H57.7c-23.4,0-42.4-19-42.4-42.4V61.7c0-23.4,19-42.4,42.4-42.4h139.2c23.4,0,42.4,19,42.4,42.4v140.6
					C239.4,225.8,220.4,244.8,196.9,244.8z"/>
			</g>
			<g>
				<path class="st1" d="M194.6,237.7H55.4c-23.4,0-42.4-19-42.4-42.4V54.7c0-23.4,19-42.4,42.4-42.4h139.2
					c23.4,0,42.4,19,42.4,42.4v140.6C237,218.7,218,237.7,194.6,237.7z"/>
			</g>
		</g>
		<path class="st2" d="M27.2,69c0-23.4,19-42.4,42.4-42.4h16.5"/>
		<path class="st2" d="M222.8,181c0,23.4-19,42.4-42.4,42.4"/>
		<line class="st2" x1="105.8" y1="26.6" x2="129.7" y2="26.6"/>
	</g>
	<g>
		<g>
			<defs>
				<path id="SVGID_1_" d="M102.4,67.3c-13,2-23.6,13.6-24.5,26.8c0,0.6-0.4,1.3-0.8,1.6c-5.8,4.4-9.5,10.1-11,17.2
					c-0.2,1.1-0.4,2.3-0.6,3.4v5.1c0.1,0.2,0.2,0.4,0.2,0.7c0.6,5.3,2.6,10.1,6.1,14.1c1.4,1.6,2.9,3,4.5,4.5c1.1-1.5,2.1-2.8,3-4
					c-0.2-0.2-0.4-0.4-0.5-0.5c-5.1-4.1-8-9.4-8.3-16c-0.4-9,3.1-16.1,10.5-21.2c1.2-0.9,1.8-1.8,1.8-3.2c0-2.8,0.6-5.4,1.6-8
					c6.3-16.5,27.1-21.3,40.3-9.2c0.3,0.3,0.6,0.5,0.7,0.6c1.3-1.2,2.4-2.2,3.8-3.4c-0.3-0.2-0.6-0.3-0.8-0.5
					c-6.1-5.5-13-8.4-20.8-8.4C105.9,66.9,104.2,67,102.4,67.3"/>
			</defs>
			<clipPath id="SVGID_2_">
				<use xlink:href="#SVGID_1_"  style="overflow:visible;"/>
			</clipPath>
			
				<linearGradient id="SVGID_3_" gradientUnits="userSpaceOnUse" x1="-3427.8384" y1="2377.2092" x2="-3427.5085" y2="2377.2092" gradientTransform="matrix(193.004 0 0 -193.004 661651.875 458914.4063)">
				<stop  offset="0" style="stop-color:#E300D6"/>
				<stop  offset="0.4662" style="stop-color:#4828BE"/>
				<stop  offset="1" style="stop-color:#4828BE"/>
			</linearGradient>
			<rect x="65.5" y="66.5" class="st3" width="63.7" height="74.2"/>
		</g>
		<g>
			<defs>
				<path id="SVGID_4_" d="M148.2,155.9c-0.3,0-0.7,0-1,0.1v4.9c2.7,0,5.2,0,7.8,0c0.5,0,0.9,0,1.4,0c1.5,0,2.9,0,4.4,0.2
					c5.1,0.6,8.8,5.1,8.6,10.4c-0.3,5.1-4.6,9.3-9.8,9.3c-2.5,0-4.7-1.9-5-4.4c-0.3-2.4,1.4-4.7,3.8-5.3c0.4-0.1,0.7-0.2,1.1-0.3
					v-4.8c-0.3,0-0.5,0-0.6,0c-4.4,0.2-8.2,3.5-9.1,7.9c-0.9,4.2,1.3,8.8,5.2,10.7c1,0.5,2.1,0.8,3.1,1.2h3.2
					c0.2-0.1,0.3-0.2,0.5-0.2c8-1.4,13.1-8.1,12.4-16.2c-0.6-7.4-7.2-13.2-14.9-13.2c-1.4,0-2.8,0-4.2,0
					C152.8,155.9,150.5,155.9,148.2,155.9"/>
			</defs>
			<clipPath id="SVGID_5_">
				<use xlink:href="#SVGID_4_"  style="overflow:visible;"/>
			</clipPath>
			
				<linearGradient id="SVGID_6_" gradientUnits="userSpaceOnUse" x1="-3448.5322" y1="2380.4932" x2="-3448.2021" y2="2380.4932" gradientTransform="matrix(82.1483 0 0 -82.1483 283438.3438 195724.2813)">
				<stop  offset="0" style="stop-color:#E300D6"/>
				<stop  offset="0.4662" style="stop-color:#4828BE"/>
				<stop  offset="1" style="stop-color:#4828BE"/>
			</linearGradient>
			<rect x="147.2" y="155.9" class="st4" width="27.7" height="29.7"/>
		</g>
		<g>
			<defs>
				<path id="SVGID_7_" d="M70.5,170.9c4.6-0.2,10.3,3.1,9.7,9.5c-0.4,0.1-0.7,0.1-1.1,0.1C74.4,180.5,69.8,175.7,70.5,170.9
					 M65.5,169.1v3.9c0.2,0.7,0.4,1.5,0.6,2.2c1.6,5.8,5.6,8.7,11.2,9.8c0.9,0.2,1.7,0.3,2.6,0.5h3.5c0.5-0.7,1.4-1.3,1.5-2
					c1.3-5.8-0.6-14-8.9-16.6c-1.8-0.6-3.7-0.9-5.5-1c-0.8-0.1-1.4-0.1-1.9-0.1C66.6,165.8,66.4,166.4,65.5,169.1"/>
			</defs>
			<clipPath id="SVGID_8_">
				<use xlink:href="#SVGID_7_"  style="overflow:visible;"/>
			</clipPath>
			
				<linearGradient id="SVGID_9_" gradientUnits="userSpaceOnUse" x1="-3458.6086" y1="2382.3325" x2="-3458.2786" y2="2382.3325" gradientTransform="matrix(59.8738 0 0 -59.8738 207145.6406 142815.0938)">
				<stop  offset="0" style="stop-color:#E300D6"/>
				<stop  offset="0.4662" style="stop-color:#4828BE"/>
				<stop  offset="1" style="stop-color:#4828BE"/>
			</linearGradient>
			<rect x="65.5" y="165.8" class="st5" width="20.7" height="19.8"/>
		</g>
		<g>
			<defs>
				<path id="SVGID_10_" d="M133.3,128.6c-2.7,6-0.1,12.5,5.7,14.4c1,0.3,2,0.4,3.1,0.6V141v-2.3c-3.3-0.6-5-2.4-5-5.1
					c0-3.9,3.2-7.3,7.2-7.4c6.7-0.2,11.5,6,9.8,12.7c-1.4,5.7-6.2,9.5-12.1,9.5c-9.4,0-18.8,0-28.2,0c-0.4,0-0.9,0-1.3,0v4.8
					c0.2,0,0.4,0.1,0.5,0.1c2.9,0,5.8,0,8.7,0c7.1,0,14.1,0,21.2-0.1c5.7-0.1,10.2-2.8,13.5-7.4c5.7-8.1,3.3-18.6-5-23
					c-2.1-1.1-4.3-1.6-6.5-1.6C140,121.3,135.5,123.9,133.3,128.6"/>
			</defs>
			<clipPath id="SVGID_11_">
				<use xlink:href="#SVGID_10_"  style="overflow:visible;"/>
			</clipPath>
			
				<linearGradient id="SVGID_12_" gradientUnits="userSpaceOnUse" x1="-3433.4438" y1="2378.1177" x2="-3433.114" y2="2378.1177" gradientTransform="matrix(142.2783 0 0 -142.2783 488616.9688 338491.7813)">
				<stop  offset="0" style="stop-color:#E300D6"/>
				<stop  offset="0.4662" style="stop-color:#4828BE"/>
				<stop  offset="1" style="stop-color:#4828BE"/>
			</linearGradient>
			<rect x="112.5" y="121.3" class="st6" width="49.5" height="32.2"/>
		</g>
		<g>
			<defs>
				<path id="SVGID_13_" d="M110.3,133.7c-0.2,0.8-0.2,1.5-0.3,2.4h4.9c0.1-0.4,0.2-0.7,0.2-1c0.6-2.8,3.4-4.5,6.2-3.7
					c2.7,0.8,4.2,3.7,3.3,6.4c-0.7,2.1-2.6,3.3-5,3.3c-7,0-14,0-21,0c-3.1,0-6.2,0-9.3,0h-1.4v4.9c0.2,0,0.4,0.1,0.5,0.1
					c3,0,6,0,9,0c7.7,0,15.3,0,23,0c5,0,9.2-4.2,9.4-9.1c0.3-5.4-3.2-9.8-8.6-10.6c-0.4-0.1-0.9-0.1-1.3-0.1
					C115.5,126.2,111.4,129.3,110.3,133.7"/>
			</defs>
			<clipPath id="SVGID_14_">
				<use xlink:href="#SVGID_13_"  style="overflow:visible;"/>
			</clipPath>
			
				<linearGradient id="SVGID_15_" gradientUnits="userSpaceOnUse" x1="-3435.3557" y1="2378.3489" x2="-3435.0256" y2="2378.3489" gradientTransform="matrix(127.1867 0 0 -127.1867 437019.375 302630.4688)">
				<stop  offset="0" style="stop-color:#E300D6"/>
				<stop  offset="0.4662" style="stop-color:#4828BE"/>
				<stop  offset="1" style="stop-color:#4828BE"/>
			</linearGradient>
			<rect x="87.8" y="126.2" class="st7" width="42.3" height="19.8"/>
		</g>
		<g>
			<defs>
				<path id="SVGID_16_" d="M143.8,76.8c-4.3,0.3-7.8,2.5-11.7,4c-1.2,0.5-2.2,1.5-3.4,2.3c0.5,0.8,0.9,1.6,1.4,2.3
					c0.8,1.3,2.1,1.6,3.4,0.9c0.9-0.5,1.7-1.1,2.5-1.6c5.9-4,13.9-4.1,19.7-0.2c4.3,2.9,7.1,6.9,8.6,11.9c0.2,0.7,0.6,1.6,1.1,2.1
					c1.5,1.2,3.2,2.2,4.9,3.3c1-1.2,2-2.4,3.1-3.7c-1.3-0.9-2.6-1.8-3.7-2.7c-0.4-0.3-0.7-0.8-1-1.2c-1.2-2.3-2.1-4.8-3.6-7
					c-4.8-6.8-11.1-10.5-19.3-10.5C145.2,76.7,144.5,76.7,143.8,76.8"/>
			</defs>
			<clipPath id="SVGID_17_">
				<use xlink:href="#SVGID_16_"  style="overflow:visible;"/>
			</clipPath>
			
				<linearGradient id="SVGID_18_" gradientUnits="userSpaceOnUse" x1="-3434.634" y1="2377.5005" x2="-3434.304" y2="2377.5005" gradientTransform="matrix(135.6626 0 0 -135.6626 466079.9688 322627.0313)">
				<stop  offset="0" style="stop-color:#E300D6"/>
				<stop  offset="0.4662" style="stop-color:#4828BE"/>
				<stop  offset="1" style="stop-color:#4828BE"/>
			</linearGradient>
			<rect x="128.7" y="76.7" class="st8" width="44.8" height="25.1"/>
		</g>
		<g>
			<defs>
				<path id="SVGID_19_" d="M95.4,126.1c-0.6-5.3,4.5-10.5,9.4-9.7c0.8,4.9-3.7,9.8-8.5,9.8C96,126.2,95.7,126.2,95.4,126.1
					 M91.4,120.4c-0.9,2.6-1.2,5.3-1.2,8c0,1.3,0.8,2.2,2,2.4c1.1,0.2,2.2,0.3,3.3,0.4c6.1-0.1,10.7-3,12.9-8.3
					c1.1-2.8,1.5-5.7,1.5-8.7c0-1.3-0.7-2.2-2-2.4c-1-0.2-2.1-0.3-3.2-0.3C99.6,111.4,93.6,113.8,91.4,120.4"/>
			</defs>
			<clipPath id="SVGID_20_">
				<use xlink:href="#SVGID_19_"  style="overflow:visible;"/>
			</clipPath>
			
				<linearGradient id="SVGID_21_" gradientUnits="userSpaceOnUse" x1="-3459.4756" y1="2380.491" x2="-3459.1455" y2="2380.491" gradientTransform="matrix(59.8379 0 0 -59.8379 207097.8281 142564.7656)">
				<stop  offset="0" style="stop-color:#E300D6"/>
				<stop  offset="0.4662" style="stop-color:#4828BE"/>
				<stop  offset="1" style="stop-color:#4828BE"/>
			</linearGradient>
			<rect x="90.2" y="111.4" class="st9" width="19.8" height="19.9"/>
		</g>
		<g>
			<defs>
				<path id="SVGID_22_" d="M115.7,155.9c-1,0-2.1,0-3.1,0v4.9c3.8,0,7.5,0,11.2,0c0.7,0,1.3,0,2,0.1c2.5,0.4,4.2,2.6,4,5.1
					c-0.1,2.4-2.1,4.4-4.5,4.6c-2.4,0.2-4.7-1.5-5.2-3.9c-0.1-0.3-0.1-0.7-0.2-1H115c-0.3,5.9,5.7,10.8,11.7,9.6c5-1,8.5-5.6,8-10.4
					c-0.5-5.3-4.6-9.1-9.9-9.2c-1.2,0-2.4,0-3.6,0C119.4,155.9,117.5,155.9,115.7,155.9"/>
			</defs>
			<clipPath id="SVGID_23_">
				<use xlink:href="#SVGID_22_"  style="overflow:visible;"/>
			</clipPath>
			
				<linearGradient id="SVGID_24_" gradientUnits="userSpaceOnUse" x1="-3455.1758" y1="2381.3364" x2="-3454.8459" y2="2381.3364" gradientTransform="matrix(67.1874 0 0 -67.1874 232256.8438 160162.125)">
				<stop  offset="0" style="stop-color:#E300D6"/>
				<stop  offset="0.4662" style="stop-color:#4828BE"/>
				<stop  offset="1" style="stop-color:#4828BE"/>
			</linearGradient>
			<rect x="112.6" y="155.9" class="st10" width="22.6" height="20.8"/>
		</g>
		<g>
			<defs>
				<path id="SVGID_25_" d="M178.7,114.5c1.3,6.1,0.1,11.6-3.3,16.7c-3.3,5.1-8.1,8.1-14,9.5c0.3,1.7,0.7,3.2,1,4.8
					c8.5-2,14.8-6.7,18.8-14.4c2.9-5.6,3.8-11.6,2.2-17.8C181.8,113.7,180.3,114.1,178.7,114.5"/>
			</defs>
			<clipPath id="SVGID_26_">
				<use xlink:href="#SVGID_25_"  style="overflow:visible;"/>
			</clipPath>
			
				<linearGradient id="SVGID_27_" gradientUnits="userSpaceOnUse" x1="-3455.5498" y1="2380.1333" x2="-3455.22" y2="2380.1333" gradientTransform="matrix(68.971 0 0 -68.971 238494.0469 164289.4531)">
				<stop  offset="0" style="stop-color:#E300D6"/>
				<stop  offset="0.4662" style="stop-color:#4828BE"/>
				<stop  offset="1" style="stop-color:#4828BE"/>
			</linearGradient>
			<rect x="161.4" y="113.2" class="st11" width="23.6" height="32.3"/>
		</g>
		<g>
			<defs>
				<path id="SVGID_28_" d="M174.6,150.7c0.2-2.7,2.1-4.6,4.5-4.5c-0.5,2.8-2.1,4.5-4.1,4.5C174.8,150.7,174.7,150.7,174.6,150.7
					 M169.4,153.6c0.1,1.1,0.9,1.9,2.1,2.1c7,1.3,12.7-3.5,12.7-10.8c0-2.6-0.5-3.3-2.4-3.6c-0.7-0.1-1.4-0.2-2.1-0.2
					C172.4,141.1,168.8,147.5,169.4,153.6"/>
			</defs>
			<clipPath id="SVGID_29_">
				<use xlink:href="#SVGID_28_"  style="overflow:visible;"/>
			</clipPath>
			
				<linearGradient id="SVGID_30_" gradientUnits="userSpaceOnUse" x1="-3477.9507" y1="2383.1765" x2="-3477.6208" y2="2383.1765" gradientTransform="matrix(45.062 0 0 -45.062 156892.6563 107539.6875)">
				<stop  offset="0" style="stop-color:#E300D6"/>
				<stop  offset="0.4662" style="stop-color:#4828BE"/>
				<stop  offset="1" style="stop-color:#4828BE"/>
			</linearGradient>
			<rect x="168.8" y="141.1" class="st12" width="15.4" height="15.9"/>
		</g>
		<g>
			<defs>
				<path id="SVGID_31_" d="M90.3,161.2c2.4-0.1,4.4,1.7,4.7,4.4C92.2,165.3,90.5,163.6,90.3,161.2 M87.4,156
					c-1.1,0.3-1.8,1-1.9,2.1c-0.1,1.5-0.2,3.1,0.1,4.6c1.1,5.1,5.5,8.2,11.1,8.1c2.3,0,3.1-0.9,3.3-3.1c0-0.4,0-0.8,0.1-1.2
					c0-2-0.4-3.7-1.3-5.4c-1.6-3-6-5.3-9.6-5.3C88.5,155.8,87.9,155.8,87.4,156"/>
			</defs>
			<clipPath id="SVGID_32_">
				<use xlink:href="#SVGID_31_"  style="overflow:visible;"/>
			</clipPath>
			
				<linearGradient id="SVGID_33_" gradientUnits="userSpaceOnUse" x1="-3474.927" y1="2383.9519" x2="-3474.5969" y2="2383.9519" gradientTransform="matrix(44.5012 0 0 -44.5012 154723.6563 106251.9531)">
				<stop  offset="0" style="stop-color:#E300D6"/>
				<stop  offset="0.4662" style="stop-color:#4828BE"/>
				<stop  offset="1" style="stop-color:#4828BE"/>
			</linearGradient>
			<rect x="85.3" y="155.8" class="st13" width="14.8" height="15.1"/>
		</g>
		<g>
			<defs>
				<rect id="SVGID_34_" x="97.7" y="148.6" width="9.7" height="4.8"/>
			</defs>
			<clipPath id="SVGID_35_">
				<use xlink:href="#SVGID_34_"  style="overflow:visible;"/>
			</clipPath>
			
				<linearGradient id="SVGID_36_" gradientUnits="userSpaceOnUse" x1="-3506.8047" y1="2387.1541" x2="-3506.4746" y2="2387.1541" gradientTransform="matrix(29.4852 0 0 -29.4852 103496.4922 70536.6016)">
				<stop  offset="0" style="stop-color:#E300D6"/>
				<stop  offset="0.4662" style="stop-color:#4828BE"/>
				<stop  offset="1" style="stop-color:#4828BE"/>
			</linearGradient>
			<rect x="97.7" y="148.6" class="st14" width="9.7" height="4.8"/>
		</g>
		<g>
			<defs>
				<path id="SVGID_37_" d="M174,105.5c1.1,1.6,2.1,3.1,3.2,4.7c1.4-0.7,2.8-1.5,4.4-2.3c-1.3-1.9-2.5-3.7-3.7-5.6
					C176.4,103.5,175.2,104.5,174,105.5"/>
			</defs>
			<clipPath id="SVGID_38_">
				<use xlink:href="#SVGID_37_"  style="overflow:visible;"/>
			</clipPath>
			
				<linearGradient id="SVGID_39_" gradientUnits="userSpaceOnUse" x1="-3540.2686" y1="2386.4028" x2="-3539.9385" y2="2386.4028" gradientTransform="matrix(22.8974 0 0 -22.8974 81236.9844 54748.7148)">
				<stop  offset="0" style="stop-color:#E300D6"/>
				<stop  offset="0.4662" style="stop-color:#4828BE"/>
				<stop  offset="1" style="stop-color:#4828BE"/>
			</linearGradient>
			<rect x="174" y="102.3" class="st15" width="7.6" height="7.9"/>
		</g>
		<g>
			<defs>
				<rect id="SVGID_40_" x="77.9" y="141.2" width="4.8" height="4.7"/>
			</defs>
			<clipPath id="SVGID_41_">
				<use xlink:href="#SVGID_40_"  style="overflow:visible;"/>
			</clipPath>
			
				<linearGradient id="SVGID_42_" gradientUnits="userSpaceOnUse" x1="-3598.1826" y1="2397.4404" x2="-3597.8528" y2="2397.4404" gradientTransform="matrix(14.6385 0 0 -14.6385 52749.832 35238.4063)">
				<stop  offset="0" style="stop-color:#E300D6"/>
				<stop  offset="0.4662" style="stop-color:#4828BE"/>
				<stop  offset="1" style="stop-color:#4828BE"/>
			</linearGradient>
			<rect x="77.9" y="141.2" class="st16" width="4.8" height="4.7"/>
		</g>
		<g>
			<defs>
				<rect id="SVGID_43_" x="137.3" y="156" width="4.8" height="4.8"/>
			</defs>
			<clipPath id="SVGID_44_">
				<use xlink:href="#SVGID_43_"  style="overflow:visible;"/>
			</clipPath>
			
				<linearGradient id="SVGID_45_" gradientUnits="userSpaceOnUse" x1="-3606.1475" y1="2399.4663" x2="-3605.8174" y2="2399.4663" gradientTransform="matrix(14.6587 0 0 -14.6587 52998.8477 35331.5313)">
				<stop  offset="0" style="stop-color:#E300D6"/>
				<stop  offset="0.4662" style="stop-color:#4828BE"/>
				<stop  offset="1" style="stop-color:#4828BE"/>
			</linearGradient>
			<rect x="137.3" y="156" class="st17" width="4.8" height="4.8"/>
		</g>
		<g>
			<defs>
				<rect id="SVGID_46_" x="68.1" y="141.2" width="4.8" height="4.8"/>
			</defs>
			<clipPath id="SVGID_47_">
				<use xlink:href="#SVGID_46_"  style="overflow:visible;"/>
			</clipPath>
			
				<linearGradient id="SVGID_48_" gradientUnits="userSpaceOnUse" x1="-3598.8679" y1="2397.6838" x2="-3598.5381" y2="2397.6838" gradientTransform="matrix(14.4759 0 0 -14.4759 52164.8516 34852.1484)">
				<stop  offset="0" style="stop-color:#E300D6"/>
				<stop  offset="0.4662" style="stop-color:#4828BE"/>
				<stop  offset="1" style="stop-color:#4828BE"/>
			</linearGradient>
			<rect x="68.1" y="141.2" class="st18" width="4.8" height="4.8"/>
		</g>
		<g>
			<defs>
				<rect id="SVGID_49_" x="102.6" y="156" width="4.8" height="4.8"/>
			</defs>
			<clipPath id="SVGID_50_">
				<use xlink:href="#SVGID_49_"  style="overflow:visible;"/>
			</clipPath>
			
				<linearGradient id="SVGID_51_" gradientUnits="userSpaceOnUse" x1="-3602.0371" y1="2399.5525" x2="-3601.707" y2="2399.5525" gradientTransform="matrix(14.6051 0 0 -14.6051 52710.6836 35204.0469)">
				<stop  offset="0" style="stop-color:#E300D6"/>
				<stop  offset="0.4662" style="stop-color:#4828BE"/>
				<stop  offset="1" style="stop-color:#4828BE"/>
			</linearGradient>
			<rect x="102.6" y="156" class="st19" width="4.8" height="4.8"/>
		</g>
	</g>
</g>
</svg>
