<?xml version="1.0" encoding="utf-8"?>
<!-- Generator: Adobe Illustrator 19.1.0, SVG Export Plug-In . SVG Version: 6.00 Build 0)  -->
<svg version="1.1" id="Layer_1" xmlns="http://www.w3.org/2000/svg" xmlns:xlink="http://www.w3.org/1999/xlink" x="0px" y="0px"
	 viewBox="0 0 250 250" style="enable-background:new 0 0 250 250;" xml:space="preserve">
<style type="text/css">
	.st0{opacity:0.3;}
	.st1{fill:#FFFFFD;}
	.st2{fill:none;stroke:#F4EEE9;stroke-width:9.3745;stroke-linecap:round;stroke-miterlimit:10;}
	.st3{clip-path:url(#SVGID_2_);fill:url(#SVGID_3_);}
	.st4{clip-path:url(#SVGID_5_);fill:url(#SVGID_6_);}
	.st5{clip-path:url(#SVGID_8_);fill:url(#SVGID_9_);}
	.st6{clip-path:url(#SVGID_11_);fill:url(#SVGID_12_);}
	.st7{clip-path:url(#SVGID_14_);fill:url(#SVGID_15_);}
	.st8{clip-path:url(#SVGID_17_);fill:url(#SVGID_18_);}
	.st9{clip-path:url(#SVGID_20_);fill:url(#SVGID_21_);}
</style>
<g>
	<g>
		<g>
			<g class="st0">
				<path d="M196.9,244.8H57.7c-23.4,0-42.4-19-42.4-42.4V61.7c0-23.4,19-42.4,42.4-42.4h139.2c23.4,0,42.4,19,42.4,42.4v140.6
					C239.4,225.8,220.4,244.8,196.9,244.8z"/>
			</g>
			<g>
				<path class="st1" d="M194.6,237.7H55.4c-23.4,0-42.4-19-42.4-42.4V54.7c0-23.4,19-42.4,42.4-42.4h139.2
					c23.4,0,42.4,19,42.4,42.4v140.6C237,218.7,218,237.7,194.6,237.7z"/>
			</g>
		</g>
		<path class="st2" d="M27.2,69c0-23.4,19-42.4,42.4-42.4h16.5"/>
		<path class="st2" d="M222.8,181c0,23.4-19,42.4-42.4,42.4"/>
		<line class="st2" x1="105.8" y1="26.6" x2="129.7" y2="26.6"/>
	</g>
	<g>
		<g>
			<defs>
				<path id="SVGID_1_" d="M146.4,183.9c-1.8,0-3.1-1.3-3.3-3.2c-0.1-1.1,0-2.2,0-3.2c5.1-0.6,10.2-1.2,15.4-1.8
					c0,1.8,0.1,3.5,0,5.3c-0.1,1.6-1.6,2.8-3.3,2.9c-1.5,0-2.9,0-4.4,0C149.3,184,147.9,184,146.4,183.9 M80,183.9
					c-1.8,0-3.3-1.3-3.4-3.1c-0.1-1.7,0-3.4,0-5.1c5.2,0.6,10.2,1.2,15.5,1.8c-0.1,1.2,0,2.5-0.2,3.7c-0.3,1.5-1.6,2.6-3.2,2.6
					c-1.5,0-2.9,0-4.4,0C82.8,184,81.4,184,80,183.9 M107,172.2c7-0.1,14,0,21,0c1.9,0,3.5,1,4.8,2.6h-30.6
					C103.6,173.1,105.1,172.2,107,172.2 M95.6,174.6c-6.4-0.5-12.8-0.9-19.1-2.2c-3.1-0.6-4.5-2.3-4.5-5.4c0-4.8,0-9.7,0-14.5
					c0-3,0.9-5.5,3.1-7.5c3.1-2.9,5.4-6.4,7.3-10.2c2.7-5.4,5.9-10.5,8.9-15.7c0.9-1.5,2.3-2.4,3.9-3c14.9-5.3,29.8-5.3,44.7,0
					c1.7,0.6,3.2,1.6,4.1,3.1c3.1,5.4,6.4,10.8,9.2,16.3c1.6,3.2,3.4,6.1,6,8.5c2.9,2.6,4.1,5.8,3.9,9.6c-0.1,2,0,3.9,0,5.9
					c0,2.6,0,5.2,0,7.8c0,2.6-1.4,4.4-3.9,5c-7.1,1.6-14.4,2-21.6,2.3c-0.4,0-0.9-0.2-1.1-0.5c-2.9-4.1-6.9-5.3-11.8-5
					c-5.4,0.3-10.8,0.1-16.2,0c-3.5-0.1-6.4,1-8.4,3.8c-1,1.3-2.1,1.7-3.6,1.7C96.1,174.7,95.9,174.6,95.6,174.6 M93.5,113.5
					c-1.7,0.6-3.1,1.6-4.2,3.1c-0.7,1-1.5,2-2.1,3.1c-3,5.4-6,10.8-8.9,16.3c-0.5,0.9-1,1.3-2,1.2c-2.1-0.3-4.2-0.4-6.2-0.6
					c-1.4-0.1-2.5-0.8-2.7-2.2c-0.3-2-0.3-3.7,1.2-4.5c1.2-0.7,2.4-1.4,3.7-1.8c1.7-0.6,3.1,0.4,3.3,2.2c0.1,0.5,0.1,1,0.2,1.5
					c0.1,0.9,0.7,1.3,1.6,1.3c0.9,0,1.4-0.6,1.4-1.5c0-0.5-0.1-1.1-0.1-1.6c-0.3-3.6-3.7-5.9-7.1-4.8c-1.3,0.4-2.6,1.1-3.8,1.8
					c-3.3,1.9-3.7,4.4-3.2,8c0.4,2.8,2.4,4.3,5.8,4.8c1.7,0.2,3.3,0.4,5,0.6c0.1,0.2,0.2,0.3,0.4,0.5c-0.9,0.7-1.9,1.4-2.7,2.2
					c-2.6,2.6-3.9,5.8-3.9,9.5c0,5.1,0,10.1,0,15.2c0,2.2,0.6,4.4,2.5,5.6c2.1,1.3,2.2,3,2.1,5.1c-0.1,0.7,0,1.3,0,2
					c0,3.9,2.8,6.7,6.7,6.7c2.6,0,5.3,0,7.9,0c4.1,0,6.8-2.7,6.9-6.8c0-0.8,0-1.6,0-2.3h45c0,0.9,0,1.8,0,2.7
					c0.2,3.8,2.9,6.5,6.7,6.5c2.8,0,5.5,0,8.3,0c3.6,0,6.4-2.8,6.5-6.4c0-1.6,0-3.3,0-4.9c0-0.5,0.4-1.1,0.8-1.3
					c2.4-1.6,3.7-3.8,3.7-6.7c0-5.1,0-10.3,0-15.4c0-3.6-1.3-6.6-3.7-9.2c-0.8-0.9-1.7-1.7-2.6-2.7c2.3-0.3,4.5-0.5,6.6-1
					c2.2-0.4,3.8-1.8,4.2-4c0.9-4.2,0.1-6.8-3.4-8.7c-1-0.5-2-1-3.1-1.4c-4.3-1.5-8.4,2-7.6,6.5c0.1,0.5,0.8,1.2,1.3,1.2
					c0.5,0,1.2-0.5,1.5-1c0.3-0.4,0.2-1.1,0.3-1.7c0.2-1.8,1.6-2.8,3.3-2.2c1.3,0.5,2.6,1.1,3.8,1.9c1.7,1.1,1.4,2.9,1.1,4.5
					c-0.2,1.4-1.3,2.1-2.7,2.2c-2.1,0.2-4.2,0.4-6.2,0.6c-1.1,0.1-1.6-0.3-2.1-1.2c-3.1-6.5-6.4-12.8-10.5-18.7
					c-1.2-1.7-2.8-3-4.8-3.7c-7.9-2.9-15.9-4.3-23.8-4.3C109.5,109.2,101.5,110.6,93.5,113.5"/>
			</defs>
			<clipPath id="SVGID_2_">
				<use xlink:href="#SVGID_1_"  style="overflow:visible;"/>
			</clipPath>
			
				<linearGradient id="SVGID_3_" gradientUnits="userSpaceOnUse" x1="-3415.6353" y1="2372.8354" x2="-3415.3052" y2="2372.8354" gradientTransform="matrix(323.2031 0 0 -323.2031 1104008.25 767055.875)">
				<stop  offset="0" style="stop-color:#E300D6"/>
				<stop  offset="0.4662" style="stop-color:#4828BE"/>
				<stop  offset="1" style="stop-color:#4828BE"/>
			</linearGradient>
			<rect x="63.9" y="109.2" class="st3" width="107.6" height="77.8"/>
		</g>
		<g>
			<defs>
				<path id="SVGID_4_" d="M157,104.2c-4.6-3.3-7.3-7.4-7.2-13.3c0.1-3.6,0-7.2,0-10.8V79c2.9-0.2,5.7-0.3,8.5-0.7
					c1.4-0.2,2.7-0.9,4.1-1.4c0.3-0.1,0.8-0.2,1.1-0.1c3.7,2,7.7,2.1,11.7,1.9c0.3,0,0.6-0.1,1.1-0.1v1.4c0,3.6-0.1,7.3,0,10.9
					c0.1,5.9-2.7,10-7.3,13.3c-2,1.4-4,2.2-6,2.2C161.1,106.4,159.1,105.7,157,104.2 M161.6,67.7c0,2.1,0,3.9,0,5.8
					c0,0.4-0.5,0.9-0.9,1c-2,0.5-4,1.1-6.1,1.3c-1.8,0.2-3.7-0.1-5.6-0.3c-1.4-0.1-2.1,0.3-2.1,1.7c0,5.1-0.2,10.1,0.1,15.2
					c0.4,8.1,5.1,13.1,12.2,16.3c2.4,1.1,2.4,1,2.4,3.6v4.1c-3.4-1-6.3-2.4-9.1-4.3c-5.9-4.1-9.9-9.5-11.2-16.7c-0.2-1-0.2-2-0.2-3
					c0-7.1,0-14.1,0-21.2c0-0.3,0-0.7,0.1-1.1c2.3,0.2,4.7,0.4,7,0.4C152.7,70.5,157.2,69.9,161.6,67.7 M167.4,75.2
					c-0.5-0.1-1-0.4-1.5-0.5c-1-0.3-1.4-1-1.3-2.1c0.1-1.6,0-3.2,0-4.9c6.6,3.3,13.4,3.1,20.5,2.4v1.4c0,6.4-0.1,12.7,0,19.1
					c0.2,10-4.5,17.1-12.6,22.3c-2.4,1.5-5,2.7-7.9,3.5c0-2.2,0-4.2,0-6.2c0-0.3,0.6-0.8,1-0.9c4.6-1.7,8.4-4.3,11-8.5
					c1.7-2.7,2.6-5.6,2.6-8.9c0-4.8,0-9.5,0-14.3c0-1.8-0.6-2.3-2.4-2.1c-1.5,0.2-2.9,0.3-4.4,0.3C170.8,75.9,169.1,75.7,167.4,75.2
					 M161.9,63.7c-1.8,1.6-3.9,2.5-6.2,3c-5,1.1-9.9,1-14.9,0.3c-2.1-0.3-2.6,0.1-2.6,2.2c0,4.2,0,8.4,0,12.5c0,3.5,0,6.9,0,10.4
					c0,3.2,0.5,6.3,1.8,9.3c4.3,10,12.2,15.6,22.4,18.4c0.7,0.2,1.5,0.1,2.2-0.1c4-1,7.7-2.6,11-5c8.2-5.8,12.8-13.5,12.7-23.8
					c-0.1-7.2,0-14.5,0-21.7c0-2.1-0.5-2.4-2.6-2.3c-3.7,0.2-7.3,0.5-11,0.4c-3.8-0.2-7.4-1.1-10.4-3.7c-0.3-0.3-0.7-0.4-1-0.4
					C162.7,63.1,162.3,63.3,161.9,63.7"/>
			</defs>
			<clipPath id="SVGID_5_">
				<use xlink:href="#SVGID_4_"  style="overflow:visible;"/>
			</clipPath>
			
				<linearGradient id="SVGID_6_" gradientUnits="userSpaceOnUse" x1="-3418.4763" y1="2368.4941" x2="-3418.1465" y2="2368.4941" gradientTransform="matrix(151.5818 0 0 -151.5818 518316.8438 359112.0625)">
				<stop  offset="0" style="stop-color:#E300D6"/>
				<stop  offset="0.4662" style="stop-color:#4828BE"/>
				<stop  offset="1" style="stop-color:#4828BE"/>
			</linearGradient>
			<rect x="138.1" y="63.1" class="st4" width="50.2" height="56.8"/>
		</g>
		<g>
			<defs>
				<path id="SVGID_7_" d="M97,118c-1.8,0.5-3.1,1.5-4.1,3c-3.2,4.9-5.7,10.1-7.7,15.5c-0.6,1.6,0.2,2.5,1.9,2.4
					c6.1-0.3,12.3-0.8,18.4-0.9c8.8-0.1,17.6,0,26.4,0c1.1,0,1.8-0.3,2-1.4c0.1-0.9-0.7-1.6-1.8-1.6c-12.8,0.1-25.6,0.3-38.3,0.4
					c-1.6,0-3.2,0.2-4.9,0.3c1.9-4.8,4-9.2,6.9-13.2c0.5-0.7,1.5-1.3,2.3-1.6c6-1.7,12-2.8,18.2-2.9c7.1-0.2,14,1.1,20.9,2.9
					c0.9,0.2,1.8,0.8,2.4,1.5c2.9,4,5,8.5,7,13.3c-0.6,0-1,0-1.3-0.1c-1-0.1-1.8,0.2-1.9,1.3c-0.1,1.1,0.6,1.6,1.6,1.7
					c1.2,0.1,2.3,0.2,3.5,0.3c1.5,0.1,2.3-0.9,1.8-2.3c-2.1-5.5-4.5-10.9-7.8-15.8c-1-1.4-2.3-2.4-4-2.9c-6.4-1.7-12.9-2.9-19.6-3.1
					c-0.4,0-0.7,0-1.1,0C110.5,115,103.7,116.3,97,118"/>
			</defs>
			<clipPath id="SVGID_8_">
				<use xlink:href="#SVGID_7_"  style="overflow:visible;"/>
			</clipPath>
			
				<linearGradient id="SVGID_9_" gradientUnits="userSpaceOnUse" x1="-3416.8901" y1="2370.6035" x2="-3416.5601" y2="2370.6035" gradientTransform="matrix(197.4557 0 0 -197.4557 674769.5 468216.3125)">
				<stop  offset="0" style="stop-color:#E300D6"/>
				<stop  offset="0.4662" style="stop-color:#4828BE"/>
				<stop  offset="1" style="stop-color:#4828BE"/>
			</linearGradient>
			<rect x="84.6" y="115" class="st5" width="65.9" height="24.1"/>
		</g>
		<g>
			<defs>
				<path id="SVGID_10_" d="M131.8,154.8c1.6,0,2.1,0.5,1.4,2c-1.3,2.8-3.4,4.9-6.6,5c-6,0.1-12.1,0.1-18.1,0
					c-3.2-0.1-5.4-2.1-6.7-4.9c-0.7-1.5-0.2-2.1,1.5-2.1c4.8,0,9.5,0,14.3,0c0,0,0,0,0,0c2.7,0,5.3,0,8,0
					C127.6,154.8,129.7,154.8,131.8,154.8 M98.9,157.8c1.4,3.6,4.6,6.9,9.3,7.1c6.2,0.2,12.4,0.1,18.5,0c4.2-0.1,8.3-3.5,9.5-7.4
					c1-3.4-0.9-5.7-4.5-5.7c-4.8,0.1-9.5,0-14.3,0c0,0,0,0,0,0c-4.7,0-9.4,0.2-14.1-0.1c-0.1,0-0.2,0-0.4,0
					C100.1,151.7,97.5,153.9,98.9,157.8"/>
			</defs>
			<clipPath id="SVGID_11_">
				<use xlink:href="#SVGID_10_"  style="overflow:visible;"/>
			</clipPath>
			
				<linearGradient id="SVGID_12_" gradientUnits="userSpaceOnUse" x1="-3419.1909" y1="2367.3052" x2="-3418.8608" y2="2367.3052" gradientTransform="matrix(115.2333 0 0 -115.2333 394103.2813 272950.8125)">
				<stop  offset="0" style="stop-color:#E300D6"/>
				<stop  offset="0.4662" style="stop-color:#4828BE"/>
				<stop  offset="1" style="stop-color:#4828BE"/>
			</linearGradient>
			<rect x="97.5" y="151.7" class="st6" width="39.8" height="13.3"/>
		</g>
		<g>
			<defs>
				<path id="SVGID_13_" d="M147.4,158.2c-0.9-0.9-2.2-1.4-3.4-2.1c-0.3-0.2-0.8-0.3-0.9-0.6c-0.3-0.5-0.5-1.1-0.5-1.7
					c0-0.2,0.7-0.4,1.1-0.5c3.5-0.8,7-1.6,10.5-2.4c1.9-0.5,3.2,0.4,3.2,2.4c0,0.5,0,1,0,1.5c0,0,0,0,0,0c0,0.6,0,1.2,0,1.8
					c-0.1,1.1-0.7,1.9-1.7,2.2c-1,0.3-2,0.5-3,0.8c-0.6,0.2-1.1,0.2-1.7,0.2C149.7,159.9,148.5,159.4,147.4,158.2 M153.6,147.9
					c-4.1,1-8.2,1.8-12.3,2.8c-0.6,0.1-1.3,0.6-1.5,1c-1.1,2.4,0.3,5.7,2.6,7c1.5,0.8,2.9,1.9,4.3,2.9c1.1,0.8,2.3,1.5,3.7,1.3
					c2.2-0.3,4.4-0.7,6.5-1.3c1.9-0.6,3-2,3.4-4c0.2-0.9,0.2-1.9,0.2-2.9c0,0-0.1,0-0.1,0c0-0.7,0.1-1.3,0-2c-0.3-3-2.5-5-5.3-5
					C154.6,147.7,154.1,147.8,153.6,147.9"/>
			</defs>
			<clipPath id="SVGID_14_">
				<use xlink:href="#SVGID_13_"  style="overflow:visible;"/>
			</clipPath>
			
				<linearGradient id="SVGID_15_" gradientUnits="userSpaceOnUse" x1="-3424.6252" y1="2360.2715" x2="-3424.2952" y2="2360.2715" gradientTransform="matrix(64.0985 0 0 -64.0985 219652.8594 151445.375)">
				<stop  offset="0" style="stop-color:#E300D6"/>
				<stop  offset="0.4662" style="stop-color:#4828BE"/>
				<stop  offset="1" style="stop-color:#4828BE"/>
			</linearGradient>
			<rect x="138.6" y="147.7" class="st7" width="21.9" height="15.4"/>
		</g>
		<g>
			<defs>
				<path id="SVGID_16_" d="M84.9,159.8c-2-0.1-4.1-0.6-6-1.3c-1.5-0.6-1.1-2.3-1.4-3.8c0.3-1,0.5-2.2,0.9-3.1
					c0.4-0.8,1.2-1,2.1-0.8c3.6,0.9,7.1,1.6,10.7,2.5c0.5,0.1,1.3,0.6,1.2,0.8c-0.2,0.7-0.5,1.4-1,1.8c-0.7,0.6-1.7,0.9-2.5,1.4
					c-0.5,0.3-0.9,0.7-1.3,0.9C86.7,158.7,85.8,159.8,84.9,159.8C84.9,159.8,84.9,159.8,84.9,159.8 M76.4,149.1
					c-1.6,1.5-1.9,3.5-1.7,5.6c0,0.6,0,1.4,0,2.1c0.2,2.4,1.4,4.1,3.6,4.8c1.9,0.6,3.9,1,5.8,1.3c1.8,0.3,3.2-0.4,4.6-1.6
					c0.9-0.8,1.9-1.6,3-2.1c3.2-1.6,4.2-3.4,3.8-6.9c-0.1-0.9-0.7-1.4-1.5-1.6c-4.4-0.9-8.7-1.9-13.1-2.9c-0.4-0.1-0.8-0.1-1.2-0.1
					C78.5,147.6,77.4,148.1,76.4,149.1"/>
			</defs>
			<clipPath id="SVGID_17_">
				<use xlink:href="#SVGID_16_"  style="overflow:visible;"/>
			</clipPath>
			
				<linearGradient id="SVGID_18_" gradientUnits="userSpaceOnUse" x1="-3422.6365" y1="2360.1587" x2="-3422.3066" y2="2360.1587" gradientTransform="matrix(63.648 0 0 -63.648 217918.6094 150374.7656)">
				<stop  offset="0" style="stop-color:#E300D6"/>
				<stop  offset="0.4662" style="stop-color:#4828BE"/>
				<stop  offset="1" style="stop-color:#4828BE"/>
			</linearGradient>
			<rect x="74.5" y="147.6" class="st8" width="21.5" height="15.5"/>
		</g>
		<g>
			<defs>
				<path id="SVGID_19_" d="M137,136.8c0,0.9,0.7,1.5,1.8,1.5c1.1,0,1.8-0.5,1.8-1.5c0-1.1-0.7-1.5-1.7-1.5c0,0-0.1,0-0.1,0
					C137.7,135.3,137,136,137,136.8"/>
			</defs>
			<clipPath id="SVGID_20_">
				<use xlink:href="#SVGID_19_"  style="overflow:visible;"/>
			</clipPath>
			
				<linearGradient id="SVGID_21_" gradientUnits="userSpaceOnUse" x1="-3477.6687" y1="2277.5642" x2="-3477.3386" y2="2277.5642" gradientTransform="matrix(10.6221 0 0 -10.6221 37077.2344 24329.4258)">
				<stop  offset="0" style="stop-color:#E300D6"/>
				<stop  offset="0.4662" style="stop-color:#4828BE"/>
				<stop  offset="1" style="stop-color:#4828BE"/>
			</linearGradient>
			<rect x="137" y="135.3" class="st9" width="3.5" height="3"/>
		</g>
	</g>
</g>
</svg>
