<?xml version="1.0" encoding="utf-8"?>
<!-- Generator: Adobe Illustrator 19.1.0, SVG Export Plug-In . SVG Version: 6.00 Build 0)  -->
<svg version="1.1" id="Layer_1" xmlns="http://www.w3.org/2000/svg" xmlns:xlink="http://www.w3.org/1999/xlink" x="0px" y="0px"
	 viewBox="0 0 250 250" style="enable-background:new 0 0 250 250;" xml:space="preserve">
<style type="text/css">
	.st0{opacity:0.3;}
	.st1{fill:#FFFFFD;}
	.st2{fill:none;stroke:#F4EEE9;stroke-width:9.3745;stroke-linecap:round;stroke-miterlimit:10;}
	.st3{clip-path:url(#SVGID_2_);fill:url(#SVGID_3_);}
	.st4{clip-path:url(#SVGID_5_);fill:url(#SVGID_6_);}
	.st5{clip-path:url(#SVGID_8_);fill:url(#SVGID_9_);}
	.st6{clip-path:url(#SVGID_11_);fill:url(#SVGID_12_);}
	.st7{clip-path:url(#SVGID_14_);fill:url(#SVGID_15_);}
	.st8{clip-path:url(#SVGID_17_);fill:url(#SVGID_18_);}
	.st9{clip-path:url(#SVGID_20_);fill:url(#SVGID_21_);}
	.st10{clip-path:url(#SVGID_23_);fill:url(#SVGID_24_);}
	.st11{clip-path:url(#SVGID_26_);fill:url(#SVGID_27_);}
	.st12{clip-path:url(#SVGID_29_);fill:url(#SVGID_30_);}
	.st13{clip-path:url(#SVGID_32_);fill:url(#SVGID_33_);}
	.st14{clip-path:url(#SVGID_35_);fill:url(#SVGID_36_);}
	.st15{clip-path:url(#SVGID_38_);fill:url(#SVGID_39_);}
</style>
<g>
	<g>
		<g>
			<g class="st0">
				<path d="M196.9,244.8H57.7c-23.4,0-42.4-19-42.4-42.4V61.7c0-23.4,19-42.4,42.4-42.4h139.2c23.4,0,42.4,19,42.4,42.4v140.6
					C239.4,225.8,220.4,244.8,196.9,244.8z"/>
			</g>
			<g>
				<path class="st1" d="M194.6,237.7H55.4c-23.4,0-42.4-19-42.4-42.4V54.7c0-23.4,19-42.4,42.4-42.4h139.2
					c23.4,0,42.4,19,42.4,42.4v140.6C237,218.7,218,237.7,194.6,237.7z"/>
			</g>
		</g>
		<path class="st2" d="M27.2,69c0-23.4,19-42.4,42.4-42.4h16.5"/>
		<path class="st2" d="M222.8,181c0,23.4-19,42.4-42.4,42.4"/>
		<line class="st2" x1="105.8" y1="26.6" x2="129.7" y2="26.6"/>
	</g>
	<g>
		<g>
			<defs>
				<path id="SVGID_1_" d="M130.1,76h35v10.4h-1.7v-6.9h-3.5v6.9h-3.5v-6.9h-3.5v6.9h-3.5v-6.9h-3.5v6.9h-3.5v-6.9h-3.5v6.9h-3.5
					v-6.9h-3.5v6.9h-1.7V76z M128.5,72.4c-1.4,0-2,0.7-2,2c0,4.5,0,9,0,13.5c0,1.4,0.7,2,2,2c1,0,2.1,0,3.2,0c0,2.6,0.1,5,0,7.4
					c-0.1,1.7-1.6,3-3.3,3.1c-0.8,0.1-1.5,0.1-2.3,0.2c0.3,1.2,0.6,2.3,0.9,3.4c0.4,0,0.7-0.1,1-0.1c4.8-0.3,7.4-3,7.4-7.8
					c0-2,0-4.1,0-6.1h24.5c0.4,3.5-0.6,7.1,0.9,10.5h-13.1v3.5c0.5,0,0.9,0,1.3,0c6,0,11.9,0,17.9,0c2.7,0,5,1.7,5.2,4.4
					c0.3,2.6,0.1,5.2,0.1,8h-33.2v3.4H172V162h-26.2v3.5h26.3c0,1.1,0,2.2,0,3.2c0,3.3-2.2,5.5-5.6,5.6c-3,0-6,0-9,0
					c-0.4,0-0.8,0-1.2,0v3.5c3.3,0,6.5,0,9.7,0c5.9,0,9.6-3.6,9.6-9.6c0-19.4-0.1-38.8,0-58.2c0-5.8-4.2-9.6-9-9.6
					c-1.9,0-3.3-1.6-3.4-3.5c0-2.1,0-4.2,0-6.3c0-0.2,0.1-0.5,0.1-0.8c1.1,0,2.1,0,3.1,0c1.4,0,2-0.7,2-2c0-4.5,0-9,0-13.5
					c0-1.4-0.7-2-2-2c-6.3,0-12.7,0-19,0C141.2,72.4,134.8,72.4,128.5,72.4"/>
			</defs>
			<clipPath id="SVGID_2_">
				<use xlink:href="#SVGID_1_"  style="overflow:visible;"/>
			</clipPath>
			
				<linearGradient id="SVGID_3_" gradientUnits="userSpaceOnUse" x1="-3409.2925" y1="2386.8621" x2="-3408.9622" y2="2386.8621" gradientTransform="matrix(150.4421 0 0 -150.4421 513027.1563 359209.6875)">
				<stop  offset="0" style="stop-color:#E300D6"/>
				<stop  offset="0.4662" style="stop-color:#4828BE"/>
				<stop  offset="1" style="stop-color:#4828BE"/>
			</linearGradient>
			<rect x="126" y="72.4" class="st3" width="49.7" height="105.3"/>
		</g>
		<g>
			<defs>
				<path id="SVGID_4_" d="M107.2,125.2h28v3.4h-28V125.2z M110.8,114.7h20.9v6.9H130v-5.1h-3.5v5.1H123v-5.1h-3.5v5.1H116v-5.1
					h-3.5v5.1h-1.7V114.7z M114.2,109.4h13.9v1.6h-13.9V109.4z M112.7,105.8c-1.4,0-2,0.6-2,2c0,1.1,0,2.1,0,3.2
					c-0.2,0-0.4,0.1-0.5,0.1c-2.2-0.2-3.2,0.3-3,3.2c0,0.5,0,1,0,1.5v5.9c-0.7,0-1.2,0-1.8,0c-1,0.1-1.7,0.7-1.7,1.7
					c0,2.3,0,4.7,0,7c0,1,0.7,1.7,1.7,1.7c0.6,0,1.1,0,1.8,0v8.7h3.5v-8.7h21v19.2h3.5v-19.2c0.6,0,1.1,0,1.6,0
					c1.2,0,1.9-0.7,1.9-1.8c0-2.3,0-4.6,0-6.9c0-1.1-0.7-1.7-1.8-1.8c-0.5,0-1.1,0-1.7,0c0-2.7,0-5.2,0-7.7c0-2.4-0.4-2.8-2.7-2.8
					c-0.2,0-0.4,0-0.8,0c0-1.1,0-2.2,0-3.2c0-1.4-0.7-2-2-2c-2.9,0-5.7,0-8.6,0C118.3,105.8,115.5,105.8,112.7,105.8"/>
			</defs>
			<clipPath id="SVGID_5_">
				<use xlink:href="#SVGID_4_"  style="overflow:visible;"/>
			</clipPath>
			
				<linearGradient id="SVGID_6_" gradientUnits="userSpaceOnUse" x1="-3406.9216" y1="2391.4133" x2="-3406.5916" y2="2391.4133" gradientTransform="matrix(106.4762 0 0 -106.4762 362859.875 254757.3125)">
				<stop  offset="0" style="stop-color:#E300D6"/>
				<stop  offset="0.4662" style="stop-color:#4828BE"/>
				<stop  offset="1" style="stop-color:#4828BE"/>
			</linearGradient>
			<rect x="103.6" y="105.8" class="st4" width="35.2" height="45.6"/>
		</g>
		<g>
			<defs>
				<path id="SVGID_7_" d="M77.8,144.4c-4.6,0-7.5,2.9-7.5,7.5c0,6.1,0,12.1,0,18.2c0,4.7,2.9,7.6,7.6,7.6c11.7,0,23.4,0,35.1,0
					c0.4,0,0.8,0,1.1,0v-3.5c-0.5,0-0.9,0-1.4,0c-11.7,0-23.4,0-35.1,0c-2.3,0-3.8-1.4-3.9-3.6c0-6.4,0-12.8,0-19.2
					c0-2,1.5-3.5,3.5-3.5c14.6,0,29.2,0,43.8,0c2.1,0,3.5,1.5,3.6,3.6c0,0.5,0,1.1,0,1.6h3.4c0.6-5.2-2.4-8.8-7.5-8.8
					c-6.7,0-13.5,0-20.2,0C92.9,144.4,85.4,144.4,77.8,144.4"/>
			</defs>
			<clipPath id="SVGID_8_">
				<use xlink:href="#SVGID_7_"  style="overflow:visible;"/>
			</clipPath>
			
				<linearGradient id="SVGID_9_" gradientUnits="userSpaceOnUse" x1="-3409.3203" y1="2385.7266" x2="-3408.9902" y2="2385.7266" gradientTransform="matrix(175.5189 0 0 -175.5189 598470.4375 418901.2188)">
				<stop  offset="0" style="stop-color:#E300D6"/>
				<stop  offset="0.4662" style="stop-color:#4828BE"/>
				<stop  offset="1" style="stop-color:#4828BE"/>
			</linearGradient>
			<rect x="70.3" y="144.4" class="st5" width="58.5" height="33.4"/>
		</g>
		<g>
			<defs>
				<path id="SVGID_10_" d="M130.1,170.8h3.5v3.4h-3.5V170.8z M122.8,174.2c-1-0.1-1.6-0.8-1.6-1.7c0-0.9,0.7-1.7,1.6-1.7
					c1.2-0.1,2.3,0,3.6,0v3.5c-0.7,0-1.5,0-2.2,0C123.8,174.3,123.3,174.3,122.8,174.2 M145.8,174.3v-3.5c1.3,0,2.5-0.1,3.7,0
					c0.9,0.1,1.5,0.7,1.5,1.7c0,0.9-0.7,1.7-1.6,1.7c-0.5,0-0.9,0-1.4,0C147.3,174.3,146.6,174.3,145.8,174.3 M138.6,174.2
					c-0.9-0.1-1.6-0.9-1.6-1.8c0.1-1,0.6-1.6,1.6-1.7c1.2-0.1,2.4,0,3.6,0v3.5c-0.7,0-1.5,0-2.2,0
					C139.5,174.3,139.1,174.3,138.6,174.2 M135.4,167.6c-0.8-0.3-1.7-0.4-2.5-0.5c1.8-1.8,3.6-3.6,5.4-5.4c0.8,1.8,0.5,3.7-0.8,5.3
					c-0.4,0.5-0.8,0.8-1.4,0.8C135.9,167.8,135.7,167.8,135.4,167.6 M129.7,160.1c1.5-1.6,3.8-2,6-1c-1.2,1.2-2.3,2.3-3.5,3.5
					c-1.1,1.1-2.2,2.3-3.5,3.5C127.8,163.8,128.2,161.6,129.7,160.1 M128.7,156.4c-3.4,2.3-4.5,5.6-3.3,10.8c-0.7,0-1.4,0-2.1,0
					c-3.2,0-5.6,2.3-5.6,5.2c0,3,2.4,5.3,5.5,5.3c3.3,0,6.7,0.2,10-0.1c2-0.2,4-0.1,6,0c3.2,0.2,6.4,0.1,9.6,0
					c3.3,0,5.7-2.2,5.7-5.2c0-3.1-2.4-5.3-5.7-5.3c-2.4,0-4.7,0-7.2,0c1.3-4.8,0.2-8.3-3-10.6c-1.5-1.1-3.3-1.7-5.1-1.7
					C131.8,154.9,130.1,155.4,128.7,156.4"/>
			</defs>
			<clipPath id="SVGID_11_">
				<use xlink:href="#SVGID_10_"  style="overflow:visible;"/>
			</clipPath>
			
				<linearGradient id="SVGID_12_" gradientUnits="userSpaceOnUse" x1="-3407.5083" y1="2391.3792" x2="-3407.1782" y2="2391.3792" gradientTransform="matrix(111.7014 0 0 -111.7014 380741.25 267286.9375)">
				<stop  offset="0" style="stop-color:#E300D6"/>
				<stop  offset="0.4662" style="stop-color:#4828BE"/>
				<stop  offset="1" style="stop-color:#4828BE"/>
			</linearGradient>
			<rect x="117.7" y="154.9" class="st6" width="36.9" height="23"/>
		</g>
		<g>
			<defs>
				<path id="SVGID_13_" d="M142.4,125.1c-1.2,0-1.8,0.7-1.8,1.9c0,1.8,0,3.6,0,5.4c0,0.5,0,1,0,1.5c-0.7,0-1.2,0.1-1.7,0.1v3.4
					c0.2,0,0.4,0,0.5,0c0.9,0,1.8,0,2.7,0c1.3,0,1.9-0.7,1.9-2c0-1.4,0-2.7,0-4.1c0-0.9,0-1.8,0-2.6h7c0,2.3,0,4.5,0,6.7
					c0,1.3,0.7,1.9,2,2c0.6,0,1.2,0,1.8,0c1.7,0,3.3,0,5,0v7c-2.1,0-4.2,0-6.3,0c-1.9,0-2.4,0.5-2.4,2.5c0,2.1,0,4.1,0,6.2h-7
					c0-2.3,0-4.5,0-6.7c0-1.2-0.6-2-1.7-2c-1.2-0.1-2.3,0-3.5,0v3.5c0.6,0,1.1,0.1,1.7,0.1c0,2.2,0,4.3,0,6.5c0,1.7,0.6,2.2,2.2,2.3
					c3.1,0,6.3,0,9.4,0c1.8,0,2.4-0.6,2.4-2.4c0-2.1,0-4.2,0-6.4c2.3,0,4.4,0,6.6,0c1.6,0,2.2-0.6,2.2-2.2c0-3.1,0-6.1,0-9.2
					c0-2.2-0.5-2.6-2.6-2.6c-2,0-4.1,0-6.2,0c0-2.4,0-4.6,0-6.8c0-1.2-0.7-1.9-1.9-1.9c-1.7,0-3.4,0-5.1,0
					C145.8,125.1,144.1,125.1,142.4,125.1"/>
			</defs>
			<clipPath id="SVGID_14_">
				<use xlink:href="#SVGID_13_"  style="overflow:visible;"/>
			</clipPath>
			
				<linearGradient id="SVGID_15_" gradientUnits="userSpaceOnUse" x1="-3404.8157" y1="2398.4307" x2="-3404.4856" y2="2398.4307" gradientTransform="matrix(74.2821 0 0 -74.2821 253055.7969 178301.4375)">
				<stop  offset="0" style="stop-color:#E300D6"/>
				<stop  offset="0.4662" style="stop-color:#4828BE"/>
				<stop  offset="1" style="stop-color:#4828BE"/>
			</linearGradient>
			<rect x="138.8" y="125.1" class="st7" width="24.5" height="31.6"/>
		</g>
		<g>
			<defs>
				<path id="SVGID_16_" d="M79.1,154.9c0-0.9,0.8-1.7,1.8-1.7c0.9,0,1.7,0.8,1.7,1.7c0,0.9-0.8,1.7-1.7,1.8c0,0,0,0,0,0
					C79.9,156.7,79.1,155.9,79.1,154.9 M75.6,154.9c0,2.9,2.3,5.2,5.2,5.3c2.9,0,5.3-2.3,5.3-5.3c0-2.9-2.3-5.2-5.2-5.3c0,0,0,0,0,0
					C77.9,149.7,75.6,152,75.6,154.9"/>
			</defs>
			<clipPath id="SVGID_17_">
				<use xlink:href="#SVGID_16_"  style="overflow:visible;"/>
			</clipPath>
			
				<linearGradient id="SVGID_18_" gradientUnits="userSpaceOnUse" x1="-3388.5745" y1="2429.1519" x2="-3388.2444" y2="2429.1519" gradientTransform="matrix(31.8839 0 0 -31.8839 108116.4844 77605.7734)">
				<stop  offset="0" style="stop-color:#E300D6"/>
				<stop  offset="0.4662" style="stop-color:#4828BE"/>
				<stop  offset="1" style="stop-color:#4828BE"/>
			</linearGradient>
			<rect x="75.6" y="149.7" class="st8" width="10.5" height="10.6"/>
		</g>
		<g>
			<defs>
				<path id="SVGID_19_" d="M91.4,154.9c0-0.9,0.8-1.7,1.7-1.7c0.9,0,1.7,0.8,1.8,1.7c0,0.9-0.7,1.8-1.7,1.8c0,0,0,0-0.1,0
					C92.2,156.7,91.4,155.9,91.4,154.9 M87.9,154.9c0,2.9,2.3,5.2,5.2,5.3c2.9,0,5.3-2.3,5.3-5.2c0-2.9-2.3-5.3-5.2-5.3c0,0,0,0,0,0
					C90.2,149.7,87.9,152,87.9,154.9"/>
			</defs>
			<clipPath id="SVGID_20_">
				<use xlink:href="#SVGID_19_"  style="overflow:visible;"/>
			</clipPath>
			
				<linearGradient id="SVGID_21_" gradientUnits="userSpaceOnUse" x1="-3389.3567" y1="2429.1521" x2="-3389.0266" y2="2429.1521" gradientTransform="matrix(31.8838 0 0 -31.8838 108153.2656 77605.4609)">
				<stop  offset="0" style="stop-color:#E300D6"/>
				<stop  offset="0.4662" style="stop-color:#4828BE"/>
				<stop  offset="1" style="stop-color:#4828BE"/>
			</linearGradient>
			<rect x="87.8" y="149.7" class="st9" width="10.6" height="10.6"/>
		</g>
		<g>
			<defs>
				<path id="SVGID_22_" d="M105.4,156.7c-0.9,0-1.7-0.8-1.7-1.8c0-0.9,0.8-1.7,1.7-1.7c1,0,1.8,0.8,1.8,1.8
					C107.1,155.9,106.3,156.7,105.4,156.7C105.4,156.7,105.4,156.7,105.4,156.7 M100.1,154.9c0,2.9,2.3,5.2,5.2,5.3
					c2.9,0,5.3-2.3,5.3-5.2c0-2.9-2.3-5.3-5.2-5.3c0,0,0,0,0,0C102.5,149.7,100.2,152,100.1,154.9"/>
			</defs>
			<clipPath id="SVGID_23_">
				<use xlink:href="#SVGID_22_"  style="overflow:visible;"/>
			</clipPath>
			
				<linearGradient id="SVGID_24_" gradientUnits="userSpaceOnUse" x1="-3390.1396" y1="2429.1521" x2="-3389.8096" y2="2429.1521" gradientTransform="matrix(31.8838 0 0 -31.8838 108190.5469 77605.4844)">
				<stop  offset="0" style="stop-color:#E300D6"/>
				<stop  offset="0.4662" style="stop-color:#4828BE"/>
				<stop  offset="1" style="stop-color:#4828BE"/>
			</linearGradient>
			<rect x="100.1" y="149.7" class="st10" width="10.6" height="10.6"/>
		</g>
		<g>
			<defs>
				<path id="SVGID_25_" d="M80.8,169c-0.9,0-1.7-0.9-1.7-1.8c0-0.9,0.8-1.7,1.8-1.7c0.9,0,1.7,0.8,1.7,1.7
					C82.6,168.2,81.8,169,80.8,169C80.8,169,80.8,169,80.8,169 M75.6,167.2c0,2.9,2.3,5.2,5.2,5.3c2.9,0,5.3-2.3,5.3-5.2
					c0-2.9-2.3-5.3-5.2-5.3c0,0,0,0,0,0C78,162,75.6,164.3,75.6,167.2"/>
			</defs>
			<clipPath id="SVGID_26_">
				<use xlink:href="#SVGID_25_"  style="overflow:visible;"/>
			</clipPath>
			
				<linearGradient id="SVGID_27_" gradientUnits="userSpaceOnUse" x1="-3388.574" y1="2429.9346" x2="-3388.2441" y2="2429.9346" gradientTransform="matrix(31.8837 0 0 -31.8837 108116 77642.6797)">
				<stop  offset="0" style="stop-color:#E300D6"/>
				<stop  offset="0.4662" style="stop-color:#4828BE"/>
				<stop  offset="1" style="stop-color:#4828BE"/>
			</linearGradient>
			<rect x="75.6" y="162" class="st11" width="10.6" height="10.6"/>
		</g>
		<g>
			<defs>
				<path id="SVGID_28_" d="M93.1,169c-0.9,0-1.7-0.8-1.7-1.7c0-0.9,0.8-1.7,1.7-1.8c1,0,1.8,0.8,1.8,1.8
					C94.8,168.2,94,169,93.1,169L93.1,169 M87.9,167.2c0,2.9,2.3,5.3,5.2,5.3c2.9,0,5.3-2.4,5.3-5.3c0-2.9-2.4-5.2-5.2-5.2
					c0,0,0,0,0,0C90.3,162,87.9,164.3,87.9,167.2"/>
			</defs>
			<clipPath id="SVGID_29_">
				<use xlink:href="#SVGID_28_"  style="overflow:visible;"/>
			</clipPath>
			
				<linearGradient id="SVGID_30_" gradientUnits="userSpaceOnUse" x1="-3389.3567" y1="2429.9351" x2="-3389.0266" y2="2429.9351" gradientTransform="matrix(31.8838 0 0 -31.8838 108153.2734 77642.7031)">
				<stop  offset="0" style="stop-color:#E300D6"/>
				<stop  offset="0.4662" style="stop-color:#4828BE"/>
				<stop  offset="1" style="stop-color:#4828BE"/>
			</linearGradient>
			<rect x="87.8" y="162" class="st12" width="10.6" height="10.5"/>
		</g>
		<g>
			<defs>
				<path id="SVGID_31_" d="M105.4,169c-0.9,0-1.7-0.8-1.7-1.8c0-0.9,0.8-1.7,1.7-1.7c0.9,0,1.7,0.8,1.8,1.7
					C107.2,168.2,106.4,169,105.4,169C105.4,169,105.4,169,105.4,169 M105.4,162c-2.9,0-5.3,2.4-5.3,5.3c0,2.9,2.4,5.2,5.2,5.2
					c2.9,0,5.3-2.4,5.3-5.3C110.7,164.3,108.3,162,105.4,162L105.4,162"/>
			</defs>
			<clipPath id="SVGID_32_">
				<use xlink:href="#SVGID_31_"  style="overflow:visible;"/>
			</clipPath>
			
				<linearGradient id="SVGID_33_" gradientUnits="userSpaceOnUse" x1="-3390.1406" y1="2429.9319" x2="-3389.8105" y2="2429.9319" gradientTransform="matrix(31.8856 0 0 -31.8856 108196.875 77647.1328)">
				<stop  offset="0" style="stop-color:#E300D6"/>
				<stop  offset="0.4662" style="stop-color:#4828BE"/>
				<stop  offset="1" style="stop-color:#4828BE"/>
			</linearGradient>
			<rect x="100.1" y="162" class="st13" width="10.6" height="10.5"/>
		</g>
		<g>
			<defs>
				<path id="SVGID_34_" d="M115.9,155c0-1,0.8-1.8,1.8-1.8c0.9,0,1.7,0.8,1.7,1.8c0,0.9-0.8,1.7-1.7,1.7c0,0,0,0,0,0
					C116.8,156.7,116,155.9,115.9,155 M117.7,149.7c-2.9,0-5.2,2.4-5.2,5.2c0,2.9,2.4,5.3,5.3,5.3c2.9,0,5.2-2.4,5.2-5.2
					C123,152.1,120.6,149.7,117.7,149.7L117.7,149.7"/>
			</defs>
			<clipPath id="SVGID_35_">
				<use xlink:href="#SVGID_34_"  style="overflow:visible;"/>
			</clipPath>
			
				<linearGradient id="SVGID_36_" gradientUnits="userSpaceOnUse" x1="-3390.9204" y1="2429.1558" x2="-3390.5903" y2="2429.1558" gradientTransform="matrix(31.8818 0 0 -31.8818 108221.0859 77600.8281)">
				<stop  offset="0" style="stop-color:#E300D6"/>
				<stop  offset="0.4662" style="stop-color:#4828BE"/>
				<stop  offset="1" style="stop-color:#4828BE"/>
			</linearGradient>
			<rect x="112.4" y="149.7" class="st14" width="10.5" height="10.5"/>
		</g>
		<g>
			<defs>
				<path id="SVGID_37_" d="M114,163.5c-1.8,1.7-2.1,4.2-0.8,6.4c0.9-0.5,1.7-1,2.5-1.5c0.1-0.1,0.2-0.2,0.3-0.2
					c-0.3-1.6,0.4-2.8,1.6-2.6c1,0.2,1.2-0.4,1.6-1c0.3-0.6,0.7-1.2,1-1.8c-0.8-0.5-1.7-0.8-2.6-0.8C116.3,162,115,162.5,114,163.5"
					/>
			</defs>
			<clipPath id="SVGID_38_">
				<use xlink:href="#SVGID_37_"  style="overflow:visible;"/>
			</clipPath>
			
				<linearGradient id="SVGID_39_" gradientUnits="userSpaceOnUse" x1="-3383.0227" y1="2448.2832" x2="-3382.6926" y2="2448.2832" gradientTransform="matrix(23.7531 0 0 -23.7531 80469.875 58320.3398)">
				<stop  offset="0" style="stop-color:#E300D6"/>
				<stop  offset="0.4662" style="stop-color:#4828BE"/>
				<stop  offset="1" style="stop-color:#4828BE"/>
			</linearGradient>
			<rect x="111.9" y="162" class="st15" width="8.4" height="7.9"/>
		</g>
	</g>
</g>
</svg>
