<?xml version="1.0" encoding="utf-8"?>
<!-- Generator: Adobe Illustrator 19.1.0, SVG Export Plug-In . SVG Version: 6.00 Build 0)  -->
<svg version="1.1" id="Layer_1" xmlns="http://www.w3.org/2000/svg" xmlns:xlink="http://www.w3.org/1999/xlink" x="0px" y="0px"
	 viewBox="0 0 250 250" style="enable-background:new 0 0 250 250;" xml:space="preserve">
<style type="text/css">
	.st0{opacity:0.3;}
	.st1{fill:#FFFFFD;}
	.st2{fill:none;stroke:#F4EEE9;stroke-width:9.3745;stroke-linecap:round;stroke-miterlimit:10;}
	.st3{clip-path:url(#SVGID_2_);fill:url(#SVGID_3_);}
	.st4{clip-path:url(#SVGID_5_);fill:url(#SVGID_6_);}
	.st5{clip-path:url(#SVGID_8_);fill:url(#SVGID_9_);}
	.st6{clip-path:url(#SVGID_11_);fill:url(#SVGID_12_);}
	.st7{clip-path:url(#SVGID_14_);fill:url(#SVGID_15_);}
	.st8{clip-path:url(#SVGID_17_);fill:url(#SVGID_18_);}
	.st9{clip-path:url(#SVGID_20_);fill:url(#SVGID_21_);}
	.st10{clip-path:url(#SVGID_23_);fill:url(#SVGID_24_);}
	.st11{clip-path:url(#SVGID_26_);fill:url(#SVGID_27_);}
	.st12{clip-path:url(#SVGID_29_);fill:url(#SVGID_30_);}
	.st13{clip-path:url(#SVGID_32_);fill:url(#SVGID_33_);}
	.st14{clip-path:url(#SVGID_35_);fill:url(#SVGID_36_);}
	.st15{clip-path:url(#SVGID_38_);fill:url(#SVGID_39_);}
	.st16{clip-path:url(#SVGID_41_);fill:url(#SVGID_42_);}
</style>
<g>
	<g>
		<g>
			<g class="st0">
				<path d="M196.9,244.8H57.7c-23.4,0-42.4-19-42.4-42.4V61.7c0-23.4,19-42.4,42.4-42.4h139.2c23.4,0,42.4,19,42.4,42.4v140.6
					C239.4,225.8,220.4,244.8,196.9,244.8z"/>
			</g>
			<g>
				<path class="st1" d="M194.6,237.7H55.4c-23.4,0-42.4-19-42.4-42.4V54.7c0-23.4,19-42.4,42.4-42.4h139.2
					c23.4,0,42.4,19,42.4,42.4v140.6C237,218.7,218,237.7,194.6,237.7z"/>
			</g>
		</g>
		<path class="st2" d="M27.2,69c0-23.4,19-42.4,42.4-42.4h16.5"/>
		<path class="st2" d="M222.8,181c0,23.4-19,42.4-42.4,42.4"/>
		<line class="st2" x1="105.8" y1="26.6" x2="129.7" y2="26.6"/>
	</g>
	<g>
		<g>
			<defs>
				<path id="SVGID_1_" d="M157.3,67.6v3.6h6.8c0.2,0,0.5,0.2,0.5,0.5v43h3.6v-43c0-2.2-1.8-4.1-4.1-4.1H157.3z"/>
			</defs>
			<clipPath id="SVGID_2_">
				<use xlink:href="#SVGID_1_"  style="overflow:visible;"/>
			</clipPath>
			
				<linearGradient id="SVGID_3_" gradientUnits="userSpaceOnUse" x1="-3338.9502" y1="2362.8567" x2="-3338.6504" y2="2362.8567" gradientTransform="matrix(36.1944 0 0 -36.1944 121008.6953 85613.4063)">
				<stop  offset="0" style="stop-color:#E300D6"/>
				<stop  offset="0.4662" style="stop-color:#4828BE"/>
				<stop  offset="1" style="stop-color:#4828BE"/>
			</linearGradient>
			<rect x="157.3" y="67.6" class="st3" width="10.9" height="47.1"/>
		</g>
		<g>
			<defs>
				<path id="SVGID_4_" d="M85.3,67.6c-2.2,0-4.1,1.8-4.1,4.1v28.5h3.6V71.7c0-0.2,0.2-0.5,0.5-0.5h68.3v-3.6H85.3z"/>
			</defs>
			<clipPath id="SVGID_5_">
				<use xlink:href="#SVGID_4_"  style="overflow:visible;"/>
			</clipPath>
			
				<linearGradient id="SVGID_6_" gradientUnits="userSpaceOnUse" x1="-3402.0076" y1="2373.9585" x2="-3401.7075" y2="2373.9585" gradientTransform="matrix(241.2963 0 0 -241.2963 820972.9375 572911.1875)">
				<stop  offset="0" style="stop-color:#E300D6"/>
				<stop  offset="0.4662" style="stop-color:#4828BE"/>
				<stop  offset="1" style="stop-color:#4828BE"/>
			</linearGradient>
			<rect x="81.3" y="67.6" class="st4" width="72.4" height="32.6"/>
		</g>
		<g>
			<defs>
				<path id="SVGID_7_" d="M81.3,143.6v35.7c0,2.2,1.8,4.1,4.1,4.1h15.8v-3.6H85.3c-0.3,0-0.5-0.2-0.5-0.5v-35.7H81.3z"/>
			</defs>
			<clipPath id="SVGID_8_">
				<use xlink:href="#SVGID_7_"  style="overflow:visible;"/>
			</clipPath>
			
				<linearGradient id="SVGID_9_" gradientUnits="userSpaceOnUse" x1="-3370.3911" y1="2371.3765" x2="-3370.0911" y2="2371.3765" gradientTransform="matrix(66.3565 0 0 -66.3565 223728.5313 157519.7031)">
				<stop  offset="0" style="stop-color:#E300D6"/>
				<stop  offset="0.4662" style="stop-color:#4828BE"/>
				<stop  offset="1" style="stop-color:#4828BE"/>
			</linearGradient>
			<rect x="81.3" y="143.6" class="st5" width="19.9" height="39.8"/>
		</g>
		<g>
			<defs>
				<path id="SVGID_10_" d="M164.5,158.1v21.3c0,0.2-0.2,0.5-0.5,0.5h-59.3v3.6H164c2.2,0,4.1-1.8,4.1-4.1v-21.3H164.5z"/>
			</defs>
			<clipPath id="SVGID_11_">
				<use xlink:href="#SVGID_10_"  style="overflow:visible;"/>
			</clipPath>
			
				<linearGradient id="SVGID_12_" gradientUnits="userSpaceOnUse" x1="-3400.5544" y1="2374.627" x2="-3400.2544" y2="2374.627" gradientTransform="matrix(211.1342 0 0 -211.1342 718078.1875 501535.7813)">
				<stop  offset="0" style="stop-color:#E300D6"/>
				<stop  offset="0.4662" style="stop-color:#4828BE"/>
				<stop  offset="1" style="stop-color:#4828BE"/>
			</linearGradient>
			<rect x="104.8" y="158.1" class="st6" width="63.3" height="25.3"/>
		</g>
		<g>
			<defs>
				<path id="SVGID_13_" d="M92.1,87.5h5.4c1,0,1.8-0.8,1.8-1.8v-5.4h3.6v5.4c0,1,0.8,1.8,1.8,1.8h5.4v3.6h-5.4
					c-1,0-1.8,0.8-1.8,1.8v5.4h-3.6v-5.4c0-1-0.8-1.8-1.8-1.8h-5.4V87.5z M97.5,76.7c-1,0-1.8,0.8-1.8,1.8v5.4h-5.4
					c-1,0-1.8,0.8-1.8,1.8v7.2c0,1,0.8,1.8,1.8,1.8h5.4v5.4c0,1,0.8,1.8,1.8,1.8h7.2c1,0,1.8-0.8,1.8-1.8v-5.4h5.4
					c1,0,1.8-0.8,1.8-1.8v-7.2c0-1-0.8-1.8-1.8-1.8h-5.4v-5.4c0-1-0.8-1.8-1.8-1.8H97.5z"/>
			</defs>
			<clipPath id="SVGID_14_">
				<use xlink:href="#SVGID_13_"  style="overflow:visible;"/>
			</clipPath>
			
				<linearGradient id="SVGID_15_" gradientUnits="userSpaceOnUse" x1="-3379.9358" y1="2370.3171" x2="-3379.6357" y2="2370.3171" gradientTransform="matrix(84.4537 0 0 -84.4537 285536.5313 200271.3594)">
				<stop  offset="0" style="stop-color:#E300D6"/>
				<stop  offset="0.4662" style="stop-color:#4828BE"/>
				<stop  offset="1" style="stop-color:#4828BE"/>
			</linearGradient>
			<rect x="88.5" y="76.7" class="st7" width="25.3" height="25.3"/>
		</g>
		<g>
			<defs>
				<path id="SVGID_16_" d="M124.7,80.3h9v10.9h-9V80.3z M137.4,80.3h19.9v10.9h-19.9V80.3z M122.9,76.7c-1,0-1.8,0.8-1.8,1.8v14.5
					c0,1,0.8,1.8,1.8,1.8h36.2c1,0,1.8-0.8,1.8-1.8V78.5c0-1-0.8-1.8-1.8-1.8H122.9z"/>
			</defs>
			<clipPath id="SVGID_17_">
				<use xlink:href="#SVGID_16_"  style="overflow:visible;"/>
			</clipPath>
			
				<linearGradient id="SVGID_18_" gradientUnits="userSpaceOnUse" x1="-3392.8955" y1="2372.3201" x2="-3392.5955" y2="2372.3201" gradientTransform="matrix(132.713 0 0 -132.713 450402.25 314923.2813)">
				<stop  offset="0" style="stop-color:#E300D6"/>
				<stop  offset="0.4662" style="stop-color:#4828BE"/>
				<stop  offset="1" style="stop-color:#4828BE"/>
			</linearGradient>
			<rect x="121.1" y="76.7" class="st8" width="39.8" height="18.1"/>
		</g>
		<g>
			<defs>
				<rect id="SVGID_19_" x="150" y="98.4" width="10.9" height="3.6"/>
			</defs>
			<clipPath id="SVGID_20_">
				<use xlink:href="#SVGID_19_"  style="overflow:visible;"/>
			</clipPath>
			
				<linearGradient id="SVGID_21_" gradientUnits="userSpaceOnUse" x1="-3338.4836" y1="2363.4399" x2="-3338.1836" y2="2363.4399" gradientTransform="matrix(36.1944 0 0 -36.1944 120984.5625 85643.5703)">
				<stop  offset="0" style="stop-color:#E300D6"/>
				<stop  offset="0.4662" style="stop-color:#4828BE"/>
				<stop  offset="1" style="stop-color:#4828BE"/>
			</linearGradient>
			<rect x="150" y="98.4" class="st9" width="10.9" height="3.6"/>
		</g>
		<g>
			<defs>
				<rect id="SVGID_22_" x="121.1" y="98.4" width="25.3" height="3.6"/>
			</defs>
			<clipPath id="SVGID_23_">
				<use xlink:href="#SVGID_22_"  style="overflow:visible;"/>
			</clipPath>
			
				<linearGradient id="SVGID_24_" gradientUnits="userSpaceOnUse" x1="-3380.8359" y1="2370.6172" x2="-3380.5359" y2="2370.6172" gradientTransform="matrix(84.4537 0 0 -84.4537 285645.125 200307.5469)">
				<stop  offset="0" style="stop-color:#E300D6"/>
				<stop  offset="0.4662" style="stop-color:#4828BE"/>
				<stop  offset="1" style="stop-color:#4828BE"/>
			</linearGradient>
			<rect x="121.1" y="98.4" class="st10" width="25.3" height="3.6"/>
		</g>
		<g>
			<defs>
				<path id="SVGID_25_" d="M126,146.7l7.2-7.2l4.9,1.8c2.8,1.1,4.7,3.8,4.7,6.8v11.8h-9v3.6h9v7.2h-27.1v-14.5H112v14.5h-5.4V149h9
					v-3.6h-8.5c0.7-1.9,2.2-3.4,4.2-4.1l4.9-1.8l7.2,7.2c0.4,0.4,0.8,0.5,1.3,0.5S125.6,147.1,126,146.7 M119.6,137.8l2.5-5.1h5
					l2.5,5.1l-5,5L119.6,137.8z M150,136.4c0-8,6.5-14.5,14.5-14.5c8,0,14.5,6.5,14.5,14.5c0,8-6.5,14.5-14.5,14.5
					C156.5,150.9,150,144.4,150,136.4 M119.3,126.4v-9c0-1.5,1.2-2.7,2.7-2.7h5.4c1.5,0,2.7,1.2,2.7,2.7v9c0,1.5-1.2,2.7-2.7,2.7
					H122C120.5,129.1,119.3,127.9,119.3,126.4 M70.4,121.9c0-8,6.5-14.5,14.5-14.5c8,0,14.5,6.5,14.5,14.5c0,8-6.5,14.5-14.5,14.5
					C76.9,136.4,70.4,129.9,70.4,121.9 M66.8,121.9c0,10,8.1,18.1,18.1,18.1c2.3,0,4.6-0.4,6.6-1.3l6.3,9.5c0.3,0.5,0.9,0.8,1.5,0.8
					h3.6v23.5c0,1,0.8,1.8,1.8,1.8h39.8c1,0,1.8-0.8,1.8-1.8v-9h3.6c0.6,0,1.2-0.3,1.5-0.8l6.3-9.5c2.1,0.8,4.3,1.3,6.6,1.3
					c10,0,18.1-8.1,18.1-18.1c0-10-8.1-18.1-18.1-18.1c-10,0-18.1,8.1-18.1,18.1c0,6.3,3.3,11.9,8.2,15.2l-5.6,8.4h-2.7v-11.8
					c0-4.5-2.8-8.6-7-10.2l-6.8-2.5l0,0l-1.8-3.6c1.8-1.1,3-3.1,3-5.4v-9c0-3.5-2.8-6.3-6.3-6.3H122c-3.5,0-6.3,2.8-6.3,6.3v9
					c0,2.3,1.2,4.3,3,5.4l-1.8,3.6l0,0l-6.8,2.5c-3.4,1.3-5.8,4.1-6.7,7.5h-3l-5.6-8.4c4.9-3.2,8.2-8.8,8.2-15.2
					c0-10-8.1-18.1-18.1-18.1S66.8,111.9,66.8,121.9"/>
			</defs>
			<clipPath id="SVGID_26_">
				<use xlink:href="#SVGID_25_"  style="overflow:visible;"/>
			</clipPath>
			
				<linearGradient id="SVGID_27_" gradientUnits="userSpaceOnUse" x1="-3406.4172" y1="2375.0576" x2="-3406.1172" y2="2375.0576" gradientTransform="matrix(386.074 0 0 -386.074 1315196 917087.1875)">
				<stop  offset="0" style="stop-color:#E300D6"/>
				<stop  offset="0.4662" style="stop-color:#4828BE"/>
				<stop  offset="1" style="stop-color:#4828BE"/>
			</linearGradient>
			<rect x="66.8" y="103.8" class="st11" width="115.8" height="70.6"/>
		</g>
		<g>
			<defs>
				<path id="SVGID_28_" d="M165.7,135.5l2.3-2.1c0,0,0.1,0,0.1-0.1c0.4-0.4,0.9-0.6,1.5-0.6c0.6,0,1.1,0.2,1.5,0.6
					c0.8,0.8,0.8,2.2,0,3l-6.6,6.5l-6.6-6.5c-0.8-0.8-0.8-2.2,0-3c0.4-0.4,0.9-0.6,1.5-0.6c0.6,0,1.1,0.2,1.5,0.6c0,0,0,0,0.1,0.1
					l2.3,2.1c0.3,0.3,0.8,0.5,1.2,0.5C164.9,136,165.4,135.8,165.7,135.5 M165.6,130.8l-1.1,1l-1.1-1c-1.1-1.1-2.5-1.6-4-1.6
					c-1.5,0-3,0.6-4.1,1.7c-2.2,2.2-2.2,5.9,0,8.2l7.9,7.7c0.4,0.3,0.8,0.5,1.3,0.5c0.5,0,0.9-0.2,1.3-0.5l7.9-7.7
					c2.2-2.2,2.2-5.9,0-8.1c-1.1-1.1-2.5-1.7-4.1-1.7C168.1,129.1,166.7,129.7,165.6,130.8"/>
			</defs>
			<clipPath id="SVGID_29_">
				<use xlink:href="#SVGID_28_"  style="overflow:visible;"/>
			</clipPath>
			
				<linearGradient id="SVGID_30_" gradientUnits="userSpaceOnUse" x1="-3376.2678" y1="2370.9326" x2="-3375.9678" y2="2370.9326" gradientTransform="matrix(72.2118 0 0 -72.2118 243959.9844 171347.4375)">
				<stop  offset="0" style="stop-color:#E300D6"/>
				<stop  offset="0.4662" style="stop-color:#4828BE"/>
				<stop  offset="1" style="stop-color:#4828BE"/>
			</linearGradient>
			<rect x="153.1" y="129.1" class="st12" width="22.8" height="18.1"/>
		</g>
		<g>
			<defs>
				<path id="SVGID_31_" d="M86.3,112.9c-0.7,0.1-1.2,0.7-1.4,1.3l-1.9,7.5l-0.1-0.2c-0.2-0.8-0.9-1.4-1.8-1.4H74v3.6h5.8l1.5,5.9
					c0.2,0.8,0.9,1.4,1.8,1.4c0.8,0,1.6-0.6,1.8-1.4l2.7-10.8l3.1,4.2c0.3,0.5,0.9,0.7,1.4,0.7h3.6v-3.6H93l-4.9-6.5
					c-0.3-0.5-0.9-0.7-1.4-0.7C86.6,112.9,86.4,112.9,86.3,112.9"/>
			</defs>
			<clipPath id="SVGID_32_">
				<use xlink:href="#SVGID_31_"  style="overflow:visible;"/>
			</clipPath>
			
				<linearGradient id="SVGID_33_" gradientUnits="userSpaceOnUse" x1="-3373.7917" y1="2370.4199" x2="-3373.4917" y2="2370.4199" gradientTransform="matrix(72.3889 0 0 -72.3889 244299.0156 171713.9375)">
				<stop  offset="0" style="stop-color:#E300D6"/>
				<stop  offset="0.4662" style="stop-color:#4828BE"/>
				<stop  offset="1" style="stop-color:#4828BE"/>
			</linearGradient>
			<rect x="74" y="112.9" class="st13" width="21.7" height="18.1"/>
		</g>
		<g>
			<defs>
				<path id="SVGID_34_" d="M131.9,151.9l-2.3-2.3l-2.6,2.6l3.6,3.6c0.4,0.4,0.8,0.5,1.3,0.5c0.5,0,0.9-0.2,1.3-0.5l3.6-3.6
					l-2.6-2.6L131.9,151.9z"/>
			</defs>
			<clipPath id="SVGID_35_">
				<use xlink:href="#SVGID_34_"  style="overflow:visible;"/>
			</clipPath>
			
				<linearGradient id="SVGID_36_" gradientUnits="userSpaceOnUse" x1="-3328.6704" y1="2365.8494" x2="-3328.3704" y2="2365.8494" gradientTransform="matrix(32.6608 0 0 -32.6608 108843.9609 77423.3984)">
				<stop  offset="0" style="stop-color:#E300D6"/>
				<stop  offset="0.4662" style="stop-color:#4828BE"/>
				<stop  offset="1" style="stop-color:#4828BE"/>
			</linearGradient>
			<rect x="127" y="149.6" class="st14" width="9.8" height="6.7"/>
		</g>
		<g>
			<defs>
				<path id="SVGID_37_" d="M144.6,111c-0.5,0-0.9,0.2-1.3,0.5l-7.2,7.2l2.6,2.6l6.7-6.7h8.3V111H144.6z"/>
			</defs>
			<clipPath id="SVGID_38_">
				<use xlink:href="#SVGID_37_"  style="overflow:visible;"/>
			</clipPath>
			
				<linearGradient id="SVGID_39_" gradientUnits="userSpaceOnUse" x1="-3366.7676" y1="2368.875" x2="-3366.4675" y2="2368.875" gradientTransform="matrix(58.5577 0 0 -58.5577 197286.25 138832.0938)">
				<stop  offset="0" style="stop-color:#E300D6"/>
				<stop  offset="0.4662" style="stop-color:#4828BE"/>
				<stop  offset="1" style="stop-color:#4828BE"/>
			</linearGradient>
			<rect x="136.1" y="111" class="st15" width="17.6" height="10.3"/>
		</g>
		<g>
			<defs>
				<rect id="SVGID_40_" x="157.3" y="111" width="3.6" height="3.6"/>
			</defs>
			<clipPath id="SVGID_41_">
				<use xlink:href="#SVGID_40_"  style="overflow:visible;"/>
			</clipPath>
			
				<linearGradient id="SVGID_42_" gradientUnits="userSpaceOnUse" x1="-3188.8508" y1="2340.77" x2="-3188.5508" y2="2340.77" gradientTransform="matrix(12.0648 0 0 -12.0648 38630.1523 28353.8066)">
				<stop  offset="0" style="stop-color:#E300D6"/>
				<stop  offset="0.4662" style="stop-color:#4828BE"/>
				<stop  offset="1" style="stop-color:#4828BE"/>
			</linearGradient>
			<rect x="157.3" y="111" class="st16" width="3.6" height="3.6"/>
		</g>
	</g>
</g>
</svg>
