<?xml version="1.0" encoding="utf-8"?>
<!-- Generator: Adobe Illustrator 19.1.0, SVG Export Plug-In . SVG Version: 6.00 Build 0)  -->
<svg version="1.1" id="Layer_1" xmlns="http://www.w3.org/2000/svg" xmlns:xlink="http://www.w3.org/1999/xlink" x="0px" y="0px"
	 viewBox="0 0 250 250" style="enable-background:new 0 0 250 250;" xml:space="preserve">
<style type="text/css">
	.st0{opacity:0.3;}
	.st1{fill:#FFFFFD;}
	.st2{fill:none;stroke:#F4EEE9;stroke-width:9.3745;stroke-linecap:round;stroke-miterlimit:10;}
	.st3{clip-path:url(#SVGID_2_);fill:url(#SVGID_3_);}
	.st4{clip-path:url(#SVGID_5_);fill:url(#SVGID_6_);}
	.st5{clip-path:url(#SVGID_8_);fill:url(#SVGID_9_);}
	.st6{clip-path:url(#SVGID_11_);fill:url(#SVGID_12_);}
	.st7{clip-path:url(#SVGID_14_);fill:url(#SVGID_15_);}
	.st8{clip-path:url(#SVGID_17_);fill:url(#SVGID_18_);}
	.st9{clip-path:url(#SVGID_20_);fill:url(#SVGID_21_);}
</style>
<g>
	<g>
		<g>
			<g class="st0">
				<path d="M196.9,244.8H57.7c-23.4,0-42.4-19-42.4-42.4V61.7c0-23.4,19-42.4,42.4-42.4h139.2c23.4,0,42.4,19,42.4,42.4v140.6
					C239.4,225.8,220.4,244.8,196.9,244.8z"/>
			</g>
			<g>
				<path class="st1" d="M194.6,237.7H55.4c-23.4,0-42.4-19-42.4-42.4V54.7c0-23.4,19-42.4,42.4-42.4h139.2
					c23.4,0,42.4,19,42.4,42.4v140.6C237,218.7,218,237.7,194.6,237.7z"/>
			</g>
		</g>
		<path class="st2" d="M27.2,69c0-23.4,19-42.4,42.4-42.4h16.5"/>
		<path class="st2" d="M222.8,181c0,23.4-19,42.4-42.4,42.4"/>
		<line class="st2" x1="105.8" y1="26.6" x2="129.7" y2="26.6"/>
	</g>
	<g>
		<g>
			<defs>
				<path id="SVGID_1_" d="M67.6,171.5h12.6v21.3H69.4L67.6,171.5z M131.5,171.5h12.6l-1.8,21.3h-10.8V171.5z M70.1,136.4
					c-2.8,0.9-4.8,3.4-5.1,6.3L63.3,159c-2.6,0.8-4.4,3.2-4.4,6.1c0,2.8,1.9,5.2,4.4,6.1l2,24c0.1,1.1,1,2,2.1,2h76.8
					c1.1,0,2-0.9,2.1-2l2-24c2.6-0.8,4.4-3.2,4.4-6.1c0-2.8-1.9-5.3-4.4-6.1l-1.3-13.3l-4.2,0.4l1.5,14.9c0.1,1.1,1,1.9,2.1,1.9
					c1.2,0,2.1,1,2.1,2.1c0,1.2-1,2.1-2.1,2.1h-17.1c-1.2,0-2.1,1-2.1,2.1v23.5H84.5v-23.5c0-1.2-1-2.1-2.1-2.1H65.3
					c-1.2,0-2.1-1-2.1-2.1c0-1.2,1-2.1,2.1-2.1c1.1,0,2-0.8,2.1-1.9l1.8-17.8c0.1-1.3,1-2.4,2.2-2.7c0.1,0,0.1,0,0.2-0.1l9.4-4.1
					l-1.7-3.9L70.1,136.4z"/>
			</defs>
			<clipPath id="SVGID_2_">
				<use xlink:href="#SVGID_1_"  style="overflow:visible;"/>
			</clipPath>
			
				<linearGradient id="SVGID_3_" gradientUnits="userSpaceOnUse" x1="-3403.719" y1="2377.2585" x2="-3403.3892" y2="2377.2585" gradientTransform="matrix(284.5298 0 0 -284.5298 968518.375 676565.5625)">
				<stop  offset="0" style="stop-color:#E300D6"/>
				<stop  offset="0.4662" style="stop-color:#4828BE"/>
				<stop  offset="1" style="stop-color:#4828BE"/>
			</linearGradient>
			<rect x="58.9" y="132.4" class="st3" width="93.9" height="64.7"/>
		</g>
		<g>
			<defs>
				<rect id="SVGID_4_" x="80.2" y="154.4" width="12.8" height="4.3"/>
			</defs>
			<clipPath id="SVGID_5_">
				<use xlink:href="#SVGID_4_"  style="overflow:visible;"/>
			</clipPath>
			
				<linearGradient id="SVGID_6_" gradientUnits="userSpaceOnUse" x1="-3339.7234" y1="2384.8" x2="-3339.3933" y2="2384.8" gradientTransform="matrix(38.7995 0 0 -38.7995 129659.9063 92685.6484)">
				<stop  offset="0" style="stop-color:#E300D6"/>
				<stop  offset="0.4662" style="stop-color:#4828BE"/>
				<stop  offset="1" style="stop-color:#4828BE"/>
			</linearGradient>
			<rect x="80.2" y="154.4" class="st4" width="12.8" height="4.3"/>
		</g>
		<g>
			<defs>
				<rect id="SVGID_7_" x="112.3" y="92.5" width="4.3" height="4.3"/>
			</defs>
			<clipPath id="SVGID_8_">
				<use xlink:href="#SVGID_7_"  style="overflow:visible;"/>
			</clipPath>
			
				<linearGradient id="SVGID_9_" gradientUnits="userSpaceOnUse" x1="-3196.1953" y1="2392.6853" x2="-3195.8652" y2="2392.6853" gradientTransform="matrix(12.9332 0 0 -12.9332 41449.1953 31039.6777)">
				<stop  offset="0" style="stop-color:#E300D6"/>
				<stop  offset="0.4662" style="stop-color:#4828BE"/>
				<stop  offset="1" style="stop-color:#4828BE"/>
			</linearGradient>
			<rect x="112.3" y="92.5" class="st5" width="4.3" height="4.3"/>
		</g>
		<g>
			<defs>
				<rect id="SVGID_10_" x="95.2" y="92.5" width="4.3" height="4.3"/>
			</defs>
			<clipPath id="SVGID_11_">
				<use xlink:href="#SVGID_10_"  style="overflow:visible;"/>
			</clipPath>
			
				<linearGradient id="SVGID_12_" gradientUnits="userSpaceOnUse" x1="-3193.5154" y1="2392.6853" x2="-3193.1853" y2="2392.6853" gradientTransform="matrix(12.9332 0 0 -12.9332 41397.4648 31039.6777)">
				<stop  offset="0" style="stop-color:#E300D6"/>
				<stop  offset="0.4662" style="stop-color:#4828BE"/>
				<stop  offset="1" style="stop-color:#4828BE"/>
			</linearGradient>
			<rect x="95.2" y="92.5" class="st6" width="4.3" height="4.3"/>
		</g>
		<g>
			<defs>
				<path id="SVGID_13_" d="M111.2,119.4l1.9-1.2l1.3,10.1c-1.8,3.1-4.9,4.9-8.5,4.9c-3.6,0-6.7-1.8-8.5-4.9l1.3-10.1l1.9,1.1
					c1.6,1,3.5,1.5,5.3,1.5C107.7,121,109.5,120.5,111.2,119.4 M102.7,115.8L95,111c-1.2-0.7-2.1-1.7-2.8-2.8l13.7-6.9l13.7,6.8
					c-0.7,1.1-1.6,2.1-2.8,2.8l-7.8,4.9c-1,0.6-2,0.9-3.1,0.9C104.8,116.7,103.7,116.4,102.7,115.8 M80.2,97.9v-4.3
					c0-1.8,1.4-3.2,3.2-3.2h3.2v10.7h-3.2C81.7,101.1,80.2,99.6,80.2,97.9 M125.1,90.4h3.2c1.8,0,3.2,1.4,3.2,3.2v4.3
					c0,1.8-1.4,3.2-3.2,3.2h-3.2V90.4z M90.9,103.8V86.8l5.1-6.8l24.8,7.6v16c0,0.1,0,0.2,0,0.3l-14-7c-0.6-0.3-1.3-0.3-1.9,0l-14,7
					C90.9,103.9,90.9,103.9,90.9,103.8 M84.5,73.3c0-4.7,3.8-8.5,8.5-8.5h34.1v9.4c0,3.7-1,7.3-2.8,10.4c-0.2-0.2-0.5-0.4-0.8-0.5
					l-27.7-8.5c-0.9-0.3-1.8,0-2.3,0.8l-6.4,8.5c-0.3,0.4-0.4,0.8-0.4,1.3h-2.1V73.3z M93,60.5c-7.1,0-12.8,5.7-12.8,12.8v13.5
					c-2.5,1.2-4.3,3.8-4.3,6.7v4.3c0,4.1,3.4,7.5,7.5,7.5h3.3c0.5,3.8,2.6,7.2,6,9.3l1.9,1.2l-1.4,10.8H93c-0.3,0-0.6,0.1-0.8,0.2
					l-8.5,3.7l1.7,3.9l8.1-3.5h0.4c2.6,4.1,7,6.6,11.9,6.6c4.9,0,9.4-2.5,11.9-6.6h0.4l14.5,6.3l1.7-3.9l-14.9-6.5
					c-0.3-0.1-0.6-0.2-0.8-0.2h-0.3l-1.4-10.9l2-1.2c3.3-2.1,5.4-5.4,5.9-9.2h3.3c4.1,0,7.5-3.3,7.5-7.5v-4.3c0-4.1-3.3-7.4-7.4-7.5
					c2-3.6,3.1-7.8,3.1-12V62.7c0-1.2-1-2.1-2.1-2.1H93z"/>
			</defs>
			<clipPath id="SVGID_14_">
				<use xlink:href="#SVGID_13_"  style="overflow:visible;"/>
			</clipPath>
			
				<linearGradient id="SVGID_15_" gradientUnits="userSpaceOnUse" x1="-3398.0356" y1="2377.2407" x2="-3397.7058" y2="2377.2407" gradientTransform="matrix(181.0644 0 0 -181.0644 615339.3125 430532.7188)">
				<stop  offset="0" style="stop-color:#E300D6"/>
				<stop  offset="0.4662" style="stop-color:#4828BE"/>
				<stop  offset="1" style="stop-color:#4828BE"/>
			</linearGradient>
			<rect x="76" y="60.5" class="st7" width="59.8" height="77"/>
		</g>
		<g>
			<defs>
				<path id="SVGID_16_" d="M139.2,139.6l3.5-5.9l7.4-7.4l3,3l-7.3,7.3l-6.2,3.3L139.2,139.6z M156.4,126.7l-5.1-5.1l2.3-3.8
					l8.2,8.2l-3.8,2.3L156.4,126.7z M150.1,111.3c-0.4,0.4-0.6,0.9-0.6,1.5c0,0.6,0.2,1.1,0.6,1.5l0.3,0.3l-2.3,3.8l-1.1-1.1l-3,3
					l3,3c0,0,0,0,0,0l-7.5,7.5c-0.1,0.1-0.2,0.3-0.3,0.4l-4.5,7.5c-0.5,0.8-0.4,1.9,0.3,2.6l-9.3,9.3l3,3l9.3-9.3
					c0.4,0.2,0.8,0.4,1.2,0.4c0.3,0,0.7-0.1,1-0.3l7.8-4.2c0.2-0.1,0.4-0.2,0.5-0.4l7.5-7.5l3,3l3-3l-1.1-1.1l3.8-2.3l0.3,0.3
					c0.4,0.4,1,0.6,1.5,0.6c0.5,0,1.1-0.2,1.5-0.6l27.1-27.1v-6l-1.5,1.5l-4.5-4.5l-3,3l4.5,4.5l-6,6l-4.5-4.5l-3,3l4.5,4.5l-6,6
					l-4.5-4.5l-3,3l4.5,4.5l-6,6l-12.1-12.1l21.1-21l-3-3L150.1,111.3z"/>
			</defs>
			<clipPath id="SVGID_17_">
				<use xlink:href="#SVGID_16_"  style="overflow:visible;"/>
			</clipPath>
			
				<linearGradient id="SVGID_18_" gradientUnits="userSpaceOnUse" x1="-3400.772" y1="2377.2798" x2="-3400.4419" y2="2377.2798" gradientTransform="matrix(210.8885 0 0 -210.8885 717309.375 501462.25)">
				<stop  offset="0" style="stop-color:#E300D6"/>
				<stop  offset="0.4662" style="stop-color:#4828BE"/>
				<stop  offset="1" style="stop-color:#4828BE"/>
			</linearGradient>
			<rect x="125.7" y="88.8" class="st8" width="69.6" height="65"/>
		</g>
		<g>
			<defs>
				<polygon id="SVGID_19_" points="176.8,84.6 179.8,87.6 195.3,72.3 195.3,66.2 				"/>
			</defs>
			<clipPath id="SVGID_20_">
				<use xlink:href="#SVGID_19_"  style="overflow:visible;"/>
			</clipPath>
			
				<linearGradient id="SVGID_21_" gradientUnits="userSpaceOnUse" x1="-3365.9316" y1="2379.218" x2="-3365.6018" y2="2379.218" gradientTransform="matrix(55.8743 0 0 -55.8743 188246.0313 133014.1719)">
				<stop  offset="0" style="stop-color:#E300D6"/>
				<stop  offset="0.4662" style="stop-color:#4828BE"/>
				<stop  offset="1" style="stop-color:#4828BE"/>
			</linearGradient>
			<rect x="176.8" y="66.2" class="st9" width="18.4" height="21.4"/>
		</g>
	</g>
</g>
</svg>
