<?xml version="1.0" encoding="utf-8"?>
<!-- Generator: Adobe Illustrator 19.1.0, SVG Export Plug-In . SVG Version: 6.00 Build 0)  -->
<svg version="1.1" id="Layer_1" xmlns="http://www.w3.org/2000/svg" xmlns:xlink="http://www.w3.org/1999/xlink" x="0px" y="0px"
	 viewBox="0 0 250 250" style="enable-background:new 0 0 250 250;" xml:space="preserve">
<style type="text/css">
	.st0{opacity:0.3;}
	.st1{fill:#FFFFFD;}
	.st2{fill:none;stroke:#F4EEE9;stroke-width:9.3745;stroke-linecap:round;stroke-miterlimit:10;}
	.st3{clip-path:url(#SVGID_2_);fill:url(#SVGID_3_);}
	.st4{clip-path:url(#SVGID_5_);fill:url(#SVGID_6_);}
</style>
<g>
	<g>
		<g>
			<g class="st0">
				<path d="M196.9,244.8H57.7c-23.4,0-42.4-19-42.4-42.4V61.7c0-23.4,19-42.4,42.4-42.4h139.2c23.4,0,42.4,19,42.4,42.4v140.6
					C239.4,225.8,220.4,244.8,196.9,244.8z"/>
			</g>
			<g>
				<path class="st1" d="M194.6,237.7H55.4c-23.4,0-42.4-19-42.4-42.4V54.7c0-23.4,19-42.4,42.4-42.4h139.2
					c23.4,0,42.4,19,42.4,42.4v140.6C237,218.7,218,237.7,194.6,237.7z"/>
			</g>
		</g>
		<path class="st2" d="M27.2,69c0-23.4,19-42.4,42.4-42.4h16.5"/>
		<path class="st2" d="M222.8,181c0,23.4-19,42.4-42.4,42.4"/>
		<line class="st2" x1="105.8" y1="26.6" x2="129.7" y2="26.6"/>
	</g>
	<g>
		<g>
			<defs>
				<path id="SVGID_1_" d="M114.8,168.6c0-2.8,2.3-5.2,5.2-5.2c2.8,0,5.2,2.3,5.2,5.2c0,2.8-2.3,5.2-5.2,5.2
					C117.1,173.8,114.8,171.5,114.8,168.6 M120,160c-4.7,0-8.6,3.9-8.6,8.6c0,4.7,3.9,8.6,8.6,8.6h48.2c4.7,0,8.6-3.9,8.6-8.6
					c0-0.7-0.1-1.5-0.3-2.2l-3.3,0.9c0.1,0.4,0.2,0.9,0.2,1.3c0,2.8-2.3,5.2-5.2,5.2h-41.3c1.1-1.4,1.7-3.2,1.7-5.2
					c0-1.9-0.6-3.7-1.7-5.2h41.3c1.5,0,2.9,0.6,3.9,1.7l2.6-2.3c-1.6-1.9-4-2.9-6.5-2.9H120z"/>
			</defs>
			<clipPath id="SVGID_2_">
				<use xlink:href="#SVGID_1_"  style="overflow:visible;"/>
			</clipPath>
			
				<linearGradient id="SVGID_3_" gradientUnits="userSpaceOnUse" x1="-3406.7563" y1="2381.2954" x2="-3406.4263" y2="2381.2954" gradientTransform="matrix(198.2026 0 0 -198.2026 675339.3125 472147.5313)">
				<stop  offset="0" style="stop-color:#E300D6"/>
				<stop  offset="0.4662" style="stop-color:#4828BE"/>
				<stop  offset="1" style="stop-color:#4828BE"/>
			</linearGradient>
			<rect x="111.3" y="160" class="st3" width="65.4" height="17.2"/>
		</g>
		<g>
			<defs>
				<path id="SVGID_4_" d="M104.5,165.2v1.7c0,0.9,0,3.4-5.2,3.4c-5.2,0-5.2-2.6-5.2-3.4v-1.7c1.4,1.1,3.2,1.7,5.2,1.7
					C101.2,166.9,103,166.3,104.5,165.2 M94.1,158.3c0-2.8,2.3-5.2,5.2-5.2c2.8,0,5.2,2.3,5.2,5.2c0,2.8-2.3,5.2-5.2,5.2
					C96.4,163.5,94.1,161.1,94.1,158.3 M97.6,125.6h6.9v6.9h-6.9V125.6z M107.9,141.1v-15.5h10.3v15.5c0,2.8-2.3,5.2-5.2,5.2
					C110.2,146.3,107.9,143.9,107.9,141.1 M121.7,125.6h6.9v6.9h-6.9V125.6z M145.8,125.6h6.9v6.9h-6.9V125.6z M83.8,141.1v-15.6
					c0.6,0.1,10.3,0.1,10.3,0.1v15.5c0,2.8-2.3,5.2-5.2,5.2C86.1,146.3,83.8,143.9,83.8,141.1 M156.1,141.1v-15.5
					c0,0,9.8,0,10.3-0.1v15.6c0,2.8-2.3,5.2-5.2,5.2C158.4,146.3,156.1,143.9,156.1,141.1 M76.9,122c1,1,2.2,1.8,3.4,2.5v9.2
					c-1.2,0.6-2.4,1.4-3.4,2.4c0,0-0.1,0.1-0.1,0.1V122z M83.8,122v-6.7h10.3v6.9C94.1,122.2,84.4,122.1,83.8,122 M107.9,115.3h10.3
					v6.9h-10.3V115.3z M132,115.3h10.3v6.9H132V115.3z M156.1,115.3h10.3v6.7c-0.6,0.1-10.3,0.2-10.3,0.2V115.3z M169.9,106.7
					c2.1,1.6,3.4,4.1,3.4,6.9c0,2.8-1.4,5.3-3.4,6.9V106.7z M97.6,104.9h6.9v17.2h-6.9V104.9z M121.7,104.9h6.9v17.2h-6.9V104.9z
					 M145.8,104.9h6.9v17.2h-6.9V104.9z M94.1,97v14.8H83.8V97c1.4,0.7,3.1,1.1,5.2,1.1C91,98.1,92.8,97.7,94.1,97 M118.2,97v14.8
					h-10.3V97c1.4,0.7,3.1,1.1,5.2,1.1C115.1,98.1,116.9,97.7,118.2,97 M142.3,97v14.8H132V97c1.4,0.7,3.1,1.1,5.2,1.1
					C139.2,98.1,141,97.7,142.3,97 M166.4,97v14.8h-10.3V97c1.4,0.7,3.1,1.1,5.2,1.1C163.3,98.1,165.1,97.7,166.4,97 M94.1,89.4
					L94.1,89.4v1.7c0,0.9,0,3.4-5.2,3.4c-5.2,0-5.2-2.6-5.2-3.4v-1.7v0c1.4,1.1,3.2,1.7,5.2,1.7C90.9,91.2,92.7,90.5,94.1,89.4
					 M118.2,89.4L118.2,89.4v1.7c0,0.9,0,3.4-5.2,3.4c-5.2,0-5.2-2.6-5.2-3.4v-1.7v0c1.4,1.1,3.2,1.7,5.2,1.7
					C115,91.2,116.8,90.5,118.2,89.4 M142.3,89.4L142.3,89.4v1.7c0,0.9,0,3.4-5.2,3.4c-5.2,0-5.2-2.6-5.2-3.4v-1.7v0
					c1.4,1.1,3.2,1.7,5.2,1.7C139.1,91.2,140.9,90.5,142.3,89.4 M166.4,89.4L166.4,89.4v1.7c0,0.9,0,3.4-5.2,3.4
					c-5.2,0-5.2-2.6-5.2-3.4v-1.7v0c1.4,1.1,3.2,1.7,5.2,1.7C163.2,91.2,165,90.5,166.4,89.4 M83.8,82.6c0-2.8,2.3-5.2,5.2-5.2
					c2.8,0,5.2,2.3,5.2,5.2c0,2.8-2.3,5.2-5.2,5.2C86.1,87.7,83.8,85.4,83.8,82.6 M107.9,82.6c0-2.8,2.3-5.2,5.2-5.2
					c2.8,0,5.2,2.3,5.2,5.2c0,2.8-2.3,5.2-5.2,5.2C110.2,87.7,107.9,85.4,107.9,82.6 M132,82.6c0-2.8,2.3-5.2,5.2-5.2
					c2.8,0,5.2,2.3,5.2,5.2c0,2.8-2.3,5.2-5.2,5.2C134.3,87.7,132,85.4,132,82.6 M156.1,82.6c0-2.8,2.3-5.2,5.2-5.2
					c2.8,0,5.2,2.3,5.2,5.2c0,2.8-2.3,5.2-5.2,5.2C158.4,87.7,156.1,85.4,156.1,82.6 M152.7,82.6v18.9h-6.9V82.6
					c0-4.7-3.9-8.6-8.6-8.6c-4.7,0-8.6,3.9-8.6,8.6v18.9h-6.9V82.6c0-4.7-3.9-8.6-8.6-8.6c-4.7,0-8.6,3.9-8.6,8.6v18.9h-6.9V82.6
					c0-4.7-3.9-8.6-8.6-8.6c-4.7,0-8.6,3.9-8.6,8.6v20.1c-1.4,0.7-2.7,1.7-3.8,2.8l2.6,2.3c0.4-0.4,0.8-0.8,1.3-1.1v13.8
					c-2.1-1.6-3.4-4.1-3.4-6.9c0-1.3,0.3-2.5,0.8-3.6l-3.1-1.4c-0.7,1.6-1.1,3.3-1.1,5v31c0,6.6,5.4,12,12,12h5.3
					c-0.1,0.6-0.2,1.1-0.2,1.7v8.6c0,4.3,3.2,6.9,8.6,6.9c5.4,0,8.6-2.6,8.6-6.9v-8.6c0-4.7-3.9-8.6-8.6-8.6c-2.8,0-5.3,1.4-6.9,3.4
					v0h-6.9c-4.7,0-8.6-3.9-8.6-8.6c0-2.3,0.9-4.5,2.5-6.1c0.3-0.3,0.6-0.6,0.9-0.8v3.4c0,4.7,3.9,8.6,8.6,8.6
					c4.7,0,8.6-3.9,8.6-8.6v-5.2h6.9v5.2c0,4.7,3.9,8.6,8.6,8.6c4.7,0,8.6-3.9,8.6-8.6v-5.2h6.9v3.4h3.4v-13.8h10.3v15.5
					c0,2.8-2.3,5.2-5.2,5.2c-2.4,0-4.4-1.6-5-3.9l-3.3,0.9c1,3.8,4.4,6.5,8.3,6.5c4.7,0,8.6-3.9,8.6-8.6v-5.2h6.9v5.2
					c0,4.7,3.9,8.6,8.6,8.6c4.7,0,8.6-3.9,8.6-8.6v-3.4c2.1,1.6,3.4,4.1,3.4,6.9c0,2.3-0.9,4.5-2.5,6.1c-1.6,1.6-3.8,2.5-6.1,2.5
					h-53.4v3.4h53.4c3.2,0,6.2-1.3,8.5-3.5c2.3-2.3,3.5-5.3,3.5-8.5v-12h-3.4v3.6c-1-1-2.1-1.8-3.4-2.5v-9.2
					c1.3-0.6,2.5-1.5,3.4-2.5v7.1h3.4v-15.5c0-4.7-2.7-8.9-6.9-10.9V82.6c0-4.7-3.9-8.6-8.6-8.6C156.5,74,152.7,77.8,152.7,82.6"/>
			</defs>
			<clipPath id="SVGID_5_">
				<use xlink:href="#SVGID_4_"  style="overflow:visible;"/>
			</clipPath>
			
				<linearGradient id="SVGID_6_" gradientUnits="userSpaceOnUse" x1="-3409.1667" y1="2379.0635" x2="-3408.8367" y2="2379.0635" gradientTransform="matrix(312.9514 0 0 -312.9514 1066977.125 744655.1875)">
				<stop  offset="0" style="stop-color:#E300D6"/>
				<stop  offset="0.4662" style="stop-color:#4828BE"/>
				<stop  offset="1" style="stop-color:#4828BE"/>
			</linearGradient>
			<rect x="73.5" y="74" class="st4" width="103.3" height="99.8"/>
		</g>
	</g>
</g>
</svg>
