<?xml version="1.0" encoding="utf-8"?>
<!-- Generator: Adobe Illustrator 19.1.0, SVG Export Plug-In . SVG Version: 6.00 Build 0)  -->
<svg version="1.1" id="Layer_1" xmlns="http://www.w3.org/2000/svg" xmlns:xlink="http://www.w3.org/1999/xlink" x="0px" y="0px"
	 viewBox="0 0 250 250" style="enable-background:new 0 0 250 250;" xml:space="preserve">
<style type="text/css">
	.st0{opacity:0.3;}
	.st1{fill:#FFFFFD;}
	.st2{fill:none;stroke:#F4EEE9;stroke-width:9.3745;stroke-linecap:round;stroke-miterlimit:10;}
	.st3{clip-path:url(#SVGID_2_);fill:url(#SVGID_3_);}
	.st4{clip-path:url(#SVGID_5_);fill:url(#SVGID_6_);}
	.st5{clip-path:url(#SVGID_8_);fill:url(#SVGID_9_);}
	.st6{clip-path:url(#SVGID_11_);fill:url(#SVGID_12_);}
	.st7{clip-path:url(#SVGID_14_);fill:url(#SVGID_15_);}
	.st8{clip-path:url(#SVGID_17_);fill:url(#SVGID_18_);}
	.st9{clip-path:url(#SVGID_20_);fill:url(#SVGID_21_);}
	.st10{clip-path:url(#SVGID_23_);fill:url(#SVGID_24_);}
	.st11{clip-path:url(#SVGID_26_);fill:url(#SVGID_27_);}
	.st12{clip-path:url(#SVGID_29_);fill:url(#SVGID_30_);}
	.st13{clip-path:url(#SVGID_32_);fill:url(#SVGID_33_);}
	.st14{clip-path:url(#SVGID_35_);fill:url(#SVGID_36_);}
	.st15{clip-path:url(#SVGID_38_);fill:url(#SVGID_39_);}
	.st16{clip-path:url(#SVGID_41_);fill:url(#SVGID_42_);}
</style>
<g>
	<g>
		<g>
			<g class="st0">
				<path d="M196.9,244.8H57.7c-23.4,0-42.4-19-42.4-42.4V61.7c0-23.4,19-42.4,42.4-42.4h139.2c23.4,0,42.4,19,42.4,42.4v140.6
					C239.4,225.8,220.4,244.8,196.9,244.8z"/>
			</g>
			<g>
				<path class="st1" d="M194.6,237.7H55.4c-23.4,0-42.4-19-42.4-42.4V54.7c0-23.4,19-42.4,42.4-42.4h139.2
					c23.4,0,42.4,19,42.4,42.4v140.6C237,218.7,218,237.7,194.6,237.7z"/>
			</g>
		</g>
		<path class="st2" d="M27.2,69c0-23.4,19-42.4,42.4-42.4h16.5"/>
		<path class="st2" d="M222.8,181c0,23.4-19,42.4-42.4,42.4"/>
		<line class="st2" x1="105.8" y1="26.6" x2="129.7" y2="26.6"/>
	</g>
	<g>
		<g>
			<defs>
				<path id="SVGID_1_" d="M128,93.2l0.5-0.3l1.5,4.4l-5.3,5.3l-5.3-5.3l1.5-4.4l0.5,0.3c1,0.6,2.2,0.9,3.3,0.9
					C125.9,94.1,127,93.8,128,93.2 M123.3,90l-4.6-2.8c-0.8-0.5-1.3-1.4-1.3-2.4v-9.7c0-2.8,2.3-5.1,5.1-5.1h4.6
					c2.8,0,5.1,2.3,5.1,5.1v9.7c0,1-0.5,1.9-1.3,2.4l-4.6,2.8c-0.4,0.3-0.9,0.4-1.4,0.4C124.2,90.4,123.7,90.3,123.3,90 M122.4,66.4
					c-4.8,0-8.8,3.9-8.8,8.8v9.7c0,2.3,1.2,4.4,3.1,5.5l0.9,0.5l-1.8,5.5l-9.6,3.9c0,0-0.1,0-0.1,0.1c-2.2,1.1-3.6,3.3-3.6,5.8v6.4
					h3.7v-6.4c0-1,0.6-2,1.5-2.5l9.2-3.8l6.5,6.5c0.4,0.4,0.8,0.5,1.3,0.5c0.5,0,0.9-0.2,1.3-0.5l6.5-6.5l9.2,3.8
					c0.9,0.5,1.5,1.4,1.5,2.5v36.4c0,2.8-2.3,5.1-5.1,5.1h-0.5v-22.2h-3.7v40.7h3.7v-14.8h0.5c4.8,0,8.8-3.9,8.8-8.8v-36.4
					c0-2.5-1.4-4.7-3.6-5.8c0,0-0.1,0-0.1-0.1l-9.6-3.9l-1.8-5.5l0.9-0.5c1.9-1.2,3.1-3.3,3.1-5.5v-9.7c0-4.8-3.9-8.8-8.8-8.8H122.4
					z"/>
			</defs>
			<clipPath id="SVGID_2_">
				<use xlink:href="#SVGID_1_"  style="overflow:visible;"/>
			</clipPath>
			
				<linearGradient id="SVGID_3_" gradientUnits="userSpaceOnUse" x1="-3408.375" y1="2383.0195" x2="-3408.0449" y2="2383.0195" gradientTransform="matrix(134.3864 0 0 -134.3864 458141.875 320361.8125)">
				<stop  offset="0" style="stop-color:#E300D6"/>
				<stop  offset="0.4662" style="stop-color:#4828BE"/>
				<stop  offset="1" style="stop-color:#4828BE"/>
			</linearGradient>
			<rect x="102.5" y="66.4" class="st3" width="44.3" height="99.8"/>
		</g>
		<g>
			<defs>
				<path id="SVGID_4_" d="M102.5,116.3v26.3c0,4.8,3.9,8.8,8.8,8.8h0.5v33.3h3.7v-59.1h-3.7v22.2h-0.5c-2.8,0-5.1-2.3-5.1-5.1
					v-26.3H102.5z"/>
			</defs>
			<clipPath id="SVGID_5_">
				<use xlink:href="#SVGID_4_"  style="overflow:visible;"/>
			</clipPath>
			
				<linearGradient id="SVGID_6_" gradientUnits="userSpaceOnUse" x1="-3394.7139" y1="2401.8379" x2="-3394.384" y2="2401.8379" gradientTransform="matrix(39.196 0 0 -39.196 133161.875 94293.0313)">
				<stop  offset="0" style="stop-color:#E300D6"/>
				<stop  offset="0.4662" style="stop-color:#4828BE"/>
				<stop  offset="1" style="stop-color:#4828BE"/>
			</linearGradient>
			<rect x="102.5" y="116.3" class="st4" width="12.9" height="68.4"/>
		</g>
		<g>
			<defs>
				<rect id="SVGID_7_" x="133.9" y="169.9" width="3.7" height="14.8"/>
			</defs>
			<clipPath id="SVGID_8_">
				<use xlink:href="#SVGID_7_"  style="overflow:visible;"/>
			</clipPath>
			
				<linearGradient id="SVGID_9_" gradientUnits="userSpaceOnUse" x1="-3352.1938" y1="2471.2898" x2="-3351.8638" y2="2471.2898" gradientTransform="matrix(11.1989 0 0 -11.1989 37674.7188 27852.9414)">
				<stop  offset="0" style="stop-color:#E300D6"/>
				<stop  offset="0.4662" style="stop-color:#4828BE"/>
				<stop  offset="1" style="stop-color:#4828BE"/>
			</linearGradient>
			<rect x="133.9" y="169.9" class="st5" width="3.7" height="14.8"/>
		</g>
		<g>
			<defs>
				<rect id="SVGID_10_" x="122.9" y="144" width="3.7" height="40.7"/>
			</defs>
			<clipPath id="SVGID_11_">
				<use xlink:href="#SVGID_10_"  style="overflow:visible;"/>
			</clipPath>
			
				<linearGradient id="SVGID_12_" gradientUnits="userSpaceOnUse" x1="-3350.1838" y1="2468.9448" x2="-3349.8538" y2="2468.9448" gradientTransform="matrix(11.1989 0 0 -11.1989 37641.125 27813.7441)">
				<stop  offset="0" style="stop-color:#E300D6"/>
				<stop  offset="0.4662" style="stop-color:#4828BE"/>
				<stop  offset="1" style="stop-color:#4828BE"/>
			</linearGradient>
			<rect x="122.9" y="144" class="st6" width="3.7" height="40.7"/>
		</g>
		<g>
			<defs>
				<path id="SVGID_13_" d="M69.3,125.6c0-4.1,3.3-7.4,7.4-7.4c4.1,0,7.4,3.3,7.4,7.4c0,4.1-3.3,7.4-7.4,7.4
					C72.6,132.9,69.3,129.6,69.3,125.6 M65.6,125.6c0,6.1,5,11.1,11.1,11.1c5.5,0,10.1-4,10.9-9.2h11.2v-3.7H87.6
					c-0.9-5.2-5.4-9.2-10.9-9.2C70.5,114.5,65.6,119.4,65.6,125.6"/>
			</defs>
			<clipPath id="SVGID_14_">
				<use xlink:href="#SVGID_13_"  style="overflow:visible;"/>
			</clipPath>
			
				<linearGradient id="SVGID_15_" gradientUnits="userSpaceOnUse" x1="-3405.7554" y1="2385.5454" x2="-3405.4255" y2="2385.5454" gradientTransform="matrix(100.7898 0 0 -100.7898 343331.0313 240564.25)">
				<stop  offset="0" style="stop-color:#E300D6"/>
				<stop  offset="0.4662" style="stop-color:#4828BE"/>
				<stop  offset="1" style="stop-color:#4828BE"/>
			</linearGradient>
			<rect x="65.6" y="114.5" class="st7" width="33.3" height="22.2"/>
		</g>
		<g>
			<defs>
				<path id="SVGID_16_" d="M165.4,125.6c0-4.1,3.3-7.4,7.4-7.4c4.1,0,7.4,3.3,7.4,7.4c0,4.1-3.3,7.4-7.4,7.4
					C168.7,132.9,165.4,129.6,165.4,125.6 M161.8,123.7h-11.2v3.7h11.2c0.9,5.2,5.4,9.2,10.9,9.2c6.1,0,11.1-5,11.1-11.1
					c0-6.1-5-11.1-11.1-11.1C167.3,114.5,162.7,118.5,161.8,123.7"/>
			</defs>
			<clipPath id="SVGID_17_">
				<use xlink:href="#SVGID_16_"  style="overflow:visible;"/>
			</clipPath>
			
				<linearGradient id="SVGID_18_" gradientUnits="userSpaceOnUse" x1="-3407.4675" y1="2385.5454" x2="-3407.1377" y2="2385.5454" gradientTransform="matrix(100.7898 0 0 -100.7898 343588.625 240564.25)">
				<stop  offset="0" style="stop-color:#E300D6"/>
				<stop  offset="0.4662" style="stop-color:#4828BE"/>
				<stop  offset="1" style="stop-color:#4828BE"/>
			</linearGradient>
			<rect x="150.6" y="114.5" class="st8" width="33.3" height="22.2"/>
		</g>
		<g>
			<defs>
				<path id="SVGID_19_" d="M69.3,84.9c0-8.2,6.6-14.8,14.8-14.8c8.2,0,14.8,6.6,14.8,14.8c0,8.2-6.6,14.8-14.8,14.8
					C75.9,99.7,69.3,93.1,69.3,84.9 M65.6,84.9c0,10.2,8.3,18.5,18.5,18.5c3.5,0,6.7-1,9.5-2.6l4,4l2.6-2.6l-3.6-3.6
					c3.7-3.4,6-8.2,6-13.6c0-10.2-8.3-18.5-18.5-18.5C73.9,66.4,65.6,74.7,65.6,84.9"/>
			</defs>
			<clipPath id="SVGID_20_">
				<use xlink:href="#SVGID_19_"  style="overflow:visible;"/>
			</clipPath>
			
				<linearGradient id="SVGID_21_" gradientUnits="userSpaceOnUse" x1="-3406.5798" y1="2383.8657" x2="-3406.25" y2="2383.8657" gradientTransform="matrix(111.9887 0 0 -111.9887 381563.9688 267051.5625)">
				<stop  offset="0" style="stop-color:#E300D6"/>
				<stop  offset="0.4662" style="stop-color:#4828BE"/>
				<stop  offset="1" style="stop-color:#4828BE"/>
			</linearGradient>
			<rect x="65.6" y="66.4" class="st9" width="37" height="38.3"/>
		</g>
		<g>
			<defs>
				<path id="SVGID_22_" d="M85.4,81.6l1.4-1.4c0.5-0.5,1.2-0.9,1.9-0.9c0.7,0,1.4,0.3,1.9,0.9c1.1,1.2,1.1,3.1,0,4.3l-6.5,6.9
					l-6.5-6.9c-1.1-1.2-1.1-3.1,0-4.3c0.5-0.5,1.2-0.9,1.9-0.9c0.7,0,1.4,0.3,1.9,0.9l1.4,1.4c0.3,0.4,0.8,0.6,1.3,0.6
					C84.6,82.2,85,82,85.4,81.6 M84.1,77.7L84.1,77.7L84.1,77.7c-1.2-1.3-2.9-2-4.6-2c-1.7,0-3.4,0.7-4.6,2c-2.5,2.6-2.5,6.8,0,9.4
					l7.9,8.3c0.3,0.4,0.8,0.6,1.3,0.6c0.5,0,1-0.2,1.3-0.6l7.9-8.3c2.5-2.6,2.5-6.8,0-9.4c-1.2-1.3-2.9-2-4.6-2
					C86.9,75.7,85.3,76.4,84.1,77.7"/>
			</defs>
			<clipPath id="SVGID_23_">
				<use xlink:href="#SVGID_22_"  style="overflow:visible;"/>
			</clipPath>
			
				<linearGradient id="SVGID_24_" gradientUnits="userSpaceOnUse" x1="-3401.8452" y1="2389.1304" x2="-3401.5154" y2="2389.1304" gradientTransform="matrix(67.1298 0 0 -67.1298 228438.1094 160467.625)">
				<stop  offset="0" style="stop-color:#E300D6"/>
				<stop  offset="0.4662" style="stop-color:#4828BE"/>
				<stop  offset="1" style="stop-color:#4828BE"/>
			</linearGradient>
			<rect x="72.4" y="75.7" class="st10" width="23.4" height="20.3"/>
		</g>
		<g>
			<defs>
				<path id="SVGID_25_" d="M150.6,166.2c0-8.2,6.6-14.8,14.8-14.8c8.2,0,14.8,6.6,14.8,14.8c0,8.2-6.6,14.8-14.8,14.8
					C157.2,181,150.6,174.4,150.6,166.2 M149.3,149l3.6,3.6c-3.7,3.4-6,8.2-6,13.6c0,10.2,8.3,18.5,18.5,18.5
					c10.2,0,18.5-8.3,18.5-18.5c0-10.2-8.3-18.5-18.5-18.5c-3.5,0-6.7,1-9.5,2.6l-4-4L149.3,149z"/>
			</defs>
			<clipPath id="SVGID_26_">
				<use xlink:href="#SVGID_25_"  style="overflow:visible;"/>
			</clipPath>
			
				<linearGradient id="SVGID_27_" gradientUnits="userSpaceOnUse" x1="-3408.054" y1="2385.3162" x2="-3407.7239" y2="2385.3162" gradientTransform="matrix(111.9887 0 0 -111.9887 381810.3438 267293.9688)">
				<stop  offset="0" style="stop-color:#E300D6"/>
				<stop  offset="0.4662" style="stop-color:#4828BE"/>
				<stop  offset="1" style="stop-color:#4828BE"/>
			</linearGradient>
			<rect x="146.9" y="146.4" class="st11" width="37" height="38.3"/>
		</g>
		<g>
			<defs>
				<path id="SVGID_28_" d="M166.8,157c-0.7,0.1-1.3,0.7-1.4,1.4l-1.9,7.6l-0.1-0.2c-0.2-0.8-0.9-1.4-1.8-1.4h-7.4v3.7h5.9l1.5,6
					c0.2,0.8,0.9,1.4,1.8,1.4c0.8,0,1.6-0.6,1.8-1.4l2.8-11l3.2,4.3c0.3,0.5,0.9,0.7,1.5,0.7h3.7v-3.7h-2.8l-5-6.7
					c-0.4-0.5-0.9-0.7-1.5-0.7C167.1,157,167,157,166.8,157"/>
			</defs>
			<clipPath id="SVGID_29_">
				<use xlink:href="#SVGID_28_"  style="overflow:visible;"/>
			</clipPath>
			
				<linearGradient id="SVGID_30_" gradientUnits="userSpaceOnUse" x1="-3404.3132" y1="2391.5466" x2="-3403.9832" y2="2391.5466" gradientTransform="matrix(67.1932 0 0 -67.1932 228901.0156 160861.9063)">
				<stop  offset="0" style="stop-color:#E300D6"/>
				<stop  offset="0.4662" style="stop-color:#4828BE"/>
				<stop  offset="1" style="stop-color:#4828BE"/>
			</linearGradient>
			<rect x="154.3" y="157" class="st12" width="22.2" height="18.5"/>
		</g>
		<g>
			<defs>
				<path id="SVGID_31_" d="M69.3,166.2c0-8.2,6.6-14.8,14.8-14.8c8.2,0,14.8,6.6,14.8,14.8c0,8.2-6.6,14.8-14.8,14.8
					C75.9,181,69.3,174.4,69.3,166.2 M93.6,150.4c-2.8-1.7-6-2.6-9.5-2.6c-10.2,0-18.5,8.3-18.5,18.5c0,10.2,8.3,18.5,18.5,18.5
					c10.2,0,18.5-8.3,18.5-18.5c0-5.4-2.3-10.2-6-13.6l3.6-3.6l-2.6-2.6L93.6,150.4z"/>
			</defs>
			<clipPath id="SVGID_32_">
				<use xlink:href="#SVGID_31_"  style="overflow:visible;"/>
			</clipPath>
			
				<linearGradient id="SVGID_33_" gradientUnits="userSpaceOnUse" x1="-3406.5798" y1="2385.3162" x2="-3406.25" y2="2385.3162" gradientTransform="matrix(111.9887 0 0 -111.9887 381563.9688 267293.9688)">
				<stop  offset="0" style="stop-color:#E300D6"/>
				<stop  offset="0.4662" style="stop-color:#4828BE"/>
				<stop  offset="1" style="stop-color:#4828BE"/>
			</linearGradient>
			<rect x="65.6" y="146.4" class="st13" width="37" height="38.3"/>
		</g>
		<g>
			<defs>
				<path id="SVGID_34_" d="M78.5,168.1c0-1.9,2.9-5.7,5.5-8.5c2.6,2.7,5.5,6.5,5.5,8.5c0,3.1-2.5,5.5-5.5,5.5
					C81,173.6,78.5,171.1,78.5,168.1 M82.8,155.6c-1.3,1.3-8,7.8-8,12.4c0,5.1,4.1,9.2,9.2,9.2c5.1,0,9.2-4.1,9.2-9.2
					c0-4.6-6.6-11.2-8-12.4c-0.4-0.3-0.8-0.5-1.3-0.5S83.1,155.3,82.8,155.6"/>
			</defs>
			<clipPath id="SVGID_35_">
				<use xlink:href="#SVGID_34_"  style="overflow:visible;"/>
			</clipPath>
			
				<linearGradient id="SVGID_36_" gradientUnits="userSpaceOnUse" x1="-3399.4949" y1="2394.656" x2="-3399.1648" y2="2394.656" gradientTransform="matrix(55.9943 0 0 -55.9943 190427.2813 134253.3906)">
				<stop  offset="0" style="stop-color:#E300D6"/>
				<stop  offset="0.4662" style="stop-color:#4828BE"/>
				<stop  offset="1" style="stop-color:#4828BE"/>
			</linearGradient>
			<rect x="74.8" y="155.1" class="st14" width="18.5" height="22.2"/>
		</g>
		<g>
			<defs>
				<path id="SVGID_37_" d="M150.6,84.9c0-8.2,6.6-14.8,14.8-14.8c8.2,0,14.8,6.6,14.8,14.8c0,8.2-6.6,14.8-14.8,14.8
					C157.2,99.7,150.6,93.1,150.6,84.9 M146.9,84.9c0,5.4,2.3,10.2,6,13.6l-3.6,3.6l2.6,2.6l4-4c2.8,1.7,6,2.6,9.5,2.6
					c10.2,0,18.5-8.3,18.5-18.5c0-10.2-8.3-18.5-18.5-18.5C155.2,66.4,146.9,74.7,146.9,84.9"/>
			</defs>
			<clipPath id="SVGID_38_">
				<use xlink:href="#SVGID_37_"  style="overflow:visible;"/>
			</clipPath>
			
				<linearGradient id="SVGID_39_" gradientUnits="userSpaceOnUse" x1="-3408.054" y1="2383.8657" x2="-3407.7239" y2="2383.8657" gradientTransform="matrix(111.9887 0 0 -111.9887 381810.3438 267051.5625)">
				<stop  offset="0" style="stop-color:#E300D6"/>
				<stop  offset="0.4662" style="stop-color:#4828BE"/>
				<stop  offset="1" style="stop-color:#4828BE"/>
			</linearGradient>
			<rect x="146.9" y="66.4" class="st15" width="37" height="38.3"/>
		</g>
		<g>
			<defs>
				<path id="SVGID_40_" d="M161.7,84.9c0-2,1.7-3.7,3.7-3.7c2,0,3.7,1.7,3.7,3.7c0,2-1.7,3.7-3.7,3.7
					C163.3,88.6,161.7,86.9,161.7,84.9 M163.5,73.8v3.9c-1.3,0.3-2.5,1-3.4,2l-3.4-2l-1.8,3.2l3.4,2c-0.2,0.6-0.3,1.3-0.3,2
					c0,0.7,0.1,1.3,0.3,2l-3.4,2l1.8,3.2l3.4-2c0.9,0.9,2.1,1.6,3.4,2V96h3.7v-3.9c1.3-0.3,2.5-1,3.4-2l3.4,2l1.8-3.2l-3.4-2
					c0.2-0.6,0.3-1.3,0.3-2c0-0.7-0.1-1.3-0.3-2l3.4-2l-1.8-3.2l-3.4,2c-0.9-0.9-2.1-1.6-3.4-2v-3.9H163.5z"/>
			</defs>
			<clipPath id="SVGID_41_">
				<use xlink:href="#SVGID_40_"  style="overflow:visible;"/>
			</clipPath>
			
				<linearGradient id="SVGID_42_" gradientUnits="userSpaceOnUse" x1="-3403.8142" y1="2389.7881" x2="-3403.4844" y2="2389.7881" gradientTransform="matrix(63.7907 0 0 -63.7907 217286.4531 152531.1094)">
				<stop  offset="0" style="stop-color:#E300D6"/>
				<stop  offset="0.4662" style="stop-color:#4828BE"/>
				<stop  offset="1" style="stop-color:#4828BE"/>
			</linearGradient>
			<rect x="154.8" y="73.8" class="st16" width="21.1" height="22.2"/>
		</g>
	</g>
</g>
</svg>
