<?xml version="1.0" encoding="utf-8"?>
<!-- Generator: Adobe Illustrator 19.1.0, SVG Export Plug-In . SVG Version: 6.00 Build 0)  -->
<svg version="1.1" id="Layer_1" xmlns="http://www.w3.org/2000/svg" xmlns:xlink="http://www.w3.org/1999/xlink" x="0px" y="0px"
	 viewBox="0 0 250 250" style="enable-background:new 0 0 250 250;" xml:space="preserve">
<style type="text/css">
	.st0{opacity:0.3;}
	.st1{fill:#FFFFFD;}
	.st2{fill:none;stroke:#F4EEE9;stroke-width:9.3745;stroke-linecap:round;stroke-miterlimit:10;}
	.st3{clip-path:url(#SVGID_2_);fill:url(#SVGID_3_);}
</style>
<g>
	<g>
		<g>
			<g class="st0">
				<path d="M196.9,244.8H57.7c-23.4,0-42.4-19-42.4-42.4V61.7c0-23.4,19-42.4,42.4-42.4h139.2c23.4,0,42.4,19,42.4,42.4v140.6
					C239.4,225.8,220.4,244.8,196.9,244.8z"/>
			</g>
			<g>
				<path class="st1" d="M194.6,237.7H55.4c-23.4,0-42.4-19-42.4-42.4V54.7c0-23.4,19-42.4,42.4-42.4h139.2
					c23.4,0,42.4,19,42.4,42.4v140.6C237,218.7,218,237.7,194.6,237.7z"/>
			</g>
		</g>
		<path class="st2" d="M27.2,69c0-23.4,19-42.4,42.4-42.4h16.5"/>
		<path class="st2" d="M222.8,181c0,23.4-19,42.4-42.4,42.4"/>
		<line class="st2" x1="105.8" y1="26.6" x2="129.7" y2="26.6"/>
	</g>
	<g>
		<g>
			<defs>
				<path id="SVGID_1_" d="M109.4,155.7h25.8v25.5h-25.8V155.7z M109.4,151.8c-2.2,0-4,1.8-4,4v25.5c0,2.2,1.8,4,4,4h25.8
					c2.2,0,4-1.8,4-4v-25.5c0-2.2-1.8-4-4-4H109.4z M86.5,85.5c9.2-10.2,21.6-17.2,39-17.2c22.9,0,38.5,11.8,38.5,33.1
					c0,20.4-14,28.6-31.4,32.1l-1.8,9.7h-16.2l-3.7-25.8l0.8-0.8c20.1-0.8,27.9-6,27.9-14.6c0-7.3-5.4-11.5-14.6-11.5
					c-8.9,0-16.6,3.7-23.9,11L86.5,85.5z M101.3,69.5c-6.5,3.1-12.4,7.5-17.7,13.3c-1.4,1.5-1.4,3.8,0,5.3l14.6,16.1
					c0.7,0.8,1.8,1.3,2.8,1.3c0,0,0.1,0,0.1,0c1,0,2.1-0.4,2.8-1.2c6.7-6.7,13.4-9.8,21.1-9.8c3.7,0,6.5,0.7,8.4,2.2
					c1.6,1.2,2.3,3,2.3,5.3c0,3-1.4,5.1-4.4,6.8c-4,2.2-10.6,3.5-19.7,3.9c-1,0-1.9,0.5-2.6,1.2l-0.8,0.8c-0.9,0.9-1.3,2.1-1.1,3.4
					l3.7,25.8c0.3,2,1.9,3.4,3.9,3.4h16.2c1.9,0,3.6-1.4,3.9-3.3l1.3-7.1c9.2-2.2,16.2-5.5,21.4-10.1c7-6.2,10.5-14.7,10.5-25.4
					c0-11.5-4.2-21-12.1-27.6c-7.5-6.2-18-9.5-30.4-9.5C116.7,64.4,108.6,66.1,101.3,69.5"/>
			</defs>
			<clipPath id="SVGID_2_">
				<use xlink:href="#SVGID_1_"  style="overflow:visible;"/>
			</clipPath>
			
				<linearGradient id="SVGID_3_" gradientUnits="userSpaceOnUse" x1="-3405.6401" y1="2369.2668" x2="-3405.3101" y2="2369.2668" gradientTransform="matrix(258.8725 0 0 -258.8725 881709.25 613462.875)">
				<stop  offset="0" style="stop-color:#E300D6"/>
				<stop  offset="0.4662" style="stop-color:#4828BE"/>
				<stop  offset="1" style="stop-color:#4828BE"/>
			</linearGradient>
			<rect x="82.2" y="64.4" class="st3" width="85.8" height="120.8"/>
		</g>
	</g>
</g>
</svg>
