<?xml version="1.0" encoding="utf-8"?>
<!-- Generator: Adobe Illustrator 19.1.0, SVG Export Plug-In . SVG Version: 6.00 Build 0)  -->
<svg version="1.1" id="Layer_1" xmlns="http://www.w3.org/2000/svg" xmlns:xlink="http://www.w3.org/1999/xlink" x="0px" y="0px"
	 viewBox="0 0 250 250" style="enable-background:new 0 0 250 250;" xml:space="preserve">
<style type="text/css">
	.st0{opacity:0.3;}
	.st1{fill:#FFFFFD;}
	.st2{fill:none;stroke:#F4EEE9;stroke-width:9.3745;stroke-linecap:round;stroke-miterlimit:10;}
	.st3{clip-path:url(#SVGID_2_);fill:url(#SVGID_3_);}
	.st4{clip-path:url(#SVGID_5_);fill:url(#SVGID_6_);}
	.st5{clip-path:url(#SVGID_8_);fill:url(#SVGID_9_);}
	.st6{clip-path:url(#SVGID_11_);fill:url(#SVGID_12_);}
	.st7{clip-path:url(#SVGID_14_);fill:url(#SVGID_15_);}
	.st8{clip-path:url(#SVGID_17_);fill:url(#SVGID_18_);}
	.st9{clip-path:url(#SVGID_20_);fill:url(#SVGID_21_);}
	.st10{clip-path:url(#SVGID_23_);fill:url(#SVGID_24_);}
	.st11{clip-path:url(#SVGID_26_);fill:url(#SVGID_27_);}
	.st12{clip-path:url(#SVGID_29_);fill:url(#SVGID_30_);}
	.st13{clip-path:url(#SVGID_32_);fill:url(#SVGID_33_);}
	.st14{clip-path:url(#SVGID_35_);fill:url(#SVGID_36_);}
	.st15{clip-path:url(#SVGID_38_);fill:url(#SVGID_39_);}
	.st16{clip-path:url(#SVGID_41_);fill:url(#SVGID_42_);}
	.st17{clip-path:url(#SVGID_44_);fill:url(#SVGID_45_);}
	.st18{clip-path:url(#SVGID_47_);fill:url(#SVGID_48_);}
	.st19{clip-path:url(#SVGID_50_);fill:url(#SVGID_51_);}
</style>
<g>
	<g>
		<g>
			<g class="st0">
				<path d="M196.9,244.8H57.7c-23.4,0-42.4-19-42.4-42.4V61.7c0-23.4,19-42.4,42.4-42.4h139.2c23.4,0,42.4,19,42.4,42.4v140.6
					C239.4,225.8,220.4,244.8,196.9,244.8z"/>
			</g>
			<g>
				<path class="st1" d="M194.6,237.7H55.4c-23.4,0-42.4-19-42.4-42.4V54.7c0-23.4,19-42.4,42.4-42.4h139.2
					c23.4,0,42.4,19,42.4,42.4v140.6C237,218.7,218,237.7,194.6,237.7z"/>
			</g>
		</g>
		<path class="st2" d="M27.2,69c0-23.4,19-42.4,42.4-42.4h16.5"/>
		<path class="st2" d="M222.8,181c0,23.4-19,42.4-42.4,42.4"/>
		<line class="st2" x1="105.8" y1="26.6" x2="129.7" y2="26.6"/>
	</g>
	<g>
		<g>
			<defs>
				<path id="SVGID_1_" d="M106.3,183.1c0-1.1,0.7-2.2,1.8-2.5l1.5-0.5c1.7-0.6,3.5-2.2,5.2-4.8c1.2-1.8,1.9-3.4,1.9-3.5
					c0.1-0.2,0.2-0.5,0.2-0.7v-1.8h17.7v1.8c0,0.2,0.1,0.5,0.2,0.7c0,0.1,0.8,1.7,1.9,3.5c1.7,2.6,3.4,4.2,5.2,4.8l1.5,0.5
					c1.1,0.4,1.8,1.4,1.8,2.5v0.4h-39V183.1z M99.2,164.8c0-1.5,1.2-2.7,2.7-2.7h47.9c1.5,0,2.7,1.2,2.7,2.7v0.9H99.2V164.8z
					 M93.9,145.3v-17.5c0-5.4,1.8-10.8,5-15.2l9.1-12.1c0.2-0.3,0.5-0.4,0.6-0.4c0,0,0.1,0,0.1,0c0.2,0,0.4,0,0.6,0.2l1.8,1.6
					c2.5,2.2,4,5.5,4,8.9v4.9l-2.8,1.9l-4.6-6.1l-2.8,2.1l4.5,6L98.3,127l2,3l3.5-2.3l2.7,6.8l3.3-1.3l-3-7.5l8.5-5.6v1.8
					c0,0.5-0.1,0.9-0.4,1.2c-1.7,2.6-2.7,6.1-2.7,9.8c0,1.4,0.1,2.9,0.4,4.2c0.1,0.6,0,1.2-0.4,1.7c-3.2,4.7-8.5,7.5-14.1,7.5h-3.2
					C94.3,146.2,93.9,145.8,93.9,145.3 M136.5,115.7v-4.9c0-3.4,1.5-6.6,4-8.9l1.8-1.6c0.2-0.2,0.4-0.2,0.6-0.2c0,0,0.1,0,0.1,0
					c0.1,0,0.4,0.1,0.6,0.4l9.1,12.1c3.3,4.4,5,9.7,5,15.2v17.5c0,0.5-0.4,0.9-0.9,0.9h-3.2c-5.6,0-10.9-2.8-14.1-7.5
					c-0.3-0.5-0.5-1.1-0.4-1.7c0.3-1.4,0.4-2.8,0.4-4.2c0-3.8-1-7.2-2.7-9.8c-0.2-0.4-0.4-0.8-0.4-1.2v-1.8l8.5,5.6l-3,7.5l3.3,1.3
					l2.7-6.8l3.5,2.3l2-3l-11.2-7.4l4.5-6l-2.8-2.1l-4.6,6.1L136.5,115.7z M113.4,77.9V77h24.8v0.9c0,1.5-1.2,2.7-2.7,2.7h-19.5
					C114.6,80.6,113.4,79.4,113.4,77.9 M135.6,84.1c3.4,0,6.2-2.8,6.2-6.2V77h36.8c0.2,0,0.4,0.2,0.4,0.4v10.2H72.6V77.4
					c0-0.2,0.2-0.4,0.4-0.4h36.8v0.9c0,3.4,2.8,6.2,6.2,6.2H135.6z M73.1,73.5c-2.2,0-4,1.8-4,4v29.7h3.5v-16h51.5v18.6l-5.3,3.5
					v-2.5c0-4.4-1.9-8.6-5.2-11.5l-1.8-1.6c-0.9-0.8-2.2-1.2-3.4-1.1c-1.2,0.1-2.4,0.8-3.1,1.8l-9.1,12.1c-3.7,5-5.8,11.1-5.8,17.3
					v17.5c0,2.5,2,4.5,4.5,4.5h3.2c6.8,0,13.2-3.4,17.1-9c0.9-1.3,1.2-2.9,0.9-4.5c-0.2-1.1-0.4-2.3-0.4-3.5c0-3,0.8-5.9,2.1-7.8
					c0.6-0.9,1-2.1,1-3.2v-4.1l7.1-4.7l7.1,4.7v4.1c0,1.2,0.3,2.3,1,3.2c1.3,2,2.1,4.8,2.1,7.8c0,1.2-0.1,2.4-0.3,3.5
					c-0.3,1.5,0,3.2,0.9,4.5c3.9,5.6,10.2,9,17,9h3.2c2.5,0,4.5-2,4.5-4.5v-17.5c0-6.2-2-12.4-5.8-17.3l-9.1-12.1
					c-0.7-1-1.9-1.6-3.1-1.8c-1.2-0.1-2.5,0.3-3.4,1.1l-1.8,1.6c-3.3,2.9-5.2,7.1-5.2,11.5v2.5l-5.3-3.5V91.2h51.5v60.3H72.6v-40.8
					h-3.5v54.6c0,2.2,1.8,4,4,4h40.4v1.4c-1.1,2.3-3.2,5.5-4.9,6.1l-1.5,0.5c-2.5,0.8-4.2,3.2-4.2,5.9v2.1c0,1,0.8,1.8,1.8,1.8h42.6
					c1,0,1.8-0.8,1.8-1.8v-2.1c0-2.7-1.7-5-4.2-5.9l-1.5-0.5c-1.7-0.6-3.8-3.8-4.9-6.1v-1.4h28.4v-3.5H156v-0.9
					c0-3.4-2.8-6.2-6.2-6.2h-47.9c-3.4,0-6.2,2.8-6.2,6.2v0.9H73.1c-0.2,0-0.4-0.2-0.4-0.4v-10.2h106.5v10.2c0,0.2-0.2,0.4-0.4,0.4
					h-8.4v3.5h8.4c2.2,0,4-1.8,4-4V77.4c0-2.2-1.8-4-4-4H73.1z"/>
			</defs>
			<clipPath id="SVGID_2_">
				<use xlink:href="#SVGID_1_"  style="overflow:visible;"/>
			</clipPath>
			
				<linearGradient id="SVGID_3_" gradientUnits="userSpaceOnUse" x1="-3405.5576" y1="2380.7839" x2="-3405.2275" y2="2380.7839" gradientTransform="matrix(344.0865 0 0 -344.0865 1171875.375 819325.8125)">
				<stop  offset="0" style="stop-color:#E300D6"/>
				<stop  offset="0.4662" style="stop-color:#4828BE"/>
				<stop  offset="1" style="stop-color:#4828BE"/>
			</linearGradient>
			<rect x="69.1" y="73.5" class="st3" width="113.5" height="113.5"/>
		</g>
		<g>
			<defs>
				<rect id="SVGID_4_" x="148.9" y="135.6" width="3.5" height="3.5"/>
			</defs>
			<clipPath id="SVGID_5_">
				<use xlink:href="#SVGID_4_"  style="overflow:visible;"/>
			</clipPath>
			
				<linearGradient id="SVGID_6_" gradientUnits="userSpaceOnUse" x1="-3158.915" y1="2530.427" x2="-3158.5852" y2="2530.427" gradientTransform="matrix(10.7527 0 0 -10.7527 34115.7891 27346.2578)">
				<stop  offset="0" style="stop-color:#E300D6"/>
				<stop  offset="0.4662" style="stop-color:#4828BE"/>
				<stop  offset="1" style="stop-color:#4828BE"/>
			</linearGradient>
			<rect x="148.9" y="135.6" class="st4" width="3.5" height="3.5"/>
		</g>
		<g>
			<defs>
				<rect id="SVGID_7_" x="148.9" y="117.8" width="3.5" height="3.5"/>
			</defs>
			<clipPath id="SVGID_8_">
				<use xlink:href="#SVGID_7_"  style="overflow:visible;"/>
			</clipPath>
			
				<linearGradient id="SVGID_9_" gradientUnits="userSpaceOnUse" x1="-3158.915" y1="2527.0769" x2="-3158.5852" y2="2527.0769" gradientTransform="matrix(10.7527 0 0 -10.7527 34115.7891 27292.4941)">
				<stop  offset="0" style="stop-color:#E300D6"/>
				<stop  offset="0.4662" style="stop-color:#4828BE"/>
				<stop  offset="1" style="stop-color:#4828BE"/>
			</linearGradient>
			<rect x="148.9" y="117.8" class="st5" width="3.5" height="3.5"/>
		</g>
		<g>
			<defs>
				<rect id="SVGID_10_" x="140" y="105.4" width="3.5" height="3.5"/>
			</defs>
			<clipPath id="SVGID_11_">
				<use xlink:href="#SVGID_10_"  style="overflow:visible;"/>
			</clipPath>
			
				<linearGradient id="SVGID_12_" gradientUnits="userSpaceOnUse" x1="-3157.2402" y1="2524.7319" x2="-3156.9102" y2="2524.7319" gradientTransform="matrix(10.7527 0 0 -10.7527 34088.9063 27254.8594)">
				<stop  offset="0" style="stop-color:#E300D6"/>
				<stop  offset="0.4662" style="stop-color:#4828BE"/>
				<stop  offset="1" style="stop-color:#4828BE"/>
			</linearGradient>
			<rect x="140" y="105.4" class="st6" width="3.5" height="3.5"/>
		</g>
		<g>
			<defs>
				<rect id="SVGID_13_" x="99.2" y="135.6" width="3.5" height="3.5"/>
			</defs>
			<clipPath id="SVGID_14_">
				<use xlink:href="#SVGID_13_"  style="overflow:visible;"/>
			</clipPath>
			
				<linearGradient id="SVGID_15_" gradientUnits="userSpaceOnUse" x1="-3149.5352" y1="2530.427" x2="-3149.2051" y2="2530.427" gradientTransform="matrix(10.7527 0 0 -10.7527 33965.25 27346.2578)">
				<stop  offset="0" style="stop-color:#E300D6"/>
				<stop  offset="0.4662" style="stop-color:#4828BE"/>
				<stop  offset="1" style="stop-color:#4828BE"/>
			</linearGradient>
			<rect x="99.2" y="135.6" class="st7" width="3.5" height="3.5"/>
		</g>
		<g>
			<defs>
				<rect id="SVGID_16_" x="99.2" y="117.8" width="3.5" height="3.5"/>
			</defs>
			<clipPath id="SVGID_17_">
				<use xlink:href="#SVGID_16_"  style="overflow:visible;"/>
			</clipPath>
			
				<linearGradient id="SVGID_18_" gradientUnits="userSpaceOnUse" x1="-3149.5352" y1="2527.0769" x2="-3149.2051" y2="2527.0769" gradientTransform="matrix(10.7527 0 0 -10.7527 33965.25 27292.4941)">
				<stop  offset="0" style="stop-color:#E300D6"/>
				<stop  offset="0.4662" style="stop-color:#4828BE"/>
				<stop  offset="1" style="stop-color:#4828BE"/>
			</linearGradient>
			<rect x="99.2" y="117.8" class="st8" width="3.5" height="3.5"/>
		</g>
		<g>
			<defs>
				<rect id="SVGID_19_" x="108.1" y="105.4" width="3.5" height="3.5"/>
			</defs>
			<clipPath id="SVGID_20_">
				<use xlink:href="#SVGID_19_"  style="overflow:visible;"/>
			</clipPath>
			
				<linearGradient id="SVGID_21_" gradientUnits="userSpaceOnUse" x1="-3151.2102" y1="2524.7319" x2="-3150.8801" y2="2524.7319" gradientTransform="matrix(10.7527 0 0 -10.7527 33992.1328 27254.8594)">
				<stop  offset="0" style="stop-color:#E300D6"/>
				<stop  offset="0.4662" style="stop-color:#4828BE"/>
				<stop  offset="1" style="stop-color:#4828BE"/>
			</linearGradient>
			<rect x="108.1" y="105.4" class="st9" width="3.5" height="3.5"/>
		</g>
		<g>
			<defs>
				<path id="SVGID_22_" d="M164.9,94.7c-0.5,0-1,0.2-1.4,0.7l-7.1,8.9l2.8,2.2l6.6-8.2h9.8v-3.5H164.9z"/>
			</defs>
			<clipPath id="SVGID_23_">
				<use xlink:href="#SVGID_22_"  style="overflow:visible;"/>
			</clipPath>
			
				<linearGradient id="SVGID_24_" gradientUnits="userSpaceOnUse" x1="-3366.9414" y1="2403.3621" x2="-3366.6113" y2="2403.3621" gradientTransform="matrix(57.9629 0 0 -57.9629 195314.25 139406.5781)">
				<stop  offset="0" style="stop-color:#E300D6"/>
				<stop  offset="0.4662" style="stop-color:#4828BE"/>
				<stop  offset="1" style="stop-color:#4828BE"/>
			</linearGradient>
			<rect x="156.4" y="94.7" class="st10" width="19.1" height="11.8"/>
		</g>
		<g>
			<defs>
				<rect id="SVGID_25_" x="166.7" y="101.8" width="8.9" height="3.5"/>
			</defs>
			<clipPath id="SVGID_26_">
				<use xlink:href="#SVGID_25_"  style="overflow:visible;"/>
			</clipPath>
			
				<linearGradient id="SVGID_27_" gradientUnits="userSpaceOnUse" x1="-3313.3062" y1="2435.2249" x2="-3312.9761" y2="2435.2249" gradientTransform="matrix(26.8818 0 0 -26.8818 89234.1406 65566.7344)">
				<stop  offset="0" style="stop-color:#E300D6"/>
				<stop  offset="0.4662" style="stop-color:#4828BE"/>
				<stop  offset="1" style="stop-color:#4828BE"/>
			</linearGradient>
			<rect x="166.7" y="101.8" class="st11" width="8.9" height="3.5"/>
		</g>
		<g>
			<defs>
				<path id="SVGID_28_" d="M76.2,94.7v3.5H86l6.6,8.2l2.8-2.2l-7.1-8.9c-0.3-0.4-0.8-0.7-1.4-0.7H76.2z"/>
			</defs>
			<clipPath id="SVGID_29_">
				<use xlink:href="#SVGID_28_"  style="overflow:visible;"/>
			</clipPath>
			
				<linearGradient id="SVGID_30_" gradientUnits="userSpaceOnUse" x1="-3364.1306" y1="2403.3625" x2="-3363.8005" y2="2403.3625" gradientTransform="matrix(57.9621 0 0 -57.9621 195068.2656 139404.5781)">
				<stop  offset="0" style="stop-color:#E300D6"/>
				<stop  offset="0.4662" style="stop-color:#4828BE"/>
				<stop  offset="1" style="stop-color:#4828BE"/>
			</linearGradient>
			<rect x="76.2" y="94.7" class="st12" width="19.1" height="11.8"/>
		</g>
		<g>
			<defs>
				<rect id="SVGID_31_" x="76.2" y="101.8" width="8.9" height="3.5"/>
			</defs>
			<clipPath id="SVGID_32_">
				<use xlink:href="#SVGID_31_"  style="overflow:visible;"/>
			</clipPath>
			
				<linearGradient id="SVGID_33_" gradientUnits="userSpaceOnUse" x1="-3306.4722" y1="2435.2249" x2="-3306.1421" y2="2435.2249" gradientTransform="matrix(26.8818 0 0 -26.8818 88959.9453 65566.7344)">
				<stop  offset="0" style="stop-color:#E300D6"/>
				<stop  offset="0.4662" style="stop-color:#4828BE"/>
				<stop  offset="1" style="stop-color:#4828BE"/>
			</linearGradient>
			<rect x="76.2" y="101.8" class="st13" width="8.9" height="3.5"/>
		</g>
		<g>
			<defs>
				<rect id="SVGID_34_" x="76.2" y="128.5" width="10.6" height="3.5"/>
			</defs>
			<clipPath id="SVGID_35_">
				<use xlink:href="#SVGID_34_"  style="overflow:visible;"/>
			</clipPath>
			
				<linearGradient id="SVGID_36_" gradientUnits="userSpaceOnUse" x1="-3324.3933" y1="2427.0291" x2="-3324.0635" y2="2427.0291" gradientTransform="matrix(32.2581 0 0 -32.2581 107314.8047 78421.5938)">
				<stop  offset="0" style="stop-color:#E300D6"/>
				<stop  offset="0.4662" style="stop-color:#4828BE"/>
				<stop  offset="1" style="stop-color:#4828BE"/>
			</linearGradient>
			<rect x="76.2" y="128.5" class="st14" width="10.6" height="3.5"/>
		</g>
		<g>
			<defs>
				<rect id="SVGID_37_" x="76.2" y="135.6" width="10.6" height="3.5"/>
			</defs>
			<clipPath id="SVGID_38_">
				<use xlink:href="#SVGID_37_"  style="overflow:visible;"/>
			</clipPath>
			
				<linearGradient id="SVGID_39_" gradientUnits="userSpaceOnUse" x1="-3324.3933" y1="2427.4756" x2="-3324.0635" y2="2427.4756" gradientTransform="matrix(32.2581 0 0 -32.2581 107314.8047 78443.0938)">
				<stop  offset="0" style="stop-color:#E300D6"/>
				<stop  offset="0.4662" style="stop-color:#4828BE"/>
				<stop  offset="1" style="stop-color:#4828BE"/>
			</linearGradient>
			<rect x="76.2" y="135.6" class="st15" width="10.6" height="3.5"/>
		</g>
		<g>
			<defs>
				<rect id="SVGID_40_" x="76.2" y="142.7" width="10.6" height="3.5"/>
			</defs>
			<clipPath id="SVGID_41_">
				<use xlink:href="#SVGID_40_"  style="overflow:visible;"/>
			</clipPath>
			
				<linearGradient id="SVGID_42_" gradientUnits="userSpaceOnUse" x1="-3324.3933" y1="2427.9224" x2="-3324.0635" y2="2427.9224" gradientTransform="matrix(32.2581 0 0 -32.2581 107314.8047 78464.6016)">
				<stop  offset="0" style="stop-color:#E300D6"/>
				<stop  offset="0.4662" style="stop-color:#4828BE"/>
				<stop  offset="1" style="stop-color:#4828BE"/>
			</linearGradient>
			<rect x="76.2" y="142.7" class="st16" width="10.6" height="3.5"/>
		</g>
		<g>
			<defs>
				<rect id="SVGID_43_" x="164.9" y="128.5" width="10.6" height="3.5"/>
			</defs>
			<clipPath id="SVGID_44_">
				<use xlink:href="#SVGID_43_"  style="overflow:visible;"/>
			</clipPath>
			
				<linearGradient id="SVGID_45_" gradientUnits="userSpaceOnUse" x1="-3329.9768" y1="2427.0291" x2="-3329.6467" y2="2427.0291" gradientTransform="matrix(32.2581 0 0 -32.2581 107583.625 78421.5938)">
				<stop  offset="0" style="stop-color:#E300D6"/>
				<stop  offset="0.4662" style="stop-color:#4828BE"/>
				<stop  offset="1" style="stop-color:#4828BE"/>
			</linearGradient>
			<rect x="164.9" y="128.5" class="st17" width="10.6" height="3.5"/>
		</g>
		<g>
			<defs>
				<rect id="SVGID_46_" x="164.9" y="135.6" width="10.6" height="3.5"/>
			</defs>
			<clipPath id="SVGID_47_">
				<use xlink:href="#SVGID_46_"  style="overflow:visible;"/>
			</clipPath>
			
				<linearGradient id="SVGID_48_" gradientUnits="userSpaceOnUse" x1="-3329.9768" y1="2427.4756" x2="-3329.6467" y2="2427.4756" gradientTransform="matrix(32.2581 0 0 -32.2581 107583.625 78443.0938)">
				<stop  offset="0" style="stop-color:#E300D6"/>
				<stop  offset="0.4662" style="stop-color:#4828BE"/>
				<stop  offset="1" style="stop-color:#4828BE"/>
			</linearGradient>
			<rect x="164.9" y="135.6" class="st18" width="10.6" height="3.5"/>
		</g>
		<g>
			<defs>
				<rect id="SVGID_49_" x="164.9" y="142.7" width="10.6" height="3.5"/>
			</defs>
			<clipPath id="SVGID_50_">
				<use xlink:href="#SVGID_49_"  style="overflow:visible;"/>
			</clipPath>
			
				<linearGradient id="SVGID_51_" gradientUnits="userSpaceOnUse" x1="-3329.9768" y1="2427.9224" x2="-3329.6467" y2="2427.9224" gradientTransform="matrix(32.2581 0 0 -32.2581 107583.625 78464.6016)">
				<stop  offset="0" style="stop-color:#E300D6"/>
				<stop  offset="0.4662" style="stop-color:#4828BE"/>
				<stop  offset="1" style="stop-color:#4828BE"/>
			</linearGradient>
			<rect x="164.9" y="142.7" class="st19" width="10.6" height="3.5"/>
		</g>
	</g>
</g>
</svg>
