<?xml version="1.0" encoding="utf-8"?>
<!-- Generator: Adobe Illustrator 19.1.0, SVG Export Plug-In . SVG Version: 6.00 Build 0)  -->
<svg version="1.1" id="Layer_1" xmlns="http://www.w3.org/2000/svg" xmlns:xlink="http://www.w3.org/1999/xlink" x="0px" y="0px"
	 viewBox="0 0 250 250" style="enable-background:new 0 0 250 250;" xml:space="preserve">
<style type="text/css">
	.st0{opacity:0.3;}
	.st1{fill:#FFFFFD;}
	.st2{fill:none;stroke:#F4EEE9;stroke-width:9.3745;stroke-linecap:round;stroke-miterlimit:10;}
	.st3{clip-path:url(#SVGID_2_);fill:url(#SVGID_3_);}
	.st4{clip-path:url(#SVGID_5_);fill:url(#SVGID_6_);}
	.st5{clip-path:url(#SVGID_8_);fill:url(#SVGID_9_);}
	.st6{clip-path:url(#SVGID_11_);fill:url(#SVGID_12_);}
</style>
<g>
	<g>
		<g>
			<g class="st0">
				<path d="M196.9,244.8H57.7c-23.4,0-42.4-19-42.4-42.4V61.7c0-23.4,19-42.4,42.4-42.4h139.2c23.4,0,42.4,19,42.4,42.4v140.6
					C239.4,225.8,220.4,244.8,196.9,244.8z"/>
			</g>
			<g>
				<path class="st1" d="M194.6,237.7H55.4c-23.4,0-42.4-19-42.4-42.4V54.7c0-23.4,19-42.4,42.4-42.4h139.2
					c23.4,0,42.4,19,42.4,42.4v140.6C237,218.7,218,237.7,194.6,237.7z"/>
			</g>
		</g>
		<path class="st2" d="M27.2,69c0-23.4,19-42.4,42.4-42.4h16.5"/>
		<path class="st2" d="M222.8,181c0,23.4-19,42.4-42.4,42.4"/>
		<line class="st2" x1="105.8" y1="26.6" x2="129.7" y2="26.6"/>
	</g>
	<g>
		<g>
			<defs>
				<path id="SVGID_1_" d="M64.5,140h22.7v-5.1c-0.5,0-1,0-1.5,0c-7.1,0-14.2,0-21.2,0V140z"/>
			</defs>
			<clipPath id="SVGID_2_">
				<use xlink:href="#SVGID_1_"  style="overflow:visible;"/>
			</clipPath>
			
				<linearGradient id="SVGID_3_" gradientUnits="userSpaceOnUse" x1="-3452.7585" y1="2390.3215" x2="-3452.4287" y2="2390.3215" gradientTransform="matrix(68.859 0 0 -68.859 237818 164732.5625)">
				<stop  offset="0" style="stop-color:#E300D6"/>
				<stop  offset="0.4662" style="stop-color:#4828BE"/>
				<stop  offset="1" style="stop-color:#4828BE"/>
			</linearGradient>
			<rect x="64.5" y="134.8" class="st3" width="22.7" height="5.2"/>
		</g>
		<g>
			<defs>
				<path id="SVGID_4_" d="M143.5,82.3c0.1,0,0.1,0.1,0.2,0.1c-1.3,10.7-2.5,21.3-3.8,32.1h34.5c-14.1,17.7-28.1,35.1-42,52.6
					c-0.1,0-0.1-0.1-0.2-0.1c1.3-10.7,2.5-21.3,3.8-32.1h-34.5C115.7,117.2,129.6,99.8,143.5,82.3 M91,140h39.4
					c-1.8,14.8-3.5,29.4-5.3,44c0.1,0,0.2,0.1,0.2,0.1c19.8-24.8,39.6-49.6,59.5-74.6h-39.3c1.8-14.8,3.5-29.4,5.3-44.1
					c-0.1,0-0.2-0.1-0.3-0.1C130.8,90.1,111,115,91,140"/>
			</defs>
			<clipPath id="SVGID_5_">
				<use xlink:href="#SVGID_4_"  style="overflow:visible;"/>
			</clipPath>
			
				<linearGradient id="SVGID_6_" gradientUnits="userSpaceOnUse" x1="-3423.5708" y1="2379.3762" x2="-3423.2407" y2="2379.3762" gradientTransform="matrix(284.4856 0 0 -284.4856 974047.6875 677023.0625)">
				<stop  offset="0" style="stop-color:#E300D6"/>
				<stop  offset="0.4662" style="stop-color:#4828BE"/>
				<stop  offset="1" style="stop-color:#4828BE"/>
			</linearGradient>
			<rect x="91" y="65.3" class="st4" width="93.9" height="118.8"/>
		</g>
		<g>
			<defs>
				<rect id="SVGID_7_" x="74.7" y="119.8" width="22.7" height="4.8"/>
			</defs>
			<clipPath id="SVGID_8_">
				<use xlink:href="#SVGID_7_"  style="overflow:visible;"/>
			</clipPath>
			
				<linearGradient id="SVGID_9_" gradientUnits="userSpaceOnUse" x1="-3453.1155" y1="2389.8933" x2="-3452.7854" y2="2389.8933" gradientTransform="matrix(68.7604 0 0 -68.7604 237512.25 164452.2188)">
				<stop  offset="0" style="stop-color:#E300D6"/>
				<stop  offset="0.4662" style="stop-color:#4828BE"/>
				<stop  offset="1" style="stop-color:#4828BE"/>
			</linearGradient>
			<rect x="74.7" y="119.8" class="st5" width="22.7" height="4.8"/>
		</g>
		<g>
			<defs>
				<rect id="SVGID_10_" x="74.7" y="150.2" width="22.6" height="4.9"/>
			</defs>
			<clipPath id="SVGID_11_">
				<use xlink:href="#SVGID_10_"  style="overflow:visible;"/>
			</clipPath>
			
				<linearGradient id="SVGID_12_" gradientUnits="userSpaceOnUse" x1="-3453.2446" y1="2390.8401" x2="-3452.9146" y2="2390.8401" gradientTransform="matrix(68.5352 0 0 -68.5352 236743.625 164009.4063)">
				<stop  offset="0" style="stop-color:#E300D6"/>
				<stop  offset="0.4662" style="stop-color:#4828BE"/>
				<stop  offset="1" style="stop-color:#4828BE"/>
			</linearGradient>
			<rect x="74.7" y="150.2" class="st6" width="22.6" height="4.9"/>
		</g>
	</g>
</g>
</svg>
