<?xml version="1.0" encoding="utf-8"?>
<!-- Generator: Adobe Illustrator 19.1.0, SVG Export Plug-In . SVG Version: 6.00 Build 0)  -->
<svg version="1.1" id="Layer_1" xmlns="http://www.w3.org/2000/svg" xmlns:xlink="http://www.w3.org/1999/xlink" x="0px" y="0px"
	 viewBox="0 0 250 250" style="enable-background:new 0 0 250 250;" xml:space="preserve">
<style type="text/css">
	.st0{opacity:0.3;}
	.st1{fill:#FFFFFD;}
	.st2{fill:none;stroke:#F4EEE9;stroke-width:9.3745;stroke-linecap:round;stroke-miterlimit:10;}
	.st3{clip-path:url(#SVGID_2_);fill:url(#SVGID_3_);}
</style>
<g>
	<g>
		<g>
			<g class="st0">
				<path d="M196.9,244.8H57.7c-23.4,0-42.4-19-42.4-42.4V61.7c0-23.4,19-42.4,42.4-42.4h139.2c23.4,0,42.4,19,42.4,42.4v140.6
					C239.4,225.8,220.4,244.8,196.9,244.8z"/>
			</g>
			<g>
				<path class="st1" d="M194.6,237.7H55.4c-23.4,0-42.4-19-42.4-42.4V54.7c0-23.4,19-42.4,42.4-42.4h139.2
					c23.4,0,42.4,19,42.4,42.4v140.6C237,218.7,218,237.7,194.6,237.7z"/>
			</g>
		</g>
		<path class="st2" d="M27.2,69c0-23.4,19-42.4,42.4-42.4h16.5"/>
		<path class="st2" d="M222.8,181c0,23.4-19,42.4-42.4,42.4"/>
		<line class="st2" x1="105.8" y1="26.6" x2="129.7" y2="26.6"/>
	</g>
	<g>
		<g>
			<defs>
				<path id="SVGID_1_" d="M99.5,172.1c-4.6-3.7-5.4-10.8-1.9-15.5c0.5-0.7,1.2-1.4,1.9-2.2c6.9-6.9,13.9-13.9,20.8-20.8l8.2-8.2
					c-3.4-3.4-6.8-6.8-10.3-10.3c-6.3-6.3-12.7-12.7-19-19c-4.2-4.2-5-9.5-2.3-14.4c2-3.5,5.8-5.7,9.9-5.7c2.6,0,5,0.8,7,2.4
					c0.7,0.5,1.2,1,1.6,1.4c11.8,11.8,24.4,24.4,36.8,36.8c4.3,4.3,5.1,9.7,2.3,14.5c-0.5,0.9-1.3,1.8-2.3,2.9
					c-11,11.1-23,23.1-36.7,36.7c-2.5,2.5-5.6,3.9-8.8,3.9C104.2,174.7,101.7,173.8,99.5,172.1 M106.9,70.7c-6,0-11.3,2.9-14.4,7.9
					c-4.3,7-3.3,15.3,2.6,21.3c6.3,6.4,12.8,12.8,19,19l4,4c0.1,0.1,0.3,0.2,0.6,0.4c0.2,0.1,0.4,0.3,0.7,0.5l2,1.5l-1.9,1.6
					c-0.3,0.3-0.6,0.5-0.8,0.7c-0.4,0.3-0.6,0.5-0.8,0.7c-2.3,2.3-4.6,4.6-6.8,6.8c-5.6,5.6-11.4,11.3-16.9,17.1
					c-4.9,5.1-5.8,13.3-2.1,19.6c3.1,5.3,8.6,8.5,14.6,8.5c4.6,0,9-1.9,12.4-5.3c12.3-12.2,24.6-24.6,37.2-37.2
					c1.1-1.1,2-2.2,2.7-3.3c4.4-7,3.3-15.4-2.7-21.5c-9.7-9.8-19.6-19.7-29.2-29.2l-7.7-7.7c-0.5-0.5-1-1-1.5-1.4
					C114.8,72.1,110.9,70.7,106.9,70.7v-1V70.7z"/>
			</defs>
			<clipPath id="SVGID_2_">
				<use xlink:href="#SVGID_1_"  style="overflow:visible;"/>
			</clipPath>
			
				<linearGradient id="SVGID_3_" gradientUnits="userSpaceOnUse" x1="-3404.1289" y1="2377.2686" x2="-3403.7991" y2="2377.2686" gradientTransform="matrix(217.7445 0 0 -217.7445 741320.3125 517762.25)">
				<stop  offset="0" style="stop-color:#E300D6"/>
				<stop  offset="0.4662" style="stop-color:#4828BE"/>
				<stop  offset="1" style="stop-color:#4828BE"/>
			</linearGradient>
			<rect x="88.2" y="69.7" class="st3" width="75.2" height="110.6"/>
		</g>
	</g>
</g>
</svg>
