<?xml version="1.0" encoding="utf-8"?>
<!-- Generator: Adobe Illustrator 19.1.0, SVG Export Plug-In . SVG Version: 6.00 Build 0)  -->
<svg version="1.1" id="Layer_1" xmlns="http://www.w3.org/2000/svg" xmlns:xlink="http://www.w3.org/1999/xlink" x="0px" y="0px"
	 viewBox="0 0 250 250" style="enable-background:new 0 0 250 250;" xml:space="preserve">
<style type="text/css">
	.st0{opacity:0.3;}
	.st1{fill:#FFFFFD;}
	.st2{fill:none;stroke:#F4EEE9;stroke-width:9.3745;stroke-linecap:round;stroke-miterlimit:10;}
	.st3{clip-path:url(#SVGID_2_);fill:url(#SVGID_3_);}
	.st4{clip-path:url(#SVGID_5_);fill:url(#SVGID_6_);}
	.st5{clip-path:url(#SVGID_8_);fill:url(#SVGID_9_);}
	.st6{clip-path:url(#SVGID_11_);fill:url(#SVGID_12_);}
	.st7{clip-path:url(#SVGID_14_);fill:url(#SVGID_15_);}
	.st8{clip-path:url(#SVGID_17_);fill:url(#SVGID_18_);}
	.st9{clip-path:url(#SVGID_20_);fill:url(#SVGID_21_);}
	.st10{clip-path:url(#SVGID_23_);fill:url(#SVGID_24_);}
	.st11{clip-path:url(#SVGID_26_);fill:url(#SVGID_27_);}
	.st12{clip-path:url(#SVGID_29_);fill:url(#SVGID_30_);}
	.st13{clip-path:url(#SVGID_32_);fill:url(#SVGID_33_);}
	.st14{clip-path:url(#SVGID_35_);fill:url(#SVGID_36_);}
</style>
<g>
	<g>
		<g>
			<g class="st0">
				<path d="M196.9,244.8H57.7c-23.4,0-42.4-19-42.4-42.4V61.7c0-23.4,19-42.4,42.4-42.4h139.2c23.4,0,42.4,19,42.4,42.4v140.6
					C239.4,225.8,220.4,244.8,196.9,244.8z"/>
			</g>
			<g>
				<path class="st1" d="M194.6,237.7H55.4c-23.4,0-42.4-19-42.4-42.4V54.7c0-23.4,19-42.4,42.4-42.4h139.2
					c23.4,0,42.4,19,42.4,42.4v140.6C237,218.7,218,237.7,194.6,237.7z"/>
			</g>
		</g>
		<path class="st2" d="M27.2,69c0-23.4,19-42.4,42.4-42.4h16.5"/>
		<path class="st2" d="M222.8,181c0,23.4-19,42.4-42.4,42.4"/>
		<line class="st2" x1="105.8" y1="26.6" x2="129.7" y2="26.6"/>
	</g>
	<g>
		<g>
			<defs>
				<path id="SVGID_1_" d="M178,164.5c0.6,4.3,1,8.9,1,13.7v6h-52v4h54c1.1,0,2-0.9,2-2v-8c0-5-0.3-9.8-1-14.3L178,164.5z"/>
			</defs>
			<clipPath id="SVGID_2_">
				<use xlink:href="#SVGID_1_"  style="overflow:visible;"/>
			</clipPath>
			
				<linearGradient id="SVGID_3_" gradientUnits="userSpaceOnUse" x1="-3397.5828" y1="2382.2673" x2="-3397.2527" y2="2382.2673" gradientTransform="matrix(169.8518 0 0 -169.8518 577212.5625 404808.5938)">
				<stop  offset="0" style="stop-color:#E300D6"/>
				<stop  offset="0.4662" style="stop-color:#4828BE"/>
				<stop  offset="1" style="stop-color:#4828BE"/>
			</linearGradient>
			<rect x="126.9" y="164" class="st3" width="56.1" height="24.3"/>
		</g>
		<g>
			<defs>
				<path id="SVGID_4_" d="M66.8,173.3v-12c0-1.7,1.3-3,3-3h3.5c3,0,5.5,2.5,5.5,5.5v7c0,3-2.5,5.5-5.5,5.5h-3.5
					C68.2,176.3,66.8,174.9,66.8,173.3 M148.5,117l2.2,8.8l-7.8,11l-7.8-11l2.2-8.8c1.8,0.9,3.7,1.4,5.6,1.4
					C144.8,118.4,146.7,118,148.5,117 M154.4,124l-2.3-9.2l2-1.2c3.4-2.1,5.7-5.5,6.5-9.4h3.3c1.2,0,2.4-0.3,3.4-0.9
					c1.1,1.4,1.6,3.1,1.6,4.9c0,1.6-0.5,3.1-1.3,4.4c-0.3,0.5-0.4,1.1-0.3,1.6c0.1,0.6,0.5,1,1,1.3c4.1,2.1,6.6,6.2,6.6,10.7
					c0,3.6-1.6,7-4.3,9.2C166.2,130,160.8,126.1,154.4,124 M80.8,108.2H85c1,0,1.8-0.7,2-1.6c0.8-3.7,4.1-6.4,7.8-6.4
					c3.8,0,7.1,2.7,7.8,6.4c0.2,0.9,1,1.6,2,1.6h4.2v4h-28V108.2z M118.9,97.2v-4c0-1.7,1.3-3,3-3h3v10h-3
					C120.2,100.2,118.9,98.8,118.9,97.2 M160.9,90.2h3c1.7,0,3,1.3,3,3v4c0,1.7-1.3,3-3,3h-3V90.2z M138.6,113.2l-4.8-3
					c-3.1-1.9-5-5.3-5-8.9V88.1c5.9-0.6,11.1-4.1,14-9.4c2.9,5.3,8.1,8.8,14,9.4v13.2c0,3.6-1.8,7-4.9,8.9l-4.9,3
					c-1.3,0.8-2.8,1.2-4.2,1.2C141.4,114.4,139.9,114,138.6,113.2 M122.9,77.2c0-7.2,5.8-13,13-13h14c7.2,0,13,5.8,13,13v9h-2
					c0-1.1-0.9-2-2-2c-5.4,0-10.3-3-12.7-7.8l-1.5-3.1c-0.3-0.7-1-1.1-1.8-1.1c-0.8,0-1.5,0.4-1.8,1.1l-1.5,3.1
					c-2.4,4.8-7.3,7.8-12.7,7.8c-1.1,0-2,0.9-2,2h-2V77.2z M135.9,60.2c-9.4,0-17,7.6-17,17v9.7c-2.4,1.1-4,3.5-4,6.3v4
					c0,1.2,0.3,2.3,0.8,3.3c-1.8,2.2-2.8,4.9-2.8,7.7v-2c0-1.1-0.9-2-2-2h-4.7c-1.7-4.7-6.2-8-11.3-8c-5.1,0-9.7,3.3-11.3,8h-4.7
					c-1.1,0-2,0.9-2,2v2h-8c-1.1,0-2,0.9-2,2v16h4v-14h6v2c0,1.1,0.9,2,2,2h32c1.1,0,2-0.9,2-2v-2h6v72.1h-48v-4h2.5
					c5.2,0,9.5-4.3,9.5-9.5v-7c0-5.2-4.3-9.5-9.5-9.5h-2.5v-24h-4v24.7c-2.4,1.1-4,3.5-4,6.3v12c0,2.8,1.6,5.2,4,6.3v6.7
					c0,1.1,0.9,2,2,2h52c1.1,0,2-0.9,2-2v-76.1c0-1.1-0.9-2-2-2h-4c0-1.8,0.6-3.5,1.6-4.9c1,0.5,2.1,0.9,3.4,0.9h3.3
					c0.8,3.9,3.1,7.3,6.6,9.5l1.9,1.2l-2.3,9.1c-2,0.6-3.9,1.5-5.6,2.5l1.9,3.5c1.3-0.7,2.7-1.4,4.1-1.9l9.5,13.3
					c0.4,0.5,1,0.8,1.6,0.8c0.6,0,1.3-0.3,1.6-0.8l9.5-13.3c1,0.4,2,0.8,2.9,1.2v21c-4.5,0.7-8,4.7-8,9.4v16.5c0,1.1,0.9,2,2,2h6v-4
					h-4v-14.5c0-3,2.5-5.5,5.5-5.5h1c3,0,5.5,2.5,5.5,5.5v14.5h-4v4h6c1.1,0,2-0.9,2-2v-16.5c0-4.7-3.5-8.7-8-9.4v-18.6
					c8.1,5.7,13.8,15.6,16.4,28.9l3.9-0.8c-1.7-8.3-4.5-15.4-8.2-21.2c3.8-3,5.9-7.5,5.9-12.5c0-5.4-2.6-10.3-7-13.2
					c0.7-1.5,1-3.1,1-4.8c0-2.8-1-5.6-2.8-7.7c0.5-1,0.8-2.1,0.8-3.3v-4c0-2.8-1.6-5.2-4-6.3v-9.7c0-9.4-7.6-17-17-17H135.9z"/>
			</defs>
			<clipPath id="SVGID_5_">
				<use xlink:href="#SVGID_4_"  style="overflow:visible;"/>
			</clipPath>
			
				<linearGradient id="SVGID_6_" gradientUnits="userSpaceOnUse" x1="-3405.8657" y1="2378.6731" x2="-3405.5359" y2="2378.6731" gradientTransform="matrix(358.8035 0 0 -358.8035 1222099.375 853600.4375)">
				<stop  offset="0" style="stop-color:#E300D6"/>
				<stop  offset="0.4662" style="stop-color:#4828BE"/>
				<stop  offset="1" style="stop-color:#4828BE"/>
			</linearGradient>
			<rect x="62.8" y="60.2" class="st4" width="118.4" height="128.1"/>
		</g>
		<g>
			<defs>
				<path id="SVGID_7_" d="M144.9,105.2c0,0.4-0.8,1-2,1c-1.2,0-2-0.6-2-1h-4c0,2.8,2.6,5,6,5c3.4,0,6-2.2,6-5H144.9z"/>
			</defs>
			<clipPath id="SVGID_8_">
				<use xlink:href="#SVGID_7_"  style="overflow:visible;"/>
			</clipPath>
			
				<linearGradient id="SVGID_9_" gradientUnits="userSpaceOnUse" x1="-3337.9443" y1="2401.4309" x2="-3337.6143" y2="2401.4309" gradientTransform="matrix(36.3968 0 0 -36.3968 121627.4453 87512.1563)">
				<stop  offset="0" style="stop-color:#E300D6"/>
				<stop  offset="0.4662" style="stop-color:#4828BE"/>
				<stop  offset="1" style="stop-color:#4828BE"/>
			</linearGradient>
			<rect x="136.9" y="105.2" class="st5" width="12" height="5"/>
		</g>
		<g>
			<defs>
				<rect id="SVGID_10_" x="148.9" y="92.2" width="4" height="4"/>
			</defs>
			<clipPath id="SVGID_11_">
				<use xlink:href="#SVGID_10_"  style="overflow:visible;"/>
			</clipPath>
			
				<linearGradient id="SVGID_12_" gradientUnits="userSpaceOnUse" x1="-3187.8428" y1="2450.0317" x2="-3187.5127" y2="2450.0317" gradientTransform="matrix(12.1323 0 0 -12.1323 38824.6719 29818.6445)">
				<stop  offset="0" style="stop-color:#E300D6"/>
				<stop  offset="0.4662" style="stop-color:#4828BE"/>
				<stop  offset="1" style="stop-color:#4828BE"/>
			</linearGradient>
			<rect x="148.9" y="92.2" class="st6" width="4" height="4"/>
		</g>
		<g>
			<defs>
				<rect id="SVGID_13_" x="132.9" y="92.2" width="4" height="4"/>
			</defs>
			<clipPath id="SVGID_14_">
				<use xlink:href="#SVGID_13_"  style="overflow:visible;"/>
			</clipPath>
			
				<linearGradient id="SVGID_15_" gradientUnits="userSpaceOnUse" x1="-3185.1628" y1="2450.0317" x2="-3184.8328" y2="2450.0317" gradientTransform="matrix(12.1323 0 0 -12.1323 38776.1445 29818.6445)">
				<stop  offset="0" style="stop-color:#E300D6"/>
				<stop  offset="0.4662" style="stop-color:#4828BE"/>
				<stop  offset="1" style="stop-color:#4828BE"/>
			</linearGradient>
			<rect x="132.9" y="92.2" class="st7" width="4" height="4"/>
		</g>
		<g>
			<defs>
				<path id="SVGID_16_" d="M126.9,148.2v4h6v4h-6v4h8c1.1,0,2-0.9,2-2v-8c0-1.1-0.9-2-2-2H126.9z"/>
			</defs>
			<clipPath id="SVGID_17_">
				<use xlink:href="#SVGID_16_"  style="overflow:visible;"/>
			</clipPath>
			
				<linearGradient id="SVGID_18_" gradientUnits="userSpaceOnUse" x1="-3322.063" y1="2409.6326" x2="-3321.7332" y2="2409.6326" gradientTransform="matrix(30.3307 0 0 -30.3307 100887.3203 73240.0547)">
				<stop  offset="0" style="stop-color:#E300D6"/>
				<stop  offset="0.4662" style="stop-color:#4828BE"/>
				<stop  offset="1" style="stop-color:#4828BE"/>
			</linearGradient>
			<rect x="126.9" y="148.2" class="st8" width="10" height="12"/>
		</g>
		<g>
			<defs>
				<path id="SVGID_19_" d="M78.8,140.2h8v6h-8V140.2z M76.8,136.2c-1.1,0-2,0.9-2,2v10c0,1.1,0.9,2,2,2h24v-4h-10v-6h20v6h-6v4h8
					c1.1,0,2-0.9,2-2v-10c0-1.1-0.9-2-2-2H76.8z"/>
			</defs>
			<clipPath id="SVGID_20_">
				<use xlink:href="#SVGID_19_"  style="overflow:visible;"/>
			</clipPath>
			
				<linearGradient id="SVGID_21_" gradientUnits="userSpaceOnUse" x1="-3390.1448" y1="2384.2239" x2="-3389.8147" y2="2384.2239" gradientTransform="matrix(121.3227 0 0 -121.3227 411376.5 289403.8125)">
				<stop  offset="0" style="stop-color:#E300D6"/>
				<stop  offset="0.4662" style="stop-color:#4828BE"/>
				<stop  offset="1" style="stop-color:#4828BE"/>
			</linearGradient>
			<rect x="74.8" y="136.2" class="st9" width="40" height="14"/>
		</g>
		<g>
			<defs>
				<polygon id="SVGID_22_" points="92.8,120.2 92.8,124.2 88.8,124.2 88.8,128.2 92.8,128.2 92.8,132.2 96.8,132.2 96.8,128.2 
					100.8,128.2 100.8,124.2 96.8,124.2 96.8,120.2 				"/>
			</defs>
			<clipPath id="SVGID_23_">
				<use xlink:href="#SVGID_22_"  style="overflow:visible;"/>
			</clipPath>
			
				<linearGradient id="SVGID_24_" gradientUnits="userSpaceOnUse" x1="-3335.2642" y1="2402.4639" x2="-3334.9343" y2="2402.4639" gradientTransform="matrix(36.3968 0 0 -36.3968 121481.8594 87568.2734)">
				<stop  offset="0" style="stop-color:#E300D6"/>
				<stop  offset="0.4662" style="stop-color:#4828BE"/>
				<stop  offset="1" style="stop-color:#4828BE"/>
			</linearGradient>
			<rect x="88.8" y="120.2" class="st10" width="12" height="12"/>
		</g>
		<g>
			<defs>
				<rect id="SVGID_25_" x="86.8" y="156.2" width="28" height="4"/>
			</defs>
			<clipPath id="SVGID_26_">
				<use xlink:href="#SVGID_25_"  style="overflow:visible;"/>
			</clipPath>
			
				<linearGradient id="SVGID_27_" gradientUnits="userSpaceOnUse" x1="-3380.2083" y1="2388.1074" x2="-3379.8782" y2="2388.1074" gradientTransform="matrix(84.9259 0 0 -84.9259 287154.125 202970.4531)">
				<stop  offset="0" style="stop-color:#E300D6"/>
				<stop  offset="0.4662" style="stop-color:#4828BE"/>
				<stop  offset="1" style="stop-color:#4828BE"/>
			</linearGradient>
			<rect x="86.8" y="156.2" class="st11" width="28" height="4"/>
		</g>
		<g>
			<defs>
				<rect id="SVGID_28_" x="86.8" y="166.3" width="28" height="4"/>
			</defs>
			<clipPath id="SVGID_29_">
				<use xlink:href="#SVGID_28_"  style="overflow:visible;"/>
			</clipPath>
			
				<linearGradient id="SVGID_30_" gradientUnits="userSpaceOnUse" x1="-3380.2083" y1="2388.3467" x2="-3379.8782" y2="2388.3467" gradientTransform="matrix(84.9259 0 0 -84.9259 287154.125 203000.7969)">
				<stop  offset="0" style="stop-color:#E300D6"/>
				<stop  offset="0.4662" style="stop-color:#4828BE"/>
				<stop  offset="1" style="stop-color:#4828BE"/>
			</linearGradient>
			<rect x="86.8" y="166.3" class="st12" width="28" height="4"/>
		</g>
		<g>
			<defs>
				<rect id="SVGID_31_" x="86.8" y="176.3" width="28" height="4"/>
			</defs>
			<clipPath id="SVGID_32_">
				<use xlink:href="#SVGID_31_"  style="overflow:visible;"/>
			</clipPath>
			
				<linearGradient id="SVGID_33_" gradientUnits="userSpaceOnUse" x1="-3380.2083" y1="2388.5859" x2="-3379.8782" y2="2388.5859" gradientTransform="matrix(84.9259 0 0 -84.9259 287154.125 203031.125)">
				<stop  offset="0" style="stop-color:#E300D6"/>
				<stop  offset="0.4662" style="stop-color:#4828BE"/>
				<stop  offset="1" style="stop-color:#4828BE"/>
			</linearGradient>
			<rect x="86.8" y="176.3" class="st13" width="28" height="4"/>
		</g>
		<g>
			<defs>
				<rect id="SVGID_34_" x="92.8" y="104.2" width="4" height="4"/>
			</defs>
			<clipPath id="SVGID_35_">
				<use xlink:href="#SVGID_34_"  style="overflow:visible;"/>
			</clipPath>
			
				<linearGradient id="SVGID_36_" gradientUnits="userSpaceOnUse" x1="-3178.4629" y1="2452.0417" x2="-3178.1328" y2="2452.0417" gradientTransform="matrix(12.1323 0 0 -12.1323 38654.8203 29855.041)">
				<stop  offset="0" style="stop-color:#E300D6"/>
				<stop  offset="0.4662" style="stop-color:#4828BE"/>
				<stop  offset="1" style="stop-color:#4828BE"/>
			</linearGradient>
			<rect x="92.8" y="104.2" class="st14" width="4" height="4"/>
		</g>
	</g>
</g>
</svg>
