<?xml version="1.0" encoding="utf-8"?>
<!-- Generator: Adobe Illustrator 19.1.0, SVG Export Plug-In . SVG Version: 6.00 Build 0)  -->
<svg version="1.1" id="Layer_1" xmlns="http://www.w3.org/2000/svg" xmlns:xlink="http://www.w3.org/1999/xlink" x="0px" y="0px"
	 viewBox="0 0 250 250" style="enable-background:new 0 0 250 250;" xml:space="preserve">
<style type="text/css">
	.st0{opacity:0.3;}
	.st1{fill:#FFFFFD;}
	.st2{fill:none;stroke:#F4EEE9;stroke-width:9.3745;stroke-linecap:round;stroke-miterlimit:10;}
	.st3{clip-path:url(#SVGID_2_);fill:url(#SVGID_3_);}
	.st4{clip-path:url(#SVGID_5_);fill:url(#SVGID_6_);}
	.st5{clip-path:url(#SVGID_8_);fill:url(#SVGID_9_);}
	.st6{clip-path:url(#SVGID_11_);fill:url(#SVGID_12_);}
	.st7{clip-path:url(#SVGID_14_);fill:url(#SVGID_15_);}
	.st8{clip-path:url(#SVGID_17_);fill:url(#SVGID_18_);}
	.st9{clip-path:url(#SVGID_20_);fill:url(#SVGID_21_);}
	.st10{clip-path:url(#SVGID_23_);fill:url(#SVGID_24_);}
	.st11{clip-path:url(#SVGID_26_);fill:url(#SVGID_27_);}
	.st12{clip-path:url(#SVGID_29_);fill:url(#SVGID_30_);}
	.st13{clip-path:url(#SVGID_32_);fill:url(#SVGID_33_);}
	.st14{clip-path:url(#SVGID_35_);fill:url(#SVGID_36_);}
	.st15{clip-path:url(#SVGID_38_);fill:url(#SVGID_39_);}
	.st16{clip-path:url(#SVGID_41_);fill:url(#SVGID_42_);}
	.st17{clip-path:url(#SVGID_44_);fill:url(#SVGID_45_);}
	.st18{clip-path:url(#SVGID_47_);fill:url(#SVGID_48_);}
	.st19{clip-path:url(#SVGID_50_);fill:url(#SVGID_51_);}
</style>
<g>
	<g>
		<g>
			<g class="st0">
				<path d="M196.9,244.8H57.7c-23.4,0-42.4-19-42.4-42.4V61.7c0-23.4,19-42.4,42.4-42.4h139.2c23.4,0,42.4,19,42.4,42.4v140.6
					C239.4,225.8,220.4,244.8,196.9,244.8z"/>
			</g>
			<g>
				<path class="st1" d="M194.6,237.7H55.4c-23.4,0-42.4-19-42.4-42.4V54.7c0-23.4,19-42.4,42.4-42.4h139.2
					c23.4,0,42.4,19,42.4,42.4v140.6C237,218.7,218,237.7,194.6,237.7z"/>
			</g>
		</g>
		<path class="st2" d="M27.2,69c0-23.4,19-42.4,42.4-42.4h16.5"/>
		<path class="st2" d="M222.8,181c0,23.4-19,42.4-42.4,42.4"/>
		<line class="st2" x1="105.8" y1="26.6" x2="129.7" y2="26.6"/>
	</g>
	<g>
		<g>
			<defs>
				<path id="SVGID_1_" d="M106.7,178.1c0-1.1,0.7-2.1,1.8-2.5l1.5-0.5c4.3-1.4,7.2-5.4,7.2-10v-2.4h17.5v2.4c0,4.5,2.9,8.5,7.2,10
					l1.5,0.5c1.1,0.4,1.8,1.4,1.8,2.5v0.3h-38.5V178.1z M94.5,175.8v-2.9c2-0.7,3.5-2.7,3.5-5v-1.8h4.4c2.5,0,4.6-1.5,5.6-3.6h5.8
					v2.5c0,3-1.9,5.7-4.8,6.6l-1.5,0.5c-2.5,0.8-4.2,3.2-4.2,5.8v0.3h-6.1C95.7,178.4,94.5,177.2,94.5,175.8 M148.8,178.1
					c0-2.6-1.7-5-4.2-5.8l-1.5-0.5c-2.9-1-4.8-3.6-4.8-6.6v-2.5h5.8c1,2.1,3.1,3.6,5.6,3.6h4.4v1.8c0,2.3,1.5,4.2,3.5,5v2.9
					c0,1.4-1.2,2.6-2.6,2.6h-6.1V178.1z M73.5,158.6v-10H77v10.4h-3.1C73.7,159.1,73.5,158.9,73.5,158.6 M108.5,148.6h35v10.4h-35
					V148.6z M175,148.6h3.5v10c0,0.2-0.2,0.4-0.4,0.4H175V148.6z M91,167.9v-11.4c0-0.6-0.3-1.2-0.9-1.5c-1.8-1-2.8-2.9-2.6-4.9
					c0.2-2.6,2.3-4.7,4.9-4.9c0.1,0,0.3,0,0.4,0c1.3,0,2.6,0.5,3.6,1.4c1.1,1,1.7,2.4,1.7,3.8c0,1.9-1,3.6-2.6,4.5
					c-0.5,0.3-0.9,0.9-0.9,1.5v11.4c0,1-0.8,1.8-1.8,1.8C91.8,169.7,91,168.9,91,167.9 M157.5,167.9v-11.4c0-0.6-0.3-1.2-0.9-1.5
					c-1.8-1-2.8-2.9-2.6-4.9c0.2-2.6,2.3-4.7,4.9-4.9c0.1,0,0.3,0,0.4,0c1.3,0,2.6,0.5,3.6,1.4c1.1,1,1.7,2.4,1.7,3.8
					c0,1.9-1,3.6-2.6,4.6c-0.5,0.3-0.9,0.9-0.9,1.5v11.4c0,1-0.8,1.8-1.8,1.8C158.3,169.7,157.5,168.9,157.5,167.9 M80.5,160v-19.3
					c0-1.4,1.2-2.6,2.6-2.6h19.3c1.4,0,2.6,1.2,2.6,2.6V160c0,1.4-1.2,2.6-2.6,2.6H98v-5.3c2.2-1.6,3.5-4.2,3.5-7
					c0-2.4-1-4.8-2.8-6.4c-1.8-1.7-4.1-2.5-6.6-2.3c-4.3,0.3-7.8,3.8-8.1,8.1c-0.2,3,1.1,5.8,3.5,7.6v5.3h-4.4
					C81.6,162.6,80.5,161.5,80.5,160 M147,160v-19.3c0-1.4,1.2-2.6,2.6-2.6h19.3c1.4,0,2.6,1.2,2.6,2.6V160c0,1.4-1.2,2.6-2.6,2.6
					h-4.4v-5.3c2.2-1.6,3.5-4.2,3.5-7c0-2.4-1-4.8-2.8-6.4c-1.8-1.7-4.1-2.5-6.6-2.3c-4.3,0.3-7.8,3.8-8.1,8.1
					c-0.2,3,1.1,5.8,3.5,7.6v5.3h-4.4C148.2,162.6,147,161.5,147,160 M70,99.6v59c0,2.2,1.8,3.9,3.9,3.9h3.6c1,2.1,3.1,3.6,5.6,3.6
					h4.4v1.8c0,2.3,1.5,4.2,3.5,5v2.9c0,3.4,2.7,6.1,6.1,6.1h57.8c3.4,0,6.1-2.7,6.1-6.1v-2.9c2-0.7,3.5-2.7,3.5-5v-1.8h4.4
					c2.5,0,4.6-1.5,5.6-3.6h3.6c2.2,0,3.9-1.8,3.9-3.9v-38h-3.5v24.5H175v-4.4c0-3.4-2.7-6.1-6.1-6.1h-19.3c-3.4,0-6.1,2.7-6.1,6.1
					v4.4h-35v-4.4c0-3.4-2.7-6.1-6.1-6.1H83.1c-3.4,0-6.1,2.7-6.1,6.1v4.4h-3.5V99.6H70z"/>
			</defs>
			<clipPath id="SVGID_2_">
				<use xlink:href="#SVGID_1_"  style="overflow:visible;"/>
			</clipPath>
			
				<linearGradient id="SVGID_3_" gradientUnits="userSpaceOnUse" x1="-3409.5249" y1="2372.9446" x2="-3409.1948" y2="2372.9446" gradientTransform="matrix(339.5974 0 0 -339.5974 1157935.75 805986.5625)">
				<stop  offset="0" style="stop-color:#E300D6"/>
				<stop  offset="0.4662" style="stop-color:#4828BE"/>
				<stop  offset="1" style="stop-color:#4828BE"/>
			</linearGradient>
			<rect x="70" y="99.6" class="st3" width="112.1" height="82.3"/>
		</g>
		<g>
			<defs>
				<path id="SVGID_4_" d="M73.9,69.8c-2.2,0-3.9,1.8-3.9,3.9v22.3h3.5V73.8c0-0.2,0.2-0.4,0.4-0.4h104.2c0.2,0,0.4,0.2,0.4,0.4
					v43.3h3.5V73.8c0-2.2-1.8-3.9-3.9-3.9H73.9z"/>
			</defs>
			<clipPath id="SVGID_5_">
				<use xlink:href="#SVGID_4_"  style="overflow:visible;"/>
			</clipPath>
			
				<linearGradient id="SVGID_6_" gradientUnits="userSpaceOnUse" x1="-3409.5249" y1="2372.6619" x2="-3409.1948" y2="2372.6619" gradientTransform="matrix(339.5974 0 0 -339.5974 1157935.75 805843.3125)">
				<stop  offset="0" style="stop-color:#E300D6"/>
				<stop  offset="0.4662" style="stop-color:#4828BE"/>
				<stop  offset="1" style="stop-color:#4828BE"/>
			</linearGradient>
			<rect x="70" y="69.8" class="st4" width="112.1" height="47.3"/>
		</g>
		<g>
			<defs>
				<path id="SVGID_7_" d="M161,123.2c0-1.4,1.2-2.6,2.6-2.6h5.3c1.4,0,2.6,1.2,2.6,2.6c0,1.4-1.2,2.6-2.6,2.6h-5.3
					C162.2,125.9,161,124.7,161,123.2 M163.6,117.1c-3.4,0-6.1,2.7-6.1,6.1c0,3.4,2.7,6.1,6.1,6.1h5.3c3.4,0,6.1-2.7,6.1-6.1
					c0-3.4-2.7-6.1-6.1-6.1H163.6z"/>
			</defs>
			<clipPath id="SVGID_8_">
				<use xlink:href="#SVGID_7_"  style="overflow:visible;"/>
			</clipPath>
			
				<linearGradient id="SVGID_9_" gradientUnits="userSpaceOnUse" x1="-3388.7095" y1="2355.7751" x2="-3388.3794" y2="2355.7751" gradientTransform="matrix(53.0621 0 0 -53.0621 179969.5469 125125.6094)">
				<stop  offset="0" style="stop-color:#E300D6"/>
				<stop  offset="0.4662" style="stop-color:#4828BE"/>
				<stop  offset="1" style="stop-color:#4828BE"/>
			</linearGradient>
			<rect x="157.5" y="117.1" class="st5" width="17.5" height="12.3"/>
		</g>
		<g>
			<defs>
				<path id="SVGID_10_" d="M161,107.5c0-1.4,1.2-2.6,2.6-2.6h5.3c1.4,0,2.6,1.2,2.6,2.6c0,1.4-1.2,2.6-2.6,2.6h-5.3
					C162.2,110.1,161,108.9,161,107.5 M163.6,101.4c-3.4,0-6.1,2.7-6.1,6.1c0,3.4,2.7,6.1,6.1,6.1h5.3c3.4,0,6.1-2.7,6.1-6.1
					c0-3.4-2.7-6.1-6.1-6.1H163.6z"/>
			</defs>
			<clipPath id="SVGID_11_">
				<use xlink:href="#SVGID_10_"  style="overflow:visible;"/>
			</clipPath>
			
				<linearGradient id="SVGID_12_" gradientUnits="userSpaceOnUse" x1="-3388.7095" y1="2355.1721" x2="-3388.3794" y2="2355.1721" gradientTransform="matrix(53.0621 0 0 -53.0621 179969.5469 125077.8516)">
				<stop  offset="0" style="stop-color:#E300D6"/>
				<stop  offset="0.4662" style="stop-color:#4828BE"/>
				<stop  offset="1" style="stop-color:#4828BE"/>
			</linearGradient>
			<rect x="157.5" y="101.4" class="st6" width="17.5" height="12.3"/>
		</g>
		<g>
			<defs>
				<path id="SVGID_13_" d="M110.4,112.8l-3,6H98c-0.7,0-1.3,0.4-1.6,1l-1.7,3.4L90.9,113c-0.3-0.7-0.9-1.1-1.6-1.1h0
					c-0.7,0-1.4,0.4-1.6,1.1l-3.1,7.7H77v3.5h8.8c0.7,0,1.4-0.4,1.6-1.1l1.8-4.6l3.7,9.8c0.2,0.7,0.9,1.1,1.5,1.1
					c0.7,0,1.3-0.3,1.7-1l3-6h9.4c0.7,0,1.3-0.4,1.6-1l1.9-3.9l5.4,10.9c0.3,0.6,0.9,1,1.6,1c0.7,0,1.3-0.4,1.6-1l3-6h7.7
					c0.6,0,1.1-0.3,1.4-0.7l3.3-4.4l4.1,11c0.2,0.6,0.8,1,1.4,1.1c0.1,0,0.2,0,0.2,0c0.5,0,1.1-0.3,1.4-0.7l4.7-6.3h6.1v-3.5h-7
					c-0.6,0-1.1,0.3-1.4,0.7l-3.3,4.4l-4.1-11c-0.2-0.6-0.8-1-1.4-1.1c-0.6-0.1-1.3,0.2-1.6,0.7l-4.7,6.3h-7.9c-0.7,0-1.3,0.4-1.6,1
					l-1.9,3.9l-5.4-10.9c-0.3-0.6-0.9-1-1.6-1C111.3,111.9,110.7,112.2,110.4,112.8"/>
			</defs>
			<clipPath id="SVGID_14_">
				<use xlink:href="#SVGID_13_"  style="overflow:visible;"/>
			</clipPath>
			
				<linearGradient id="SVGID_15_" gradientUnits="userSpaceOnUse" x1="-3407.5518" y1="2371.3806" x2="-3407.2217" y2="2371.3806" gradientTransform="matrix(233.4732 0 0 -233.4732 795649.0625 553774.5)">
				<stop  offset="0" style="stop-color:#E300D6"/>
				<stop  offset="0.4662" style="stop-color:#4828BE"/>
				<stop  offset="1" style="stop-color:#4828BE"/>
			</linearGradient>
			<rect x="77" y="111.8" class="st7" width="77" height="17.6"/>
		</g>
		<g>
			<defs>
				<path id="SVGID_16_" d="M120.9,79.7l-3.1,7.7h-9.3v3.5H119c0.7,0,1.4-0.4,1.6-1.1l1.9-4.7l5.4,13.4c0.3,0.7,0.9,1.1,1.6,1.1
					c0.7,0,1.4-0.4,1.6-1.1l3.1-7.7h9.3v-3.5H133c-0.7,0-1.4,0.4-1.6,1.1l-1.9,4.7l-5.4-13.4c-0.3-0.7-0.9-1.1-1.6-1.1
					C121.8,78.6,121.1,79,120.9,79.7"/>
			</defs>
			<clipPath id="SVGID_17_">
				<use xlink:href="#SVGID_16_"  style="overflow:visible;"/>
			</clipPath>
			
				<linearGradient id="SVGID_18_" gradientUnits="userSpaceOnUse" x1="-3400.4167" y1="2365.2344" x2="-3400.0867" y2="2365.2344" gradientTransform="matrix(106.1242 0 0 -106.1242 360974.9688 251097.6719)">
				<stop  offset="0" style="stop-color:#E300D6"/>
				<stop  offset="0.4662" style="stop-color:#4828BE"/>
				<stop  offset="1" style="stop-color:#4828BE"/>
			</linearGradient>
			<rect x="108.5" y="78.6" class="st8" width="35" height="21"/>
		</g>
		<g>
			<defs>
				<rect id="SVGID_19_" x="141.8" y="104.9" width="12.3" height="3.5"/>
			</defs>
			<clipPath id="SVGID_20_">
				<use xlink:href="#SVGID_19_"  style="overflow:visible;"/>
			</clipPath>
			
				<linearGradient id="SVGID_21_" gradientUnits="userSpaceOnUse" x1="-3377.0093" y1="2346.198" x2="-3376.6792" y2="2346.198" gradientTransform="matrix(37.1435 0 0 -37.1435 125575.5859 87252.5391)">
				<stop  offset="0" style="stop-color:#E300D6"/>
				<stop  offset="0.4662" style="stop-color:#4828BE"/>
				<stop  offset="1" style="stop-color:#4828BE"/>
			</linearGradient>
			<rect x="141.8" y="104.9" class="st9" width="12.3" height="3.5"/>
		</g>
		<g>
			<defs>
				<rect id="SVGID_22_" x="117.2" y="104.9" width="21" height="3.5"/>
			</defs>
			<clipPath id="SVGID_23_">
				<use xlink:href="#SVGID_22_"  style="overflow:visible;"/>
			</clipPath>
			
				<linearGradient id="SVGID_24_" gradientUnits="userSpaceOnUse" x1="-3391.6404" y1="2358.6155" x2="-3391.3103" y2="2358.6155" gradientTransform="matrix(63.6745 0 0 -63.6745 216078.2969 150290.3125)">
				<stop  offset="0" style="stop-color:#E300D6"/>
				<stop  offset="0.4662" style="stop-color:#4828BE"/>
				<stop  offset="1" style="stop-color:#4828BE"/>
			</linearGradient>
			<rect x="117.2" y="104.9" class="st10" width="21" height="3.5"/>
		</g>
		<g>
			<defs>
				<rect id="SVGID_25_" x="94.5" y="104.9" width="19.3" height="3.5"/>
			</defs>
			<clipPath id="SVGID_26_">
				<use xlink:href="#SVGID_25_"  style="overflow:visible;"/>
			</clipPath>
			
				<linearGradient id="SVGID_27_" gradientUnits="userSpaceOnUse" x1="-3388.8159" y1="2357.0352" x2="-3388.4858" y2="2357.0352" gradientTransform="matrix(58.3683 0 0 -58.3683 197893.9219 137682.75)">
				<stop  offset="0" style="stop-color:#E300D6"/>
				<stop  offset="0.4662" style="stop-color:#4828BE"/>
				<stop  offset="1" style="stop-color:#4828BE"/>
			</linearGradient>
			<rect x="94.5" y="104.9" class="st11" width="19.3" height="3.5"/>
		</g>
		<g>
			<defs>
				<rect id="SVGID_28_" x="77" y="104.9" width="14" height="3.5"/>
			</defs>
			<clipPath id="SVGID_29_">
				<use xlink:href="#SVGID_28_"  style="overflow:visible;"/>
			</clipPath>
			
				<linearGradient id="SVGID_30_" gradientUnits="userSpaceOnUse" x1="-3378.5344" y1="2349.9231" x2="-3378.2043" y2="2349.9231" gradientTransform="matrix(42.4497 0 0 -42.4497 143494.6563 99860.0938)">
				<stop  offset="0" style="stop-color:#E300D6"/>
				<stop  offset="0.4662" style="stop-color:#4828BE"/>
				<stop  offset="1" style="stop-color:#4828BE"/>
			</linearGradient>
			<rect x="77" y="104.9" class="st12" width="14" height="3.5"/>
		</g>
		<g>
			<defs>
				<path id="SVGID_31_" d="M166.3,76.8v3.5h2.6c1.4,0,2.6,1.2,2.6,2.6v7c0,1.4-1.2,2.6-2.6,2.6h-2.6v3.5h2.6c3.4,0,6.1-2.7,6.1-6.1
					v-7c0-3.4-2.7-6.1-6.1-6.1H166.3z"/>
			</defs>
			<clipPath id="SVGID_32_">
				<use xlink:href="#SVGID_31_"  style="overflow:visible;"/>
			</clipPath>
			
				<linearGradient id="SVGID_33_" gradientUnits="userSpaceOnUse" x1="-3364.0891" y1="2332.7361" x2="-3363.759" y2="2332.7361" gradientTransform="matrix(26.531 0 0 -26.531 89419.0781 61976.4102)">
				<stop  offset="0" style="stop-color:#E300D6"/>
				<stop  offset="0.4662" style="stop-color:#4828BE"/>
				<stop  offset="1" style="stop-color:#4828BE"/>
			</linearGradient>
			<rect x="166.3" y="76.8" class="st13" width="8.8" height="19.3"/>
		</g>
		<g>
			<defs>
				<path id="SVGID_34_" d="M153.1,76.8c-3.4,0-6.1,2.7-6.1,6.1v7c0,3.4,2.7,6.1,6.1,6.1h2.6v-3.5h-2.6c-1.4,0-2.6-1.2-2.6-2.6v-7
					c0-1.4,1.2-2.6,2.6-2.6h2.6v-3.5H153.1z"/>
			</defs>
			<clipPath id="SVGID_35_">
				<use xlink:href="#SVGID_34_"  style="overflow:visible;"/>
			</clipPath>
			
				<linearGradient id="SVGID_36_" gradientUnits="userSpaceOnUse" x1="-3362.615" y1="2332.7361" x2="-3362.2849" y2="2332.7361" gradientTransform="matrix(26.531 0 0 -26.531 89360.7109 61976.4102)">
				<stop  offset="0" style="stop-color:#E300D6"/>
				<stop  offset="0.4662" style="stop-color:#4828BE"/>
				<stop  offset="1" style="stop-color:#4828BE"/>
			</linearGradient>
			<rect x="147" y="76.8" class="st14" width="8.8" height="19.3"/>
		</g>
		<g>
			<defs>
				<rect id="SVGID_37_" x="159.3" y="76.8" width="3.5" height="3.5"/>
			</defs>
			<clipPath id="SVGID_38_">
				<use xlink:href="#SVGID_37_"  style="overflow:visible;"/>
			</clipPath>
			
				<linearGradient id="SVGID_39_" gradientUnits="userSpaceOnUse" x1="-3287.8826" y1="2266.3328" x2="-3287.5525" y2="2266.3328" gradientTransform="matrix(10.6124 0 0 -10.6124 35051.6523 24129.8711)">
				<stop  offset="0" style="stop-color:#E300D6"/>
				<stop  offset="0.4662" style="stop-color:#4828BE"/>
				<stop  offset="1" style="stop-color:#4828BE"/>
			</linearGradient>
			<rect x="159.3" y="76.8" class="st15" width="3.5" height="3.5"/>
		</g>
		<g>
			<defs>
				<rect id="SVGID_40_" x="159.3" y="92.6" width="3.5" height="3.5"/>
			</defs>
			<clipPath id="SVGID_41_">
				<use xlink:href="#SVGID_40_"  style="overflow:visible;"/>
			</clipPath>
			
				<linearGradient id="SVGID_42_" gradientUnits="userSpaceOnUse" x1="-3287.8826" y1="2269.3479" x2="-3287.5525" y2="2269.3479" gradientTransform="matrix(10.6124 0 0 -10.6124 35051.6523 24177.627)">
				<stop  offset="0" style="stop-color:#E300D6"/>
				<stop  offset="0.4662" style="stop-color:#4828BE"/>
				<stop  offset="1" style="stop-color:#4828BE"/>
			</linearGradient>
			<rect x="159.3" y="92.6" class="st16" width="3.5" height="3.5"/>
		</g>
		<g>
			<defs>
				<rect id="SVGID_43_" x="127.7" y="134.6" width="10.5" height="3.5"/>
			</defs>
			<clipPath id="SVGID_44_">
				<use xlink:href="#SVGID_43_"  style="overflow:visible;"/>
			</clipPath>
			
				<linearGradient id="SVGID_45_" gradientUnits="userSpaceOnUse" x1="-3369.9509" y1="2343.1294" x2="-3369.6208" y2="2343.1294" gradientTransform="matrix(31.8373 0 0 -31.8373 107417.7422 74735.1953)">
				<stop  offset="0" style="stop-color:#E300D6"/>
				<stop  offset="0.4662" style="stop-color:#4828BE"/>
				<stop  offset="1" style="stop-color:#4828BE"/>
			</linearGradient>
			<rect x="127.7" y="134.6" class="st17" width="10.5" height="3.5"/>
		</g>
		<g>
			<defs>
				<rect id="SVGID_46_" x="113.7" y="134.6" width="10.5" height="3.5"/>
			</defs>
			<clipPath id="SVGID_47_">
				<use xlink:href="#SVGID_46_"  style="overflow:visible;"/>
			</clipPath>
			
				<linearGradient id="SVGID_48_" gradientUnits="userSpaceOnUse" x1="-3369.0574" y1="2343.1294" x2="-3368.7275" y2="2343.1294" gradientTransform="matrix(31.8373 0 0 -31.8373 107375.2891 74735.1953)">
				<stop  offset="0" style="stop-color:#E300D6"/>
				<stop  offset="0.4662" style="stop-color:#4828BE"/>
				<stop  offset="1" style="stop-color:#4828BE"/>
			</linearGradient>
			<rect x="113.7" y="134.6" class="st18" width="10.5" height="3.5"/>
		</g>
		<g>
			<defs>
				<path id="SVGID_49_" d="M92.2,83.4l1.8-1.8c0.8-0.8,1.9-1.3,3.1-1.3c1.2,0,2.3,0.5,3.1,1.3c1.7,1.7,1.7,4.5,0,6.2L91,97.1
					l-9.2-9.3c-1.7-1.7-1.7-4.5,0-6.2c0.8-0.8,1.9-1.3,3.1-1.3c1.2,0,2.3,0.5,3.1,1.3l1.8,1.8c0.3,0.3,0.8,0.5,1.2,0.5
					C91.4,84,91.9,83.8,92.2,83.4 M91.5,79.2L91,79.7l-0.6-0.6c-1.5-1.5-3.5-2.3-5.6-2.3c-2.1,0-4.1,0.8-5.6,2.3
					c-3.1,3.1-3.1,8.1,0,11.2l10.5,10.5c0.3,0.3,0.8,0.5,1.2,0.5c0.5,0,0.9-0.2,1.2-0.5l10.5-10.5c3.1-3.1,3.1-8.1,0-11.2
					c-1.5-1.5-3.5-2.3-5.6-2.3C95,76.8,93,77.7,91.5,79.2"/>
			</defs>
			<clipPath id="SVGID_50_">
				<use xlink:href="#SVGID_49_"  style="overflow:visible;"/>
			</clipPath>
			
				<linearGradient id="SVGID_51_" gradientUnits="userSpaceOnUse" x1="-3396.2617" y1="2362.5386" x2="-3395.9316" y2="2362.5386" gradientTransform="matrix(84.8727 0 0 -84.8727 288326.875 200604.125)">
				<stop  offset="0" style="stop-color:#E300D6"/>
				<stop  offset="0.4662" style="stop-color:#4828BE"/>
				<stop  offset="1" style="stop-color:#4828BE"/>
			</linearGradient>
			<rect x="76.2" y="76.8" class="st19" width="29.5" height="24.5"/>
		</g>
	</g>
</g>
</svg>
