<?xml version="1.0" encoding="utf-8"?>
<!-- Generator: Adobe Illustrator 19.1.0, SVG Export Plug-In . SVG Version: 6.00 Build 0)  -->
<svg version="1.1" id="Layer_1" xmlns="http://www.w3.org/2000/svg" xmlns:xlink="http://www.w3.org/1999/xlink" x="0px" y="0px"
	 viewBox="0 0 250 250" style="enable-background:new 0 0 250 250;" xml:space="preserve">
<style type="text/css">
	.st0{opacity:0.3;}
	.st1{fill:#FFFFFD;}
	.st2{fill:none;stroke:#F4EEE9;stroke-width:9.3745;stroke-linecap:round;stroke-miterlimit:10;}
	.st3{clip-path:url(#SVGID_2_);fill:url(#SVGID_3_);}
	.st4{clip-path:url(#SVGID_5_);fill:url(#SVGID_6_);}
	.st5{clip-path:url(#SVGID_8_);fill:url(#SVGID_9_);}
	.st6{clip-path:url(#SVGID_11_);fill:url(#SVGID_12_);}
	.st7{clip-path:url(#SVGID_14_);fill:url(#SVGID_15_);}
</style>
<g>
	<g>
		<g>
			<g class="st0">
				<path d="M196.9,244.8H57.7c-23.4,0-42.4-19-42.4-42.4V61.7c0-23.4,19-42.4,42.4-42.4h139.2c23.4,0,42.4,19,42.4,42.4v140.6
					C239.4,225.8,220.4,244.8,196.9,244.8z"/>
			</g>
			<g>
				<path class="st1" d="M194.6,237.7H55.4c-23.4,0-42.4-19-42.4-42.4V54.7c0-23.4,19-42.4,42.4-42.4h139.2
					c23.4,0,42.4,19,42.4,42.4v140.6C237,218.7,218,237.7,194.6,237.7z"/>
			</g>
		</g>
		<path class="st2" d="M27.2,69c0-23.4,19-42.4,42.4-42.4h16.5"/>
		<path class="st2" d="M222.8,181c0,23.4-19,42.4-42.4,42.4"/>
		<line class="st2" x1="105.8" y1="26.6" x2="129.7" y2="26.6"/>
	</g>
	<g>
		<g>
			<defs>
				<path id="SVGID_1_" d="M138.3,177.5h29v8.1h-29V177.5z M171.4,177.4h19.1c0,2.4,0.1,4.9,0,7.3c0,1-1,1-1.7,1c-4.7,0-9.3,0-14,0
					c-1.1,0-2.2,0-3.4,0V177.4z M63.4,182.7c0-1.6,0-3.3,0-4.9c0-0.1,0-0.2,0.1-0.4h11.7v8.3c-2.9,0-5.8,0-8.7,0c-0.3,0-0.5,0-0.8,0
					C63.2,185.7,63.4,185.5,63.4,182.7 M93.7,184.7c0-4.4,0-8.9,0-13.3c0-0.5,0.4-1.3,0.7-1.4c2.2-0.7,4.5-1.3,6.9-2v17.6h-7.6
					C93.8,185.3,93.7,185,93.7,184.7 M105.5,166.9c2.4-0.7,4.9-1.4,7.6-2.1v20.8h-7.6V166.9z M75.3,162.4v5.5v5.5H63.7
					C63.4,168,69.5,162.2,75.3,162.4 M175.3,163.9c3.4-2.3,7.2-2.4,10.7-0.4c3.7,2.1,4.9,5.6,4.5,9.8h-19.1
					C171,169.4,172,166.2,175.3,163.9 M138.3,123.3c0.5,0,1-0.1,1.4-0.1c10.7,0,21.4,0,32.2,0c2.6,0,3.3,0.8,3.3,3.3
					c0,10.5,0,21.1,0,31.6c0,0.9-0.2,1.4-1.1,1.8c-4.3,2.4-6.5,6.2-6.8,11.2c0,0.7,0,1.4,0,2.2h-29.1V123.3z M79.3,184.3
					c0-31.3,0-62.6,0-93.9c0-3,1-4.3,3.8-5.3c16.5-5.6,33.1-11.1,49.6-16.7c0.4-0.1,0.9-0.3,1.6-0.5c0,2.4,0,4.6,0,6.8
					c0,1.3,0.3,2.9-0.3,3.8c-0.6,0.9-2.3,1-3.5,1.4c-12.8,4.3-25.7,8.6-38.5,13c-0.4,0.1-0.9,0.3-1.2,0.5c-0.9,0.5-1.3,1.4-0.8,2.2
					c0.3,0.6,1.2,1.1,1.9,1.3c0.5,0.1,1.2-0.2,1.8-0.4c13.4-4.5,26.7-9,40-13.4c0.1,0,0.2-0.1,0.5-0.1c0,0.4,0.1,0.8,0.1,1.1
					c0,2.3-0.1,4.7,0,7c0.1,1.4-0.4,2-1.7,2.5c-13.6,4.5-27.1,9.1-40.7,13.6c-0.4,0.1-0.8,0.2-1.1,0.4c-0.9,0.5-1.2,1.3-0.9,2.3
					c0.3,0.9,1,1.5,2,1.4c0.5,0,1-0.2,1.5-0.4c13.1-4.4,26.3-8.8,39.4-13.2c0.4-0.1,0.8-0.3,1.5-0.4c0,2,0,3.9,0,5.7
					c0,1.4,0.4,3.2-0.2,4.1c-0.7,0.9-2.5,1.1-3.8,1.5c-12.8,4.3-25.5,8.6-38.3,12.9c-0.4,0.1-0.8,0.2-1.1,0.4
					c-0.9,0.5-1.3,1.4-0.9,2.4c0.3,0.9,1,1.4,2,1.3c0.5-0.1,1-0.2,1.5-0.4c13.1-4.4,26.2-8.8,39.3-13.2c0.4-0.1,0.8-0.3,1.5-0.5
					c0,3.3,0,6.4,0,9.5c0,0.3-0.6,0.7-1.1,0.9c-6.2,2.1-12.4,4.2-18.6,6.3c-7.6,2.6-15.2,5.1-22.8,7.7c-0.7,0.2-1.5,0.8-1.8,1.5
					c-0.2,0.5,0,1.6,0.4,1.8c0.6,0.4,1.7,0.6,2.4,0.4c3.4-1,6.8-2.2,10.2-3.4c9.9-3.3,19.9-6.7,29.8-10c0.4-0.1,0.8-0.3,1.4-0.4v7.1
					c0,2.9,0,2.9-2.8,3.9c-7.8,2.6-15.5,5.2-23.3,7.9c-0.3,0.1-0.6,0.2-0.9,0.3c-1.1,0.5-1.5,1.5-1.2,2.5c0.4,1,1.3,1.6,2.4,1.2
					c2.6-0.8,5.2-1.7,7.9-2.6c5.6-1.9,11.1-3.7,16.7-5.6c0.3-0.1,0.7-0.2,1.1-0.3v45.7h-17v-1.5c0-6.1,0-12.2,0-18.3
					c0-3.7-2.5-5.6-6-4.6c-5.7,1.6-11.5,3.2-17.2,4.8c-2.9,0.8-4.1,2.4-4.1,5.4c0,4.2,0,8.4,0,12.7v1.5H79.4
					C79.3,185.1,79.3,184.7,79.3,184.3 M93.8,66.6c0-1.2,1-1.9,2.3-1.9c1.2,0,2.2,0.8,2.3,2c0.1,1,0,2.1,0.1,3.2c0,1.7,0,3.4,0,5.1
					c0,0.3-0.3,0.9-0.6,1c-1.3,0.5-2.6,0.9-4.1,1.4C93.8,73.7,93.7,70.1,93.8,66.6 M94.5,60.8c-2.7,0.6-4.7,3.1-4.7,6.1
					c0,3.9,0,7.8,0,11.8c-2.6,0.9-5.1,1.7-7.6,2.6c-4.9,1.6-6.8,4.3-6.8,9.4c0,22,0,43.9,0,65.9v1.7c-0.4,0-0.6,0.1-0.8,0.1
					c-6.8,0.5-12.5,5.2-14.4,11.7c-0.2,0.8-0.4,1.7-0.7,2.5v13.2c1.1,2.9,3.2,3.9,6.3,3.9c32,0,64.1,0,96.1,0c8.8,0,17.6,0,26.4,0
					c0.1,0,0.1,0,0.2,0c0.5,0,1,0,1.5-0.1c2.7-0.3,4.5-2.3,4.5-4.9c0-4.6,0.1-9.1,0-13.7c-0.1-6-4.5-11.2-10.3-12.3
					c-1.6-0.3-3.2-0.3-4.9-0.4v-1.5c0-10,0-20,0-30.1c0-4.9-2.4-7.4-7.4-7.4c-10.6,0-21.2,0-31.8,0h-1.7V70c5,4.8,9.8,9.5,14.6,14.1
					c1.2,1.2,1.8,2.5,1.8,4.2c0,6.1,0,12.2,0,18.3c0,1.7,0,3.4,0,5.1c0.1,1.5,1.3,2.5,2.6,2c1.1-0.4,1.4-1.3,1.4-2.4
					c0-7.8,0-15.6,0-23.3c0-2.6-0.9-4.8-2.8-6.6c-5.9-5.7-11.9-11.5-17.8-17.2c-0.9-0.9-1.9-1.1-3.1-0.7c-8.2,2.8-16.5,5.6-24.7,8.3
					c-2.6,0.9-5.1,1.7-7.7,2.6c-0.1-0.2-0.2-0.3-0.2-0.4c0-2.2,0-4.4-0.1-6.6c0-1.1-0.2-2.2-0.6-3.2c-1-2.3-3.2-3.6-5.7-3.6
					C95.5,60.7,95,60.7,94.5,60.8"/>
			</defs>
			<clipPath id="SVGID_2_">
				<use xlink:href="#SVGID_1_"  style="overflow:visible;"/>
			</clipPath>
			
				<linearGradient id="SVGID_3_" gradientUnits="userSpaceOnUse" x1="-3416.9768" y1="2376.676" x2="-3416.6467" y2="2376.676" gradientTransform="matrix(409.2199 0 0 -409.2199 1398354.25 972708.1875)">
				<stop  offset="0" style="stop-color:#E300D6"/>
				<stop  offset="0.4662" style="stop-color:#4828BE"/>
				<stop  offset="1" style="stop-color:#4828BE"/>
			</linearGradient>
			<rect x="59.5" y="60.7" class="st3" width="135.1" height="129"/>
		</g>
		<g>
			<defs>
				<path id="SVGID_4_" d="M98.6,147.7c-2.5,0.8-5,1.6-7.5,2.5c-1.1,0.4-1.6,1.4-1.3,2.4c0.3,1,1.4,1.7,2.5,1.3
					c2.5-0.8,4.9-1.6,7.3-2.5c0.7-0.3,1.1-1.1,1.4-1.4c0-1.5-0.9-2.4-1.9-2.4C99,147.6,98.8,147.6,98.6,147.7"/>
			</defs>
			<clipPath id="SVGID_5_">
				<use xlink:href="#SVGID_4_"  style="overflow:visible;"/>
			</clipPath>
			
				<linearGradient id="SVGID_6_" gradientUnits="userSpaceOnUse" x1="-3451.3362" y1="2385.5828" x2="-3451.0061" y2="2385.5828" gradientTransform="matrix(34.2738 0 0 -34.2738 118380.0547 81913.8125)">
				<stop  offset="0" style="stop-color:#E300D6"/>
				<stop  offset="0.4662" style="stop-color:#4828BE"/>
				<stop  offset="1" style="stop-color:#4828BE"/>
			</linearGradient>
			<rect x="89.6" y="147.6" class="st4" width="11.5" height="6.6"/>
		</g>
		<g>
			<defs>
				<path id="SVGID_7_" d="M147.6,147.1h18v3.3h-18V147.1z M146.8,143.1c-1.9,0-3.2,1.4-3.2,3.3c0,1.4,0,2.8,0,4.2
					c0,2.6,1.2,3.9,3.9,3.9c3,0,6.1,0,9.1,0v0c3.2,0,6.4,0,9.6,0c2,0,3.3-1.2,3.4-3.1c0.1-1.7,0.1-3.5,0-5.3c-0.1-1.8-1.4-3-3.2-3
					c-3.3,0-6.5,0-9.8,0C153.3,143.1,150,143.1,146.8,143.1"/>
			</defs>
			<clipPath id="SVGID_8_">
				<use xlink:href="#SVGID_7_"  style="overflow:visible;"/>
			</clipPath>
			
				<linearGradient id="SVGID_9_" gradientUnits="userSpaceOnUse" x1="-3431.5637" y1="2380.1045" x2="-3431.2336" y2="2380.1045" gradientTransform="matrix(79.0749 0 0 -79.0749 271494.0938 188355.3438)">
				<stop  offset="0" style="stop-color:#E300D6"/>
				<stop  offset="0.4662" style="stop-color:#4828BE"/>
				<stop  offset="1" style="stop-color:#4828BE"/>
			</linearGradient>
			<rect x="143.5" y="143.1" class="st5" width="26.1" height="11.5"/>
		</g>
		<g>
			<defs>
				<path id="SVGID_10_" d="M147.6,132.1h18v3.3h-18V132.1z M147.2,128.1c-2.3,0-3.6,1.3-3.6,3.6c0,1.4,0,2.8,0,4.2
					c0,2.2,1.3,3.5,3.5,3.6c6.3,0,12.6,0,19,0c2.2,0,3.5-1.3,3.6-3.5c0.1-1.4,0-2.7,0-4.1c-0.1-2.5-1.3-3.8-3.9-3.8
					c-3.1,0-6.1,0-9.2,0c-1,0-1.9,0-2.9,0c-0.9,0-1.8,0-2.7,0C149.7,128.1,148.4,128.1,147.2,128.1"/>
			</defs>
			<clipPath id="SVGID_11_">
				<use xlink:href="#SVGID_10_"  style="overflow:visible;"/>
			</clipPath>
			
				<linearGradient id="SVGID_12_" gradientUnits="userSpaceOnUse" x1="-3431.5625" y1="2379.7183" x2="-3431.2322" y2="2379.7183" gradientTransform="matrix(79.0799 0 0 -79.0799 271511.0938 188321.625)">
				<stop  offset="0" style="stop-color:#E300D6"/>
				<stop  offset="0.4662" style="stop-color:#4828BE"/>
				<stop  offset="1" style="stop-color:#4828BE"/>
			</linearGradient>
			<rect x="143.5" y="128.1" class="st6" width="26.1" height="11.5"/>
		</g>
		<g>
			<defs>
				<path id="SVGID_13_" d="M147.6,162.4h5v3.4h-5V162.4z M146.8,158.4c-1.9,0.1-3.2,1.4-3.2,3.3c0,1.6,0,3.2,0,4.7
					c0.1,2,1.4,3.3,3.4,3.3c1.1,0,2.1,0,3.2,0c0.3,0,0.7,0,1,0c0.7,0,1.4,0,2.2,0c1.9-0.1,3.2-1.3,3.3-3.2c0.1-1.7,0.1-3.3,0-5
					c-0.1-1.9-1.3-3.1-3.2-3.2c-1.1,0-2.2,0-3.3,0C149,158.3,147.9,158.3,146.8,158.4"/>
			</defs>
			<clipPath id="SVGID_14_">
				<use xlink:href="#SVGID_13_"  style="overflow:visible;"/>
			</clipPath>
			
				<linearGradient id="SVGID_15_" gradientUnits="userSpaceOnUse" x1="-3449.0374" y1="2384.967" x2="-3448.7073" y2="2384.967" gradientTransform="matrix(39.6385 0 0 -39.6385 136858.375 94700.6641)">
				<stop  offset="0" style="stop-color:#E300D6"/>
				<stop  offset="0.4662" style="stop-color:#4828BE"/>
				<stop  offset="1" style="stop-color:#4828BE"/>
			</linearGradient>
			<rect x="143.5" y="158.3" class="st7" width="13.1" height="11.4"/>
		</g>
	</g>
</g>
</svg>
