<?xml version="1.0" encoding="utf-8"?>
<!-- Generator: Adobe Illustrator 19.1.0, SVG Export Plug-In . SVG Version: 6.00 Build 0)  -->
<svg version="1.1" id="Layer_1" xmlns="http://www.w3.org/2000/svg" xmlns:xlink="http://www.w3.org/1999/xlink" x="0px" y="0px"
	 viewBox="0 0 250 250" style="enable-background:new 0 0 250 250;" xml:space="preserve">
<style type="text/css">
	.st0{opacity:0.3;}
	.st1{fill:#FFFFFD;}
	.st2{fill:none;stroke:#F4EEE9;stroke-width:9.3745;stroke-linecap:round;stroke-miterlimit:10;}
	.st3{clip-path:url(#SVGID_2_);fill:url(#SVGID_3_);}
	.st4{clip-path:url(#SVGID_5_);fill:url(#SVGID_6_);}
	.st5{clip-path:url(#SVGID_8_);fill:url(#SVGID_9_);}
	.st6{clip-path:url(#SVGID_11_);fill:url(#SVGID_12_);}
	.st7{clip-path:url(#SVGID_14_);fill:url(#SVGID_15_);}
	.st8{clip-path:url(#SVGID_17_);fill:url(#SVGID_18_);}
	.st9{clip-path:url(#SVGID_20_);fill:url(#SVGID_21_);}
	.st10{clip-path:url(#SVGID_23_);fill:url(#SVGID_24_);}
	.st11{clip-path:url(#SVGID_26_);fill:url(#SVGID_27_);}
	.st12{clip-path:url(#SVGID_29_);fill:url(#SVGID_30_);}
	.st13{clip-path:url(#SVGID_32_);fill:url(#SVGID_33_);}
	.st14{clip-path:url(#SVGID_35_);fill:url(#SVGID_36_);}
</style>
<g>
	<g>
		<g>
			<g class="st0">
				<path d="M196.9,244.8H57.7c-23.4,0-42.4-19-42.4-42.4V61.7c0-23.4,19-42.4,42.4-42.4h139.2c23.4,0,42.4,19,42.4,42.4v140.6
					C239.4,225.8,220.4,244.8,196.9,244.8z"/>
			</g>
			<g>
				<path class="st1" d="M194.6,237.7H55.4c-23.4,0-42.4-19-42.4-42.4V54.7c0-23.4,19-42.4,42.4-42.4h139.2
					c23.4,0,42.4,19,42.4,42.4v140.6C237,218.7,218,237.7,194.6,237.7z"/>
			</g>
		</g>
		<path class="st2" d="M27.2,69c0-23.4,19-42.4,42.4-42.4h16.5"/>
		<path class="st2" d="M222.8,181c0,23.4-19,42.4-42.4,42.4"/>
		<line class="st2" x1="105.8" y1="26.6" x2="129.7" y2="26.6"/>
	</g>
	<g>
		<g>
			<defs>
				<path id="SVGID_1_" d="M177.7,178.2h12.6v10.7h-12.6V178.2z M130.9,154.8h31.9v34.1h-31.9V154.8z M62.6,148.4h49.2v40.5H62.6
					V148.4z M177.7,135.6h12.7v25.5h-12.7V135.6z M90.5,127.6c-2.5-2.2-2.9-5.8-0.9-8.6c1.7,2.5,3.3,4.9,5.1,7.5
					c1.8-2.6,3.4-5,5-7.4c2,2.4,1.8,6-0.5,8.3c-1.3,1.3-2.9,1.9-4.6,1.9C93.2,129.2,91.7,128.7,90.5,127.6 M147.9,93h42.5v17.1
					h-42.5V93z M129.2,124.9h1.6v-32h12.9v21.3h46.8v6.4c-0.6,0-1.1,0.1-1.7,0.1v4.1c0.6,0.1,1.1,0.1,1.8,0.2v6.3h-16.9v34h16.9v8.7
					h-16.9v15h-6.4v-38.3h-40.5v38.3h-10.5v-44.7H62.7V125h21.6c1.2,4.3,3.9,7,8.3,8.2v6.3H99v-4c-0.7-0.1-1.3-0.1-1.9-0.2
					c-0.4-2-0.4-2,1.4-2.7c3.1-1.2,5.3-3.3,6.3-6.5c0.4-1.2,0.9-1.3,2-1.3c3.8,0,7.7,0,11.5,0C121.9,124.9,125.5,124.9,129.2,124.9
					 M103.9,117.6c-0.2-0.9-1.1-1.6-1.7-2.5c0.5-0.8,1-1.6,1.5-2.4c3.5-6.3,6.9-12.6,10.4-18.9c0.2-0.4,0.7-0.9,1.1-0.9
					c3.8-0.1,7.5,0,11.4,0v27.9h-14.1c-1.1,0-2.1-0.1-3.2,0c-0.5,0.1-1,0.1-1.5,0.1C105.9,120.8,104.4,120.2,103.9,117.6 M62.6,93
					c0.3,0,0.6-0.1,1-0.1c3.4,0,6.8,0,10.3,0c0.5,0,1.2,0.4,1.4,0.8c3.8,6.8,7.5,13.7,11.3,20.5c0.4,0.8,0.4,1.2-0.1,2
					c-1,1.4-1.7,2.9-2.6,4.6H62.6V93z M89.3,110.6c-4.7-7.7-9.1-15.6-12.5-24.1c-4.2-10.7,2.4-22.1,12.8-25c10.9-2.9,22,4.1,24,15.3
					c0.8,4.2-0.4,8.1-2,11.9c-4.1,9.9-9.7,19-15.5,28c-0.5,0.7-0.9,1.4-1.5,2.3C92.8,116.1,91,113.4,89.3,110.6 M92.1,56.7
					c-1.6,0.4-3.3,0.7-4.9,1.3c-9.6,3.2-16.2,12.3-15.9,22.4c0.1,2.1,0.7,4.2,1.2,6.2c0.1,0.6,0.4,1.3,0.6,2H58.4v104.5h136.3V88.7
					c-0.6,0-1.2,0-1.9,0c-24.9,0-49.8,0-74.7,0h-1.9c0.2-0.6,0.3-1.1,0.5-1.6c5-12.8-4.1-28-18.7-30.1c-0.3,0-0.6-0.2-0.9-0.2H92.1z
					"/>
			</defs>
			<clipPath id="SVGID_2_">
				<use xlink:href="#SVGID_1_"  style="overflow:visible;"/>
			</clipPath>
			
				<linearGradient id="SVGID_3_" gradientUnits="userSpaceOnUse" x1="-3416.9431" y1="2379.9546" x2="-3416.6133" y2="2379.9546" gradientTransform="matrix(413.1418 0 0 -413.1418 1411740.375 983383.625)">
				<stop  offset="0" style="stop-color:#E300D6"/>
				<stop  offset="0.4662" style="stop-color:#4828BE"/>
				<stop  offset="1" style="stop-color:#4828BE"/>
			</linearGradient>
			<rect x="58.4" y="56.7" class="st3" width="136.3" height="136.5"/>
		</g>
		<g>
			<defs>
				<path id="SVGID_4_" d="M156.6,120.8v6.3h4c0-0.8,0.1-1.4,0.1-2.1c0.8-0.1,1.4-0.1,2.1-0.1v-4.1H156.6z"/>
			</defs>
			<clipPath id="SVGID_5_">
				<use xlink:href="#SVGID_4_"  style="overflow:visible;"/>
			</clipPath>
			
				<linearGradient id="SVGID_6_" gradientUnits="userSpaceOnUse" x1="-3488.6799" y1="2462.1023" x2="-3488.3499" y2="2462.1023" gradientTransform="matrix(18.951 0 0 -18.951 66270.6328 46783.3008)">
				<stop  offset="0" style="stop-color:#E300D6"/>
				<stop  offset="0.4662" style="stop-color:#4828BE"/>
				<stop  offset="1" style="stop-color:#4828BE"/>
			</linearGradient>
			<rect x="156.6" y="120.8" class="st4" width="6.3" height="6.3"/>
		</g>
		<g>
			<defs>
				<rect id="SVGID_7_" x="103.3" y="135.6" width="8.5" height="4"/>
			</defs>
			<clipPath id="SVGID_8_">
				<use xlink:href="#SVGID_7_"  style="overflow:visible;"/>
			</clipPath>
			
				<linearGradient id="SVGID_9_" gradientUnits="userSpaceOnUse" x1="-3464.7646" y1="2440.4458" x2="-3464.4346" y2="2440.4458" gradientTransform="matrix(25.7493 0 0 -25.7493 89318.5469 62977.3203)">
				<stop  offset="0" style="stop-color:#E300D6"/>
				<stop  offset="0.4662" style="stop-color:#4828BE"/>
				<stop  offset="1" style="stop-color:#4828BE"/>
			</linearGradient>
			<rect x="103.3" y="135.6" class="st5" width="8.5" height="4"/>
		</g>
		<g>
			<defs>
				<rect id="SVGID_10_" x="116.1" y="135.6" width="8.5" height="4"/>
			</defs>
			<clipPath id="SVGID_11_">
				<use xlink:href="#SVGID_10_"  style="overflow:visible;"/>
			</clipPath>
			
				<linearGradient id="SVGID_12_" gradientUnits="userSpaceOnUse" x1="-3465.8433" y1="2440.53" x2="-3465.5134" y2="2440.53" gradientTransform="matrix(25.7157 0 0 -25.7157 89242.6172 62897.4375)">
				<stop  offset="0" style="stop-color:#E300D6"/>
				<stop  offset="0.4662" style="stop-color:#4828BE"/>
				<stop  offset="1" style="stop-color:#4828BE"/>
			</linearGradient>
			<rect x="116.1" y="135.6" class="st6" width="8.5" height="4"/>
		</g>
		<g>
			<defs>
				<rect id="SVGID_13_" x="129" y="135.6" width="8.5" height="4"/>
			</defs>
			<clipPath id="SVGID_14_">
				<use xlink:href="#SVGID_13_"  style="overflow:visible;"/>
			</clipPath>
			
				<linearGradient id="SVGID_15_" gradientUnits="userSpaceOnUse" x1="-3467.0564" y1="2440.7727" x2="-3466.7263" y2="2440.7727" gradientTransform="matrix(25.6192 0 0 -25.6192 88952.1719 62668.207)">
				<stop  offset="0" style="stop-color:#E300D6"/>
				<stop  offset="0.4662" style="stop-color:#4828BE"/>
				<stop  offset="1" style="stop-color:#4828BE"/>
			</linearGradient>
			<rect x="129" y="135.6" class="st7" width="8.5" height="4"/>
		</g>
		<g>
			<defs>
				<rect id="SVGID_16_" x="141.8" y="135.6" width="8.4" height="4"/>
			</defs>
			<clipPath id="SVGID_17_">
				<use xlink:href="#SVGID_16_"  style="overflow:visible;"/>
			</clipPath>
			
				<linearGradient id="SVGID_18_" gradientUnits="userSpaceOnUse" x1="-3468.1055" y1="2440.8132" x2="-3467.7754" y2="2440.8132" gradientTransform="matrix(25.6039 0 0 -25.6039 88938.875 62631.9688)">
				<stop  offset="0" style="stop-color:#E300D6"/>
				<stop  offset="0.4662" style="stop-color:#4828BE"/>
				<stop  offset="1" style="stop-color:#4828BE"/>
			</linearGradient>
			<rect x="141.8" y="135.6" class="st8" width="8.4" height="4"/>
		</g>
		<g>
			<defs>
				<path id="SVGID_19_" d="M156.6,133.6c-0.1,0.6-0.1,1.2-0.2,1.8c-0.7,0.1-1.4,0.1-2,0.2v4h6.3v-6H156.6z"/>
			</defs>
			<clipPath id="SVGID_20_">
				<use xlink:href="#SVGID_19_"  style="overflow:visible;"/>
			</clipPath>
			
				<linearGradient id="SVGID_21_" gradientUnits="userSpaceOnUse" x1="-3488.4702" y1="2463.4956" x2="-3488.1401" y2="2463.4956" gradientTransform="matrix(18.9434 0 0 -18.9434 66237.6719 46803.4961)">
				<stop  offset="0" style="stop-color:#E300D6"/>
				<stop  offset="0.4662" style="stop-color:#4828BE"/>
				<stop  offset="1" style="stop-color:#4828BE"/>
			</linearGradient>
			<rect x="154.3" y="133.6" class="st9" width="6.3" height="6"/>
		</g>
		<g>
			<defs>
				<rect id="SVGID_22_" x="166.6" y="120.8" width="7" height="4"/>
			</defs>
			<clipPath id="SVGID_23_">
				<use xlink:href="#SVGID_22_"  style="overflow:visible;"/>
			</clipPath>
			
				<linearGradient id="SVGID_24_" gradientUnits="userSpaceOnUse" x1="-3481.2344" y1="2452.3123" x2="-3480.9045" y2="2452.3123" gradientTransform="matrix(21.353 0 0 -21.353 74501.5625 52487.168)">
				<stop  offset="0" style="stop-color:#E300D6"/>
				<stop  offset="0.4662" style="stop-color:#4828BE"/>
				<stop  offset="1" style="stop-color:#4828BE"/>
			</linearGradient>
			<rect x="166.6" y="120.8" class="st10" width="7" height="4"/>
		</g>
		<g>
			<defs>
				<rect id="SVGID_25_" x="177.4" y="120.8" width="7.1" height="4"/>
			</defs>
			<clipPath id="SVGID_26_">
				<use xlink:href="#SVGID_25_"  style="overflow:visible;"/>
			</clipPath>
			
				<linearGradient id="SVGID_27_" gradientUnits="userSpaceOnUse" x1="-3481.8042" y1="2451.7959" x2="-3481.4744" y2="2451.7959" gradientTransform="matrix(21.498 0 0 -21.498 75029.1875 52831.457)">
				<stop  offset="0" style="stop-color:#E300D6"/>
				<stop  offset="0.4662" style="stop-color:#4828BE"/>
				<stop  offset="1" style="stop-color:#4828BE"/>
			</linearGradient>
			<rect x="177.4" y="120.8" class="st11" width="7.1" height="4"/>
		</g>
		<g>
			<defs>
				<path id="SVGID_28_" d="M94.6,93c-7-0.1-12.8-5.9-12.7-12.9C82,73,87.6,67.3,94.7,67.3c7.1,0,12.8,5.8,12.8,12.8
					C107.5,87.2,101.7,93,94.6,93C94.7,93,94.6,93,94.6,93 M94.6,63.1c-9.4,0-16.9,7.7-16.9,17.1c0,9.3,7.7,16.9,17,16.9
					c9.4,0,17-7.7,17-17.1C111.7,70.7,104,63.1,94.6,63.1C94.7,63.1,94.6,63.1,94.6,63.1"/>
			</defs>
			<clipPath id="SVGID_29_">
				<use xlink:href="#SVGID_28_"  style="overflow:visible;"/>
			</clipPath>
			
				<linearGradient id="SVGID_30_" gradientUnits="userSpaceOnUse" x1="-3426.1877" y1="2390.9807" x2="-3425.8577" y2="2390.9807" gradientTransform="matrix(102.987 0 0 -102.987 352930.5938 246320.1406)">
				<stop  offset="0" style="stop-color:#E300D6"/>
				<stop  offset="0.4662" style="stop-color:#4828BE"/>
				<stop  offset="1" style="stop-color:#4828BE"/>
			</linearGradient>
			<rect x="77.7" y="63.1" class="st12" width="34.1" height="34"/>
		</g>
		<g>
			<defs>
				<path id="SVGID_31_" d="M92.7,101.6v4.1c1.2,0,2.3,0,3.4,0c0.2,0,0.7-0.4,0.7-0.6c0.1-1.2,0-2.3,0-3.5H92.7z"/>
			</defs>
			<clipPath id="SVGID_32_">
				<use xlink:href="#SVGID_31_"  style="overflow:visible;"/>
			</clipPath>
			
				<linearGradient id="SVGID_33_" gradientUnits="userSpaceOnUse" x1="-3516.3901" y1="2502.6758" x2="-3516.0603" y2="2502.6758" gradientTransform="matrix(12.5557 0 0 -12.5557 44243.543 31526.5762)">
				<stop  offset="0" style="stop-color:#E300D6"/>
				<stop  offset="0.4662" style="stop-color:#4828BE"/>
				<stop  offset="1" style="stop-color:#4828BE"/>
			</linearGradient>
			<rect x="92.7" y="101.6" class="st13" width="4.2" height="4.1"/>
		</g>
		<g>
			<defs>
				<path id="SVGID_34_" d="M94.6,79.5C93,77.7,91.5,76,90,74.3c-1.1,1.2-2,2.1-2.9,2.9c2.6,2.6,5.2,5.1,7.7,7.7
					c2.5-2.5,5-5,7.4-7.4c-0.8-1-1.7-2-2.7-3.2C97.9,76,96.3,77.6,94.6,79.5"/>
			</defs>
			<clipPath id="SVGID_35_">
				<use xlink:href="#SVGID_34_"  style="overflow:visible;"/>
			</clipPath>
			
				<linearGradient id="SVGID_36_" gradientUnits="userSpaceOnUse" x1="-3441.9097" y1="2409.7693" x2="-3441.5796" y2="2409.7693" gradientTransform="matrix(45.6557 0 0 -45.6557 157229.9688 110099.3672)">
				<stop  offset="0" style="stop-color:#E300D6"/>
				<stop  offset="0.4662" style="stop-color:#4828BE"/>
				<stop  offset="1" style="stop-color:#4828BE"/>
			</linearGradient>
			<rect x="87.1" y="74.3" class="st14" width="15.1" height="10.6"/>
		</g>
	</g>
</g>
</svg>
