<?xml version="1.0" encoding="utf-8"?>
<!-- Generator: Adobe Illustrator 19.1.0, SVG Export Plug-In . SVG Version: 6.00 Build 0)  -->
<svg version="1.1" id="Layer_1" xmlns="http://www.w3.org/2000/svg" xmlns:xlink="http://www.w3.org/1999/xlink" x="0px" y="0px"
	 viewBox="0 0 250 250" style="enable-background:new 0 0 250 250;" xml:space="preserve">
<style type="text/css">
	.st0{opacity:0.3;}
	.st1{fill:#FFFFFD;}
	.st2{fill:none;stroke:#F4EEE9;stroke-width:9.3745;stroke-linecap:round;stroke-miterlimit:10;}
	.st3{clip-path:url(#SVGID_2_);fill:url(#SVGID_3_);}
	.st4{clip-path:url(#SVGID_5_);fill:url(#SVGID_6_);}
	.st5{clip-path:url(#SVGID_8_);fill:url(#SVGID_9_);}
	.st6{clip-path:url(#SVGID_11_);fill:url(#SVGID_12_);}
	.st7{clip-path:url(#SVGID_14_);fill:url(#SVGID_15_);}
	.st8{clip-path:url(#SVGID_17_);fill:url(#SVGID_18_);}
	.st9{clip-path:url(#SVGID_20_);fill:url(#SVGID_21_);}
	.st10{clip-path:url(#SVGID_23_);fill:url(#SVGID_24_);}
	.st11{clip-path:url(#SVGID_26_);fill:url(#SVGID_27_);}
	.st12{clip-path:url(#SVGID_29_);fill:url(#SVGID_30_);}
	.st13{clip-path:url(#SVGID_32_);fill:url(#SVGID_33_);}
	.st14{clip-path:url(#SVGID_35_);fill:url(#SVGID_36_);}
	.st15{clip-path:url(#SVGID_38_);fill:url(#SVGID_39_);}
	.st16{clip-path:url(#SVGID_41_);fill:url(#SVGID_42_);}
	.st17{clip-path:url(#SVGID_44_);fill:url(#SVGID_45_);}
	.st18{clip-path:url(#SVGID_47_);fill:url(#SVGID_48_);}
	.st19{clip-path:url(#SVGID_50_);fill:url(#SVGID_51_);}
	.st20{clip-path:url(#SVGID_53_);fill:url(#SVGID_54_);}
</style>
<g>
	<g>
		<g>
			<g class="st0">
				<path d="M196.9,244.8H57.7c-23.4,0-42.4-19-42.4-42.4V61.7c0-23.4,19-42.4,42.4-42.4h139.2c23.4,0,42.4,19,42.4,42.4v140.6
					C239.4,225.8,220.4,244.8,196.9,244.8z"/>
			</g>
			<g>
				<path class="st1" d="M194.6,237.7H55.4c-23.4,0-42.4-19-42.4-42.4V54.7c0-23.4,19-42.4,42.4-42.4h139.2
					c23.4,0,42.4,19,42.4,42.4v140.6C237,218.7,218,237.7,194.6,237.7z"/>
			</g>
		</g>
		<path class="st2" d="M27.2,69c0-23.4,19-42.4,42.4-42.4h16.5"/>
		<path class="st2" d="M222.8,181c0,23.4-19,42.4-42.4,42.4"/>
		<line class="st2" x1="105.8" y1="26.6" x2="129.7" y2="26.6"/>
	</g>
	<g>
		<g>
			<defs>
				<path id="SVGID_1_" d="M127.2,158.7H144V189h-16.8V158.7z M106.3,158.7h16.9v30.3h-16.9V158.7z M165.1,121.3h24V189h-24V121.3z
					 M61.2,109.6h24.1v7.5H61.2V109.6z M165.1,109.6h24.1v7.5h-24.1V109.6z M149.7,87.5h15.7v8.3h-15.7V87.5z M85,87.5h15.7v8.3H85
					V87.5z M104.8,62h40.8v33.8c-0.4,0-0.9,0.1-1.3,0.1c-4,0-8.1,0-12.1,0c0,0-0.1,0-0.1,0c-0.4,0-0.9,0-1.3,0.1
					c-1,0.2-1.5,0.9-1.5,1.9c0,1,0.5,1.7,1.5,1.9c0.5,0.1,1,0.1,1.4,0.1c0,0,0.1,0,0.1,0c9,0,18.1,0,27.1,0c0.5,0,1,0,1.6,0V189
					h-12.8v-1.6c0-9.3,0-18.7,0-28c0-3.3-1.4-4.7-4.7-4.7c-12.2,0-24.4,0-36.5,0c-3.3,0-4.6,1.4-4.6,4.7c0,9.3,0,18.7,0,28v1.6H89.3
					v-1.6c0-9.3,0-18.6,0-27.9c0-0.4,0-0.9,0-1.3c-0.1-1.1-0.8-1.7-1.8-1.8c-1-0.1-1.7,0.4-2,1.4c-0.1,0.5-0.1,1-0.1,1.6
					c0,9.3,0,18.6,0,27.9v1.7H61.2v-67.7h24.2v1.6c0,8.3,0,16.7,0,25c0,0.4,0,0.8,0,1.2c0.1,1.2,1,1.9,2,1.9c1.1,0,1.9-0.8,2-2.1
					c0-0.4,0-0.9,0-1.3c0-15.3,0-30.6,0-46v-1.7H91c9.8,0,19.7,0,29.5,0c0,0,0.1,0,0.1,0c0.5,0,1,0,1.5-0.1c1-0.2,1.5-0.9,1.5-1.9
					c0-1-0.5-1.7-1.5-1.9c-0.4-0.1-0.9-0.1-1.3-0.1c0,0-0.1,0-0.1,0c-4.8,0-9.6,0-14.3,0h-1.5V62z M104.6,57.9c-2.7,0-3.9,1.2-3.9,4
					c0,6.6,0,13.2,0,19.8v1.7h-1.4c-4.5,0-8.9,0-13.4,0c-3.8,0-5,1.2-5,5c0,2,0,4.1,0,6.1c0,3.8,0.7,4.7,4.5,5.4v2.7v2.8h-1.5
					c-7.5,0-15,0-22.5,0c-3,0-4.2,1.3-4.2,4.3c0,26.8,0,53.6,0,80.4c0,2.2,0.6,2.8,2.8,2.8c43.5,0,87,0,130.5,0
					c1.2,0,2.2-0.3,2.8-1.4v-83.4c-0.8-2-2.3-2.7-4.5-2.7c-7.4,0.1-14.7,0-22.1,0h-1.5V100c0.2-0.1,0.5-0.1,0.8-0.2
					c2.2-0.3,3.4-1.6,3.5-3.8c0.1-2.9,0.1-5.8,0-8.8c-0.1-2.4-1.5-3.8-4-3.8c-3.4,0-6.7,0-10.1,0c-1.4,0-2.7,0-4.1,0
					c-0.5,0-1,0-1.6,0c0-0.6,0-1.1,0-1.6c0-6.6,0-13.3,0-19.9c0-2.8-1.2-4-3.9-4c-6.8,0-13.7,0-20.5,0
					C118.3,57.9,111.5,57.9,104.6,57.9"/>
			</defs>
			<clipPath id="SVGID_2_">
				<use xlink:href="#SVGID_1_"  style="overflow:visible;"/>
			</clipPath>
			
				<linearGradient id="SVGID_3_" gradientUnits="userSpaceOnUse" x1="-3416.9429" y1="2373.4082" x2="-3416.6128" y2="2373.4082" gradientTransform="matrix(412.319 0 0 -412.319 1408927.5 978726.6875)">
				<stop  offset="0" style="stop-color:#E300D6"/>
				<stop  offset="0.4662" style="stop-color:#4828BE"/>
				<stop  offset="1" style="stop-color:#4828BE"/>
			</linearGradient>
			<rect x="57.1" y="57.9" class="st3" width="136.1" height="135.2"/>
		</g>
		<g>
			<defs>
				<path id="SVGID_4_" d="M120.4,76.5c1.6-0.1,2.3-0.8,2.4-2.4c0-0.9,0.1-1.8,0-2.7c-0.1-1.2,0.3-1.8,1.5-1.6c0.3,0,0.6,0,0.9,0
					c0.3,0,0.5,0,0.7,0c1.8,0,1.6,0,1.6,2.4c0,4.2,0.1,4.2,4.2,4.2c0.2,0,0.5,0,0.7,0c2,0,1.7,0,1.7,2.4c0,2.5,0.3,2.3-2.4,2.3
					c-4.2,0-4.2,0-4.2,4.2c0,2.4,0.3,2.4-1.8,2.4c-0.2,0-0.4,0-0.6,0c-2.7,0-2.3,0.2-2.3-2.4c0-4.2,0-4.2-4.2-4.2
					c-0.1,0-0.3,0-0.4,0c-2.3,0-2,0-2-2.4c0-0.2,0-0.4,0-0.7c-0.2-1.3,0.3-1.8,1.6-1.6c0.4,0,0.7,0.1,1.1,0.1
					C119.4,76.5,119.9,76.5,120.4,76.5 M123.2,65.9c-2.5,0.1-4.3,1.9-4.4,4.4c0,0.7,0,1.4,0,2.2c-0.7,0-1.3,0-1.8,0
					c-2.9,0.1-4.7,1.9-4.8,4.7c0,1.1,0,2.2,0,3.3c0.1,2.7,1.9,4.5,4.6,4.6c0.6,0,1.2,0,2,0c0,0.8,0,1.4,0,1.9
					c0.1,2.7,1.8,4.6,4.6,4.7c1.3,0,2.6,0,3.8,0c2.4-0.1,4.2-1.9,4.3-4.4c0-0.7,0-1.4,0-2.2c0.7,0,1.2,0,1.7,0
					c3-0.1,4.9-1.9,4.9-4.9c0-1.1,0-2.1,0-3.2c-0.1-2.7-1.9-4.5-4.6-4.6c-0.6,0-1.3,0-2,0c0-0.8,0-1.4,0-1.9
					c-0.1-2.8-1.9-4.6-4.7-4.7c-0.6,0-1.3,0-1.9,0C124.3,65.9,123.8,65.9,123.2,65.9"/>
			</defs>
			<clipPath id="SVGID_5_">
				<use xlink:href="#SVGID_4_"  style="overflow:visible;"/>
			</clipPath>
			
				<linearGradient id="SVGID_6_" gradientUnits="userSpaceOnUse" x1="-3430.821" y1="2361.2334" x2="-3430.4907" y2="2361.2334" gradientTransform="matrix(78.7776 0 0 -78.7776 270384 186091.1719)">
				<stop  offset="0" style="stop-color:#E300D6"/>
				<stop  offset="0.4662" style="stop-color:#4828BE"/>
				<stop  offset="1" style="stop-color:#4828BE"/>
			</linearGradient>
			<rect x="112.2" y="65.9" class="st4" width="26" height="25.9"/>
		</g>
		<g>
			<defs>
				<path id="SVGID_7_" d="M140.4,130.8h6.8v5.9h-6.8V130.8z M145.2,126.8c-0.5,0-0.9,0-1.4,0c-1.4,0-2.8,0-4.2,0
					c-0.1,0-0.2,0-0.3,0c-1.9,0.1-3,1.1-3,3c0,2.7,0,5.3,0,8c0,1.9,1,3,2.9,3.1c3,0.1,6,0.1,9,0c1.9,0,2.9-1.2,2.9-3.1
					c0-2.7,0-5.3,0-8c0-1.9-1.1-3-3-3c-0.6,0-1.1,0-1.7,0C146.1,126.8,145.6,126.8,145.2,126.8"/>
			</defs>
			<clipPath id="SVGID_8_">
				<use xlink:href="#SVGID_7_"  style="overflow:visible;"/>
			</clipPath>
			
				<linearGradient id="SVGID_9_" gradientUnits="userSpaceOnUse" x1="-3444.3936" y1="2352.7366" x2="-3444.0635" y2="2352.7366" gradientTransform="matrix(45.2106 0 0 -45.2106 155859.2344 106502.3516)">
				<stop  offset="0" style="stop-color:#E300D6"/>
				<stop  offset="0.4662" style="stop-color:#4828BE"/>
				<stop  offset="1" style="stop-color:#4828BE"/>
			</linearGradient>
			<rect x="136.3" y="126.8" class="st5" width="14.9" height="14.1"/>
		</g>
		<g>
			<defs>
				<path id="SVGID_10_" d="M103.2,112.5h6.8v5.9h-6.8V112.5z M102.1,108.5c-1.8,0-2.9,1.2-3,2.9c-0.1,2.7-0.1,5.5,0,8.2
					c0,1.8,1.2,2.9,3,2.9c3,0,5.9,0,8.9,0c1.9,0,3-1.1,3-3c0-2.7,0-5.4,0-8.1c0-1.8-1.1-2.9-3-3c-1.5,0-2.9,0-4.4,0
					c-0.5,0-0.9,0-1.4,0c-0.5,0-0.9,0-1.4,0C103.3,108.5,102.7,108.5,102.1,108.5"/>
			</defs>
			<clipPath id="SVGID_11_">
				<use xlink:href="#SVGID_10_"  style="overflow:visible;"/>
			</clipPath>
			
				<linearGradient id="SVGID_12_" gradientUnits="userSpaceOnUse" x1="-3442.7144" y1="2351.9236" x2="-3442.3845" y2="2351.9236" gradientTransform="matrix(45.2258 0 0 -45.2258 155798.7344 106483.2188)">
				<stop  offset="0" style="stop-color:#E300D6"/>
				<stop  offset="0.4662" style="stop-color:#4828BE"/>
				<stop  offset="1" style="stop-color:#4828BE"/>
			</linearGradient>
			<rect x="99.1" y="108.5" class="st6" width="14.9" height="14.1"/>
		</g>
		<g>
			<defs>
				<path id="SVGID_13_" d="M121.8,112.5h6.7v5.9h-6.7V112.5z M120.6,108.5c-1.8,0-2.9,1.2-2.9,2.9c0,2.7,0,5.4,0,8.1
					c0,1.9,1.1,3,3,3c1.5,0,2.9,0,4.4,0c0.5,0,1,0,1.5,0c1.1,0,2.1,0,3.2,0c1.7-0.1,2.8-1.2,2.9-2.9c0-2.7,0-5.5,0-8.2
					c0-1.8-1.2-2.9-2.9-2.9c-1.5,0-3,0-4.5,0C123.7,108.5,122.2,108.5,120.6,108.5"/>
			</defs>
			<clipPath id="SVGID_14_">
				<use xlink:href="#SVGID_13_"  style="overflow:visible;"/>
			</clipPath>
			
				<linearGradient id="SVGID_15_" gradientUnits="userSpaceOnUse" x1="-3443.5588" y1="2351.915" x2="-3443.2288" y2="2351.915" gradientTransform="matrix(45.2107 0 0 -45.2107 155803.5156 106447.3203)">
				<stop  offset="0" style="stop-color:#E300D6"/>
				<stop  offset="0.4662" style="stop-color:#4828BE"/>
				<stop  offset="1" style="stop-color:#4828BE"/>
			</linearGradient>
			<rect x="117.7" y="108.5" class="st7" width="14.9" height="14.1"/>
		</g>
		<g>
			<defs>
				<path id="SVGID_16_" d="M103.2,130.9h6.8v5.9h-6.8V130.9z M108,126.8c-0.5,0-0.9,0-1.4,0c-1.5,0-2.9,0-4.4,0
					c-1.9,0-3.1,1.1-3.1,3c0,2.7,0,5.3,0,8c0,1.8,1.1,3,2.8,3c3.1,0.1,6.2,0.1,9.3,0c1.7,0,2.7-1.2,2.7-3c0-2.7,0-5.4,0-8.1
					c0-1.9-1.1-2.9-3-2.9c-0.6,0-1.1,0-1.7,0C108.9,126.8,108.4,126.8,108,126.8"/>
			</defs>
			<clipPath id="SVGID_17_">
				<use xlink:href="#SVGID_16_"  style="overflow:visible;"/>
			</clipPath>
			
				<linearGradient id="SVGID_18_" gradientUnits="userSpaceOnUse" x1="-3442.7234" y1="2352.7373" x2="-3442.3936" y2="2352.7373" gradientTransform="matrix(45.2117 0 0 -45.2117 155750.5781 106505.125)">
				<stop  offset="0" style="stop-color:#E300D6"/>
				<stop  offset="0.4662" style="stop-color:#4828BE"/>
				<stop  offset="1" style="stop-color:#4828BE"/>
			</linearGradient>
			<rect x="99.1" y="126.8" class="st8" width="14.9" height="14.1"/>
		</g>
		<g>
			<defs>
				<path id="SVGID_19_" d="M140.4,112.6h6.8v5.9h-6.8V112.6z M139.4,108.5c-2,0-3.1,1.1-3.1,3c0,2.7,0,5.3,0,8c0,1.9,1.1,3,3.1,3
					c1.5,0,2.9,0,4.4,0c1.4,0,2.8,0,4.2,0c2,0,3.1-1.1,3.2-3.1c0-2.6,0-5.2,0-7.8c0-2-1.2-3.1-3.2-3.1c-1.5,0-2.9,0-4.4,0
					C142.2,108.5,140.8,108.5,139.4,108.5"/>
			</defs>
			<clipPath id="SVGID_20_">
				<use xlink:href="#SVGID_19_"  style="overflow:visible;"/>
			</clipPath>
			
				<linearGradient id="SVGID_21_" gradientUnits="userSpaceOnUse" x1="-3444.397" y1="2351.9121" x2="-3444.0671" y2="2351.9121" gradientTransform="matrix(45.2053 0 0 -45.2053 155841.25 106434.3906)">
				<stop  offset="0" style="stop-color:#E300D6"/>
				<stop  offset="0.4662" style="stop-color:#4828BE"/>
				<stop  offset="1" style="stop-color:#4828BE"/>
			</linearGradient>
			<rect x="136.3" y="108.5" class="st9" width="14.9" height="14.1"/>
		</g>
		<g>
			<defs>
				<path id="SVGID_22_" d="M121.8,130.8h6.7v5.9h-6.7V130.8z M120.9,126.8c-2.1,0-3.1,1.1-3.2,3.2c0,2.5,0,5,0,7.6
					c0,2.1,1.1,3.2,3.2,3.2c1.4,0,2.8,0,4.2,0c0.5,0,0.9,0,1.4,0c1,0,2,0,3,0c2-0.1,3.1-1.2,3.1-3.2c0-2.6,0-5.1,0-7.7
					c0-2-1.1-3.1-3.1-3.1c-1.4,0-2.9,0-4.3,0C123.7,126.8,122.3,126.8,120.9,126.8"/>
			</defs>
			<clipPath id="SVGID_23_">
				<use xlink:href="#SVGID_22_"  style="overflow:visible;"/>
			</clipPath>
			
				<linearGradient id="SVGID_24_" gradientUnits="userSpaceOnUse" x1="-3443.5874" y1="2352.7139" x2="-3443.2571" y2="2352.7139" gradientTransform="matrix(45.1672 0 0 -45.1672 155655.0469 106399.4063)">
				<stop  offset="0" style="stop-color:#E300D6"/>
				<stop  offset="0.4662" style="stop-color:#4828BE"/>
				<stop  offset="1" style="stop-color:#4828BE"/>
			</linearGradient>
			<rect x="117.7" y="126.8" class="st10" width="14.9" height="14.1"/>
		</g>
		<g>
			<defs>
				<path id="SVGID_25_" d="M73.2,156.6c-1.8,0-3.5,0-5.3,0c-1.5,0-2.4,0.8-2.4,2c0,1.2,0.9,1.9,2.3,1.9c3.6,0,7.2,0,10.7,0
					c1.4,0,2.3-0.8,2.4-2c0-1.2-0.9-2-2.3-2c-0.7,0-1.4,0-2.2,0C75.4,156.6,74.3,156.6,73.2,156.6"/>
			</defs>
			<clipPath id="SVGID_26_">
				<use xlink:href="#SVGID_25_"  style="overflow:visible;"/>
			</clipPath>
			
				<linearGradient id="SVGID_27_" gradientUnits="userSpaceOnUse" x1="-3440.312" y1="2354.5842" x2="-3439.9819" y2="2354.5842" gradientTransform="matrix(46.7646 0 0 -46.7646 160950.2656 110269.6875)">
				<stop  offset="0" style="stop-color:#E300D6"/>
				<stop  offset="0.4662" style="stop-color:#4828BE"/>
				<stop  offset="1" style="stop-color:#4828BE"/>
			</linearGradient>
			<rect x="65.5" y="156.6" class="st11" width="15.5" height="4"/>
		</g>
		<g>
			<defs>
				<path id="SVGID_28_" d="M67.7,130.3c-1.4,0-2.2,0.8-2.2,2c0,1.2,0.8,2,2.3,2c1.8,0,3.6,0,5.4,0c1.8,0,3.6,0,5.4,0
					c1.4,0,2.3-0.8,2.3-2c0-1.1-0.9-2-2.2-2c-1.9,0-3.7,0-5.6,0C71.4,130.3,69.6,130.3,67.7,130.3"/>
			</defs>
			<clipPath id="SVGID_29_">
				<use xlink:href="#SVGID_28_"  style="overflow:visible;"/>
			</clipPath>
			
				<linearGradient id="SVGID_30_" gradientUnits="userSpaceOnUse" x1="-3440.3179" y1="2353.4392" x2="-3439.9878" y2="2353.4392" gradientTransform="matrix(46.7541 0 0 -46.7541 160914.5156 110165.2422)">
				<stop  offset="0" style="stop-color:#E300D6"/>
				<stop  offset="0.4662" style="stop-color:#4828BE"/>
				<stop  offset="1" style="stop-color:#4828BE"/>
			</linearGradient>
			<rect x="65.5" y="130.3" class="st12" width="15.5" height="4"/>
		</g>
		<g>
			<defs>
				<path id="SVGID_31_" d="M67.8,143.5c-1.4,0-2.2,0.7-2.2,1.9c0,1.2,0.8,2.1,2.2,2.1c3.6,0,7.2,0,10.9,0c1.4,0,2.3-0.8,2.3-2
					c0-1.2-0.9-2-2.3-2c-1.8,0-3.5,0-5.3,0c-1.1,0-2.2,0-3.3,0C69.3,143.5,68.5,143.5,67.8,143.5"/>
			</defs>
			<clipPath id="SVGID_32_">
				<use xlink:href="#SVGID_31_"  style="overflow:visible;"/>
			</clipPath>
			
				<linearGradient id="SVGID_33_" gradientUnits="userSpaceOnUse" x1="-3440.3267" y1="2354.0034" x2="-3439.9966" y2="2354.0034" gradientTransform="matrix(46.7387 0 0 -46.7387 160861.9688 110168.5391)">
				<stop  offset="0" style="stop-color:#E300D6"/>
				<stop  offset="0.4662" style="stop-color:#4828BE"/>
				<stop  offset="1" style="stop-color:#4828BE"/>
			</linearGradient>
			<rect x="65.5" y="143.4" class="st13" width="15.5" height="4"/>
		</g>
		<g>
			<defs>
				<path id="SVGID_34_" d="M67.7,169.7c-1.3,0-2.2,0.9-2.1,2c0,1.2,0.8,1.9,2.2,1.9c1.8,0,3.6,0,5.4,0c0.6,0,1.1,0,1.7,0
					c1.3,0,2.6,0,3.9,0c1.4,0,2.2-0.8,2.2-1.9c0-1.1-0.9-2-2.2-2c-1.9,0-3.7,0-5.6,0C71.4,169.6,69.5,169.6,67.7,169.7"/>
			</defs>
			<clipPath id="SVGID_35_">
				<use xlink:href="#SVGID_34_"  style="overflow:visible;"/>
			</clipPath>
			
				<linearGradient id="SVGID_36_" gradientUnits="userSpaceOnUse" x1="-3440.3262" y1="2355.1406" x2="-3439.9963" y2="2355.1406" gradientTransform="matrix(46.7394 0 0 -46.7394 160864.25 110249.4453)">
				<stop  offset="0" style="stop-color:#E300D6"/>
				<stop  offset="0.4662" style="stop-color:#4828BE"/>
				<stop  offset="1" style="stop-color:#4828BE"/>
			</linearGradient>
			<rect x="65.5" y="169.6" class="st14" width="15.5" height="4"/>
		</g>
		<g>
			<defs>
				<path id="SVGID_37_" d="M171.6,156.6c-1.3,0-2.2,0.8-2.3,1.9c0,1.2,0.9,2,2.3,2.1c3.6,0,7.2,0,10.9,0c1.4,0,2.3-0.8,2.3-2
					c0-1.2-0.9-2-2.3-2c-1.8,0-3.6,0-5.4,0c-1.1,0-2.2,0-3.3,0C173,156.6,172.3,156.6,171.6,156.6"/>
			</defs>
			<clipPath id="SVGID_38_">
				<use xlink:href="#SVGID_37_"  style="overflow:visible;"/>
			</clipPath>
			
				<linearGradient id="SVGID_39_" gradientUnits="userSpaceOnUse" x1="-3444.825" y1="2354.5801" x2="-3444.4949" y2="2354.5801" gradientTransform="matrix(46.7552 0 0 -46.7552 161232.8906 110247.4609)">
				<stop  offset="0" style="stop-color:#E300D6"/>
				<stop  offset="0.4662" style="stop-color:#4828BE"/>
				<stop  offset="1" style="stop-color:#4828BE"/>
			</linearGradient>
			<rect x="169.3" y="156.5" class="st15" width="15.5" height="4"/>
		</g>
		<g>
			<defs>
				<path id="SVGID_40_" d="M171.6,130.3c-1.4,0-2.3,0.9-2.3,2.1c0,1.1,0.9,1.9,2.3,1.9c1.8,0,3.6,0,5.4,0c1.8,0,3.6,0,5.4,0
					c1.5,0,2.3-0.7,2.3-2c0-1.2-0.8-2-2.2-2c-1.8,0-3.7,0-5.5,0C175.3,130.3,173.4,130.3,171.6,130.3"/>
			</defs>
			<clipPath id="SVGID_41_">
				<use xlink:href="#SVGID_40_"  style="overflow:visible;"/>
			</clipPath>
			
				<linearGradient id="SVGID_42_" gradientUnits="userSpaceOnUse" x1="-3444.8335" y1="2353.4336" x2="-3444.5034" y2="2353.4336" gradientTransform="matrix(46.7424 0 0 -46.7424 161189.0156 110137.3594)">
				<stop  offset="0" style="stop-color:#E300D6"/>
				<stop  offset="0.4662" style="stop-color:#4828BE"/>
				<stop  offset="1" style="stop-color:#4828BE"/>
			</linearGradient>
			<rect x="169.3" y="130.3" class="st16" width="15.5" height="4"/>
		</g>
		<g>
			<defs>
				<path id="SVGID_43_" d="M178.8,143.5c-0.6,0-1.1,0-1.7,0c-1.8,0-3.6,0-5.4,0c-1.4,0-2.3,0.8-2.3,2c0,1.2,0.9,2,2.3,2
					c3.6,0,7.2,0,10.9,0c1.4,0,2.3-0.8,2.2-2.1c0-1.2-0.8-1.9-2.2-1.9c-0.7,0-1.4,0-2.2,0C179.9,143.5,179.3,143.5,178.8,143.5"/>
			</defs>
			<clipPath id="SVGID_44_">
				<use xlink:href="#SVGID_43_"  style="overflow:visible;"/>
			</clipPath>
			
				<linearGradient id="SVGID_45_" gradientUnits="userSpaceOnUse" x1="-3444.8362" y1="2354.0032" x2="-3444.5063" y2="2354.0032" gradientTransform="matrix(46.7382 0 0 -46.7382 161174.75 110167.2969)">
				<stop  offset="0" style="stop-color:#E300D6"/>
				<stop  offset="0.4662" style="stop-color:#4828BE"/>
				<stop  offset="1" style="stop-color:#4828BE"/>
			</linearGradient>
			<rect x="169.4" y="143.4" class="st17" width="15.5" height="4"/>
		</g>
		<g>
			<defs>
				<path id="SVGID_46_" d="M171.7,169.6c-1.4,0-2.3,0.8-2.3,2c0,1.2,0.9,2,2.3,2c1.8,0,3.6,0,5.4,0c1.8,0,3.5,0,5.3,0
					c1.6,0,2.4-0.8,2.4-2c0-1.2-0.9-1.9-2.4-1.9c-1.8,0-3.6,0-5.4,0S173.5,169.6,171.7,169.6"/>
			</defs>
			<clipPath id="SVGID_47_">
				<use xlink:href="#SVGID_46_"  style="overflow:visible;"/>
			</clipPath>
			
				<linearGradient id="SVGID_48_" gradientUnits="userSpaceOnUse" x1="-3444.8228" y1="2355.1494" x2="-3444.4927" y2="2355.1494" gradientTransform="matrix(46.7588 0 0 -46.7588 161245.0781 110295.5703)">
				<stop  offset="0" style="stop-color:#E300D6"/>
				<stop  offset="0.4662" style="stop-color:#4828BE"/>
				<stop  offset="1" style="stop-color:#4828BE"/>
			</linearGradient>
			<rect x="169.3" y="169.6" class="st18" width="15.5" height="4"/>
		</g>
		<g>
			<defs>
				<path id="SVGID_49_" d="M114.4,172.3c-0.1,1.9-0.1,3.9,0,5.8c0.1,1.1,0.9,1.7,2,1.8c1,0,1.9-0.8,1.9-1.9c0-0.9,0-1.9,0-2.8
					c0-0.9,0-1.8,0-2.6c0-1.1-0.7-1.8-1.8-1.9c-0.1,0-0.2,0-0.2,0C115.3,170.6,114.4,171.3,114.4,172.3"/>
			</defs>
			<clipPath id="SVGID_50_">
				<use xlink:href="#SVGID_49_"  style="overflow:visible;"/>
			</clipPath>
			
				<linearGradient id="SVGID_51_" gradientUnits="userSpaceOnUse" x1="-3523.5686" y1="2296.2463" x2="-3523.2388" y2="2296.2463" gradientTransform="matrix(12.1334 0 0 -12.1334 42867.1328 28036.4902)">
				<stop  offset="0" style="stop-color:#E300D6"/>
				<stop  offset="0.4662" style="stop-color:#4828BE"/>
				<stop  offset="1" style="stop-color:#4828BE"/>
			</linearGradient>
			<rect x="114.3" y="170.6" class="st19" width="4.1" height="9.3"/>
		</g>
		<g>
			<defs>
				<path id="SVGID_52_" d="M133.9,170.5c-1.1,0.1-1.8,0.8-1.8,2c0,1.8,0,3.5,0,5.3c0,1.2,0.8,2,1.9,2c1.1,0.1,2-0.7,2.1-2
					c0.1-0.9,0-1.8,0-2.6h0c0-0.8,0-1.7,0-2.5c0-0.1,0-0.2,0-0.3c-0.1-1.2-1-1.9-2-1.9C134,170.5,133.9,170.5,133.9,170.5"/>
			</defs>
			<clipPath id="SVGID_53_">
				<use xlink:href="#SVGID_52_"  style="overflow:visible;"/>
			</clipPath>
			
				<linearGradient id="SVGID_54_" gradientUnits="userSpaceOnUse" x1="-3526.4958" y1="2296.2642" x2="-3526.1658" y2="2296.2642" gradientTransform="matrix(12.1375 0 0 -12.1375 42934.7461 28046.0254)">
				<stop  offset="0" style="stop-color:#E300D6"/>
				<stop  offset="0.4662" style="stop-color:#4828BE"/>
				<stop  offset="1" style="stop-color:#4828BE"/>
			</linearGradient>
			<rect x="132" y="170.5" class="st20" width="4.1" height="9.4"/>
		</g>
	</g>
</g>
</svg>
