<?xml version="1.0" encoding="utf-8"?>
<!-- Generator: Adobe Illustrator 19.1.0, SVG Export Plug-In . SVG Version: 6.00 Build 0)  -->
<svg version="1.1" id="Layer_1" xmlns="http://www.w3.org/2000/svg" xmlns:xlink="http://www.w3.org/1999/xlink" x="0px" y="0px"
	 viewBox="0 0 250 250" style="enable-background:new 0 0 250 250;" xml:space="preserve">
<style type="text/css">
	.st0{opacity:0.3;}
	.st1{fill:#FFFFFD;}
	.st2{fill:none;stroke:#F4EEE9;stroke-width:9.3745;stroke-linecap:round;stroke-miterlimit:10;}
	.st3{clip-path:url(#SVGID_2_);fill:url(#SVGID_3_);}
	.st4{clip-path:url(#SVGID_5_);fill:url(#SVGID_6_);}
	.st5{clip-path:url(#SVGID_8_);fill:url(#SVGID_9_);}
	.st6{clip-path:url(#SVGID_11_);fill:url(#SVGID_12_);}
	.st7{clip-path:url(#SVGID_14_);fill:url(#SVGID_15_);}
	.st8{clip-path:url(#SVGID_17_);fill:url(#SVGID_18_);}
</style>
<g>
	<g>
		<g>
			<g class="st0">
				<path d="M196.9,244.8H57.7c-23.4,0-42.4-19-42.4-42.4V61.7c0-23.4,19-42.4,42.4-42.4h139.2c23.4,0,42.4,19,42.4,42.4v140.6
					C239.4,225.8,220.4,244.8,196.9,244.8z"/>
			</g>
			<g>
				<path class="st1" d="M194.6,237.7H55.4c-23.4,0-42.4-19-42.4-42.4V54.7c0-23.4,19-42.4,42.4-42.4h139.2
					c23.4,0,42.4,19,42.4,42.4v140.6C237,218.7,218,237.7,194.6,237.7z"/>
			</g>
		</g>
		<path class="st2" d="M27.2,69c0-23.4,19-42.4,42.4-42.4h16.5"/>
		<path class="st2" d="M222.8,181c0,23.4-19,42.4-42.4,42.4"/>
		<line class="st2" x1="105.8" y1="26.6" x2="129.7" y2="26.6"/>
	</g>
	<g>
		<g>
			<defs>
				<path id="SVGID_1_" d="M122.9,175.8c-1.6-0.1-2.8-1.3-2.9-2.9c-0.1-1.6,1.1-3,2.8-3.2c2.4-0.3,2.3-0.3,2.9-2.6
					c0.3-1.2,1.2-1.1,2-1c0.2,0,0.5,0,0.7,0v9.7c-1.2,0-2.3,0-3.4,0C124.3,175.9,123.6,175.9,122.9,175.8 M152,123.6
					c0.9-0.5,1.4-0.4,2.1,0.2c2.9,2.3,4.6,5.2,5,9c-1.1-0.4-2.1-0.8-3.1-1c-5.8-1.1-10.7,3-10.8,9c-0.1,6.5,0,13,0,19.5v1.8
					c-0.6,0-1.1,0-1.6,0c-5.3,0-10.5,0-15.8,0c-2.6,0-4.6,0.8-5.7,3.3c-0.1,0.3-0.6,0.5-0.9,0.6c-3.6,1.3-5.6,4.4-5,8.1
					c0.6,3.3,3.6,5.8,7.2,5.8c5.6,0,11.2,0,16.7,0c1.6,0,2.5-0.7,2.5-1.9c0-1.2-0.9-2.1-2.5-2.1c-2.5,0-4.9,0-7.5,0v-9.8h3.9
					c3.2,0,6.5,0,9.7,0c2.5,0,3-0.5,3-2.9c0-7.4,0-14.8,0-22.2c0-2.7,1.3-4.6,3.6-5.3c3.3-0.9,6.3,1.4,6.3,4.9c0,3.1,0,6.3,0,9.4
					c0,6.7,0,13.4,0,20.1c0,3.8-1.9,5.7-5.7,5.7c-0.3,0-0.6,0-0.9,0c-0.7,0-1.3,0-2,0c-1.4,0-2.3,0.8-2.3,2.1c0,1.2,0.8,1.9,2.2,1.9
					c4.9,0.2,5.3,0.1,8.6-1.3v10.1h-1.5c-16.7,0-33.3,0-50,0c-0.9,0-1.6-0.3-2.2-0.9c-10.9-11.8-6.2-31.2,9-36.6
					c2.3-0.8,2.4-1,2.5-3.4c0.5-9.1,4.2-16.7,11.1-22.7c0.7-0.6,1.3-0.7,2.2-0.3c3.3,1.5,6.7,2.3,9.9,2.3
					C144.2,127,148.1,125.9,152,123.6 M112.4,109.6c1.6,0.2,3,0.3,4.4,0.5c0.4,0.1,1,0.3,1.1,0.6c1.5,4.3,4,7.9,7.4,10.8
					c0.1,0,0.1,0.2,0,0.1c-2.3,2.6-4.6,5.2-6.9,7.8C113.7,123.7,111.9,117,112.4,109.6 M113,102.9c0-1.1,0-2.2,0-3.3
					c0-2.5,1-3.4,3.7-3.1v9.5c-0.3,0-0.6,0.1-0.9,0.1C113.9,106.1,113,105.1,113,102.9 M163.4,106v-9.5c2.8-0.2,3.7,0.7,3.7,3.3
					c0,1.1,0,2.1,0,3.2c0,2.2-0.8,3.2-2.7,3.2C164.1,106,163.8,106,163.4,106 M123.7,65.9c9.6-6.9,20-7.5,30.3-1.7
					c11.1,6.3,14.8,16.5,13.8,28.8c-0.7-0.2-1.3-0.4-2-0.5c-0.7-0.1-1.4-0.1-2.3-0.2c0-0.5,0-1.1,0-1.6c-0.1-1.9-1.4-3.4-3.3-3.3
					c-5.6,0.2-10.3-1.7-14.4-5.4c-1.3-1.2-2.9-1.1-4.3-0.1c-1.6,1.2-3.3,2.3-5,3.5c-1,0.7-1.3,1.7-0.8,2.6c0.5,1,1.7,1.4,2.7,0.8
					c1.8-1,3.4-2.2,5.3-3.3c4.4,3.8,9.6,5.8,15.5,5.8c0.1,0.1,0.2,0.2,0.2,0.2c-0.1,4.9,0.3,9.9-0.3,14.7c-1,9.2-9.3,16.5-18.4,16.7
					c-9.6,0.2-18-6.5-19.6-15.9c-0.5-3.2-0.3-6.5-0.4-9.8c-0.1-1.9,0-3.8,0-5.9c2.5,0,4.8,0,7.1,0c1.6,0,2.5-0.7,2.5-1.9
					c0-1.3-0.9-2.1-2.5-2.1c-2.3,0-4.5,0-6.8,0c-3.1,0-4.2,1.1-4.3,4.1c0,0.3,0,0.5-0.1,0.7c-1.4,0.2-2.8,0.5-4.2,0.7
					C111.5,83.5,113.5,73.2,123.7,65.9 M135,56.7c-0.1,0.1-0.3,0.2-0.5,0.2c-14.7,2.5-26.5,15.6-26.2,32c0.2,7.7,0.1,15.3,0,23
					c0,7.8,2.5,14.8,7.5,20.8c0.5,0.6,0.5,1,0.2,1.6c-1.7,3.7-2.8,7.6-3,11.6c-0.1,1.1-0.5,1.6-1.5,2c-17.1,7.5-21.6,29.6-8.7,42.9
					c1.2,1.2,2.5,1.8,4.2,1.8c17.1,0,34.1,0,51.2,0c3.6,0,4.8-1.2,4.8-4.8c0-17.5,0-35,0-52.5c0-0.7,0.4-1.5,0.8-2.1
					c1.2-1.8,2.6-3.5,3.8-5.3c0.8-1.1,0.5-2.3-0.5-2.9c-1-0.6-2.2-0.3-2.9,0.9c-0.6,0.9-1.2,1.8-1.9,3c-1.3-3.6-3.3-6.3-6-8.4
					c1.2-1.6,2.5-3.1,3.5-4.7c1-1.6,1.6-3.4,2.5-5.1c0.1-0.3,0.5-0.5,0.7-0.6c1.6-0.2,3.2-0.3,5-0.5c-0.2,2.5-0.4,5.1-0.6,7.7
					c-0.1,1.4,0.4,2.3,1.6,2.5c1.2,0.2,2.2-0.5,2.3-1.9c0.2-1.8,0.5-3.7,0.5-5.6c0.1-8.1,0.1-16.2,0-24.3
					c-0.1-14.3-9.4-26.4-23.1-30.3c-1.2-0.4-2.5-0.6-3.7-0.9C141.7,56.7,138.3,56.7,135,56.7"/>
			</defs>
			<clipPath id="SVGID_2_">
				<use xlink:href="#SVGID_1_"  style="overflow:visible;"/>
			</clipPath>
			
				<linearGradient id="SVGID_3_" gradientUnits="userSpaceOnUse" x1="-3422.6372" y1="2383.0547" x2="-3422.3071" y2="2383.0547" gradientTransform="matrix(231.5131 0 0 -231.5131 792480.6875 551833)">
				<stop  offset="0" style="stop-color:#E300D6"/>
				<stop  offset="0.4662" style="stop-color:#4828BE"/>
				<stop  offset="1" style="stop-color:#4828BE"/>
			</linearGradient>
			<rect x="90" y="56.7" class="st3" width="81.9" height="135.9"/>
		</g>
		<g>
			<defs>
				<path id="SVGID_4_" d="M83.5,142.8c-1.4-1.4-1.2-3.5,0.1-4.9c1.3-1.4,3.5-1.6,5-0.3c0.8,0.6,1.4,1.4,2.1,2c1,0.9,2,0.9,3,0
					c0.7-0.6,1.3-1.3,2-1.9c1.5-1.3,3.7-1.2,5.1,0.2c1.4,1.4,1.6,3.6,0.2,5c-2.8,2.9-5.8,5.8-8.8,8.6
					C89.3,148.6,86.4,145.8,83.5,142.8 M92.3,135.4c-0.4-0.3-0.8-0.7-1.2-1c-3.2-2.5-7.6-2.2-10.4,0.7c-2.8,2.9-2.9,7.5-0.1,10.5
					c3.1,3.2,6.3,6.4,9.5,9.5c1.3,1.2,3,1.3,4.3,0c3.2-3.2,6.5-6.3,9.6-9.6c3.9-4.3,1.7-11.1-3.9-12.5c-0.7-0.2-1.3-0.3-2-0.3
					C95.8,132.7,93.9,133.7,92.3,135.4"/>
			</defs>
			<clipPath id="SVGID_5_">
				<use xlink:href="#SVGID_4_"  style="overflow:visible;"/>
			</clipPath>
			
				<linearGradient id="SVGID_6_" gradientUnits="userSpaceOnUse" x1="-3437.7212" y1="2396.1995" x2="-3437.3911" y2="2396.1995" gradientTransform="matrix(82.8493 0 0 -82.8493 284891.4375 198667.6563)">
				<stop  offset="0" style="stop-color:#E300D6"/>
				<stop  offset="0.4662" style="stop-color:#4828BE"/>
				<stop  offset="1" style="stop-color:#4828BE"/>
			</linearGradient>
			<rect x="77.8" y="131.9" class="st4" width="30" height="24.4"/>
		</g>
		<g>
			<defs>
				<path id="SVGID_7_" d="M145.2,111c-3.3,2.7-6.9,2.7-10.3,0c-1.2-0.9-2.2-1-3,0c-0.8,0.9-0.6,2.1,0.5,3.1
					c2.1,1.9,4.6,2.8,7.9,2.9c2.6,0,5.2-0.9,7.5-2.9c1.1-1,1.3-2.2,0.5-3.1c-0.4-0.4-0.9-0.7-1.3-0.7
					C146.4,110.3,145.8,110.5,145.2,111"/>
			</defs>
			<clipPath id="SVGID_8_">
				<use xlink:href="#SVGID_7_"  style="overflow:visible;"/>
			</clipPath>
			
				<linearGradient id="SVGID_9_" gradientUnits="userSpaceOnUse" x1="-3453.366" y1="2406.5972" x2="-3453.0359" y2="2406.5972" gradientTransform="matrix(52.6488 0 0 -52.6488 181946.9688 126817.9453)">
				<stop  offset="0" style="stop-color:#E300D6"/>
				<stop  offset="0.4662" style="stop-color:#4828BE"/>
				<stop  offset="1" style="stop-color:#4828BE"/>
			</linearGradient>
			<rect x="131.1" y="110" class="st5" width="18" height="7"/>
		</g>
		<g>
			<defs>
				<path id="SVGID_10_" d="M138.2,96.3c-1.1,0-1.9,0.8-1.9,2c0,1.9-0.1,3.7,0,5.6c0.1,1.6,1.2,2.9,2.8,3.1c1,0.1,2,0.1,3,0
					c1.1-0.1,1.8-0.9,1.8-2c0-1.1-0.7-1.8-1.8-1.9c-0.6-0.1-1.1,0-1.8,0c0-1.7,0-3.2,0-4.7C140.2,97.1,139.4,96.3,138.2,96.3
					C138.3,96.3,138.2,96.3,138.2,96.3"/>
			</defs>
			<clipPath id="SVGID_11_">
				<use xlink:href="#SVGID_10_"  style="overflow:visible;"/>
			</clipPath>
			
				<linearGradient id="SVGID_12_" gradientUnits="userSpaceOnUse" x1="-3504.3213" y1="2444.8113" x2="-3503.9912" y2="2444.8113" gradientTransform="matrix(23.0557 0 0 -23.0557 80930.7422 56468.4336)">
				<stop  offset="0" style="stop-color:#E300D6"/>
				<stop  offset="0.4662" style="stop-color:#4828BE"/>
				<stop  offset="1" style="stop-color:#4828BE"/>
			</linearGradient>
			<rect x="136.3" y="96.3" class="st6" width="7.6" height="10.7"/>
		</g>
		<g>
			<defs>
				<path id="SVGID_13_" d="M151.8,95c-1,0.1-1.6,0.7-1.7,1.7c-0.1,0.5,0,1.1,0,1.6c0,0.5,0,1.1,0,1.6c0.1,1,0.7,1.6,1.7,1.7
					c1,0.1,1.9-0.4,2.1-1.4c0.2-1.2,0.2-2.5,0-3.8c-0.1-0.9-0.9-1.4-1.8-1.4C152,95,151.9,95,151.8,95"/>
			</defs>
			<clipPath id="SVGID_14_">
				<use xlink:href="#SVGID_13_"  style="overflow:visible;"/>
			</clipPath>
			
				<linearGradient id="SVGID_15_" gradientUnits="userSpaceOnUse" x1="-3591.1282" y1="2508.5862" x2="-3590.7983" y2="2508.5862" gradientTransform="matrix(11.9147 0 0 -11.9147 42937.2773 29987.4453)">
				<stop  offset="0" style="stop-color:#E300D6"/>
				<stop  offset="0.4662" style="stop-color:#4828BE"/>
				<stop  offset="1" style="stop-color:#4828BE"/>
			</linearGradient>
			<rect x="150" y="95" class="st7" width="4" height="6.7"/>
		</g>
		<g>
			<defs>
				<path id="SVGID_16_" d="M128,95c-1.1,0.1-1.7,0.7-1.8,1.8c-0.1,0.5,0,1.1,0,1.6h0c0,0.5,0,1,0,1.5c0.1,1.1,0.8,1.8,1.9,1.8
					c1.1,0,1.9-0.6,2-1.7c0.1-1.1,0.1-2.2,0-3.3c-0.1-1-0.8-1.6-1.9-1.6C128.2,95,128.1,95,128,95"/>
			</defs>
			<clipPath id="SVGID_17_">
				<use xlink:href="#SVGID_16_"  style="overflow:visible;"/>
			</clipPath>
			
				<linearGradient id="SVGID_18_" gradientUnits="userSpaceOnUse" x1="-3582.7952" y1="2505.3232" x2="-3582.4651" y2="2505.3232" gradientTransform="matrix(12.2155 0 0 -12.2155 43891.9102 30702.2109)">
				<stop  offset="0" style="stop-color:#E300D6"/>
				<stop  offset="0.4662" style="stop-color:#4828BE"/>
				<stop  offset="1" style="stop-color:#4828BE"/>
			</linearGradient>
			<rect x="126.1" y="95" class="st8" width="4.1" height="6.7"/>
		</g>
	</g>
</g>
</svg>
