<?xml version="1.0" encoding="utf-8"?>
<!-- Generator: Adobe Illustrator 19.1.0, SVG Export Plug-In . SVG Version: 6.00 Build 0)  -->
<svg version="1.1" id="Layer_1" xmlns="http://www.w3.org/2000/svg" xmlns:xlink="http://www.w3.org/1999/xlink" x="0px" y="0px"
	 viewBox="0 0 250 250" style="enable-background:new 0 0 250 250;" xml:space="preserve">
<style type="text/css">
	.st0{opacity:0.3;}
	.st1{fill:#FFFFFD;}
	.st2{fill:none;stroke:#F4EEE9;stroke-width:9.3745;stroke-linecap:round;stroke-miterlimit:10;}
	.st3{clip-path:url(#SVGID_2_);fill:url(#SVGID_3_);}
	.st4{clip-path:url(#SVGID_5_);fill:url(#SVGID_6_);}
	.st5{clip-path:url(#SVGID_8_);fill:url(#SVGID_9_);}
	.st6{clip-path:url(#SVGID_11_);fill:url(#SVGID_12_);}
	.st7{clip-path:url(#SVGID_14_);fill:url(#SVGID_15_);}
	.st8{clip-path:url(#SVGID_17_);fill:url(#SVGID_18_);}
</style>
<g>
	<g>
		<g>
			<g class="st0">
				<path d="M196.9,244.8H57.7c-23.4,0-42.4-19-42.4-42.4V61.7c0-23.4,19-42.4,42.4-42.4h139.2c23.4,0,42.4,19,42.4,42.4v140.6
					C239.4,225.8,220.4,244.8,196.9,244.8z"/>
			</g>
			<g>
				<path class="st1" d="M194.6,237.7H55.4c-23.4,0-42.4-19-42.4-42.4V54.7c0-23.4,19-42.4,42.4-42.4h139.2
					c23.4,0,42.4,19,42.4,42.4v140.6C237,218.7,218,237.7,194.6,237.7z"/>
			</g>
		</g>
		<path class="st2" d="M27.2,69c0-23.4,19-42.4,42.4-42.4h16.5"/>
		<path class="st2" d="M222.8,181c0,23.4-19,42.4-42.4,42.4"/>
		<line class="st2" x1="105.8" y1="26.6" x2="129.7" y2="26.6"/>
	</g>
	<g>
		<g>
			<defs>
				<path id="SVGID_1_" d="M86.5,101v8.1c0,4.5,7,4.5,7,0V101c0-2.2-1.7-3.4-3.5-3.4S86.5,98.8,86.5,101"/>
			</defs>
			<clipPath id="SVGID_2_">
				<use xlink:href="#SVGID_1_"  style="overflow:visible;"/>
			</clipPath>
			
				<linearGradient id="SVGID_3_" gradientUnits="userSpaceOnUse" x1="-3408.5156" y1="2323.4023" x2="-3408.1855" y2="2323.4023" gradientTransform="matrix(21.1159 0 0 -21.1159 72060.5 49166.4531)">
				<stop  offset="0" style="stop-color:#E300D6"/>
				<stop  offset="0.4662" style="stop-color:#4828BE"/>
				<stop  offset="1" style="stop-color:#4828BE"/>
			</linearGradient>
			<rect x="86.5" y="97.6" class="st3" width="7" height="16"/>
		</g>
		<g>
			<defs>
				<path id="SVGID_4_" d="M93.5,182.8v-10h63.5v1.2c0,0.6,0,10.9,0,10.9h-20.4h-32.7h-9.3C93,184.9,93.5,184.2,93.5,182.8
					 M93.5,66.1c0-0.9,3.3-0.4,4-0.4h12.6h33.1h11.3c0.7,0,2.4-0.5,2.4,0.4v11.6H93.5V66.1z M149.1,58.8H97.5h-4c-5.4,0-7,4.8-7,9.2
					v22.8c0,4.5,7,4.5,7,0v-6.1h63.5v81.1H93.5v-45.5c0-4.5-7-4.5-7,0v51.8v10.7c0,4,1.1,7.1,5.1,8.8c1.8,0.7,4.8,0.2,6.6,0.2h13.1
					h33c5.8,0,18.2,2.2,19.3-6c0.5-4,0.1-8.2,0.1-12.3v-28.1V81.2V66.1c0-6.6-5.5-7.4-10.7-7.4C151.8,58.7,150.4,58.8,149.1,58.8"/>
			</defs>
			<clipPath id="SVGID_5_">
				<use xlink:href="#SVGID_4_"  style="overflow:visible;"/>
			</clipPath>
			
				<linearGradient id="SVGID_6_" gradientUnits="userSpaceOnUse" x1="-3413.5071" y1="2371.4473" x2="-3413.1772" y2="2371.4473" gradientTransform="matrix(234.9731 0 0 -234.9731 802168.9375 557352.8125)">
				<stop  offset="0" style="stop-color:#E300D6"/>
				<stop  offset="0.4662" style="stop-color:#4828BE"/>
				<stop  offset="1" style="stop-color:#4828BE"/>
			</linearGradient>
			<rect x="86.5" y="58.7" class="st4" width="77.8" height="135.3"/>
		</g>
		<g>
			<defs>
				<path id="SVGID_7_" d="M122.5,178.7c0,1.7,1.4,3.1,3.1,3.1c1.7,0,3.1-1.4,3.1-3.1c0-1.7-1.4-3.1-3.1-3.1
					C123.9,175.6,122.5,177,122.5,178.7"/>
			</defs>
			<clipPath id="SVGID_8_">
				<use xlink:href="#SVGID_7_"  style="overflow:visible;"/>
			</clipPath>
			
				<linearGradient id="SVGID_9_" gradientUnits="userSpaceOnUse" x1="-3411.7571" y1="2325.4541" x2="-3411.427" y2="2325.4541" gradientTransform="matrix(19.0043 0 0 -19.0043 64960.75 44372.4336)">
				<stop  offset="0" style="stop-color:#E300D6"/>
				<stop  offset="0.4662" style="stop-color:#4828BE"/>
				<stop  offset="1" style="stop-color:#4828BE"/>
			</linearGradient>
			<rect x="122.5" y="175.6" class="st5" width="6.3" height="6.3"/>
		</g>
		<g>
			<defs>
				<path id="SVGID_10_" d="M107.5,118.5c0.7-8.9,9.5-14.4,17.7-14.2c8.7,0.2,15.7,7.6,15.9,16.1c-0.2,8.4-6.6,15.1-14.9,16.1
					c-0.7,0.1-1.4,0.1-2,0.1C114.5,136.6,106.8,128.4,107.5,118.5 M100.7,117.6c-1.8,14.5,10.5,26.3,24.6,25.9
					c12.4-0.3,22.2-10.5,22.8-22.6c0-0.2,0-0.3,0-0.5c0-0.2,0-0.4,0-0.5c-0.6-12.2-9.9-21.1-21.8-22.5c-0.8-0.1-1.6-0.1-2.4-0.1
					C112.5,97.2,102.1,106.3,100.7,117.6"/>
			</defs>
			<clipPath id="SVGID_11_">
				<use xlink:href="#SVGID_10_"  style="overflow:visible;"/>
			</clipPath>
			
				<linearGradient id="SVGID_12_" gradientUnits="userSpaceOnUse" x1="-3413.3943" y1="2368.5208" x2="-3413.0645" y2="2368.5208" gradientTransform="matrix(144.2947 0 0 -144.2947 492635.125 341885.4375)">
				<stop  offset="0" style="stop-color:#E300D6"/>
				<stop  offset="0.4662" style="stop-color:#4828BE"/>
				<stop  offset="1" style="stop-color:#4828BE"/>
			</linearGradient>
			<rect x="98.9" y="97.2" class="st6" width="49.2" height="46.6"/>
		</g>
		<g>
			<defs>
				<path id="SVGID_13_" d="M125.3,106.4c-0.7,0-1.6,0-2.7,0v1.7l0,1c0,0.1,0,0.2,0,0.6c-0.8,0.2-1.5,0.4-1.9,0.6
					c-0.4,0.2-0.8,0.5-1.2,0.8c-0.4,0.3-0.7,0.7-0.9,1.1c-0.3,0.4-0.4,0.8-0.6,1.2c-0.1,0.4-0.2,0.9-0.2,1.3c0,0.6,0.1,1.2,0.3,1.8
					c0.2,0.6,0.5,1.1,0.9,1.6c0.5,0.6,1.6,1.7,3.1,3.2c0.5,0.5,0.9,0.8,0.9,0.9c0.1,0.1,0.2,0.2,0.3,0.3c0.1,0.2,0.2,0.3,0.2,0.4
					c0,0.1,0.1,0.2,0.1,0.3c0,0.1,0,0.2,0,0.3c0,0.4-0.2,0.8-0.5,1c-0.4,0.2-0.8,0.4-1.3,0.4c-0.6,0-1.3-0.1-2.1-0.3
					c-0.8-0.2-1.7-0.5-2.6-0.9c0.1,0.9,0.2,2.6,0.2,5.1c0.8,0.3,1.4,0.4,2,0.6c0.5,0.1,1.2,0.2,2,0.3v0.6c0,1,0,1.9-0.1,2.6
					c1.2,0,2.1,0,2.8,0s1.5,0,2.5,0c0-0.6,0-1.2,0-1.8l0-1.9c0.7-0.3,1.2-0.5,1.6-0.7c0.4-0.2,0.7-0.5,1-0.8c0.3-0.3,0.6-0.6,0.9-1
					c0.3-0.4,0.4-0.8,0.6-1.3c0.1-0.5,0.2-0.9,0.2-1.5c0-0.6-0.1-1.3-0.4-1.9c-0.2-0.6-0.7-1.3-1.3-2c-0.6-0.7-1.5-1.7-2.8-2.9
					c-0.4-0.3-0.6-0.6-0.8-0.9c-0.2-0.3-0.3-0.6-0.3-0.9c0-0.4,0.2-0.7,0.5-0.9c0.3-0.2,0.7-0.3,1.2-0.3c0.4,0,1,0.1,1.7,0.2
					c0.7,0.2,1.4,0.4,2.2,0.8c-0.1-1.7-0.2-3.3-0.3-4.9c-0.9-0.3-1.9-0.5-2.9-0.6v-1.3c0-0.2,0-0.8,0.1-1.9
					C127,106.4,126.1,106.4,125.3,106.4"/>
			</defs>
			<clipPath id="SVGID_14_">
				<use xlink:href="#SVGID_13_"  style="overflow:visible;"/>
			</clipPath>
			
				<linearGradient id="SVGID_15_" gradientUnits="userSpaceOnUse" x1="-3412.718" y1="2350.012" x2="-3412.3879" y2="2350.012" gradientTransform="matrix(41.5802 0 0 -41.5802 142018.6875 97833.5)">
				<stop  offset="0" style="stop-color:#E300D6"/>
				<stop  offset="0.4662" style="stop-color:#4828BE"/>
				<stop  offset="1" style="stop-color:#4828BE"/>
			</linearGradient>
			<rect x="117.3" y="106.4" class="st7" width="13.7" height="26.4"/>
		</g>
		<g>
			<defs>
				<path id="SVGID_16_" d="M114.4,69.2c-4.5,0-4.5,7,0,7H133c4.5,0,4.5-7,0-7H114.4z"/>
			</defs>
			<clipPath id="SVGID_17_">
				<use xlink:href="#SVGID_16_"  style="overflow:visible;"/>
			</clipPath>
			
				<linearGradient id="SVGID_18_" gradientUnits="userSpaceOnUse" x1="-3413.1404" y1="2360.6777" x2="-3412.8103" y2="2360.6777" gradientTransform="matrix(76.7432 0 0 -76.7432 262046.5156 181238.75)">
				<stop  offset="0" style="stop-color:#E300D6"/>
				<stop  offset="0.4662" style="stop-color:#4828BE"/>
				<stop  offset="1" style="stop-color:#4828BE"/>
			</linearGradient>
			<rect x="109.9" y="69.2" class="st8" width="27.6" height="7"/>
		</g>
	</g>
</g>
</svg>
