<?xml version="1.0" encoding="utf-8"?>
<!-- Generator: Adobe Illustrator 19.1.0, SVG Export Plug-In . SVG Version: 6.00 Build 0)  -->
<svg version="1.1" id="Layer_1" xmlns="http://www.w3.org/2000/svg" xmlns:xlink="http://www.w3.org/1999/xlink" x="0px" y="0px"
	 viewBox="0 0 250 250" style="enable-background:new 0 0 250 250;" xml:space="preserve">
<style type="text/css">
	.st0{opacity:0.3;}
	.st1{fill:#FFFFFD;}
	.st2{fill:none;stroke:#F4EEE9;stroke-width:9.3745;stroke-linecap:round;stroke-miterlimit:10;}
	.st3{clip-path:url(#SVGID_2_);fill:url(#SVGID_3_);}
	.st4{clip-path:url(#SVGID_5_);fill:url(#SVGID_6_);}
	.st5{clip-path:url(#SVGID_8_);fill:url(#SVGID_9_);}
	.st6{clip-path:url(#SVGID_11_);fill:url(#SVGID_12_);}
	.st7{clip-path:url(#SVGID_14_);fill:url(#SVGID_15_);}
	.st8{clip-path:url(#SVGID_17_);fill:url(#SVGID_18_);}
</style>
<g>
	<g>
		<g>
			<g class="st0">
				<path d="M196.9,244.8H57.7c-23.4,0-42.4-19-42.4-42.4V61.7c0-23.4,19-42.4,42.4-42.4h139.2c23.4,0,42.4,19,42.4,42.4v140.6
					C239.4,225.8,220.4,244.8,196.9,244.8z"/>
			</g>
			<g>
				<path class="st1" d="M194.6,237.7H55.4c-23.4,0-42.4-19-42.4-42.4V54.7c0-23.4,19-42.4,42.4-42.4h139.2
					c23.4,0,42.4,19,42.4,42.4v140.6C237,218.7,218,237.7,194.6,237.7z"/>
			</g>
		</g>
		<path class="st2" d="M27.2,69c0-23.4,19-42.4,42.4-42.4h16.5"/>
		<path class="st2" d="M222.8,181c0,23.4-19,42.4-42.4,42.4"/>
		<line class="st2" x1="105.8" y1="26.6" x2="129.7" y2="26.6"/>
	</g>
	<g>
		<g>
			<defs>
				<path id="SVGID_1_" d="M79.4,61.1c-4.6,0-8.4,3.8-8.4,8.4V78h4.2v-8.4c0-2.3,1.9-4.2,4.2-4.2h92.7c2.3,0,4.2,1.9,4.2,4.2V137
					h4.2V69.6c0-4.6-3.8-8.4-8.4-8.4H79.4z"/>
			</defs>
			<clipPath id="SVGID_2_">
				<use xlink:href="#SVGID_1_"  style="overflow:visible;"/>
			</clipPath>
			
				<linearGradient id="SVGID_3_" gradientUnits="userSpaceOnUse" x1="-3409.4297" y1="2370.594" x2="-3409.0996" y2="2370.594" gradientTransform="matrix(332.0705 0 0 -332.0705 1132242 787303.4375)">
				<stop  offset="0" style="stop-color:#E300D6"/>
				<stop  offset="0.4662" style="stop-color:#4828BE"/>
				<stop  offset="1" style="stop-color:#4828BE"/>
			</linearGradient>
			<rect x="71" y="61.1" class="st3" width="109.6" height="75.9"/>
		</g>
		<g>
			<defs>
				<path id="SVGID_4_" d="M106.8,71.7c-0.8,0-1.6,0.5-1.9,1.2l-3.9,8.4c-0.3,0.7-0.2,1.4,0.1,2c0.4,0.6,1.1,1,1.8,1h14.4v4.2H99.1
					c-0.8,0-1.6,0.5-1.9,1.2l-3.9,8.4c-0.3,0.7-0.2,1.4,0.1,2c0.4,0.6,1.1,1,1.8,1h22.1v4.2h-19v4.2h21.1c1.2,0,2.1-0.9,2.1-2.1
					v-8.4c0-1.2-0.9-2.1-2.1-2.1h-21l1.9-4.2h19c1.2,0,2.1-0.9,2.1-2.1v-8.4c0-1.2-0.9-2.1-2.1-2.1h-13.2l1.9-4.2h35.2l1.9,4.2
					h-13.2c-1.2,0-2.1,0.9-2.1,2.1v8.4c0,1.2,0.9,2.1,2.1,2.1h19L153,97h-21c-1.2,0-2.1,0.9-2.1,2.1v8.4c0,1.2,0.9,2.1,2.1,2.1h26.7
					l1.9,4.2h-26.6c-0.6,0-1.3,0.3-1.7,0.8c-0.4,0.5-0.5,1.2-0.4,1.8l2.1,8.4c0.2,0.9,1.1,1.6,2,1.6h29.5v4.2h-8.4v4.2h10.5
					c1.2,0,2.1-0.9,2.1-2.1v-8.4c0-1.2-0.9-2.1-2.1-2.1h-30l-1.1-4.2H164c0.7,0,1.4-0.4,1.8-1c0.4-0.6,0.4-1.4,0.1-2l-3.9-8.4
					c-0.3-0.7-1.1-1.2-1.9-1.2h-26v-4.2h22.1c0.7,0,1.4-0.4,1.8-1c0.4-0.6,0.4-1.4,0.1-2l-3.9-8.4c-0.3-0.7-1.1-1.2-1.9-1.2h-18.3
					v-4.2h14.4c0.7,0,1.4-0.4,1.8-1c0.4-0.6,0.4-1.4,0.1-2l-3.9-8.4c-0.3-0.7-1.1-1.2-1.9-1.2H106.8z"/>
			</defs>
			<clipPath id="SVGID_5_">
				<use xlink:href="#SVGID_4_"  style="overflow:visible;"/>
			</clipPath>
			
				<linearGradient id="SVGID_6_" gradientUnits="userSpaceOnUse" x1="-3407.6814" y1="2368.335" x2="-3407.3516" y2="2368.335" gradientTransform="matrix(233.0878 0 0 -233.0878 794382 552133.1875)">
				<stop  offset="0" style="stop-color:#E300D6"/>
				<stop  offset="0.4662" style="stop-color:#4828BE"/>
				<stop  offset="1" style="stop-color:#4828BE"/>
			</linearGradient>
			<rect x="93" y="71.7" class="st4" width="77" height="63.2"/>
		</g>
		<g>
			<defs>
				<rect id="SVGID_7_" x="89.9" y="172.8" width="4.2" height="4.2"/>
			</defs>
			<clipPath id="SVGID_8_">
				<use xlink:href="#SVGID_7_"  style="overflow:visible;"/>
			</clipPath>
			
				<linearGradient id="SVGID_9_" gradientUnits="userSpaceOnUse" x1="-3298.1843" y1="2247.5012" x2="-3297.8542" y2="2247.5012" gradientTransform="matrix(12.7719 0 0 -12.7719 42214.1484 28879.8828)">
				<stop  offset="0" style="stop-color:#E300D6"/>
				<stop  offset="0.4662" style="stop-color:#4828BE"/>
				<stop  offset="1" style="stop-color:#4828BE"/>
			</linearGradient>
			<rect x="89.9" y="172.8" class="st5" width="4.2" height="4.2"/>
		</g>
		<g>
			<defs>
				<rect id="SVGID_10_" x="98.4" y="172.8" width="12.6" height="4.2"/>
			</defs>
			<clipPath id="SVGID_11_">
				<use xlink:href="#SVGID_10_"  style="overflow:visible;"/>
			</clipPath>
			
				<linearGradient id="SVGID_12_" gradientUnits="userSpaceOnUse" x1="-3375.8413" y1="2333.167" x2="-3375.5115" y2="2333.167" gradientTransform="matrix(38.3158 0 0 -38.3158 129446.5234 89572.1563)">
				<stop  offset="0" style="stop-color:#E300D6"/>
				<stop  offset="0.4662" style="stop-color:#4828BE"/>
				<stop  offset="1" style="stop-color:#4828BE"/>
			</linearGradient>
			<rect x="98.4" y="172.8" class="st6" width="12.6" height="4.2"/>
		</g>
		<g>
			<defs>
				<rect id="SVGID_13_" x="144.7" y="172.8" width="16.9" height="4.2"/>
			</defs>
			<clipPath id="SVGID_14_">
				<use xlink:href="#SVGID_13_"  style="overflow:visible;"/>
			</clipPath>
			
				<linearGradient id="SVGID_15_" gradientUnits="userSpaceOnUse" x1="-3387.2236" y1="2343.8752" x2="-3386.8936" y2="2343.8752" gradientTransform="matrix(51.0878 0 0 -51.0878 173190.4219 119918.2891)">
				<stop  offset="0" style="stop-color:#E300D6"/>
				<stop  offset="0.4662" style="stop-color:#4828BE"/>
				<stop  offset="1" style="stop-color:#4828BE"/>
			</linearGradient>
			<rect x="144.7" y="172.8" class="st7" width="16.9" height="4.2"/>
		</g>
		<g>
			<defs>
				<path id="SVGID_16_" d="M123.6,160.2h4.2v4.2h-4.2V160.2z M123.6,151.7h4.2v4.2h-4.2V151.7z M130,168.6c1.2,0,2.1-0.9,2.1-2.1
					v-19.9l6.4,20.5c0.3,0.9,1.1,1.5,2,1.5h22.3l4.6,4.6c-1.6,3.2-1.8,6.9-0.7,10.2H84.8c1.1-3.3,0.9-7-0.7-10.2l4.6-4.6H111
					c0.9,0,1.7-0.6,2-1.5l6.4-20.5v19.9c0,1.2,0.9,2.1,2.1,2.1H130z M123.6,143.3h4.2v4.2h-4.2V143.3z M123.6,134.9h4.2v4.2h-4.2
					V134.9z M71,82.2v64.5l-5.3,5.3c-2,2-3.1,4.6-3.1,7.5v28.1h4.2v-28.1c0-1.7,0.7-3.3,1.9-4.5l2.4-2.4v16c0,0.9,0.5,1.6,1.3,1.9
					c0.8,0.3,1.7,0.1,2.3-0.5l9.2-9.2c0.4-0.4,1-0.7,1.7-0.7c1.3,0,2.4,1.1,2.4,2.4c0,0.6-0.2,1.2-0.7,1.7l-7.1,7.1
					c-0.7,0.7-0.8,1.8-0.3,2.7c2.1,3.1,2.1,7.2,0,10.3c-0.2,0.3-0.4,0.8-0.4,1.2v2.1h92.7v-2.1c0-0.4-0.1-0.8-0.4-1.2
					c-2.1-3.1-2.1-7.2,0-10.3c0.6-0.8,0.4-1.9-0.3-2.7l-7.1-7.1c-0.4-0.4-0.7-1-0.7-1.7c0-1.3,1.1-2.4,2.4-2.4
					c0.6,0,1.2,0.2,1.7,0.7l9.2,9.2c0.6,0.6,1.5,0.8,2.3,0.5c0.8-0.3,1.3-1.1,1.3-1.9v-16l2.4,2.4c1.2,1.2,1.9,2.8,1.9,4.5v28.1h4.2
					v-28.1c0-2.8-1.1-5.5-3.1-7.5l-5.3-5.3v-5.4h-4.2v22.3l-5.6-5.6c-0.3-0.3-0.6-0.5-0.9-0.8c-0.3-0.7-1.1-1.2-1.9-1.2h-19.4
					l-1.1-4.2h20.5c1.2,0,2.1-0.9,2.1-2.1v-8.4c0-1.2-0.9-2.1-2.1-2.1h-23.6l-1.1-4.2h9.9v-4.2h-12.6c-0.6,0-1.3,0.3-1.7,0.8
					c-0.4,0.5-0.5,1.2-0.4,1.8l2.1,8.4c0.2,0.9,1.1,1.6,2,1.6h23.2v4.2h-21.1c-0.6,0-1.3,0.3-1.7,0.8c-0.4,0.5-0.5,1.2-0.4,1.8
					l2.1,8.4c0.2,0.9,1.1,1.6,2,1.6h13.1c-0.3,0.7-0.4,1.5-0.4,2.4c0,0.6,0.1,1.3,0.3,1.9h-17.7L132,132.2c-0.3-0.9-1.1-1.5-2-1.5
					h-8.4c-0.9,0-1.8,0.6-2,1.5l-10.1,32.2H91.8c0.2-0.6,0.3-1.2,0.3-1.9c0-0.8-0.2-1.6-0.4-2.4h13.1c1,0,1.8-0.7,2-1.6l2.1-8.4
					c0.2-0.6,0-1.3-0.4-1.8c-0.4-0.5-1-0.8-1.7-0.8H85.7v-4.2h23.2c1,0,1.8-0.7,2-1.6l2.1-8.4c0.2-0.6,0-1.3-0.4-1.8
					c-0.4-0.5-1-0.8-1.7-0.8H85.7v-4.2h29.5c1,0,1.8-0.7,2-1.6l2.1-8.4c0.2-0.6,0-1.3-0.4-1.8c-0.4-0.5-1-0.8-1.7-0.8H90.8l2.5-5.4
					l-3.8-1.8l-3.9,8.4c-0.3,0.7-0.2,1.4,0.1,2c0.4,0.6,1.1,1,1.8,1h27.2l-1.1,4.2h-30c-1.2,0-2.1,0.9-2.1,2.1v8.4
					c0,1.2,0.9,2.1,2.1,2.1h24.7l-1.1,4.2H83.6c-1.2,0-2.1,0.9-2.1,2.1v8.4c0,1.2,0.9,2.1,2.1,2.1h20.5L103,156H83.6
					c-0.8,0-1.5,0.5-1.9,1.2c-0.3,0.2-0.6,0.5-0.9,0.8l-5.6,5.6V82.2H71z"/>
			</defs>
			<clipPath id="SVGID_17_">
				<use xlink:href="#SVGID_16_"  style="overflow:visible;"/>
			</clipPath>
			
				<linearGradient id="SVGID_18_" gradientUnits="userSpaceOnUse" x1="-3409.9944" y1="2371.5046" x2="-3409.6643" y2="2371.5046" gradientTransform="matrix(383.1583 0 0 -383.1583 1306630.125 908796.5)">
				<stop  offset="0" style="stop-color:#E300D6"/>
				<stop  offset="0.4662" style="stop-color:#4828BE"/>
				<stop  offset="1" style="stop-color:#4828BE"/>
			</linearGradient>
			<rect x="62.5" y="82.2" class="st8" width="126.4" height="105.4"/>
		</g>
	</g>
</g>
</svg>
