<?xml version="1.0" encoding="utf-8"?>
<!-- Generator: Adobe Illustrator 19.1.0, SVG Export Plug-In . SVG Version: 6.00 Build 0)  -->
<svg version="1.1" id="Layer_1" xmlns="http://www.w3.org/2000/svg" xmlns:xlink="http://www.w3.org/1999/xlink" x="0px" y="0px"
	 viewBox="0 0 250 250" style="enable-background:new 0 0 250 250;" xml:space="preserve">
<style type="text/css">
	.st0{opacity:0.3;}
	.st1{fill:#FFFFFD;}
	.st2{fill:none;stroke:#F4EEE9;stroke-width:9.3745;stroke-linecap:round;stroke-miterlimit:10;}
	.st3{clip-path:url(#SVGID_2_);fill:url(#SVGID_3_);}
	.st4{clip-path:url(#SVGID_5_);fill:url(#SVGID_6_);}
	.st5{clip-path:url(#SVGID_8_);fill:url(#SVGID_9_);}
	.st6{clip-path:url(#SVGID_11_);fill:url(#SVGID_12_);}
</style>
<g>
	<g>
		<g>
			<g class="st0">
				<path d="M196.9,244.8H57.7c-23.4,0-42.4-19-42.4-42.4V61.7c0-23.4,19-42.4,42.4-42.4h139.2c23.4,0,42.4,19,42.4,42.4v140.6
					C239.4,225.8,220.4,244.8,196.9,244.8z"/>
			</g>
			<g>
				<path class="st1" d="M194.6,237.7H55.4c-23.4,0-42.4-19-42.4-42.4V54.7c0-23.4,19-42.4,42.4-42.4h139.2
					c23.4,0,42.4,19,42.4,42.4v140.6C237,218.7,218,237.7,194.6,237.7z"/>
			</g>
		</g>
		<path class="st2" d="M27.2,69c0-23.4,19-42.4,42.4-42.4h16.5"/>
		<path class="st2" d="M222.8,181c0,23.4-19,42.4-42.4,42.4"/>
		<line class="st2" x1="105.8" y1="26.6" x2="129.7" y2="26.6"/>
	</g>
	<g>
		<g>
			<defs>
				<path id="SVGID_1_" d="M70,101.2V74.2v-2.2h6.6H78v1.6v13v6.7v11.2h-2.5H70V101.2z M82.7,66.2c-0.3,0-0.6,0.1-0.8,0.2
					c-0.5-0.3-1.2-0.4-2-0.4H68.8c-3.8,0-4.8,2.7-4.8,5.9v25.9c0,3.8-1.5,11.5,3.4,12.8c2.7,0.7,6,0.1,8.7,0.1
					c1.4,0,2.9,0.1,4.2-0.1c0.3,0.1,0.5,0.1,0.8,0.1c3.2,0.1,6.4,0,9.6,0c0.6,0,1.1,0,1.7,0c3.3,0.1,6.8,0.1,9.5-2.1
					c3.4-2.8,4-9.2,1.5-12.9c-2.1-3.2-5.6-3.6-9.1-3.7V92h16.4c4.2,4.8,11.2,14.2,17.3,7.7c2.2-2.3,6.3-5.3,7.1-8.5
					c1.1-4.3-1.3-7.1-3.9-10c-2.9-3.1-5.8-6.2-8.7-9.3c-2.1-2.3-4.6-5.9-8-5.9H96.2c-3.9,0-3.9,6.1,0,6.1h10.3h6.1
					c1.7,0,1.6-0.1,2.7,1c2.5,2.7,5,5.4,7.5,8.1c1.4,1.5,2.9,3.1,4.3,4.6c0.8,0.9,2.1,1.9,2.2,3.2c0.1,1.1-2.4,2.9-3,3.6
					c-1.1,1.2-2.7,4.2-4.4,2.7c-2.7-2.4-5-5.3-7.4-7.9c-1.9-2.1-5.7-1.3-8.3-1.3H93h-1.6c-1.7,0-3,1.4-3,3c0,2-0.1,4.1,0,6.1
					c0,1.6,1.3,3,3,3c2,0,5.9-0.7,7.3,1.2c0.5,0.7,0.1,2.6,0.1,3.4c0,1.5-1.8,1.8-3,1.8c-3.9,0-7.8,0-11.7,0V90.2v-4.5v-9.1v-3
					c0-0.8,0.7-1.5,0.2-1.5h1.2h2.9c3.9,0,3.9-6.1,0-6.1c-0.7,0-1.3,0-2,0C85.1,66,83.9,66,82.7,66.2"/>
			</defs>
			<clipPath id="SVGID_2_">
				<use xlink:href="#SVGID_1_"  style="overflow:visible;"/>
			</clipPath>
			
				<linearGradient id="SVGID_3_" gradientUnits="userSpaceOnUse" x1="-3413.2542" y1="2376.9285" x2="-3412.9243" y2="2376.9285" gradientTransform="matrix(217.3741 0 0 -217.3741 742016.6875 516771.2813)">
				<stop  offset="0" style="stop-color:#E300D6"/>
				<stop  offset="0.4662" style="stop-color:#4828BE"/>
				<stop  offset="1" style="stop-color:#4828BE"/>
			</linearGradient>
			<rect x="62.4" y="66" class="st3" width="73.9" height="45.2"/>
		</g>
		<g>
			<defs>
				<path id="SVGID_4_" d="M170.2,174.9v-13.6v-3.7v-11.2h2.5h5.5v3.4v26.9v2.2h-6.6h-1.4V174.9z M172.1,140.3
					c-1.4,0-2.9-0.1-4.2,0.1c-0.3-0.1-0.5-0.1-0.8-0.1c-3.2-0.1-6.4,0-9.6,0c-0.6,0-1.1,0-1.7,0c-3.3-0.1-6.8-0.1-9.5,2.1
					c-3.4,2.8-4,9.2-1.5,12.9c2.1,3.2,5.6,3.6,9.1,3.7c0,0,0,0,0,0.1h-16.4c-4.4-5-11.2-14.2-17.5-7.4c-2.5,2.6-6.9,5.9-7.2,9.8
					c-0.4,4.8,3.5,7.6,6.5,10.5c2.8,2.7,7.1-1.6,4.3-4.3c-1.4-1.4-2.8-2.8-4.3-4.1c-1.9-1.8,2.2-4.7,3.3-5.9
					c1.6-1.7,2.3-3.2,4.2-1.1c1.9,2,3.8,4.1,5.7,6.1c1.2,1.2,2.1,2.4,3.9,2.4h6.5h13.9c1.6,0,3-1.4,3-3c0-2,0.1-4.1,0-6.1
					c0-1.6-1.3-3-3-3c-2,0-5.9,0.7-7.3-1.2c-0.5-0.7-0.1-2.6-0.1-3.4c0-1.5,1.8-1.8,3-1.8c3.9,0,7.8,0,11.7,0v13v6v5.5v5.2v1.3
					c0,0.4,0,0.5-0.1,1.1c-0.2,1.1-0.1,0.6-0.3,0.6h-18.9h-10.5c-0.9,0-1.1-0.6-1.8-1.4c-1.2-1.3-2.4-2.5-3.5-3.8
					c-2.7-2.9-6.9,1.4-4.3,4.3c2.3,2.5,5.3,6.9,9,6.9h9.3h21.1c0.9,0,1.6-0.2,2.3-0.4c0.5,0.3,1.2,0.4,2,0.4h11.1
					c3.8,0,4.8-2.7,4.8-5.9v-25.9c0-3.8,1.5-11.5-3.4-12.8c-1-0.2-2.1-0.3-3.2-0.3C175.8,140.1,173.8,140.3,172.1,140.3"/>
			</defs>
			<clipPath id="SVGID_5_">
				<use xlink:href="#SVGID_4_"  style="overflow:visible;"/>
			</clipPath>
			
				<linearGradient id="SVGID_6_" gradientUnits="userSpaceOnUse" x1="-3413.7124" y1="2377.6206" x2="-3413.3823" y2="2377.6206" gradientTransform="matrix(217.4712 0 0 -217.4712 742496.875 517226.5625)">
				<stop  offset="0" style="stop-color:#E300D6"/>
				<stop  offset="0.4662" style="stop-color:#4828BE"/>
				<stop  offset="1" style="stop-color:#4828BE"/>
			</linearGradient>
			<rect x="112.4" y="140.1" class="st4" width="73.4" height="44.9"/>
		</g>
		<g>
			<defs>
				<path id="SVGID_7_" d="M110.4,126.9c-0.2-7.5,6.8-12.8,13.8-13c7.3-0.2,13.6,5.7,13.8,13c-0.2,7.5-6.5,12.8-13.8,13
					c-0.1,0-0.2,0-0.3,0C116.7,139.9,110.6,134.1,110.4,126.9 M104.3,126.9c-0.3,10.9,9.6,18.8,19.8,19c10.5,0.3,19.3-8.3,19.8-18.5
					c0-0.2,0-0.3,0-0.5c0-0.2,0-0.3,0-0.5c-0.5-10.6-9.3-18.3-19.8-18.6c-0.2,0-0.3,0-0.5,0C113.2,107.8,104.6,116.5,104.3,126.9"/>
			</defs>
			<clipPath id="SVGID_8_">
				<use xlink:href="#SVGID_7_"  style="overflow:visible;"/>
			</clipPath>
			
				<linearGradient id="SVGID_9_" gradientUnits="userSpaceOnUse" x1="-3413.3381" y1="2378.3267" x2="-3413.0081" y2="2378.3267" gradientTransform="matrix(120.3059 0 0 -120.3059 410749.1875 286253.8438)">
				<stop  offset="0" style="stop-color:#E300D6"/>
				<stop  offset="0.4662" style="stop-color:#4828BE"/>
				<stop  offset="1" style="stop-color:#4828BE"/>
			</linearGradient>
			<rect x="104" y="107.8" class="st5" width="40" height="38.3"/>
		</g>
		<g>
			<defs>
				<path id="SVGID_10_" d="M125.6,115.1c-0.6,0-1.4,0-2.3,0v1.5l0,0.8c0,0.1,0,0.2,0,0.5c-0.7,0.2-1.3,0.4-1.7,0.5
					c-0.4,0.2-0.7,0.4-1,0.7c-0.3,0.3-0.6,0.6-0.8,0.9c-0.2,0.3-0.4,0.7-0.5,1.1c-0.1,0.4-0.2,0.8-0.2,1.2c0,0.5,0.1,1,0.3,1.5
					c0.2,0.5,0.5,1,0.8,1.4c0.4,0.5,1.4,1.5,2.7,2.8c0.5,0.5,0.7,0.7,0.8,0.8c0.1,0.1,0.1,0.2,0.2,0.3c0.1,0.1,0.2,0.2,0.2,0.3
					c0,0.1,0.1,0.2,0.1,0.3c0,0.1,0,0.2,0,0.3c0,0.4-0.2,0.7-0.5,0.9c-0.3,0.2-0.7,0.3-1.1,0.3c-0.5,0-1.1-0.1-1.8-0.3
					c-0.7-0.2-1.5-0.4-2.3-0.8c0.1,0.8,0.1,2.3,0.2,4.4c0.7,0.2,1.2,0.4,1.7,0.5c0.5,0.1,1,0.2,1.7,0.3v0.5c0,0.9,0,1.7-0.1,2.3
					c1.1,0,1.9,0,2.4,0c0.5,0,1.3,0,2.2,0c0-0.5,0-1,0-1.6l0-1.6c0.6-0.2,1-0.5,1.4-0.6c0.3-0.2,0.6-0.4,0.9-0.7
					c0.3-0.3,0.5-0.6,0.8-0.9c0.2-0.3,0.4-0.7,0.5-1.1c0.1-0.4,0.2-0.8,0.2-1.3c0-0.5-0.1-1.1-0.3-1.7c-0.2-0.6-0.6-1.1-1.1-1.8
					c-0.5-0.6-1.3-1.4-2.4-2.5c-0.3-0.3-0.5-0.6-0.7-0.8c-0.2-0.2-0.2-0.5-0.2-0.8c0-0.3,0.1-0.6,0.4-0.8c0.3-0.2,0.6-0.3,1.1-0.3
					c0.4,0,0.9,0.1,1.4,0.2c0.6,0.1,1.2,0.4,1.9,0.7c-0.1-1.5-0.2-2.9-0.2-4.3c-0.8-0.2-1.6-0.4-2.5-0.5v-1.1c0-0.2,0-0.7,0.1-1.7
					C127,115.1,126.2,115.1,125.6,115.1"/>
			</defs>
			<clipPath id="SVGID_11_">
				<use xlink:href="#SVGID_10_"  style="overflow:visible;"/>
			</clipPath>
			
				<linearGradient id="SVGID_12_" gradientUnits="userSpaceOnUse" x1="-3412.5986" y1="2383.7358" x2="-3412.2686" y2="2383.7358" gradientTransform="matrix(36.1268 0 0 -36.1268 123404.8516 86243.3438)">
				<stop  offset="0" style="stop-color:#E300D6"/>
				<stop  offset="0.4662" style="stop-color:#4828BE"/>
				<stop  offset="1" style="stop-color:#4828BE"/>
			</linearGradient>
			<rect x="118.6" y="115.1" class="st6" width="11.9" height="23"/>
		</g>
	</g>
</g>
</svg>
