<?xml version="1.0" encoding="utf-8"?>
<!-- Generator: Adobe Illustrator 19.1.0, SVG Export Plug-In . SVG Version: 6.00 Build 0)  -->
<svg version="1.1" id="Layer_1" xmlns="http://www.w3.org/2000/svg" xmlns:xlink="http://www.w3.org/1999/xlink" x="0px" y="0px"
	 viewBox="0 0 250 250" style="enable-background:new 0 0 250 250;" xml:space="preserve">
<style type="text/css">
	.st0{opacity:0.3;}
	.st1{fill:#FFFFFD;}
	.st2{fill:none;stroke:#F4EEE9;stroke-width:9.3745;stroke-linecap:round;stroke-miterlimit:10;}
	.st3{clip-path:url(#SVGID_2_);fill:url(#SVGID_3_);}
	.st4{clip-path:url(#SVGID_5_);fill:url(#SVGID_6_);}
</style>
<g>
	<g>
		<g>
			<g class="st0">
				<path d="M196.9,244.8H57.7c-23.4,0-42.4-19-42.4-42.4V61.7c0-23.4,19-42.4,42.4-42.4h139.2c23.4,0,42.4,19,42.4,42.4v140.6
					C239.4,225.8,220.4,244.8,196.9,244.8z"/>
			</g>
			<g>
				<path class="st1" d="M194.6,237.7H55.4c-23.4,0-42.4-19-42.4-42.4V54.7c0-23.4,19-42.4,42.4-42.4h139.2
					c23.4,0,42.4,19,42.4,42.4v140.6C237,218.7,218,237.7,194.6,237.7z"/>
			</g>
		</g>
		<path class="st2" d="M27.2,69c0-23.4,19-42.4,42.4-42.4h16.5"/>
		<path class="st2" d="M222.8,181c0,23.4-19,42.4-42.4,42.4"/>
		<line class="st2" x1="105.8" y1="26.6" x2="129.7" y2="26.6"/>
	</g>
	<g>
		<g>
			<defs>
				<path id="SVGID_1_" d="M97.2,165.1c-6-0.2-11.9-0.7-17.8-1.9c-1.9-0.4-3.8-0.9-5.6-1.6c-0.6-0.2-1.1-0.6-1.7-0.9
					c0,0-0.1,0-0.1-0.1v-4.1c4.5,1.8,10.4,2.3,13.6,2.7c12.1,1.6,24.9,1.4,37-0.6c1.1,1.5,2.2,3,3.5,4.3c-6.7,1.9-14.1,2.4-21.2,2.4
					C102.2,165.2,99.7,165.1,97.2,165.1 M72,144.3c4,1.6,8.9,2.1,11.8,2.5c11.2,1.6,22.7,1.6,33.9,0.3c0.4,2,1.1,4,1.8,5.9
					c-9.2,1.4-18.6,1.4-27.9,0.8c-4.6-0.3-9.2-0.9-13.7-2c-1.6-0.4-3.1-0.8-4.6-1.5c-0.8-0.4-1.2-1.1-1.3-0.6V144.3z M72,132.4
					c4.1,1.7,9.4,2.2,12.4,2.6c10.8,1.4,21.9,1.5,32.8,0.2c-0.3,2-0.3,4-0.3,5.9c-9.4,1.1-19,1.1-28.4,0.2c-4-0.4-8.1-1-12-2.1
					c-1.3-0.3-2.5-0.8-3.6-1.4c-0.6-0.3-0.8-0.7-0.9-0.6V132.4z M122.8,140.6c-0.1-2.5,0.1-5,0.7-7.3c0.2-0.4,0.3-0.8,0.3-1.2
					c3-10,12-17.6,22.6-19.7c13.6-2.6,27.8,5.5,32.4,18.5c1,2.8,1.4,5.8,1.5,8.7c-0.2,14.1-10.8,25.1-24.5,27.4
					c-1.5,0.3-3,0.4-4.5,0.4C136.6,167.4,123.5,155.6,122.8,140.6 M72,92.2c0.4,0.1,0.7,0.3,1,0.4c6.9,2.5,14.7,3,21.9,3.3
					c8.9,0.4,17.9,0,26.7-1.3c3-0.4,6.7-1,9.9-2.3v6.3c0,0,0,0,0,0c-0.6,0.4-1.3,0.7-2,1c-2.2,0.9-4.6,1.4-6.9,1.8
					c-6.8,1.3-13.9,1.6-20.8,1.7c-3.9,0-3.9,6.1,0,6.1c8.5,0,17.2-0.5,25.5-2.5c1.3-0.3,2.8-0.7,4.2-1.3v6.5c-1,0.7-2,1.4-2.9,2.1
					c-0.3,0-0.6,0-0.9,0.1c-3,0.9-6.1,1.5-9.2,1.9c-1.6,0.2-3,1.2-3,3c0,1.5,1.4,3.2,3,3c1.1-0.1,2.2-0.3,3.3-0.5
					c-1.4,2.2-2.5,4.5-3.3,7c-9.7,1.4-19.6,1.4-29.3,0.6c-4.1-0.3-8.2-1-12.2-2c-1.3-0.3-2.6-0.7-3.8-1.3c-0.8-0.4-1.2-1-1.3-0.7v-6
					c1.5,0.6,3,1,4.3,1.3c8.3,2.1,17.1,2.5,25.5,2.5c3.9,0,3.9-6,0-6.1c-7,0-14-0.4-20.8-1.7c-2.3-0.4-4.7-1-6.9-1.8
					c-0.7-0.3-1.3-0.6-2-1c0,0-0.1-0.1-0.1-0.1v-7c4,1.6,9.2,2.1,12.2,2.5c3.8,0.5,5.5-5.3,1.6-5.8c-3.1-0.4-6.2-1-9.2-1.8
					c-1.2-0.3-2.4-0.7-3.5-1.3c-0.6-0.3-1-0.9-1.1-0.6V92.2z M81,88.4c-2.3-0.4-4.7-1-6.9-1.8c-0.4-0.2-0.9-0.4-1.3-0.6
					c0.4-0.2,0.9-0.4,1.3-0.6c2.2-0.9,4.6-1.4,6.9-1.8c6.8-1.3,13.9-1.6,20.8-1.7c7,0,14,0.4,20.8,1.7c2.3,0.4,4.7,1,6.9,1.8
					c0.4,0.2,0.9,0.4,1.3,0.6c-0.4,0.2-0.9,0.4-1.3,0.6c-2.2,0.9-4.6,1.4-6.9,1.8c-6.8,1.3-13.9,1.6-20.8,1.7c-0.2,0-0.4,0-0.6,0
					C94.5,90.1,87.7,89.7,81,88.4 M78.6,77.9c-4.2,0.8-10.5,2.1-12.3,6.6c-0.4,0.9-0.4,1.7-0.3,2.4v11.7c0,0.2,0,0.4,0,0.7v13.6
					c0,0.1,0,0.1,0,0.2v12.4c0,0.2,0,0.3,0,0.5v11.4c0,0.2,0,0.3,0,0.5v11.6c0,0.2,0,0.3,0,0.5v10.6c0,0.2,0,0.3,0,0.5
					c0,0.4,0.1,0.8,0.2,1.2c0.9,3,4,4.4,6.9,5.5c5.9,2.1,12.4,2.7,18.6,3.2c7.8,0.6,15.6,0.5,23.3-0.2c5.5-0.5,11.4-1.2,16.6-3.3
					c7.7,5,17.4,7,26.6,5.5c15.8-2.7,27.7-16.9,28.1-32.7c0-0.1,0-0.2,0-0.4c-0.2-13.6-8.5-25.7-21.1-31c-9-3.7-18.9-3.5-27.6,0.2
					v-9.2c0-0.1,0.1-0.3,0.1-0.4c0-0.3,0-0.7-0.1-1V86.9c0.1-0.3,0.1-0.6,0.1-1c0-0.5,0-1-0.2-1.4c-0.1-0.3-0.3-0.6-0.5-0.9
					c-1.6-3-5.8-4.3-9-5.2c-7.7-2.1-16-2.6-23.9-2.7c-1,0-1.9,0-2.9,0C93.7,75.8,86,76.4,78.6,77.9"/>
			</defs>
			<clipPath id="SVGID_2_">
				<use xlink:href="#SVGID_1_"  style="overflow:visible;"/>
			</clipPath>
			
				<linearGradient id="SVGID_3_" gradientUnits="userSpaceOnUse" x1="-3413.5684" y1="2374.9092" x2="-3413.238" y2="2374.9092" gradientTransform="matrix(364.9596 0 0 -364.9596 1245880.25 866870.875)">
				<stop  offset="0" style="stop-color:#E300D6"/>
				<stop  offset="0.4662" style="stop-color:#4828BE"/>
				<stop  offset="1" style="stop-color:#4828BE"/>
			</linearGradient>
			<rect x="65.8" y="75.8" class="st3" width="120.5" height="98.5"/>
		</g>
		<g>
			<defs>
				<path id="SVGID_4_" d="M152.1,123.2c-1,0-2.2,0-3.7,0v2.1l0,1.2c0,0.1,0,0.3,0,0.7c-1.2,0.3-2.1,0.5-2.6,0.8
					c-0.6,0.2-1.1,0.6-1.6,1c-0.5,0.4-0.9,0.8-1.3,1.3c-0.4,0.5-0.6,1-0.8,1.5c-0.2,0.5-0.3,1.1-0.3,1.6c0,0.7,0.2,1.4,0.5,2.2
					c0.3,0.7,0.7,1.4,1.3,2c0.7,0.8,2.2,2.1,4.4,4c0.8,0.7,1.2,1,1.3,1.1c0.1,0.1,0.2,0.2,0.4,0.4c0.2,0.2,0.3,0.3,0.3,0.5
					c0.1,0.1,0.1,0.3,0.2,0.4c0,0.1,0.1,0.3,0.1,0.4c0,0.5-0.3,1-0.8,1.3c-0.5,0.3-1.1,0.5-1.8,0.5c-0.8,0-1.8-0.1-2.9-0.4
					c-1.1-0.2-2.3-0.6-3.7-1.2c0.1,1.1,0.2,3.2,0.3,6.3c1.1,0.3,2,0.5,2.7,0.7c0.7,0.1,1.7,0.3,2.8,0.4v0.7c0,1.3,0,2.4-0.1,3.2
					c1.7,0,3,0,3.9,0c0.9,0,2.1,0,3.5,0c0-0.7,0-1.5,0-2.2l0-2.3c1-0.4,1.7-0.7,2.2-0.9c0.5-0.3,1-0.6,1.4-1
					c0.5-0.4,0.9-0.8,1.2-1.3c0.4-0.5,0.6-1,0.8-1.6c0.2-0.6,0.3-1.2,0.3-1.8c0-0.8-0.2-1.6-0.5-2.3c-0.3-0.8-0.9-1.6-1.8-2.5
					c-0.8-0.9-2.1-2.1-3.9-3.5c-0.5-0.4-0.9-0.8-1.1-1.1c-0.3-0.3-0.4-0.7-0.4-1.1c0-0.4,0.2-0.8,0.7-1.1c0.5-0.3,1-0.4,1.7-0.4
					c0.6,0,1.4,0.1,2.3,0.3c0.9,0.2,2,0.5,3.1,1c-0.2-2.1-0.3-4.1-0.4-6.1c-1.3-0.3-2.6-0.6-4-0.7v-1.6c0-0.2,0-1,0.1-2.4
					C154.4,123.2,153.2,123.2,152.1,123.2"/>
			</defs>
			<clipPath id="SVGID_5_">
				<use xlink:href="#SVGID_4_"  style="overflow:visible;"/>
			</clipPath>
			
				<linearGradient id="SVGID_6_" gradientUnits="userSpaceOnUse" x1="-3413.9072" y1="2369.6626" x2="-3413.5774" y2="2369.6626" gradientTransform="matrix(57.9599 0 0 -57.9599 198010.4531 137484.7656)">
				<stop  offset="0" style="stop-color:#E300D6"/>
				<stop  offset="0.4662" style="stop-color:#4828BE"/>
				<stop  offset="1" style="stop-color:#4828BE"/>
			</linearGradient>
			<rect x="140.9" y="123.2" class="st4" width="19.1" height="32.6"/>
		</g>
	</g>
</g>
</svg>
