<?xml version="1.0" encoding="utf-8"?>
<!-- Generator: Adobe Illustrator 19.1.0, SVG Export Plug-In . SVG Version: 6.00 Build 0)  -->
<svg version="1.1" id="Layer_1" xmlns="http://www.w3.org/2000/svg" xmlns:xlink="http://www.w3.org/1999/xlink" x="0px" y="0px"
	 viewBox="0 0 250 250" style="enable-background:new 0 0 250 250;" xml:space="preserve">
<style type="text/css">
	.st0{opacity:0.3;}
	.st1{fill:#FFFFFD;}
	.st2{fill:none;stroke:#F4EEE9;stroke-width:9.3745;stroke-linecap:round;stroke-miterlimit:10;}
	.st3{clip-path:url(#SVGID_2_);fill:url(#SVGID_3_);}
	.st4{clip-path:url(#SVGID_5_);fill:url(#SVGID_6_);}
	.st5{clip-path:url(#SVGID_8_);fill:url(#SVGID_9_);}
	.st6{clip-path:url(#SVGID_11_);fill:url(#SVGID_12_);}
	.st7{clip-path:url(#SVGID_14_);fill:url(#SVGID_15_);}
	.st8{clip-path:url(#SVGID_17_);fill:url(#SVGID_18_);}
	.st9{clip-path:url(#SVGID_20_);fill:url(#SVGID_21_);}
	.st10{clip-path:url(#SVGID_23_);fill:url(#SVGID_24_);}
</style>
<g>
	<g>
		<g>
			<g class="st0">
				<path d="M196.9,244.8H57.7c-23.4,0-42.4-19-42.4-42.4V61.7c0-23.4,19-42.4,42.4-42.4h139.2c23.4,0,42.4,19,42.4,42.4v140.6
					C239.4,225.8,220.4,244.8,196.9,244.8z"/>
			</g>
			<g>
				<path class="st1" d="M194.6,237.7H55.4c-23.4,0-42.4-19-42.4-42.4V54.7c0-23.4,19-42.4,42.4-42.4h139.2
					c23.4,0,42.4,19,42.4,42.4v140.6C237,218.7,218,237.7,194.6,237.7z"/>
			</g>
		</g>
		<path class="st2" d="M27.2,69c0-23.4,19-42.4,42.4-42.4h16.5"/>
		<path class="st2" d="M222.8,181c0,23.4-19,42.4-42.4,42.4"/>
		<line class="st2" x1="105.8" y1="26.6" x2="129.7" y2="26.6"/>
	</g>
	<g>
		<g>
			<defs>
				<path id="SVGID_1_" d="M125.9,145.5c3.8,0,7.3-1.2,10.8-2.9c0,1.9,0,3.6,0,5.2c0,1.5,0,3,1.7,3.7c-6.8,4.8-18.5,4.9-25.3,0.1
					c1.7-0.6,2-2,1.9-3.5c-0.1-1.7,0-3.5,0-5.5c3.6,1.8,7,2.9,10.8,2.9C125.8,145.5,125.8,145.5,125.9,145.5 M151.4,104.4v-1.3
					c2.4,0,4.4,2,4.6,4.5c0.3,2.8-1.6,5.1-4.6,5.5V104.4z M95.1,108.2c-0.1-2.9,2.3-5.2,5.1-5.1v10c-0.1,0-0.3,0-0.4,0
					C97.3,113.1,95.1,110.9,95.1,108.2 M136.5,88.6c3.5,0,4.8-1.8,3.4-5.1c4.2,0.2,7.5,3.4,7.5,7.4c0.1,9.5,0.1,18.9,0,28.4
					c-0.2,10.5-8.8,20.2-19.1,21.9c-5.7,0.9-10.7-1.1-15-4.6c-5.9-4.8-8.9-11.1-9-18.8c0-7.9,0-15.7,0-23.6c0-4,1.9-6.8,5.2-8.8
					c1.8-1.1,3.1-1.4,4.9,0.2c2.6,2.2,6,3,9.5,3c1.8,0,3.6,0,5.3,0C131.6,88.6,134.1,88.6,136.5,88.6 M96.9,98.4
					c-0.2-6.5-0.6-13-0.6-19.5c-0.1-6.4,4.3-12,10.5-13.7c0.4-0.1,0.8-0.2,1.4-0.3c-1.8,5.6-1.7,10.9,1.4,16.1
					c-8.1,3.3-10.3,9.8-9.3,17.8c-1.2,0.2-2.2,0.4-3.3,0.6C97,99,96.9,98.7,96.9,98.4 M114.1,57c-0.5,0.4-1.1,0.8-1.5,1.3
					c-1.2,1.7-2.8,2.3-4.9,2.7c-9.4,1.5-15.6,9.2-15.4,18.6c0.2,7.1,0.5,14.3,0.7,21.4c0,0.8-0.2,1.7-0.6,2.3
					c-3,5.1-0.6,11.7,5,13.5c0.9,0.3,1.8,0.4,2.8,0.6c0,0.2,0.1,0.5,0.1,0.8c0.2,8.6,3.6,15.7,10.1,21.3c0.4,0.3,0.6,1,0.6,1.5
					c0.1,2,0,4.1,0.1,6.1c0,0.9-0.3,1.2-1.1,1.5c-4.6,1.8-9.2,3.7-13.8,5.6c-4.1,1.7-7.8,4-10.9,7.2c-1.1,1.1-1.2,2.3-0.3,3.1
					c0.9,0.9,2,0.8,3-0.2c3.2-3.2,7-5.4,11.2-7c0.8-0.3,1.2-0.2,1.9,0.3c2.9,2.1,5.7,4.4,8.9,6c7.7,3.9,15.8,4.7,24.2,2.7
					c1.7-0.4,2.5-1.7,1.7-3c-0.6-1-1.6-1.1-2.7-0.8c-10.3,2.3-19.5,0.1-27.8-6.3c-0.3-0.2-0.6-0.5-0.9-0.9c1.2-0.5,2.3-1,3.4-1.4
					c0.4-0.1,1,0,1.3,0.2c9.9,7.1,23.3,7,33.1-0.1c0.3-0.2,0.8-0.4,1-0.3c1.2,0.4,2.4,1,4,1.6c-2.1,1.4-3.9,2.6-5.6,3.9
					c-0.5,0.4-1.2,0.9-1.3,1.4c-0.1,0.6,0.2,1.5,0.6,2c0.6,0.8,1.6,0.7,2.4,0.2c2.4-1.7,4.7-3.4,7.1-5.1c0.4-0.3,1.1-0.5,1.5-0.4
					c4.8,1.7,9.1,4.1,12.6,7.9c3.7,4.1,6.1,8.8,7,14.3h-13.7c0-1.5,0.1-2.9,0-4.2c-0.1-1.1-0.8-1.8-1.9-1.8c-1.1,0-1.7,0.6-1.9,1.7
					c0,0.2-0.1,0.4-0.1,0.7c0,5.1,0,10.3,0,15.4c0,0.2,0,0.4,0.1,0.7c0.2,1.1,0.9,1.6,2,1.6c1.1,0,1.8-0.6,1.9-1.7
					c0.1-1.1,0.1-2.2,0.1-3.3c0-1.6,0-3.2,0-4.8H172c0,2.6,0,5,0,7.5c0,1.5,0.8,2.3,2,2.3c1.2,0,1.9-0.9,1.9-2.4c0-2.5,0.1-5,0-7.5
					c-0.7-13.7-7.3-23.4-19.8-29.1c-4.7-2.1-9.5-4-14.3-5.8c-1-0.4-1.3-0.9-1.2-1.9c0.1-1.9,0.1-3.7,0-5.6c0-0.9,0.3-1.5,1-2.1
					c4.9-4.2,8-9.5,9.2-15.9c0.4-1.9,0.5-3.9,0.7-5.9c7.1-1.2,10.3-7.3,7.3-13.7c-0.2-0.5-0.3-1.1-0.3-1.7
					c0.2-5.8,0.4-11.6,0.6-17.4c0.1-4.4-1-8.4-3.1-12.2c-0.5-0.8-1.1-1.4-2.1-1.3c-1.5,0.1-2.2,1.7-1.3,3.2
					c1.9,3.3,2.8,6.9,2.6,10.7c-0.1,4-0.3,8-0.4,12c0,0.9-0.1,1.8-0.2,2.7c-0.8-0.2-1.6-0.5-2.3-0.5c-0.7-0.1-1-0.4-0.9-1.1
					c0-2.3,0-4.6,0-6.9c-0.1-7.5-7.4-13.2-14.7-11.5c-1.9,0.4-2.7,2.3-1.8,4c0.2,0.3,0.3,0.7,0.6,1.1c-4.2,0-8.3,0.2-12.3,0
					c-5.5-0.3-9.5-3.2-11.3-8.4c-1.8-5.3-0.6-10.1,2.9-14.4c0.2,0.1,0.3,0.1,0.4,0.1c0.2,0.2,0.5,0.4,0.7,0.6
					c1.7,1.7,3.8,2.2,6.2,2.2c2.4-0.1,4.9,0,7.3,0c1.9,0,3.8,0,5.8,0c4.3-0.1,8.2,1,11.8,3.4c1.3,0.9,2.5,0.7,3.1-0.3
					c0.7-1.1,0.3-2.1-1-3c-3.6-2.5-7.7-3.9-12.1-4c-5.3-0.1-10.6,0-15.8-0.1c-0.6,0-1.3-0.2-1.8-0.5c-1.3-1-2.5-2-3.8-3.1
					C115,57,114.5,57,114.1,57"/>
			</defs>
			<clipPath id="SVGID_2_">
				<use xlink:href="#SVGID_1_"  style="overflow:visible;"/>
			</clipPath>
			
				<linearGradient id="SVGID_3_" gradientUnits="userSpaceOnUse" x1="-3421.1096" y1="2369.7341" x2="-3420.7795" y2="2369.7341" gradientTransform="matrix(278.0509 0 0 -278.0509 951326.8125 659031.875)">
				<stop  offset="0" style="stop-color:#E300D6"/>
				<stop  offset="0.4662" style="stop-color:#4828BE"/>
				<stop  offset="1" style="stop-color:#4828BE"/>
			</linearGradient>
			<rect x="84" y="57" class="st3" width="92.1" height="136.4"/>
		</g>
		<g>
			<defs>
				<path id="SVGID_4_" d="M79.2,169.5c-3.8,7-3.7,14.6-3.5,22.2c0,1,0.8,1.6,1.8,1.7c1,0.1,1.7-0.4,2-1.4c0.1-0.5,0.1-1.1,0.1-1.6
					c0-2.3,0-4.5,0-6.9h13.7c0,2.6,0,5.1,0,7.6c0,1.4,0.8,2.2,1.9,2.3c1.2,0,2-0.9,2-2.3c0-5.2,0-10.4,0-15.6c0-1.4-0.8-2.2-2-2.2
					c-1.2,0-2,0.8-2,2.3c0,1.2,0,2.5,0,3.8H80.1c0.5-2.9,1.4-5.5,2.7-8.1c0.7-1.3,0.4-2.4-0.7-3c-0.3-0.2-0.6-0.3-0.9-0.3
					C80.4,168,79.7,168.5,79.2,169.5"/>
			</defs>
			<clipPath id="SVGID_5_">
				<use xlink:href="#SVGID_4_"  style="overflow:visible;"/>
			</clipPath>
			
				<linearGradient id="SVGID_6_" gradientUnits="userSpaceOnUse" x1="-3443.8005" y1="2351.2146" x2="-3443.4707" y2="2351.2146" gradientTransform="matrix(65.7464 0 0 -65.7464 226493.2656 154764.6875)">
				<stop  offset="0" style="stop-color:#E300D6"/>
				<stop  offset="0.4662" style="stop-color:#4828BE"/>
				<stop  offset="1" style="stop-color:#4828BE"/>
			</linearGradient>
			<rect x="75.4" y="168" class="st4" width="21.9" height="25.4"/>
		</g>
		<g>
			<defs>
				<path id="SVGID_7_" d="M125.3,132.3c-3.2,0-6.1-2.7-6.1-5.7h12.3C131.5,129.7,128.6,132.3,125.3,132.3
					C125.4,132.3,125.4,132.3,125.3,132.3 M118.3,122.6c-2.1,0-3.2,1.2-3.2,3.3c-0.1,5.7,4.5,10.4,10.2,10.5
					c5.7,0.1,10.4-4.5,10.4-10.2c0-2.3-1.1-3.5-3.4-3.5c-2.3,0-4.6,0-6.9,0c-0.7,0-1.5,0-2.2,0c-0.7,0-1.4,0-2.1,0
					C120.2,122.5,119.3,122.5,118.3,122.6"/>
			</defs>
			<clipPath id="SVGID_8_">
				<use xlink:href="#SVGID_7_"  style="overflow:visible;"/>
			</clipPath>
			
				<linearGradient id="SVGID_9_" gradientUnits="userSpaceOnUse" x1="-3446.6709" y1="2348.2285" x2="-3446.3408" y2="2348.2285" gradientTransform="matrix(62.4235 0 0 -62.4235 215268.1875 146713.9844)">
				<stop  offset="0" style="stop-color:#E300D6"/>
				<stop  offset="0.4662" style="stop-color:#4828BE"/>
				<stop  offset="1" style="stop-color:#4828BE"/>
			</linearGradient>
			<rect x="115" y="122.5" class="st5" width="20.7" height="13.9"/>
		</g>
		<g>
			<defs>
				<path id="SVGID_10_" d="M129,110.9c-1.1,0-1.9,0.9-1.9,2.3c0,0.3,0,0.6,0,0.9c-0.1,0.9-0.5,1.5-1.5,1.6c-1.1,0-1.5-0.7-1.5-1.6
					c0-0.4,0-0.8,0-1.2c-0.1-1.2-0.7-1.8-1.8-1.9c-1.1-0.1-2,0.6-2,1.7c0,1.4,0.1,2.9,0.6,4.1c1,2.3,3.7,3.4,6.1,2.8
					c2.6-0.7,4.1-2.8,4.1-5.8c0-0.2,0-0.4,0-0.7C130.9,111.7,130.2,110.9,129,110.9C129,110.9,129,110.9,129,110.9"/>
			</defs>
			<clipPath id="SVGID_11_">
				<use xlink:href="#SVGID_10_"  style="overflow:visible;"/>
			</clipPath>
			
				<linearGradient id="SVGID_12_" gradientUnits="userSpaceOnUse" x1="-3476.0881" y1="2322.6111" x2="-3475.7581" y2="2322.6111" gradientTransform="matrix(33.0129 0 0 -33.0129 114875.8516 76791.5547)">
				<stop  offset="0" style="stop-color:#E300D6"/>
				<stop  offset="0.4662" style="stop-color:#4828BE"/>
				<stop  offset="1" style="stop-color:#4828BE"/>
			</linearGradient>
			<rect x="120.2" y="110.8" class="st6" width="10.9" height="9.3"/>
		</g>
		<g>
			<defs>
				<path id="SVGID_13_" d="M108.6,98.7c-1.2,0.4-1.7,1.3-1.4,2.4c0.3,1.1,1.3,1.7,2.5,1.3c2.5-0.8,4.8-0.8,7.3,0
					c1.2,0.4,2.2-0.2,2.5-1.3c0.3-1.1-0.2-2.1-1.4-2.5c-1.6-0.5-3.3-0.7-4.8-1C111.6,98,110.1,98.3,108.6,98.7"/>
			</defs>
			<clipPath id="SVGID_14_">
				<use xlink:href="#SVGID_13_"  style="overflow:visible;"/>
			</clipPath>
			
				<linearGradient id="SVGID_15_" gradientUnits="userSpaceOnUse" x1="-3467.365" y1="2328.7002" x2="-3467.0349" y2="2328.7002" gradientTransform="matrix(37.9105 0 0 -37.9105 131556.6719 88382.5234)">
				<stop  offset="0" style="stop-color:#E300D6"/>
				<stop  offset="0.4662" style="stop-color:#4828BE"/>
				<stop  offset="1" style="stop-color:#4828BE"/>
			</linearGradient>
			<rect x="106.8" y="97.7" class="st7" width="12.9" height="5.2"/>
		</g>
		<g>
			<defs>
				<path id="SVGID_16_" d="M133.1,98.7c-1.3,0.4-1.9,1.4-1.5,2.5c0.4,1.1,1.4,1.7,2.7,1.3c2.4-0.8,4.7-0.8,7,0
					c1.3,0.4,2.4-0.2,2.7-1.3c0.3-1.1-0.2-2.2-1.6-2.5c-1.6-0.4-3.2-0.7-4.8-1C136,98,134.6,98.2,133.1,98.7"/>
			</defs>
			<clipPath id="SVGID_17_">
				<use xlink:href="#SVGID_16_"  style="overflow:visible;"/>
			</clipPath>
			
				<linearGradient id="SVGID_18_" gradientUnits="userSpaceOnUse" x1="-3468.5791" y1="2328.7815" x2="-3468.2493" y2="2328.7815" gradientTransform="matrix(37.9757 0 0 -37.9757 131853.3594 88537.4922)">
				<stop  offset="0" style="stop-color:#E300D6"/>
				<stop  offset="0.4662" style="stop-color:#4828BE"/>
				<stop  offset="1" style="stop-color:#4828BE"/>
			</linearGradient>
			<rect x="131.2" y="97.7" class="st8" width="13" height="5.2"/>
		</g>
		<g>
			<defs>
				<path id="SVGID_19_" d="M113.1,104.4c-1.1,0.2-1.7,1-1.7,2.5c0,1.9,0.4,2.7,1.6,2.9c1.5,0.2,2.4-0.7,2.4-2.6
					c0-1.8-0.7-2.8-2-2.8C113.3,104.4,113.2,104.4,113.1,104.4"/>
			</defs>
			<clipPath id="SVGID_20_">
				<use xlink:href="#SVGID_19_"  style="overflow:visible;"/>
			</clipPath>
			
				<linearGradient id="SVGID_21_" gradientUnits="userSpaceOnUse" x1="-3582.01" y1="2228.9045" x2="-3581.6799" y2="2228.9045" gradientTransform="matrix(12.0943 0 0 -12.0943 43433.3516 27064.252)">
				<stop  offset="0" style="stop-color:#E300D6"/>
				<stop  offset="0.4662" style="stop-color:#4828BE"/>
				<stop  offset="1" style="stop-color:#4828BE"/>
			</linearGradient>
			<rect x="111.4" y="104.4" class="st9" width="4" height="5.6"/>
		</g>
		<g>
			<defs>
				<path id="SVGID_22_" d="M136.1,105.3c-0.3,1.2-0.2,2.5,0.1,3.7c0.1,0.4,1.5,0.8,2.1,0.7c1.2-0.3,1.4-1.4,1.4-2.5
					c0.1-1.2-0.2-2.4-1.5-2.6c-0.1,0-0.1,0-0.2,0C137.3,104.5,136.2,104.9,136.1,105.3"/>
			</defs>
			<clipPath id="SVGID_23_">
				<use xlink:href="#SVGID_22_"  style="overflow:visible;"/>
			</clipPath>
			
				<linearGradient id="SVGID_24_" gradientUnits="userSpaceOnUse" x1="-3596.3347" y1="2220.178" x2="-3596.0046" y2="2220.178" gradientTransform="matrix(11.4167 0 0 -11.4167 41194.3125 25454.3242)">
				<stop  offset="0" style="stop-color:#E300D6"/>
				<stop  offset="0.4662" style="stop-color:#4828BE"/>
				<stop  offset="1" style="stop-color:#4828BE"/>
			</linearGradient>
			<rect x="135.8" y="104.5" class="st10" width="3.9" height="5.3"/>
		</g>
	</g>
</g>
</svg>
