<?xml version="1.0" encoding="utf-8"?>
<!-- Generator: Adobe Illustrator 19.1.0, SVG Export Plug-In . SVG Version: 6.00 Build 0)  -->
<svg version="1.1" id="Layer_1" xmlns="http://www.w3.org/2000/svg" xmlns:xlink="http://www.w3.org/1999/xlink" x="0px" y="0px"
	 viewBox="0 0 250 250" style="enable-background:new 0 0 250 250;" xml:space="preserve">
<style type="text/css">
	.st0{opacity:0.3;}
	.st1{fill:#FFFFFD;}
	.st2{fill:none;stroke:#F4EEE9;stroke-width:9.3745;stroke-linecap:round;stroke-miterlimit:10;}
	.st3{clip-path:url(#SVGID_2_);fill:url(#SVGID_3_);}
	.st4{clip-path:url(#SVGID_5_);fill:url(#SVGID_6_);}
	.st5{clip-path:url(#SVGID_8_);fill:url(#SVGID_9_);}
	.st6{clip-path:url(#SVGID_11_);fill:url(#SVGID_12_);}
	.st7{clip-path:url(#SVGID_14_);fill:url(#SVGID_15_);}
	.st8{clip-path:url(#SVGID_17_);fill:url(#SVGID_18_);}
	.st9{clip-path:url(#SVGID_20_);fill:url(#SVGID_21_);}
	.st10{clip-path:url(#SVGID_23_);fill:url(#SVGID_24_);}
	.st11{clip-path:url(#SVGID_26_);fill:url(#SVGID_27_);}
	.st12{clip-path:url(#SVGID_29_);fill:url(#SVGID_30_);}
	.st13{clip-path:url(#SVGID_32_);fill:url(#SVGID_33_);}
	.st14{clip-path:url(#SVGID_35_);fill:url(#SVGID_36_);}
	.st15{clip-path:url(#SVGID_38_);fill:url(#SVGID_39_);}
	.st16{clip-path:url(#SVGID_41_);fill:url(#SVGID_42_);}
	.st17{clip-path:url(#SVGID_44_);fill:url(#SVGID_45_);}
	.st18{clip-path:url(#SVGID_47_);fill:url(#SVGID_48_);}
	.st19{clip-path:url(#SVGID_50_);fill:url(#SVGID_51_);}
	.st20{clip-path:url(#SVGID_53_);fill:url(#SVGID_54_);}
	.st21{clip-path:url(#SVGID_56_);fill:url(#SVGID_57_);}
</style>
<g>
	<g>
		<g>
			<g class="st0">
				<path d="M196.9,244.8H57.7c-23.4,0-42.4-19-42.4-42.4V61.7c0-23.4,19-42.4,42.4-42.4h139.2c23.4,0,42.4,19,42.4,42.4v140.6
					C239.4,225.8,220.4,244.8,196.9,244.8z"/>
			</g>
			<g>
				<path class="st1" d="M194.6,237.7H55.4c-23.4,0-42.4-19-42.4-42.4V54.7c0-23.4,19-42.4,42.4-42.4h139.2
					c23.4,0,42.4,19,42.4,42.4v140.6C237,218.7,218,237.7,194.6,237.7z"/>
			</g>
		</g>
		<path class="st2" d="M27.2,69c0-23.4,19-42.4,42.4-42.4h16.5"/>
		<path class="st2" d="M222.8,181c0,23.4-19,42.4-42.4,42.4"/>
		<line class="st2" x1="105.8" y1="26.6" x2="129.7" y2="26.6"/>
	</g>
	<g>
		<g>
			<defs>
				<path id="SVGID_1_" d="M182.4,189.7c0-1.8,1.5-3.2,3.2-3.2c1.7,0,3.2,1.5,3.2,3.2c0,1.8-1.4,3.2-3.1,3.3c0,0,0,0-0.1,0
					C183.8,193,182.4,191.5,182.4,189.7 M75.4,189.7c0-1.7,1.5-3.2,3.3-3.2c1.7,0,3.2,1.5,3.2,3.2c0,1.7-1.4,3.2-3.2,3.3
					c0,0,0,0,0,0C76.9,193,75.4,191.5,75.4,189.7 M91.1,162.1h82.1v9.1H91.1V162.1z M108.8,152.6h49.1v6.3h-49.1V152.6z M161.1,159
					v-6.5c6.1,0,12.1,0,18.1,0c1.8,0,3.2,1.5,3.2,3.2c0,1.7-1.3,3.1-3.1,3.2c-2,0.1-4,0.1-5.9,0.1c-0.7,0-1.4,0-2.1,0
					c-1.3,0-2.7,0-4,0C165.2,159,163.1,159,161.1,159 M85.6,159c-0.7,0-1.5-0.2-2.1-0.6c-3.2-1.9-6.3-3.9-9.5-6
					c-1.9-1.2-2.5-3.1-1.5-4.7c1-1.6,3-2,4.9-0.7c2.6,1.6,5.1,3.3,7.7,4.8c0.7,0.4,1.7,0.7,2.5,0.7c5.9,0.1,11.9,0,18,0v6.4
					c-0.5,0-1,0.1-1.4,0.1c-3,0-5.9,0-8.9,0C92.1,159,88.8,159,85.6,159 M125.5,144.2c0.5,0,1,0,1.5,0c9.2,0,18.5,0,27.7,0
					c2.6,0,3.2,0.6,3.2,3.2c0,0.7,0,1.3,0,2.1h-32.4V144.2z M108.9,149.5c-0.1-0.3-0.1-0.4-0.1-0.5c-0.1-4-0.5-5,4.5-4.9
					c3,0.1,6,0,9.2,0c0,1.7,0,3.2,0,4.7c0,0.2-0.5,0.6-0.7,0.6c-2.8,0-5.5,0-8.3,0C111.9,149.5,110.4,149.5,108.9,149.5
					 M121.3,112.1h5.3v2.3h-5.3V112.1z M114.6,109c-1.9,0-3.1-1.3-3.2-3.2c-0.1-2.5,0-5,0-7.5c0-0.3,0.3-0.9,0.6-1
					c2.6-1.2,5.4-1.8,7.8,0.1c4.6,3.5,9.5,3.4,14.6,1.9c0.3-0.1,0.5-0.2,1-0.3c0,2.4,0.1,4.7,0,6.9c-0.1,1.9-1.3,3.1-3.1,3.1
					c-3,0-5.9,0.1-8.9,0.1C120.4,109,117.5,109,114.6,109 M151.4,98.1c0-1.8,0-3.5,0-5.3c0-1.1,0.4-1.6,1.5-1.6
					c11.5,0,23.1,0,34.6,0c1,0,1.5,0.5,1.5,1.5c0,8.9,0,17.8,0,26.7c0,1-0.5,1.5-1.5,1.5c-11.5,0-23.1,0-34.6,0
					c-0.8,0-1.5-0.3-1.5-1.2c0-3.5,0-7.1,0-10.8c1.7,0,3.3-0.1,4.8,0c1.1,0.1,1.8-0.3,2.4-1.1c0.8-1,1.7-1.9,2.6-3
					c1.9,3.3,3.8,6.4,5.7,9.7c1.5-2.4,2.8-4.6,4.3-7c0.4,0.4,0.6,0.7,0.9,1c3.5,3.9,3.5,3.9,8.9,3.4V109c-1,0-2.1-0.1-3.1,0
					c-1,0.1-1.7-0.3-2.3-1.1c-1.5-1.8-3.1-3.6-4.8-5.5c-1.3,2.1-2.5,4.1-3.9,6.3c-1.8-3.1-3.5-6-5.3-9c-1.6,1.8-3.1,3.4-4.4,5.1
					c-0.7,0.9-1.5,1.3-2.7,1.2c-1-0.1-2.1,0-3.3,0C151.4,103.2,151.4,100.6,151.4,98.1 M111.5,81.1c0-1.7,1.3-2.8,3.1-2.8
					c5.9,0,11.9,0,17.8,0c1.8,0,3,1.2,3,3c0.1,4.5,0.1,9.1,0,13.7c0,0.3-0.4,0.8-0.8,1c-4.3,1.8-8.6,2.2-12.7-0.8
					c-2.9-2.1-6.1-2.4-9.4-1.3c-0.3,0.1-0.6,0.2-1.1,0.3C111.4,89.7,111.4,85.4,111.5,81.1 M123.4,73.3c1.3,0,2.3,0.5,3,1.8h-6.1
					C121.1,73.8,122.1,73.3,123.4,73.3 M115.3,67.3c1.1,0,1.9,0.2,2.6,1.1c0.8,0.9,1.6,1.6,2.2,2.1c-1.1,1.6-2,2.9-2.9,4.1
					c-0.2,0.3-0.6,0.5-1,0.6c-0.3,0.1-0.7,0.1-1.1,0c-0.2,0-0.4,0-0.7,0c-3.6,0.2-6.1,2.7-6.1,6.3c0,8.1,0,16.2,0,24.3
					c0,3.6,2.6,6.1,6.2,6.2c1.1,0,2.3,0,3.6,0v5.5c1.2,0,2.2-0.1,3.3,0c0.3,0,0.9,0.6,0.9,0.8c0,7.4,0,14.9,0,22.3
					c0,0.1-0.1,0.3-0.2,0.5c-2.3,0-4.6,0-7,0c-1.4,0-2.9,0-4.3,0c-3.1,0-5.2,2.1-5.3,5.2c0,1,0,1.9,0,3h-5.4V67.4
					c0.5,0,1-0.1,1.5-0.1c1.4,0,2.8,0,4.3,0c1,0,2,0,3,0C111.1,67.3,113.2,67.3,115.3,67.3 M80.5,64.3c-0.7,0-1.5,0.4-2,0.8
					c-1.5,1.4-3,3-4.5,4.5c-1.7-1.8-3.2-3.4-4.6-4.9c-0.9,0.8-1.6,1.4-2.2,1.9c2.4,2.4,4.6,4.6,7,7c1.7-1.7,3.5-3.6,5.4-5.4
					c0.6-0.5,1.5-0.9,2.2-0.9c3.2-0.1,6.4-0.1,9.6,0c1.1,0,2.2,0,3.3,0h2.3v82.2c-3,0-5.9,0-8.8,0c-0.7,0-1.5-0.3-2.1-0.6
					c-2.5-1.5-4.9-3.2-7.5-4.6c-1.2-0.6-2.7-1.1-4.1-1c-3.1,0.1-4.9,2.1-5.8,6c-4.1-2.6-8.2-5.2-12.3-7.8c-0.6,0.9-1,1.7-1.5,2.5
					c0.6,0.4,1.1,0.7,1.6,1c7.8,4.9,15.7,9.8,23.4,14.8c2.2,1.5,4.4,2.6,7.2,2.2c0.2,0,0.5,0,0.7,0.1v9.2c-1.7,0-3.3,0-4.9,0
					c-3.6,0.1-5.8,2.3-5.9,5.9c0,1.7-0.1,3.5,0,5.2c0,0.9-0.2,1.4-1.1,1.8c-2.9,1.4-4.3,4.5-3.3,7.4c0.9,2.8,3.4,4.5,6.4,4.4
					c2.8-0.1,5.1-2.2,5.7-5c0.6-2.7-0.8-5.6-3.5-6.8c-1-0.4-1.2-1-1.2-1.9c0.1-1.7,0-3.4,0-5c0-2,0.9-2.9,2.9-2.9
					c4.3,0,8.6,0,12.9,0c0.4,0,0.7,0.1,1.1,0.1v13.4h-8.3v7.7h3V191h13.9v4.6h3v-7.7h-8.3v-13.5h1.8H149c10.5,0,21.1,0,31.6,0
					c2.7,0,3.5,0.7,3.5,3.5c0,1.3-0.1,2.6,0,3.9c0.1,1.3-0.2,2-1.5,2.6c-2.6,1.2-3.7,4-3.1,6.8c0.5,2.5,2.9,4.6,5.4,4.8
					c2.9,0.2,5.5-1.4,6.5-4c1-2.6,0.3-5.9-2.1-7c-2.6-1.2-2.3-3-2.3-5c0-0.9,0-1.7,0-2.6c0-3.9-2.2-6.1-6.2-6.1c-1.5,0-3,0-4.6,0
					V162H197v-3h-6.2h-6.2c2.3-5.5-1.5-10-6.6-9.5c-2,0.2-4.1,0-6.2,0v-25.7h1.7c4.6,0,9.1,0,13.7,0c3.3,0,4.9-1.5,4.9-4.8
					c0-8.7,0-17.5,0-26.2c0-3.2-1.6-4.8-4.8-4.8c-11.3,0-22.6,0-33.9,0c-3.3,0-4.9,1.5-4.9,4.8c0,8.7,0,17.4,0,26
					c0,3.4,1.5,4.9,4.9,4.9c4.6,0,9.1,0,13.7,0h1.6v25.5c-0.2,0.1-0.3,0.1-0.4,0.1c-1.5,0-3.1,0-4.6,0c-2.6,0-2.6,0-2.7-2.7
					c0-3.7-2-5.6-5.7-5.6c-9.3,0-18.7,0-28,0h-1.6v-23.8h4.2V112c1,0,1.8,0,2.6,0c3.3-0.1,6-2.6,6-5.9c0.1-8.3,0-16.6,0-24.9
					c0-2.6-1.8-5-4.3-5.6c-1-0.3-2.2-0.2-3.3-0.3c-0.4-0.1-1-0.3-1.2-0.6c-1-1.2-1.9-2.6-3-4.2c1.1-1,2.5-2.2,3.7-3.3
					c-0.8-0.9-1.4-1.6-2.2-2.5c-1.6,1.7-3.1,3.3-4.7,5c-1.5-1.6-3-3.1-4.5-4.5c-0.5-0.4-1.2-0.8-1.9-0.8c-6,0-12.1,0-18.1,0
					C92.7,64.3,86.6,64.3,80.5,64.3"/>
			</defs>
			<clipPath id="SVGID_2_">
				<use xlink:href="#SVGID_1_"  style="overflow:visible;"/>
			</clipPath>
			
				<linearGradient id="SVGID_3_" gradientUnits="userSpaceOnUse" x1="-3416.8105" y1="2371.9734" x2="-3416.4805" y2="2371.9734" gradientTransform="matrix(430.1942 0 0 -430.1942 1469947 1020539.25)">
				<stop  offset="0" style="stop-color:#E300D6"/>
				<stop  offset="0.4662" style="stop-color:#4828BE"/>
				<stop  offset="1" style="stop-color:#4828BE"/>
			</linearGradient>
			<rect x="55" y="64.3" class="st3" width="142" height="132"/>
		</g>
		<g>
			<defs>
				<path id="SVGID_4_" d="M90.7,89.3v23.8c2.8,0.6,2.9,0.5,2.9-2.2c0-6.6,0-13.2,0-19.8v-1.8H90.7z"/>
			</defs>
			<clipPath id="SVGID_5_">
				<use xlink:href="#SVGID_4_"  style="overflow:visible;"/>
			</clipPath>
			
				<linearGradient id="SVGID_6_" gradientUnits="userSpaceOnUse" x1="-3557.7815" y1="2175.084" x2="-3557.4514" y2="2175.084" gradientTransform="matrix(8.9128 0 0 -8.9128 31800.5645 19487.627)">
				<stop  offset="0" style="stop-color:#E300D6"/>
				<stop  offset="0.4662" style="stop-color:#4828BE"/>
				<stop  offset="1" style="stop-color:#4828BE"/>
			</linearGradient>
			<rect x="90.7" y="89.3" class="st4" width="2.9" height="24.3"/>
		</g>
		<g>
			<defs>
				<rect id="SVGID_7_" x="141.4" y="177.5" width="24.1" height="2.8"/>
			</defs>
			<clipPath id="SVGID_8_">
				<use xlink:href="#SVGID_7_"  style="overflow:visible;"/>
			</clipPath>
			
				<linearGradient id="SVGID_9_" gradientUnits="userSpaceOnUse" x1="-3432.9814" y1="2353.6094" x2="-3432.6516" y2="2353.6094" gradientTransform="matrix(72.9351 0 0 -72.9351 250526.0938 171839.5469)">
				<stop  offset="0" style="stop-color:#E300D6"/>
				<stop  offset="0.4662" style="stop-color:#4828BE"/>
				<stop  offset="1" style="stop-color:#4828BE"/>
			</linearGradient>
			<rect x="141.4" y="177.5" class="st5" width="24.1" height="2.8"/>
		</g>
		<g>
			<defs>
				<rect id="SVGID_10_" x="133.9" y="177.6" width="4.6" height="2.8"/>
			</defs>
			<clipPath id="SVGID_11_">
				<use xlink:href="#SVGID_10_"  style="overflow:visible;"/>
			</clipPath>
			
				<linearGradient id="SVGID_12_" gradientUnits="userSpaceOnUse" x1="-3511.9829" y1="2259.1428" x2="-3511.6528" y2="2259.1428" gradientTransform="matrix(13.9747 0 0 -13.9747 49212.7891 31749.7539)">
				<stop  offset="0" style="stop-color:#E300D6"/>
				<stop  offset="0.4662" style="stop-color:#4828BE"/>
				<stop  offset="1" style="stop-color:#4828BE"/>
			</linearGradient>
			<rect x="133.9" y="177.6" class="st6" width="4.6" height="2.8"/>
		</g>
		<g>
			<defs>
				<rect id="SVGID_13_" x="90.7" y="81.6" width="2.8" height="4.4"/>
			</defs>
			<clipPath id="SVGID_14_">
				<use xlink:href="#SVGID_13_"  style="overflow:visible;"/>
			</clipPath>
			
				<linearGradient id="SVGID_15_" gradientUnits="userSpaceOnUse" x1="-3563.0398" y1="2163.6116" x2="-3562.7097" y2="2163.6116" gradientTransform="matrix(8.5985 0 0 -8.5985 30727.627 18687.6777)">
				<stop  offset="0" style="stop-color:#E300D6"/>
				<stop  offset="0.4662" style="stop-color:#4828BE"/>
				<stop  offset="1" style="stop-color:#4828BE"/>
			</linearGradient>
			<rect x="90.7" y="81.6" class="st7" width="2.8" height="4.4"/>
		</g>
		<g>
			<defs>
				<path id="SVGID_16_" d="M180.7,62.4c0.1,1.1,0.1,2,0.1,2.8h2.8v-2.9C182.7,62.3,181.7,62.4,180.7,62.4"/>
			</defs>
			<clipPath id="SVGID_17_">
				<use xlink:href="#SVGID_16_"  style="overflow:visible;"/>
			</clipPath>
			
				<linearGradient id="SVGID_18_" gradientUnits="userSpaceOnUse" x1="-3575.7915" y1="2169.7161" x2="-3575.4617" y2="2169.7161" gradientTransform="matrix(9.0505 0 0 -9.0505 32543.2871 19700.6563)">
				<stop  offset="0" style="stop-color:#E300D6"/>
				<stop  offset="0.4662" style="stop-color:#4828BE"/>
				<stop  offset="1" style="stop-color:#4828BE"/>
			</linearGradient>
			<rect x="180.7" y="62.2" class="st8" width="3" height="2.9"/>
		</g>
		<g>
			<defs>
				<path id="SVGID_19_" d="M93.6,56.4v2.8h3c0-1-0.1-1.9-0.1-3C95.4,56.3,94.5,56.3,93.6,56.4"/>
			</defs>
			<clipPath id="SVGID_20_">
				<use xlink:href="#SVGID_19_"  style="overflow:visible;"/>
			</clipPath>
			
				<linearGradient id="SVGID_21_" gradientUnits="userSpaceOnUse" x1="-3555.4658" y1="2169.5225" x2="-3555.1357" y2="2169.5225" gradientTransform="matrix(9.1011 0 0 -9.1011 32452.4609 19802.8477)">
				<stop  offset="0" style="stop-color:#E300D6"/>
				<stop  offset="0.4662" style="stop-color:#4828BE"/>
				<stop  offset="1" style="stop-color:#4828BE"/>
			</linearGradient>
			<rect x="93.6" y="56.2" class="st9" width="3" height="3"/>
		</g>
		<g>
			<defs>
				<path id="SVGID_22_" d="M186.9,62.3v2.9c1,0,2-0.1,2.9-0.1v-2.8H186.9z"/>
			</defs>
			<clipPath id="SVGID_23_">
				<use xlink:href="#SVGID_22_"  style="overflow:visible;"/>
			</clipPath>
			
				<linearGradient id="SVGID_24_" gradientUnits="userSpaceOnUse" x1="-3583.4292" y1="2161.8154" x2="-3583.0991" y2="2161.8154" gradientTransform="matrix(8.7164 0 0 -8.7164 31421.3926 18906.9395)">
				<stop  offset="0" style="stop-color:#E300D6"/>
				<stop  offset="0.4662" style="stop-color:#4828BE"/>
				<stop  offset="1" style="stop-color:#4828BE"/>
			</linearGradient>
			<rect x="186.9" y="62.3" class="st10" width="2.9" height="2.9"/>
		</g>
		<g>
			<defs>
				<path id="SVGID_25_" d="M159.8,72.7c0.1,1,0.1,2,0.1,2.9h2.8v-2.9H159.8z"/>
			</defs>
			<clipPath id="SVGID_26_">
				<use xlink:href="#SVGID_25_"  style="overflow:visible;"/>
			</clipPath>
			
				<linearGradient id="SVGID_27_" gradientUnits="userSpaceOnUse" x1="-3574.9653" y1="2167.0361" x2="-3574.6355" y2="2167.0361" gradientTransform="matrix(8.8331 0 0 -8.8331 31737.9043 19215.834)">
				<stop  offset="0" style="stop-color:#E300D6"/>
				<stop  offset="0.4662" style="stop-color:#4828BE"/>
				<stop  offset="1" style="stop-color:#4828BE"/>
			</linearGradient>
			<rect x="159.8" y="72.7" class="st11" width="2.9" height="2.9"/>
		</g>
		<g>
			<defs>
				<path id="SVGID_28_" d="M60,100.9v2.9h3c0-1.1-0.1-2-0.1-2.9H60z"/>
			</defs>
			<clipPath id="SVGID_29_">
				<use xlink:href="#SVGID_28_"  style="overflow:visible;"/>
			</clipPath>
			
				<linearGradient id="SVGID_30_" gradientUnits="userSpaceOnUse" x1="-3549.5574" y1="2177.1348" x2="-3549.2275" y2="2177.1348" gradientTransform="matrix(8.9935 0 0 -8.9935 31982.7402 19682.332)">
				<stop  offset="0" style="stop-color:#E300D6"/>
				<stop  offset="0.4662" style="stop-color:#4828BE"/>
				<stop  offset="1" style="stop-color:#4828BE"/>
			</linearGradient>
			<rect x="60" y="100.9" class="st12" width="3" height="2.9"/>
		</g>
		<g>
			<defs>
				<rect id="SVGID_31_" x="87.6" y="56.5" width="2.9" height="2.8"/>
			</defs>
			<clipPath id="SVGID_32_">
				<use xlink:href="#SVGID_31_"  style="overflow:visible;"/>
			</clipPath>
			
				<linearGradient id="SVGID_33_" gradientUnits="userSpaceOnUse" x1="-3561.2119" y1="2159.1235" x2="-3560.8818" y2="2159.1235" gradientTransform="matrix(8.6631 0 0 -8.6631 30938.832 18762.6172)">
				<stop  offset="0" style="stop-color:#E300D6"/>
				<stop  offset="0.4662" style="stop-color:#4828BE"/>
				<stop  offset="1" style="stop-color:#4828BE"/>
			</linearGradient>
			<rect x="87.6" y="56.5" class="st13" width="2.9" height="2.8"/>
		</g>
		<g>
			<defs>
				<rect id="SVGID_34_" x="147.9" y="73" width="2.8" height="2.9"/>
			</defs>
			<clipPath id="SVGID_35_">
				<use xlink:href="#SVGID_34_"  style="overflow:visible;"/>
			</clipPath>
			
				<linearGradient id="SVGID_36_" gradientUnits="userSpaceOnUse" x1="-3578.4775" y1="2158.8474" x2="-3578.1475" y2="2158.8474" gradientTransform="matrix(8.4976 0 0 -8.4976 30556.3555 18419.416)">
				<stop  offset="0" style="stop-color:#E300D6"/>
				<stop  offset="0.4662" style="stop-color:#4828BE"/>
				<stop  offset="1" style="stop-color:#4828BE"/>
			</linearGradient>
			<rect x="147.9" y="73" class="st14" width="2.8" height="2.9"/>
		</g>
		<g>
			<defs>
				<path id="SVGID_37_" d="M66,100.8v3c1-0.1,1.9-0.1,2.9-0.1v-2.8H66z"/>
			</defs>
			<clipPath id="SVGID_38_">
				<use xlink:href="#SVGID_37_"  style="overflow:visible;"/>
			</clipPath>
			
				<linearGradient id="SVGID_39_" gradientUnits="userSpaceOnUse" x1="-3556.0249" y1="2169.6914" x2="-3555.6948" y2="2169.6914" gradientTransform="matrix(8.6698 0 0 -8.6698 30895.8594 18913.002)">
				<stop  offset="0" style="stop-color:#E300D6"/>
				<stop  offset="0.4662" style="stop-color:#4828BE"/>
				<stop  offset="1" style="stop-color:#4828BE"/>
			</linearGradient>
			<rect x="66" y="100.8" class="st15" width="2.9" height="3"/>
		</g>
		<g>
			<defs>
				<path id="SVGID_40_" d="M174.7,62.6c0,1,0.1,1.9,0.1,2.8h2.8v-2.8H174.7z"/>
			</defs>
			<clipPath id="SVGID_41_">
				<use xlink:href="#SVGID_40_"  style="overflow:visible;"/>
			</clipPath>
			
				<linearGradient id="SVGID_42_" gradientUnits="userSpaceOnUse" x1="-3575.5771" y1="2168.3188" x2="-3575.2473" y2="2168.3188" gradientTransform="matrix(8.9872 0 0 -8.9872 32309.0391 19551.0137)">
				<stop  offset="0" style="stop-color:#E300D6"/>
				<stop  offset="0.4662" style="stop-color:#4828BE"/>
				<stop  offset="1" style="stop-color:#4828BE"/>
			</linearGradient>
			<rect x="174.7" y="62.6" class="st16" width="3" height="2.8"/>
		</g>
		<g>
			<defs>
				<path id="SVGID_43_" d="M99.6,56.2V59h3c-0.1-1-0.1-1.9-0.1-2.7H99.6z"/>
			</defs>
			<clipPath id="SVGID_44_">
				<use xlink:href="#SVGID_43_"  style="overflow:visible;"/>
			</clipPath>
			
				<linearGradient id="SVGID_45_" gradientUnits="userSpaceOnUse" x1="-3556.0381" y1="2170.595" x2="-3555.708" y2="2170.595" gradientTransform="matrix(9.1498 0 0 -9.1498 32636.6348 19918.0918)">
				<stop  offset="0" style="stop-color:#E300D6"/>
				<stop  offset="0.4662" style="stop-color:#4828BE"/>
				<stop  offset="1" style="stop-color:#4828BE"/>
			</linearGradient>
			<rect x="99.6" y="56.2" class="st17" width="3" height="2.7"/>
		</g>
		<g>
			<defs>
				<rect id="SVGID_46_" x="72" y="100.7" width="2.8" height="2.8"/>
			</defs>
			<clipPath id="SVGID_47_">
				<use xlink:href="#SVGID_46_"  style="overflow:visible;"/>
			</clipPath>
			
				<linearGradient id="SVGID_48_" gradientUnits="userSpaceOnUse" x1="-3562.3384" y1="2162.5969" x2="-3562.0085" y2="2162.5969" gradientTransform="matrix(8.3834 0 0 -8.3834 29936.6484 18232.0898)">
				<stop  offset="0" style="stop-color:#E300D6"/>
				<stop  offset="0.4662" style="stop-color:#4828BE"/>
				<stop  offset="1" style="stop-color:#4828BE"/>
			</linearGradient>
			<rect x="72" y="100.7" class="st18" width="2.8" height="2.8"/>
		</g>
		<g>
			<defs>
				<rect id="SVGID_49_" x="153.9" y="72.9" width="2.8" height="2.7"/>
			</defs>
			<clipPath id="SVGID_50_">
				<use xlink:href="#SVGID_49_"  style="overflow:visible;"/>
			</clipPath>
			
				<linearGradient id="SVGID_51_" gradientUnits="userSpaceOnUse" x1="-3582.2493" y1="2155.7605" x2="-3581.9192" y2="2155.7605" gradientTransform="matrix(8.38 0 0 -8.38 30173.0859 18139.4551)">
				<stop  offset="0" style="stop-color:#E300D6"/>
				<stop  offset="0.4662" style="stop-color:#4828BE"/>
				<stop  offset="1" style="stop-color:#4828BE"/>
			</linearGradient>
			<rect x="153.9" y="72.9" class="st19" width="2.8" height="2.7"/>
		</g>
		<g>
			<defs>
				<rect id="SVGID_52_" x="175.8" y="93.7" width="8.9" height="2.8"/>
			</defs>
			<clipPath id="SVGID_53_">
				<use xlink:href="#SVGID_52_"  style="overflow:visible;"/>
			</clipPath>
			
				<linearGradient id="SVGID_54_" gradientUnits="userSpaceOnUse" x1="-3467.6604" y1="2309.4712" x2="-3467.3303" y2="2309.4712" gradientTransform="matrix(27.1038 0 0 -27.1038 94162.5078 62690.5039)">
				<stop  offset="0" style="stop-color:#E300D6"/>
				<stop  offset="0.4662" style="stop-color:#4828BE"/>
				<stop  offset="1" style="stop-color:#4828BE"/>
			</linearGradient>
			<rect x="175.8" y="93.7" class="st20" width="8.9" height="2.8"/>
		</g>
		<g>
			<defs>
				<rect id="SVGID_55_" x="175.8" y="99.7" width="9" height="2.7"/>
			</defs>
			<clipPath id="SVGID_56_">
				<use xlink:href="#SVGID_55_"  style="overflow:visible;"/>
			</clipPath>
			
				<linearGradient id="SVGID_57_" gradientUnits="userSpaceOnUse" x1="-3467.4873" y1="2310.126" x2="-3467.1575" y2="2310.126" gradientTransform="matrix(27.1914 0 0 -27.1914 94461.7031 62916.6094)">
				<stop  offset="0" style="stop-color:#E300D6"/>
				<stop  offset="0.4662" style="stop-color:#4828BE"/>
				<stop  offset="1" style="stop-color:#4828BE"/>
			</linearGradient>
			<rect x="175.8" y="99.7" class="st21" width="9" height="2.7"/>
		</g>
	</g>
</g>
</svg>
