<?xml version="1.0" encoding="utf-8"?>
<!-- Generator: Adobe Illustrator 19.1.0, SVG Export Plug-In . SVG Version: 6.00 Build 0)  -->
<svg version="1.1" id="Layer_1" xmlns="http://www.w3.org/2000/svg" xmlns:xlink="http://www.w3.org/1999/xlink" x="0px" y="0px"
	 viewBox="0 0 250 250" style="enable-background:new 0 0 250 250;" xml:space="preserve">
<style type="text/css">
	.st0{opacity:0.3;}
	.st1{fill:#FFFFFD;}
	.st2{fill:none;stroke:#F4EEE9;stroke-width:9.3745;stroke-linecap:round;stroke-miterlimit:10;}
	.st3{clip-path:url(#SVGID_2_);fill:url(#SVGID_3_);}
	.st4{clip-path:url(#SVGID_5_);fill:url(#SVGID_6_);}
	.st5{clip-path:url(#SVGID_8_);fill:url(#SVGID_9_);}
</style>
<g>
	<g>
		<g>
			<g class="st0">
				<path d="M196.9,244.8H57.7c-23.4,0-42.4-19-42.4-42.4V61.7c0-23.4,19-42.4,42.4-42.4h139.2c23.4,0,42.4,19,42.4,42.4v140.6
					C239.4,225.8,220.4,244.8,196.9,244.8z"/>
			</g>
			<g>
				<path class="st1" d="M194.6,237.7H55.4c-23.4,0-42.4-19-42.4-42.4V54.7c0-23.4,19-42.4,42.4-42.4h139.2
					c23.4,0,42.4,19,42.4,42.4v140.6C237,218.7,218,237.7,194.6,237.7z"/>
			</g>
		</g>
		<path class="st2" d="M27.2,69c0-23.4,19-42.4,42.4-42.4h16.5"/>
		<path class="st2" d="M222.8,181c0,23.4-19,42.4-42.4,42.4"/>
		<line class="st2" x1="105.8" y1="26.6" x2="129.7" y2="26.6"/>
	</g>
	<g>
		<g>
			<defs>
				<path id="SVGID_1_" d="M115.5,86.4c5-1.3,8-5,10.3-9.6c2.3,4.6,5.2,8.3,10.2,9.6c5,1.3,9.4-0.3,13.7-3.2
					c-0.3,5.1,0.4,9.8,4.1,13.4c3.7,3.7,8.3,4.4,13.5,4.1c-2.9,4.2-4.6,8.6-3.2,13.7c1.3,5,5,8,9.6,10.3c-4.6,2.3-8.3,5.2-9.6,10.2
					c-1.3,5,0.3,9.4,3.2,13.7c-5.1-0.3-9.8,0.4-13.5,4c-3.7,3.7-4.5,8.3-4.1,13.5c-4.2-2.9-8.6-4.5-13.6-3.2c-5,1.3-8,5-10.3,9.6
					c-2.3-4.6-5.2-8.3-10.2-9.6c-5-1.3-9.4,0.3-13.7,3.2c0.3-5.1-0.4-9.8-4-13.4c-3.7-3.7-8.3-4.5-13.5-4.1
					c2.9-4.2,4.5-8.6,3.2-13.6c-1.3-5-5-8-9.6-10.3c4.6-2.3,8.3-5.2,9.6-10.2c1.3-5-0.3-9.4-3.2-13.7c11.2,0.9,18.6-5.8,17.6-17.5
					c3.2,2.2,6.5,3.6,10.1,3.6C113.2,86.8,114.4,86.7,115.5,86.4 M125.2,66.5c-1,0.6-1.5,1.4-1.7,2.5c-0.6,3.1-1.6,6-3.4,8.7
					c-3.1,4.5-7.7,5.7-12.6,3.4c-3-1.4-5.4-3.6-7.6-6c-1-1.2-2.1-1.4-3.2-0.7c-1,0.6-1.2,1.6-0.8,2.9c0.9,2.7,1.6,5.4,1.5,8.3
					c0,1.1-0.2,2.3-0.4,3.4c-0.9,3.9-3.9,6.5-7.9,7.1c-3.5,0.5-6.8-0.2-10.1-1.2c-1.7-0.6-2.8-0.4-3.4,0.7c-0.7,1.1-0.4,2.1,1.1,3.4
					c2.3,2.1,4.3,4.4,5.7,7.3c2.3,4.9,1.1,9.5-3.4,12.6c-2.6,1.8-5.6,2.9-8.7,3.4c-1.1,0.2-1.9,0.7-2.5,1.7v1.4
					c0.6,1,1.4,1.5,2.5,1.7c3.1,0.6,6,1.6,8.7,3.4c4.5,3.1,5.7,7.7,3.4,12.7c-1.4,2.9-3.5,5.3-5.9,7.4c-1.2,1-1.5,2.1-0.8,3.2
					c0.6,1,1.7,1.3,3.2,0.8c2.8-1,5.8-1.6,8.8-1.5c5.8,0.3,9.2,3.5,9.8,9.2c0.3,3.3-0.4,6.4-1.4,9.5c-0.2,0.6-0.4,1.3-0.2,1.7
					c0.3,0.7,1,1.4,1.6,1.7c0.9,0.4,1.7-0.1,2.4-0.9c2.1-2.5,4.5-4.6,7.5-6.1c5-2.4,9.7-1.1,12.8,3.5c1.8,2.7,2.8,5.7,3.4,8.8
					c0.3,1.5,1.1,2.3,2.3,2.3c1.2,0,1.9-0.8,2.2-2.3c0.6-3.2,1.6-6.3,3.6-9c2.2-3.1,5.1-4.8,9.1-4.4c2.1,0.3,4.1,1.1,5.7,2.4
					c1.9,1.5,3.7,3.2,5.5,4.9c0.7,0.7,1.5,1.2,2.4,0.7c0.7-0.3,1.2-1.1,1.6-1.7c0.2-0.4,0-1.1-0.2-1.6c-0.9-2.7-1.5-5.4-1.5-8.2
					c0-6.5,3.9-10.4,10.4-10.5c2.9,0,5.6,0.5,8.3,1.5c0.6,0.2,1.3,0.4,1.7,0.2c0.7-0.3,1.4-1,1.7-1.6c0.4-0.9-0.1-1.7-0.9-2.4
					c-2.6-2.2-4.7-4.7-6.2-7.7c-2.3-4.8-1-9.4,3.4-12.4c2.8-1.9,5.8-2.9,9.1-3.6c1.4-0.3,2.1-1.1,2.2-2.2c0-1.2-0.8-2.1-2.2-2.3
					c-2.8-0.5-5.4-1.4-7.9-2.8c-3.7-2.2-6.1-5.2-5.6-9.8c0.2-2.2,1.1-4.2,2.4-5.9c1.5-1.9,3.1-3.6,4.8-5.3c0.7-0.7,1.3-1.5,0.8-2.4
					c-0.3-0.7-1-1.3-1.7-1.6c-0.4-0.2-1.2,0-1.7,0.2c-3.4,1.1-6.8,1.8-10.4,1.3c-4.4-0.6-7.6-3.7-8.2-8.2c-0.5-3.6,0.2-7,1.3-10.4
					c0.2-0.6,0.4-1.3,0.2-1.7c-0.3-0.7-1-1.4-1.6-1.7c-0.9-0.4-1.7,0.1-2.4,0.9c-2.2,2.5-4.6,4.7-7.6,6.1c-4.9,2.3-9.6,1.1-12.6-3.4
					c-1.8-2.6-2.9-5.6-3.4-8.7c-0.2-1.1-0.7-1.9-1.7-2.5H125.2z"/>
			</defs>
			<clipPath id="SVGID_2_">
				<use xlink:href="#SVGID_1_"  style="overflow:visible;"/>
			</clipPath>
			
				<linearGradient id="SVGID_3_" gradientUnits="userSpaceOnUse" x1="-3421.604" y1="2371.0452" x2="-3421.2739" y2="2371.0452" gradientTransform="matrix(351.8567 0 0 -351.8567 1203982 834392.625)">
				<stop  offset="0" style="stop-color:#E300D6"/>
				<stop  offset="0.4662" style="stop-color:#4828BE"/>
				<stop  offset="1" style="stop-color:#4828BE"/>
			</linearGradient>
			<rect x="67.8" y="66.5" class="st3" width="116.1" height="116.1"/>
		</g>
		<g>
			<defs>
				<path id="SVGID_4_" d="M121.4,90.9c-17,2.3-29.6,16.7-29.6,35.4c0.3,9.6,4.8,18.7,13.7,25.6c2.9,2.2,6.1,3.8,9.5,5
					c1.1,0.4,2.2-0.1,2.7-1c0.5-0.9,0.3-2.1-0.5-2.8c-0.4-0.3-0.9-0.5-1.4-0.7c-12.8-4.6-20.7-17.3-19.3-30.8
					c1.7-16.8,17.5-28.9,34.1-25.9c12.3,2.2,20.4,9.5,23.6,21.5c3.2,12.1-0.5,22.4-10,30.5c-2.6,2.2-5.6,3.8-8.9,4.9
					c-1.6,0.6-2.2,2.2-1.3,3.5c0.6,0.9,1.7,1.1,3,0.7c15.4-5.3,24.8-21,22.3-37.3c-2.5-16.7-17.1-28.9-33.5-28.9
					C124.4,90.5,122.9,90.6,121.4,90.9"/>
			</defs>
			<clipPath id="SVGID_5_">
				<use xlink:href="#SVGID_4_"  style="overflow:visible;"/>
			</clipPath>
			
				<linearGradient id="SVGID_6_" gradientUnits="userSpaceOnUse" x1="-3427.2192" y1="2367.532" x2="-3426.8892" y2="2367.532" gradientTransform="matrix(206.0916 0 0 -206.0916 706412.75 488052.1875)">
				<stop  offset="0" style="stop-color:#E300D6"/>
				<stop  offset="0.4662" style="stop-color:#4828BE"/>
				<stop  offset="1" style="stop-color:#4828BE"/>
			</linearGradient>
			<rect x="91.8" y="90.5" class="st4" width="70.1" height="66.6"/>
		</g>
		<g>
			<defs>
				<path id="SVGID_7_" d="M123.6,156.3c0,1.3,1,2.3,2.3,2.3c1.2,0,2.2-1,2.3-2.2c0-1.2-1-2.3-2.3-2.3h0
					C124.6,154.1,123.6,155.1,123.6,156.3"/>
			</defs>
			<clipPath id="SVGID_8_">
				<use xlink:href="#SVGID_7_"  style="overflow:visible;"/>
			</clipPath>
			
				<linearGradient id="SVGID_9_" gradientUnits="userSpaceOnUse" x1="-3617.606" y1="2253.4272" x2="-3617.2759" y2="2253.4272" gradientTransform="matrix(13.6972 0 0 -13.6972 49674.8125 31022.0938)">
				<stop  offset="0" style="stop-color:#E300D6"/>
				<stop  offset="0.4662" style="stop-color:#4828BE"/>
				<stop  offset="1" style="stop-color:#4828BE"/>
			</linearGradient>
			<rect x="123.5" y="154.1" class="st5" width="4.6" height="4.5"/>
		</g>
	</g>
</g>
</svg>
