<?xml version="1.0" encoding="utf-8"?>
<!-- Generator: Adobe Illustrator 19.1.0, SVG Export Plug-In . SVG Version: 6.00 Build 0)  -->
<svg version="1.1" id="Layer_1" xmlns="http://www.w3.org/2000/svg" xmlns:xlink="http://www.w3.org/1999/xlink" x="0px" y="0px"
	 viewBox="0 0 250 250" style="enable-background:new 0 0 250 250;" xml:space="preserve">
<style type="text/css">
	.st0{opacity:0.3;}
	.st1{fill:#FFFFFD;}
	.st2{fill:none;stroke:#F4EEE9;stroke-width:9.3745;stroke-linecap:round;stroke-miterlimit:10;}
	.st3{clip-path:url(#SVGID_2_);fill:url(#SVGID_3_);}
	.st4{clip-path:url(#SVGID_5_);fill:url(#SVGID_6_);}
	.st5{clip-path:url(#SVGID_8_);fill:url(#SVGID_9_);}
	.st6{clip-path:url(#SVGID_11_);fill:url(#SVGID_12_);}
</style>
<g>
	<g>
		<g>
			<g class="st0">
				<path d="M196.9,244.8H57.7c-23.4,0-42.4-19-42.4-42.4V61.7c0-23.4,19-42.4,42.4-42.4h139.2c23.4,0,42.4,19,42.4,42.4v140.6
					C239.4,225.8,220.4,244.8,196.9,244.8z"/>
			</g>
			<g>
				<path class="st1" d="M194.6,237.7H55.4c-23.4,0-42.4-19-42.4-42.4V54.7c0-23.4,19-42.4,42.4-42.4h139.2
					c23.4,0,42.4,19,42.4,42.4v140.6C237,218.7,218,237.7,194.6,237.7z"/>
			</g>
		</g>
		<path class="st2" d="M27.2,69c0-23.4,19-42.4,42.4-42.4h16.5"/>
		<path class="st2" d="M222.8,181c0,23.4-19,42.4-42.4,42.4"/>
		<line class="st2" x1="105.8" y1="26.6" x2="129.7" y2="26.6"/>
	</g>
	<g>
		<g>
			<defs>
				<path id="SVGID_1_" d="M133.8,175.3h26.4v10.2h-26.4V175.3z M164.3,175.3h24.4v10.2h-24.4V175.3z M159.4,146.9h5.6l2,4.1h-9.7
					L159.4,146.9z M164.3,138.8h24.4v32.5h-54.9v-32.5h26.4v4.1h-2c-0.8,0-1.5,0.4-1.8,1.1l-4.1,8.1c-0.3,0.6-0.3,1.4,0.1,2
					c0.4,0.6,1,1,1.7,1h16.3c0.7,0,1.4-0.4,1.7-1c0.4-0.6,0.4-1.3,0.1-2l-4.1-8.1c-0.3-0.7-1-1.1-1.8-1.1h-2V138.8z M72.8,136.7
					h26.4v48.8H72.8V136.7z M103.3,136.7h26.4v48.8h-26.4V136.7z M72.8,126.6h56.9v6.1H72.8V126.6z M133.8,110.3h6.1v24.4h-6.1
					V110.3z M143.9,110.3h4.1v24.4h-4.1V110.3z M152.1,110.3h4.1v24.4h-4.1V110.3z M160.2,110.3h4.1v24.4h-4.1V110.3z M168.3,110.3
					h4.1v24.4h-4.1V110.3z M176.4,110.3h4.1v24.4h-4.1V110.3z M184.6,110.3h4.1v24.4h-4.1V110.3z M72.8,106.2h4.1v16.3h-4.1V106.2z
					 M80.9,106.2H85v16.3h-4.1V106.2z M89.1,106.2h4.1v16.3h-4.1V106.2z M97.2,106.2h4.1v16.3h-4.1V106.2z M105.3,106.2h4.1v16.3
					h-4.1V106.2z M133.8,100.1h61v6.1h-61V100.1z M72.8,73.7h16.3v28.5H72.8V73.7z M93.1,73.7h16.3v28.5H93.1V73.7z M113.4,73.7
					h16.3v48.8h-16.3V73.7z M72.8,63.6h67.1v6.1H72.8V63.6z M162.2,73.7c0-6.2,2.4-10.2,4.1-10.2c1.7,0,4.1,4,4.1,10.2
					c0,6.2-2.4,10.2-4.1,10.2C164.6,83.9,162.2,79.9,162.2,73.7 M186.6,73.7c0-6.2,2.4-10.2,4.1-10.2c1.7,0,4.1,4,4.1,10.2
					c0,6.2-2.4,10.2-4.1,10.2C189,83.9,186.6,79.9,186.6,73.7 M182.5,73.7c0,6.9,2.5,12.3,6.1,13.8v8.5h-20.3v-8.5
					c3.6-1.5,6.1-6.9,6.1-13.8c0-8.1-3.5-14.2-8.1-14.2c-4.6,0-8.1,6.1-8.1,14.2c0,6.9,2.5,12.3,6.1,13.8v8.5h-30.5V73.7h8.1
					c1.1,0,2-0.9,2-2V61.5c0-1.1-0.9-2-2-2H70.8c-1.1,0-2,0.9-2,2v126c0,1.1,0.9,2,2,2h119.9c1.1,0,2-0.9,2-2v-77.2h4.1
					c1.1,0,2-0.9,2-2V98.1c0-1.1-0.9-2-2-2h-4.1v-8.5c3.6-1.5,6.1-6.9,6.1-13.8c0-8.1-3.5-14.2-8.1-14.2
					C186,59.5,182.5,65.6,182.5,73.7"/>
			</defs>
			<clipPath id="SVGID_2_">
				<use xlink:href="#SVGID_1_"  style="overflow:visible;"/>
			</clipPath>
			
				<linearGradient id="SVGID_3_" gradientUnits="userSpaceOnUse" x1="-3417.1379" y1="2378.4355" x2="-3416.8081" y2="2378.4355" gradientTransform="matrix(394.1731 0 0 -394.1731 1347012.625 937639.8125)">
				<stop  offset="0" style="stop-color:#E300D6"/>
				<stop  offset="0.4662" style="stop-color:#4828BE"/>
				<stop  offset="1" style="stop-color:#4828BE"/>
			</linearGradient>
			<rect x="68.7" y="59.5" class="st3" width="130.1" height="130.1"/>
		</g>
		<g>
			<defs>
				<path id="SVGID_4_" d="M91.1,165.2v4.1c0,1.1,0.9,2,2,2s2-0.9,2-2v-4.1c0-1.1-0.9-2-2-2S91.1,164.1,91.1,165.2"/>
			</defs>
			<clipPath id="SVGID_5_">
				<use xlink:href="#SVGID_4_"  style="overflow:visible;"/>
			</clipPath>
			
				<linearGradient id="SVGID_6_" gradientUnits="userSpaceOnUse" x1="-3518.1023" y1="2460.9712" x2="-3517.7722" y2="2460.9712" gradientTransform="matrix(12.3179 0 0 -12.3179 43426.75 30481.2266)">
				<stop  offset="0" style="stop-color:#E300D6"/>
				<stop  offset="0.4662" style="stop-color:#4828BE"/>
				<stop  offset="1" style="stop-color:#4828BE"/>
			</linearGradient>
			<rect x="91.1" y="163.1" class="st4" width="4.1" height="8.1"/>
		</g>
		<g>
			<defs>
				<path id="SVGID_7_" d="M107.3,165.2v4.1c0,1.1,0.9,2,2,2c1.1,0,2-0.9,2-2v-4.1c0-1.1-0.9-2-2-2
					C108.3,163.1,107.3,164.1,107.3,165.2"/>
			</defs>
			<clipPath id="SVGID_8_">
				<use xlink:href="#SVGID_7_"  style="overflow:visible;"/>
			</clipPath>
			
				<linearGradient id="SVGID_9_" gradientUnits="userSpaceOnUse" x1="-3520.7822" y1="2460.9712" x2="-3520.4521" y2="2460.9712" gradientTransform="matrix(12.3179 0 0 -12.3179 43476.0234 30481.2266)">
				<stop  offset="0" style="stop-color:#E300D6"/>
				<stop  offset="0.4662" style="stop-color:#4828BE"/>
				<stop  offset="1" style="stop-color:#4828BE"/>
			</linearGradient>
			<rect x="107.3" y="163.1" class="st5" width="4.1" height="8.1"/>
		</g>
		<g>
			<defs>
				<path id="SVGID_10_" d="M119.5,81.8v4.1c0,1.1,0.9,2,2,2c1.1,0,2-0.9,2-2v-4.1c0-1.1-0.9-2-2-2
					C120.5,79.8,119.5,80.7,119.5,81.8"/>
			</defs>
			<clipPath id="SVGID_11_">
				<use xlink:href="#SVGID_10_"  style="overflow:visible;"/>
			</clipPath>
			
				<linearGradient id="SVGID_12_" gradientUnits="userSpaceOnUse" x1="-3522.7922" y1="2447.2361" x2="-3522.4622" y2="2447.2361" gradientTransform="matrix(12.3179 0 0 -12.3179 43512.9766 30228.709)">
				<stop  offset="0" style="stop-color:#E300D6"/>
				<stop  offset="0.4662" style="stop-color:#4828BE"/>
				<stop  offset="1" style="stop-color:#4828BE"/>
			</linearGradient>
			<rect x="119.5" y="79.8" class="st6" width="4.1" height="8.1"/>
		</g>
	</g>
</g>
</svg>
