<?xml version="1.0" encoding="utf-8"?>
<!-- Generator: Adobe Illustrator 19.1.0, SVG Export Plug-In . SVG Version: 6.00 Build 0)  -->
<svg version="1.1" id="Layer_1" xmlns="http://www.w3.org/2000/svg" xmlns:xlink="http://www.w3.org/1999/xlink" x="0px" y="0px"
	 viewBox="0 0 250 250" style="enable-background:new 0 0 250 250;" xml:space="preserve">
<style type="text/css">
	.st0{opacity:0.3;}
	.st1{fill:#FFFFFD;}
	.st2{fill:none;stroke:#F4EEE9;stroke-width:9.3745;stroke-linecap:round;stroke-miterlimit:10;}
	.st3{clip-path:url(#SVGID_2_);fill:url(#SVGID_3_);}
	.st4{clip-path:url(#SVGID_5_);fill:url(#SVGID_6_);}
	.st5{clip-path:url(#SVGID_8_);fill:url(#SVGID_9_);}
	.st6{clip-path:url(#SVGID_11_);fill:url(#SVGID_12_);}
	.st7{clip-path:url(#SVGID_14_);fill:url(#SVGID_15_);}
	.st8{clip-path:url(#SVGID_17_);fill:url(#SVGID_18_);}
	.st9{clip-path:url(#SVGID_20_);fill:url(#SVGID_21_);}
</style>
<g>
	<g>
		<g>
			<g class="st0">
				<path d="M196.9,244.8H57.7c-23.4,0-42.4-19-42.4-42.4V61.7c0-23.4,19-42.4,42.4-42.4h139.2c23.4,0,42.4,19,42.4,42.4v140.6
					C239.4,225.8,220.4,244.8,196.9,244.8z"/>
			</g>
			<g>
				<path class="st1" d="M194.6,237.7H55.4c-23.4,0-42.4-19-42.4-42.4V54.7c0-23.4,19-42.4,42.4-42.4h139.2
					c23.4,0,42.4,19,42.4,42.4v140.6C237,218.7,218,237.7,194.6,237.7z"/>
			</g>
		</g>
		<path class="st2" d="M27.2,69c0-23.4,19-42.4,42.4-42.4h16.5"/>
		<path class="st2" d="M222.8,181c0,23.4-19,42.4-42.4,42.4"/>
		<line class="st2" x1="105.8" y1="26.6" x2="129.7" y2="26.6"/>
	</g>
	<g>
		<g>
			<defs>
				<path id="SVGID_1_" d="M102.4,165.4h24.3c0.3,4.2,1.4,8.1,3.4,11.9h-27.6V165.4z M156.8,189.5c-14.5,0-26.1-11.7-26.1-26.2
					c0-14.5,11.7-26.2,26.2-26.2c14.4,0,26.1,11.7,26.2,26.2C183,177.7,171.3,189.5,156.8,189.5
					C156.8,189.5,156.8,189.5,156.8,189.5 M111.3,111.1c-0.6-0.6-0.9-1.3-0.9-2.2c0.1-1.2,0.1-2.4-0.1-3.5c-0.3-2-1.3-3.7-3-4.9
					c-0.7-0.5-0.9-1-0.9-1.8c-0.1-9.9,8.1-18.1,18.1-18.1c10,0,18.2,8.1,18.2,18.1c0,10-8.1,18.1-18.1,18.1c0,0,0,0,0,0
					C119.3,116.9,114.9,114.9,111.3,111.1 M81.8,116.2c-1.1-3.5-3.4-5.8-6.9-7c-0.3-0.1-0.7-0.6-0.7-1c0-6.3,0-12.6,0-18.9
					c0-0.7,0.3-0.9,0.9-1.1c3.4-1.1,5.7-3.4,6.8-6.8c0.1-0.3,0.6-0.8,0.9-0.8c9.4,0,18.9,0,28.3,0c0.1,0,0.2,0.1,0.4,0.2
					c-5.9,4.6-8.9,10.5-9.2,17.8c-0.8,0.2-1.6,0.3-2.4,0.5c-3.3,1-5.6,4.1-5.6,7.6c0,2.9,0,5.8,0,8.7c0,0.4,0,0.9,0,1.4
					c-0.4,0-0.7,0.1-1,0.1c-3.4,0-6.8,0-10.3,0c-0.1,0-0.1,0-0.2,0C82.4,116.9,82,116.9,81.8,116.2 M166.2,116.9
					c-9.4,0-18.7,0-28.1,0c-0.2,0-0.3,0-0.7-0.1c12.3-9.3,12.2-26.8,0.1-36.1c0.4-0.1,0.7-0.1,1-0.1c9.2,0,18.3,0,27.5,0
					c0.8,0,1.1,0.2,1.4,1c1.1,3.3,3.3,5.6,6.6,6.6c0.8,0.3,1,0.6,1,1.4c0,6.1,0,12.3,0,18.4c0,0.8-0.3,1.1-1,1.3
					c-3.3,1.1-5.5,3.3-6.6,6.6C167.2,116.6,167,116.9,166.2,116.9C166.2,116.9,166.2,116.9,166.2,116.9 M66.1,72.6h116.8v52.2h-72.5
					v-8.8c0.3,0.2,0.6,0.3,0.8,0.5c3.7,2.8,8,4.3,12.6,4.3c11.4,0.1,22.8,0.1,34.1,0c4.1,0,8.2,0,12.3,0c0.2,0,0.3,0,0.6-0.1
					c-0.4-5.6,2.3-8.4,8-8V84.6c-2.2,0.1-4.4,0-6.2-1.7c-1.8-1.7-1.9-3.9-1.8-6.3H78.2c0.1,2.2,0,4.4-1.7,6.2
					c-1.7,1.8-3.9,2-6.3,1.8v28.2c2.3,0,4.5,0,6.2,1.8c1.7,1.7,1.9,3.9,1.7,6.2h20.2c0-0.4,0.1-0.9,0.1-1.3c0-4.2,0-8.5,0-12.7
					c0-3.2,3.4-5.1,6.1-3.5c1.5,0.9,2,2.4,2,4.1c0,9.4,0,18.7,0,28.1v1.6c3.1-0.2,6,0.2,8.3,2.2c2.4,2,3.6,4.6,3.7,7.7h3.9
					c1-5.7-4.2-11.8-11.9-13.9v-4h40.2v4.4c-14.1,3.9-22.1,13-24.1,27.7h-20.1c0-0.8-0.1-1.5,0-2.2c0.2-1.7-0.3-3.1-1.3-4.4
					c-1.4-2-2.7-4.1-4.1-6.1c-1.8-2.7-2.7-5.6-2.7-8.8c0-4.4,0-8.9,0-13.3V125H82.2h-16V72.6z M62,68.5v60.6c8.1,0,16.2,0,24.3,0
					c2.6,0,5.2,0,8,0c0,0.6,0,1,0,1.5c0,3.9,0,7.8,0.2,11.7c0.1,3.1,1.4,5.8,3.1,8.4c1.2,1.7,2.2,3.5,3.5,5.1
					c1.3,1.6,1.5,3.4,1.2,5.5h-3.8v20.2h1.6c10.5,0,20.9,0,31.4,0c0.9,0,1.5,0.3,2.1,1c8.3,9.6,18.8,13.3,31.1,10.1
					c12.2-3.3,19.7-11.6,22-24.1c3.1-17-8.8-32.8-25.9-35.1c-1.9-0.2-3.8-0.2-5.8-0.3V129H171h16.1V68.5H62z"/>
			</defs>
			<clipPath id="SVGID_2_">
				<use xlink:href="#SVGID_1_"  style="overflow:visible;"/>
			</clipPath>
			
				<linearGradient id="SVGID_3_" gradientUnits="userSpaceOnUse" x1="-3413.5632" y1="2378.5662" x2="-3413.2332" y2="2378.5662" gradientTransform="matrix(378.8734 0 0 -378.8734 1293370.5 901307.625)">
				<stop  offset="0" style="stop-color:#E300D6"/>
				<stop  offset="0.4662" style="stop-color:#4828BE"/>
				<stop  offset="1" style="stop-color:#4828BE"/>
			</linearGradient>
			<rect x="62" y="68.5" class="st3" width="127.6" height="127.2"/>
		</g>
		<g>
			<defs>
				<path id="SVGID_4_" d="M70.2,76.6v4c1.1,0,2.2,0,3.3,0c0.2,0,0.6-0.3,0.6-0.5c0.1-1.1,0-2.3,0-3.5H70.2z"/>
			</defs>
			<clipPath id="SVGID_5_">
				<use xlink:href="#SVGID_4_"  style="overflow:visible;"/>
			</clipPath>
			
				<linearGradient id="SVGID_6_" gradientUnits="userSpaceOnUse" x1="-3401.5276" y1="2448.6123" x2="-3401.1978" y2="2448.6123" gradientTransform="matrix(11.9372 0 0 -11.9372 40675.0156 29308.2715)">
				<stop  offset="0" style="stop-color:#E300D6"/>
				<stop  offset="0.4662" style="stop-color:#4828BE"/>
				<stop  offset="1" style="stop-color:#4828BE"/>
			</linearGradient>
			<rect x="70.2" y="76.6" class="st4" width="4" height="4"/>
		</g>
		<g>
			<defs>
				<path id="SVGID_7_" d="M175,76.6c0,1.2,0,2.2,0,3.3c0,0.2,0.3,0.6,0.5,0.6c1.1,0.1,2.3,0,3.4,0v-4H175z"/>
			</defs>
			<clipPath id="SVGID_8_">
				<use xlink:href="#SVGID_7_"  style="overflow:visible;"/>
			</clipPath>
			
				<linearGradient id="SVGID_9_" gradientUnits="userSpaceOnUse" x1="-3419.2761" y1="2447.698" x2="-3418.946" y2="2447.698" gradientTransform="matrix(12.0899 0 0 -12.0899 41513.7227 29671.1113)">
				<stop  offset="0" style="stop-color:#E300D6"/>
				<stop  offset="0.4662" style="stop-color:#4828BE"/>
				<stop  offset="1" style="stop-color:#4828BE"/>
			</linearGradient>
			<rect x="174.9" y="76.6" class="st5" width="4" height="4"/>
		</g>
		<g>
			<defs>
				<rect id="SVGID_10_" x="70.2" y="117" width="3.9" height="3.9"/>
			</defs>
			<clipPath id="SVGID_11_">
				<use xlink:href="#SVGID_10_"  style="overflow:visible;"/>
			</clipPath>
			
				<linearGradient id="SVGID_12_" gradientUnits="userSpaceOnUse" x1="-3401.3352" y1="2456.6421" x2="-3401.0051" y2="2456.6421" gradientTransform="matrix(11.7634 0 0 -11.7634 40081.3711 29017.3438)">
				<stop  offset="0" style="stop-color:#E300D6"/>
				<stop  offset="0.4662" style="stop-color:#4828BE"/>
				<stop  offset="1" style="stop-color:#4828BE"/>
			</linearGradient>
			<rect x="70.2" y="117" class="st6" width="3.9" height="3.9"/>
		</g>
		<g>
			<defs>
				<rect id="SVGID_13_" x="175.1" y="117" width="3.9" height="3.9"/>
			</defs>
			<clipPath id="SVGID_14_">
				<use xlink:href="#SVGID_13_"  style="overflow:visible;"/>
			</clipPath>
			
				<linearGradient id="SVGID_15_" gradientUnits="userSpaceOnUse" x1="-3419.4463" y1="2456.7297" x2="-3419.1165" y2="2456.7297" gradientTransform="matrix(11.7512 0 0 -11.7512 40357.668 28988.4727)">
				<stop  offset="0" style="stop-color:#E300D6"/>
				<stop  offset="0.4662" style="stop-color:#4828BE"/>
				<stop  offset="1" style="stop-color:#4828BE"/>
			</linearGradient>
			<rect x="175.1" y="117" class="st7" width="3.9" height="3.9"/>
		</g>
		<g>
			<defs>
				<path id="SVGID_16_" d="M168.8,148c1.1,1.2,2.1,2.3,3.2,3.4c-3.9,3.9-7.9,7.9-11.9,11.9c4,4,8,8,11.9,11.9
					c-1.1,1.1-2.2,2.1-3.3,3.1c-3.8-3.8-7.8-7.8-11.8-11.8c-4.1,4.1-8.1,8.1-12,12c-1.1-1.1-2.2-2.2-3.2-3.2
					c3.9-3.9,7.9-7.9,11.9-11.8c-4.1-4.1-8.1-8-12.1-12c1.2-1.2,2.3-2.1,3.4-3.1c3.8,3.8,7.8,7.8,11.8,11.8
					C160.8,156,164.8,152,168.8,148 M156.5,154.4c-3.9-3.9-7.9-7.9-11.8-11.8c-2.9,2.9-5.8,5.8-8.9,8.9c4,4,8,8,12.1,12.1
					c-4,4-8,7.9-11.9,11.8c3,3,5.9,5.9,9.1,9.1c3.9-3.9,7.9-8,11.9-12.1c4,4,8,8,11.8,11.8c3-3,5.9-5.9,9-8.9
					c-3.9-3.9-7.9-7.9-12.1-12c4.1-4.1,8.1-8,11.9-11.8c-2.9-2.9-5.8-5.8-9-9C164.6,146.2,160.7,150.2,156.5,154.4"/>
			</defs>
			<clipPath id="SVGID_17_">
				<use xlink:href="#SVGID_16_"  style="overflow:visible;"/>
			</clipPath>
			
				<linearGradient id="SVGID_18_" gradientUnits="userSpaceOnUse" x1="-3413.876" y1="2384.1797" x2="-3413.5459" y2="2384.1797" gradientTransform="matrix(126.9947 0 0 -126.9947 433679.8438 302941.4688)">
				<stop  offset="0" style="stop-color:#E300D6"/>
				<stop  offset="0.4662" style="stop-color:#4828BE"/>
				<stop  offset="1" style="stop-color:#4828BE"/>
			</linearGradient>
			<rect x="135.8" y="142.3" class="st8" width="41.9" height="42"/>
		</g>
		<g>
			<defs>
				<path id="SVGID_19_" d="M122.6,84.7c0,1.1,0,2.1,0,3.1c0,0.8-0.2,1.3-1,1.7c-2.2,1.2-3.4,3.6-3.1,5.9c0.4,2.6,2.1,4.5,4.6,5.1
					c0.6,0.1,1.2,0.1,1.8,0.3c1,0.2,1.6,0.9,1.6,2c0,1-0.6,1.7-1.5,1.9c-1,0.2-1.7-0.2-2.2-1.1c-0.1-0.3-0.2-0.6-0.3-0.8h-3.9
					c0.2,2.3,1.1,4.1,3.1,5.1c0.8,0.4,1,0.9,0.9,1.7c0,1,0,2.1,0,3.1h4c0-1,0.1-2,0-2.9c-0.1-1,0.2-1.5,1.1-2
					c2.3-1.3,3.4-3.9,2.8-6.5c-0.6-2.5-2.7-4.4-5.3-4.6c-0.4,0-0.7-0.1-1.1-0.2c-1-0.3-1.5-1-1.5-2c0-1,0.6-1.6,1.5-1.9
					c0.9-0.3,1.7,0.1,2.2,0.9c0.2,0.3,0.3,0.6,0.4,0.9h4c-0.2-2.4-1.3-4.1-3.3-5.2c-0.6-0.3-0.8-0.7-0.8-1.3c0-1.1,0-2.2,0-3.4
					H122.6z"/>
			</defs>
			<clipPath id="SVGID_20_">
				<use xlink:href="#SVGID_19_"  style="overflow:visible;"/>
			</clipPath>
			
				<linearGradient id="SVGID_21_" gradientUnits="userSpaceOnUse" x1="-3412.6155" y1="2400.7097" x2="-3412.2856" y2="2400.7097" gradientTransform="matrix(36.7326 0 0 -36.7326 125472.8516 88283.1328)">
				<stop  offset="0" style="stop-color:#E300D6"/>
				<stop  offset="0.4662" style="stop-color:#4828BE"/>
				<stop  offset="1" style="stop-color:#4828BE"/>
			</linearGradient>
			<rect x="118.2" y="84.7" class="st9" width="12.8" height="28.1"/>
		</g>
	</g>
</g>
</svg>
