<?xml version="1.0" encoding="utf-8"?>
<!-- Generator: Adobe Illustrator 19.1.0, SVG Export Plug-In . SVG Version: 6.00 Build 0)  -->
<svg version="1.1" id="Layer_1" xmlns="http://www.w3.org/2000/svg" xmlns:xlink="http://www.w3.org/1999/xlink" x="0px" y="0px"
	 viewBox="0 0 250 250" style="enable-background:new 0 0 250 250;" xml:space="preserve">
<style type="text/css">
	.st0{opacity:0.3;}
	.st1{fill:#FFFFFD;}
	.st2{fill:none;stroke:#F4EEE9;stroke-width:9.3745;stroke-linecap:round;stroke-miterlimit:10;}
	.st3{clip-path:url(#SVGID_2_);fill:url(#SVGID_3_);}
	.st4{clip-path:url(#SVGID_5_);fill:url(#SVGID_6_);}
	.st5{clip-path:url(#SVGID_8_);fill:url(#SVGID_9_);}
	.st6{clip-path:url(#SVGID_11_);fill:url(#SVGID_12_);}
	.st7{clip-path:url(#SVGID_14_);fill:url(#SVGID_15_);}
	.st8{clip-path:url(#SVGID_17_);fill:url(#SVGID_18_);}
	.st9{clip-path:url(#SVGID_20_);fill:url(#SVGID_21_);}
	.st10{clip-path:url(#SVGID_23_);fill:url(#SVGID_24_);}
	.st11{clip-path:url(#SVGID_26_);fill:url(#SVGID_27_);}
	.st12{clip-path:url(#SVGID_29_);fill:url(#SVGID_30_);}
	.st13{clip-path:url(#SVGID_32_);fill:url(#SVGID_33_);}
	.st14{clip-path:url(#SVGID_35_);fill:url(#SVGID_36_);}
	.st15{clip-path:url(#SVGID_38_);fill:url(#SVGID_39_);}
	.st16{clip-path:url(#SVGID_41_);fill:url(#SVGID_42_);}
	.st17{clip-path:url(#SVGID_44_);fill:url(#SVGID_45_);}
	.st18{clip-path:url(#SVGID_47_);fill:url(#SVGID_48_);}
</style>
<g>
	<g>
		<g>
			<g class="st0">
				<path d="M196.9,244.8H57.7c-23.4,0-42.4-19-42.4-42.4V61.7c0-23.4,19-42.4,42.4-42.4h139.2c23.4,0,42.4,19,42.4,42.4v140.6
					C239.4,225.8,220.4,244.8,196.9,244.8z"/>
			</g>
			<g>
				<path class="st1" d="M194.6,237.7H55.4c-23.4,0-42.4-19-42.4-42.4V54.7c0-23.4,19-42.4,42.4-42.4h139.2
					c23.4,0,42.4,19,42.4,42.4v140.6C237,218.7,218,237.7,194.6,237.7z"/>
			</g>
		</g>
		<path class="st2" d="M27.2,69c0-23.4,19-42.4,42.4-42.4h16.5"/>
		<path class="st2" d="M222.8,181c0,23.4-19,42.4-42.4,42.4"/>
		<line class="st2" x1="105.8" y1="26.6" x2="129.7" y2="26.6"/>
	</g>
	<g>
		<g>
			<defs>
				<path id="SVGID_1_" d="M158.9,156.4c0-5.4,4.2-9.8,9.5-9.8c5.2,0,9.5,4.4,9.5,9.8c0,5.4-4.2,9.8-9.5,9.8
					C163.1,166.1,158.9,161.8,158.9,156.4 M187.2,136.8h4.7v4.9h-4.7V136.8z M121.1,105h23.6v51.3h-23.6V105z M158.9,105h4.7v17.1
					h-4.7V105z M62,80.6c-3.9,0-7.1,3.3-7.1,7.3v4.9h4.7v-4.9c0-1.3,1.1-2.4,2.4-2.4h97.1c1.8,0,3.5,1.1,4.3,2.8l5.5,11.9h-10.1
					c-2.6,0-4.7,2.2-4.7,4.9v17.1c0,2.7,2.1,4.9,4.7,4.9H182l8.4,3.5c0.6,0.3,1.1,0.8,1.3,1.4h-6.9c-1.3,0-2.4,1.1-2.4,2.4v9.8
					c0,1.4,1.1,2.4,2.4,2.4h7.1v9.8h-9.5c0-8.1-6.4-14.7-14.2-14.7s-14.2,6.6-14.2,14.7h-4.7V105c0-2.7-2.1-4.9-4.7-4.9h-23.6
					c-2.6,0-4.7,2.2-4.7,4.9v51.3h-11.8v4.9H155c2,5.7,7.2,9.8,13.4,9.8s11.4-4.1,13.4-9.8h10.3c2.6,0,4.7-2.2,4.7-4.9v-23.6
					c0-3-1.7-5.7-4.5-6.8l-8-3.3l-5.1-11.3l-4.3,2l3.9,8.8h-10.5V105h2.9l2.1,4.7l4.3-2l-2.7-6.1c0,0,0,0,0,0l-7.2-15.4
					c-1.6-3.4-4.9-5.5-8.5-5.5H62z"/>
			</defs>
			<clipPath id="SVGID_2_">
				<use xlink:href="#SVGID_1_"  style="overflow:visible;"/>
			</clipPath>
			
				<linearGradient id="SVGID_3_" gradientUnits="userSpaceOnUse" x1="-3415.1865" y1="2378.241" x2="-3414.8564" y2="2378.241" gradientTransform="matrix(429.5615 0 0 -429.5615 1467087.5 1021726.5625)">
				<stop  offset="0" style="stop-color:#E300D6"/>
				<stop  offset="0.4662" style="stop-color:#4828BE"/>
				<stop  offset="1" style="stop-color:#4828BE"/>
			</linearGradient>
			<rect x="54.9" y="80.6" class="st3" width="141.8" height="90.4"/>
		</g>
		<g>
			<defs>
				<path id="SVGID_4_" d="M76.2,156.4c0-5.4,4.2-9.8,9.5-9.8c5.2,0,9.5,4.4,9.5,9.8c0,5.4-4.2,9.8-9.5,9.8
					C80.4,166.1,76.2,161.8,76.2,156.4 M59.6,136.8h4.7v9.8h-4.7V136.8z M54.9,97.7v58.7c0,2.7,2.1,4.9,4.7,4.9h12.6
					c2,5.7,7.2,9.8,13.4,9.8c7.8,0,14.2-6.6,14.2-14.7c0-8.1-6.4-14.7-14.2-14.7c-7.8,0-14.2,6.6-14.2,14.7H59.6v-4.9h7.1
					c1.3,0,2.4-1.1,2.4-2.4v-14.7c0-1.3-1.1-2.4-2.4-2.4h-7.1V97.7H54.9z"/>
			</defs>
			<clipPath id="SVGID_5_">
				<use xlink:href="#SVGID_4_"  style="overflow:visible;"/>
			</clipPath>
			
				<linearGradient id="SVGID_6_" gradientUnits="userSpaceOnUse" x1="-3417.7466" y1="2383.2043" x2="-3417.4165" y2="2383.2043" gradientTransform="matrix(136.0278 0 0 -136.0278 464963.5313 324316.4688)">
				<stop  offset="0" style="stop-color:#E300D6"/>
				<stop  offset="0.4662" style="stop-color:#4828BE"/>
				<stop  offset="1" style="stop-color:#4828BE"/>
			</linearGradient>
			<rect x="54.9" y="97.7" class="st4" width="44.9" height="73.3"/>
		</g>
		<g>
			<defs>
				<path id="SVGID_7_" d="M80.9,156.4c0,2.7,2.1,4.9,4.7,4.9c2.6,0,4.7-2.2,4.7-4.9c0-2.7-2.1-4.9-4.7-4.9
					C83,151.5,80.9,153.7,80.9,156.4"/>
			</defs>
			<clipPath id="SVGID_8_">
				<use xlink:href="#SVGID_7_"  style="overflow:visible;"/>
			</clipPath>
			
				<linearGradient id="SVGID_9_" gradientUnits="userSpaceOnUse" x1="-3433.6389" y1="2411.7805" x2="-3433.3088" y2="2411.7805" gradientTransform="matrix(28.6374 0 0 -28.6374 98411.5078 69223.5781)">
				<stop  offset="0" style="stop-color:#E300D6"/>
				<stop  offset="0.4662" style="stop-color:#4828BE"/>
				<stop  offset="1" style="stop-color:#4828BE"/>
			</linearGradient>
			<rect x="80.9" y="151.5" class="st5" width="9.5" height="9.8"/>
		</g>
		<g>
			<defs>
				<path id="SVGID_10_" d="M163.6,156.4c0,2.7,2.1,4.9,4.7,4.9s4.7-2.2,4.7-4.9c0-2.7-2.1-4.9-4.7-4.9S163.6,153.7,163.6,156.4"/>
			</defs>
			<clipPath id="SVGID_11_">
				<use xlink:href="#SVGID_10_"  style="overflow:visible;"/>
			</clipPath>
			
				<linearGradient id="SVGID_12_" gradientUnits="userSpaceOnUse" x1="-3439.5015" y1="2411.7805" x2="-3439.1714" y2="2411.7805" gradientTransform="matrix(28.6374 0 0 -28.6374 98662.0859 69223.5781)">
				<stop  offset="0" style="stop-color:#E300D6"/>
				<stop  offset="0.4662" style="stop-color:#4828BE"/>
				<stop  offset="1" style="stop-color:#4828BE"/>
			</linearGradient>
			<rect x="163.6" y="151.5" class="st6" width="9.5" height="9.8"/>
		</g>
		<g>
			<defs>
				<polygon id="SVGID_13_" points="71.5,102.6 71.5,110.4 65.6,106.6 63.1,110.8 69.4,114.8 63.1,118.9 65.6,123 71.5,119.2 
					71.5,127 76.2,127 76.2,119.2 82,123 84.5,118.9 78.3,114.8 84.5,110.8 82,106.6 76.2,110.4 76.2,102.6 				"/>
			</defs>
			<clipPath id="SVGID_14_">
				<use xlink:href="#SVGID_13_"  style="overflow:visible;"/>
			</clipPath>
			
				<linearGradient id="SVGID_15_" gradientUnits="userSpaceOnUse" x1="-3422.1138" y1="2390.4966" x2="-3421.7837" y2="2390.4966" gradientTransform="matrix(64.8642 0 0 -64.8642 222035.7969 155172.4688)">
				<stop  offset="0" style="stop-color:#E300D6"/>
				<stop  offset="0.4662" style="stop-color:#4828BE"/>
				<stop  offset="1" style="stop-color:#4828BE"/>
			</linearGradient>
			<rect x="63.1" y="102.6" class="st7" width="21.4" height="24.4"/>
		</g>
		<g>
			<defs>
				<path id="SVGID_16_" d="M130.5,114.8h4.7v4.9h-4.7V114.8z M128.2,109.9c-1.3,0-2.4,1.1-2.4,2.4v9.8c0,1.3,1.1,2.4,2.4,2.4h9.5
					c1.3,0,2.4-1.1,2.4-2.4v-9.8c0-1.3-1.1-2.4-2.4-2.4H128.2z"/>
			</defs>
			<clipPath id="SVGID_17_">
				<use xlink:href="#SVGID_16_"  style="overflow:visible;"/>
			</clipPath>
			
				<linearGradient id="SVGID_18_" gradientUnits="userSpaceOnUse" x1="-3429.2141" y1="2398.0054" x2="-3428.8843" y2="2398.0054" gradientTransform="matrix(42.9562 0 0 -42.9562 147431.6406 103126.3438)">
				<stop  offset="0" style="stop-color:#E300D6"/>
				<stop  offset="0.4662" style="stop-color:#4828BE"/>
				<stop  offset="1" style="stop-color:#4828BE"/>
			</linearGradient>
			<rect x="125.8" y="109.9" class="st8" width="14.2" height="14.7"/>
		</g>
		<g>
			<defs>
				<rect id="SVGID_19_" x="64.4" y="90.4" width="4.7" height="4.9"/>
			</defs>
			<clipPath id="SVGID_20_">
				<use xlink:href="#SVGID_19_"  style="overflow:visible;"/>
			</clipPath>
			
				<linearGradient id="SVGID_21_" gradientUnits="userSpaceOnUse" x1="-3450.9326" y1="2438.5508" x2="-3450.6028" y2="2438.5508" gradientTransform="matrix(14.3187 0 0 -14.3187 49477.293 35009.7422)">
				<stop  offset="0" style="stop-color:#E300D6"/>
				<stop  offset="0.4662" style="stop-color:#4828BE"/>
				<stop  offset="1" style="stop-color:#4828BE"/>
			</linearGradient>
			<rect x="64.4" y="90.4" class="st9" width="4.7" height="4.9"/>
		</g>
		<g>
			<defs>
				<rect id="SVGID_22_" x="73.8" y="90.4" width="4.7" height="4.9"/>
			</defs>
			<clipPath id="SVGID_23_">
				<use xlink:href="#SVGID_22_"  style="overflow:visible;"/>
			</clipPath>
			
				<linearGradient id="SVGID_24_" gradientUnits="userSpaceOnUse" x1="-3452.2727" y1="2438.5508" x2="-3451.9426" y2="2438.5508" gradientTransform="matrix(14.3187 0 0 -14.3187 49505.9297 35009.7422)">
				<stop  offset="0" style="stop-color:#E300D6"/>
				<stop  offset="0.4662" style="stop-color:#4828BE"/>
				<stop  offset="1" style="stop-color:#4828BE"/>
			</linearGradient>
			<rect x="73.8" y="90.4" class="st10" width="4.7" height="4.9"/>
		</g>
		<g>
			<defs>
				<rect id="SVGID_25_" x="144.7" y="90.4" width="4.7" height="4.9"/>
			</defs>
			<clipPath id="SVGID_26_">
				<use xlink:href="#SVGID_25_"  style="overflow:visible;"/>
			</clipPath>
			
				<linearGradient id="SVGID_27_" gradientUnits="userSpaceOnUse" x1="-3462.3228" y1="2438.5508" x2="-3461.9927" y2="2438.5508" gradientTransform="matrix(14.3187 0 0 -14.3187 49720.7109 35009.7422)">
				<stop  offset="0" style="stop-color:#E300D6"/>
				<stop  offset="0.4662" style="stop-color:#4828BE"/>
				<stop  offset="1" style="stop-color:#4828BE"/>
			</linearGradient>
			<rect x="144.7" y="90.4" class="st11" width="4.7" height="4.9"/>
		</g>
		<g>
			<defs>
				<rect id="SVGID_28_" x="154.1" y="90.4" width="4.7" height="4.9"/>
			</defs>
			<clipPath id="SVGID_29_">
				<use xlink:href="#SVGID_28_"  style="overflow:visible;"/>
			</clipPath>
			
				<linearGradient id="SVGID_30_" gradientUnits="userSpaceOnUse" x1="-3463.6626" y1="2438.5508" x2="-3463.3328" y2="2438.5508" gradientTransform="matrix(14.3187 0 0 -14.3187 49749.3477 35009.7422)">
				<stop  offset="0" style="stop-color:#E300D6"/>
				<stop  offset="0.4662" style="stop-color:#4828BE"/>
				<stop  offset="1" style="stop-color:#4828BE"/>
			</linearGradient>
			<rect x="154.1" y="90.4" class="st12" width="4.7" height="4.9"/>
		</g>
		<g>
			<defs>
				<path id="SVGID_31_" d="M92.7,105h14.2v14.7H92.7V105z M92.7,100.2c-2.6,0-4.7,2.2-4.7,4.9v14.7c0,2.7,2.1,4.9,4.7,4.9h14.2
					c2.6,0,4.7-2.2,4.7-4.9V105c0-2.7-2.1-4.9-4.7-4.9H92.7z"/>
			</defs>
			<clipPath id="SVGID_32_">
				<use xlink:href="#SVGID_31_"  style="overflow:visible;"/>
			</clipPath>
			
				<linearGradient id="SVGID_33_" gradientUnits="userSpaceOnUse" x1="-3422.0566" y1="2389.0647" x2="-3421.7266" y2="2389.0647" gradientTransform="matrix(71.5936 0 0 -71.5936 245085.2813 171154.0781)">
				<stop  offset="0" style="stop-color:#E300D6"/>
				<stop  offset="0.4662" style="stop-color:#4828BE"/>
				<stop  offset="1" style="stop-color:#4828BE"/>
			</linearGradient>
			<rect x="88" y="100.2" class="st13" width="23.6" height="24.4"/>
		</g>
		<g>
			<defs>
				<rect id="SVGID_34_" x="73.8" y="131.9" width="37.8" height="4.9"/>
			</defs>
			<clipPath id="SVGID_35_">
				<use xlink:href="#SVGID_34_"  style="overflow:visible;"/>
			</clipPath>
			
				<linearGradient id="SVGID_36_" gradientUnits="userSpaceOnUse" x1="-3418.7842" y1="2384.5552" x2="-3418.4541" y2="2384.5552" gradientTransform="matrix(114.5497 0 0 -114.5497 391694.625 273284.5625)">
				<stop  offset="0" style="stop-color:#E300D6"/>
				<stop  offset="0.4662" style="stop-color:#4828BE"/>
				<stop  offset="1" style="stop-color:#4828BE"/>
			</linearGradient>
			<rect x="73.8" y="131.9" class="st14" width="37.8" height="4.9"/>
		</g>
		<g>
			<defs>
				<rect id="SVGID_37_" x="125.8" y="131.9" width="14.2" height="4.9"/>
			</defs>
			<clipPath id="SVGID_38_">
				<use xlink:href="#SVGID_37_"  style="overflow:visible;"/>
			</clipPath>
			
				<linearGradient id="SVGID_39_" gradientUnits="userSpaceOnUse" x1="-3429.2141" y1="2398.814" x2="-3428.8843" y2="2398.814" gradientTransform="matrix(42.9562 0 0 -42.9562 147431.6406 103178.1875)">
				<stop  offset="0" style="stop-color:#E300D6"/>
				<stop  offset="0.4662" style="stop-color:#4828BE"/>
				<stop  offset="1" style="stop-color:#4828BE"/>
			</linearGradient>
			<rect x="125.8" y="131.9" class="st15" width="14.2" height="4.9"/>
		</g>
		<g>
			<defs>
				<rect id="SVGID_40_" x="154.1" y="131.9" width="23.6" height="4.9"/>
			</defs>
			<clipPath id="SVGID_41_">
				<use xlink:href="#SVGID_40_"  style="overflow:visible;"/>
			</clipPath>
			
				<linearGradient id="SVGID_42_" gradientUnits="userSpaceOnUse" x1="-3423.9326" y1="2389.6885" x2="-3423.6025" y2="2389.6885" gradientTransform="matrix(71.5936 0 0 -71.5936 245285.7344 171220.7344)">
				<stop  offset="0" style="stop-color:#E300D6"/>
				<stop  offset="0.4662" style="stop-color:#4828BE"/>
				<stop  offset="1" style="stop-color:#4828BE"/>
			</linearGradient>
			<rect x="154.1" y="131.9" class="st16" width="23.6" height="4.9"/>
		</g>
		<g>
			<defs>
				<rect id="SVGID_43_" x="83.3" y="90.4" width="56.7" height="4.9"/>
			</defs>
			<clipPath id="SVGID_44_">
				<use xlink:href="#SVGID_43_"  style="overflow:visible;"/>
			</clipPath>
			
				<linearGradient id="SVGID_45_" gradientUnits="userSpaceOnUse" x1="-3417.301" y1="2381.2126" x2="-3416.9709" y2="2381.2126" gradientTransform="matrix(171.8246 0 0 -171.8246 587259.625 409243.7188)">
				<stop  offset="0" style="stop-color:#E300D6"/>
				<stop  offset="0.4662" style="stop-color:#4828BE"/>
				<stop  offset="1" style="stop-color:#4828BE"/>
			</linearGradient>
			<rect x="83.3" y="90.4" class="st17" width="56.7" height="4.9"/>
		</g>
		<g>
			<defs>
				<rect id="SVGID_46_" x="104.5" y="146.6" width="7.1" height="4.9"/>
			</defs>
			<clipPath id="SVGID_47_">
				<use xlink:href="#SVGID_46_"  style="overflow:visible;"/>
			</clipPath>
			
				<linearGradient id="SVGID_48_" gradientUnits="userSpaceOnUse" x1="-3442.4185" y1="2423.0142" x2="-3442.0884" y2="2423.0142" gradientTransform="matrix(21.4781 0 0 -21.4781 74041.0547 52190.7188)">
				<stop  offset="0" style="stop-color:#E300D6"/>
				<stop  offset="0.4662" style="stop-color:#4828BE"/>
				<stop  offset="1" style="stop-color:#4828BE"/>
			</linearGradient>
			<rect x="104.5" y="146.6" class="st18" width="7.1" height="4.9"/>
		</g>
	</g>
</g>
</svg>
