<?xml version="1.0" encoding="utf-8"?>
<!-- Generator: Adobe Illustrator 19.1.0, SVG Export Plug-In . SVG Version: 6.00 Build 0)  -->
<svg version="1.1" id="Layer_1" xmlns="http://www.w3.org/2000/svg" xmlns:xlink="http://www.w3.org/1999/xlink" x="0px" y="0px"
	 viewBox="0 0 250 250" style="enable-background:new 0 0 250 250;" xml:space="preserve">
<style type="text/css">
	.st0{opacity:0.3;}
	.st1{fill:#FFFFFD;}
	.st2{fill:none;stroke:#F4EEE9;stroke-width:9.3745;stroke-linecap:round;stroke-miterlimit:10;}
	.st3{clip-path:url(#SVGID_2_);fill:url(#SVGID_3_);}
	.st4{clip-path:url(#SVGID_5_);fill:url(#SVGID_6_);}
	.st5{clip-path:url(#SVGID_8_);fill:url(#SVGID_9_);}
	.st6{clip-path:url(#SVGID_11_);fill:url(#SVGID_12_);}
	.st7{clip-path:url(#SVGID_14_);fill:url(#SVGID_15_);}
</style>
<g>
	<g>
		<g>
			<g class="st0">
				<path d="M196.9,244.8H57.7c-23.4,0-42.4-19-42.4-42.4V61.7c0-23.4,19-42.4,42.4-42.4h139.2c23.4,0,42.4,19,42.4,42.4v140.6
					C239.4,225.8,220.4,244.8,196.9,244.8z"/>
			</g>
			<g>
				<path class="st1" d="M194.6,237.7H55.4c-23.4,0-42.4-19-42.4-42.4V54.7c0-23.4,19-42.4,42.4-42.4h139.2
					c23.4,0,42.4,19,42.4,42.4v140.6C237,218.7,218,237.7,194.6,237.7z"/>
			</g>
		</g>
		<path class="st2" d="M27.2,69c0-23.4,19-42.4,42.4-42.4h16.5"/>
		<path class="st2" d="M222.8,181c0,23.4-19,42.4-42.4,42.4"/>
		<line class="st2" x1="105.8" y1="26.6" x2="129.7" y2="26.6"/>
	</g>
	<g>
		<g>
			<defs>
				<path id="SVGID_1_" d="M83.5,166.5L83.5,166.5c0,0.9,0.5,0.6,1.4,0.6h4.4H93c1,0,1.4,0.2,1.4-0.5v11.9c-0.7,0.3-4.7,0-5.1,0
					h-3.9c-0.9,0-1.8-0.4-1.8,0.6V166.5z M158.7,166.5h4.2h0.9h0v12.9c-0.7,0.6-5,0.2-5.8,0.2H154H153c0,0,0,0,0,0.1v-13.2h0.7
					c0.5,0.1,1.1,0.1,1.8,0.1C156.8,166.6,158.3,166.5,158.7,166.5 M167.9,64.2h-22.1H89.6H75.8c-4.9,0-8.7,2.7-10.6,7.2
					c-0.8,2-0.5,4.9-0.5,7v44.8c0,3.9,6.1,3.9,6.1,0V78.4c0-2.2-0.4-4.8,1.1-6.6c1.4-1.7,3.5-1.5,5.5-1.5h17.8h57H171
					c1.4,0,2.8-0.1,4.1,0.3c2.9,0.7,3.1,3.4,3.1,5.8v48.9v24.5c0,4,1.2,10.7-4.9,10.7h-9.2c-2.4-0.3-5,0-7.1,0c-0.5,0-1,0-1.5,0
					H81.6h-5.5c-0.8,0-1.5-0.1-2.2-0.3c-2.9-0.8-3.1-3.6-3.1-6c0-3.9-6.1-3.9-6.1,0c0,6,2.7,11.2,9.1,12.2c1.2,0.2,2.4,0.2,3.6,0.2
					c-0.3,2.6,0,5.5,0,8.1c0,3.6-0.6,7.1,3,9.3c2.7,1.6,7.6,0.7,10.6,0.7c3.6,0,8.3,0.1,9.3-4.4c0.1-0.3,0.2-0.6,0.2-1v-8.7
					c0-1.3,0.1-2.7-0.1-4h46.5c-0.2,2.6,0,5.4,0,8.1c0,3.3-0.8,7.9,2.4,10c2.9,1.9,7.3,1.2,10.6,1.2c3.8,0,8.9,0.2,9.9-4.6
					c0.1-0.3,0.2-0.6,0.2-1v-9.1c0-1.4,0.1-3,0-4.5h1.6c6.6,0,12.6-3.4,12.6-10.8v-44.9V84.4c0-4.2,1-10.5-1.1-14.4
					c-3.1-5.5-8.3-5.8-13.7-5.8C168.9,64.2,168.4,64.2,167.9,64.2"/>
			</defs>
			<clipPath id="SVGID_2_">
				<use xlink:href="#SVGID_1_"  style="overflow:visible;"/>
			</clipPath>
			
				<linearGradient id="SVGID_3_" gradientUnits="userSpaceOnUse" x1="-3413.5588" y1="2371.1985" x2="-3413.229" y2="2371.1985" gradientTransform="matrix(362.9685 0 0 -362.9685 1239079.125 860795.6875)">
				<stop  offset="0" style="stop-color:#E300D6"/>
				<stop  offset="0.4662" style="stop-color:#4828BE"/>
				<stop  offset="1" style="stop-color:#4828BE"/>
			</linearGradient>
			<rect x="64.4" y="64.2" class="st3" width="120.8" height="122.1"/>
		</g>
		<g>
			<defs>
				<path id="SVGID_4_" d="M64.7,134.9v5.6c0,3.9,6.1,3.9,6.1,0v-5.6c0-2-1.5-2.9-3-2.9C66.3,132,64.7,133,64.7,134.9"/>
			</defs>
			<clipPath id="SVGID_5_">
				<use xlink:href="#SVGID_4_"  style="overflow:visible;"/>
			</clipPath>
			
				<linearGradient id="SVGID_6_" gradientUnits="userSpaceOnUse" x1="-3405.2808" y1="2282.4014" x2="-3404.9507" y2="2282.4014" gradientTransform="matrix(18.3465 0 0 -18.3465 62539.6797 42012.2539)">
				<stop  offset="0" style="stop-color:#E300D6"/>
				<stop  offset="0.4662" style="stop-color:#4828BE"/>
				<stop  offset="1" style="stop-color:#4828BE"/>
			</linearGradient>
			<rect x="64.7" y="132" class="st4" width="6.1" height="12.4"/>
		</g>
		<g>
			<defs>
				<path id="SVGID_7_" d="M159.5,139.8c-0.4,0-0.2-5.8-0.2-6.7h1.4v6.7C160.1,139.8,159.7,139.8,159.5,139.8 M166.8,133.2h0.7
					c0.4,0,0.2,5.8,0.2,6.7c0,0-0.4,0.1-0.9,0.1V133.2z M159.5,105.4c-0.4,0-0.2-5.8-0.2-6.7h1.4v6.7
					C160.1,105.4,159.7,105.4,159.5,105.4 M166.8,102.5v-3.7h0.7c0.4,0,0.2,5.8,0.2,6.7c0,0-0.4,0.1-0.9,0.1V102.5z M85,145V94.7
					v-8.9c0-1.9-0.1-4.4,2.7-4.4h15.9h51.8c1.9,0,4.4-0.4,5.2,1.7c0.5,1.3,0.1,3.4,0.1,4.8v4.6c-3.7,0.3-6.9,1.5-7.4,6.1
					c-0.6,4.9-0.4,12.7,6.2,12.7c0.4,0,0.8,0,1.2,0v1.5v14.1c-3.7,0.3-6.9,1.5-7.4,6.1c-0.6,4.9-0.4,12.7,6.2,12.7
					c0.4,0,0.8,0,1.2,0v0.7c-0.2,2.9-3,2.5-5.1,2.5h-9h-28.2H93.1h-5.3C85.1,149.2,85,146.9,85,145 M85.9,75.6
					c-8.1,1.8-7,10.2-7,16.5v51.5c0,2.1-0.1,4.2,0.6,6.3c1.4,3.8,5.1,5.4,8.9,5.4h19.4h37.3h11.4c5.2,0,9.4-2.5,10.2-7.8
					c0.1-0.2,0.1-0.5,0.1-0.8c0-0.2,0-0.3,0-0.5v-0.3c3.2-0.3,5.9-1.4,6.8-4.9c0.1-0.3,0.2-0.7,0.2-1.1c0-0.3,0-0.5,0-0.7
					c0.1-4.9,0.6-12-6.3-12c-0.2,0-0.5,0-0.7,0v-15.6c3.2-0.3,5.9-1.4,6.8-4.9c0.1-0.3,0.2-0.7,0.2-1.1c0-0.3,0-0.5,0-0.7
					c0.1-4.9,0.6-12-6.3-12c-0.2,0-0.5,0-0.7,0v-8.4c0-4.8-3.7-8.9-8.6-8.9h-4.5h-53h-9.7c-0.8,0-1.7,0-2.5,0
					C87.5,75.4,86.7,75.4,85.9,75.6"/>
			</defs>
			<clipPath id="SVGID_8_">
				<use xlink:href="#SVGID_7_"  style="overflow:visible;"/>
			</clipPath>
			
				<linearGradient id="SVGID_9_" gradientUnits="userSpaceOnUse" x1="-3413.5435" y1="2369.8689" x2="-3413.2136" y2="2369.8689" gradientTransform="matrix(287.419 0 0 -287.419 981196.3125 681260.75)">
				<stop  offset="0" style="stop-color:#E300D6"/>
				<stop  offset="0.4662" style="stop-color:#4828BE"/>
				<stop  offset="1" style="stop-color:#4828BE"/>
			</linearGradient>
			<rect x="77.8" y="75.4" class="st5" width="96.5" height="79.9"/>
		</g>
		<g>
			<defs>
				<path id="SVGID_10_" d="M105.5,117.8c-0.2-9.4,7.7-17,16.9-17.2c9.5-0.2,16.7,8.1,16.9,17.2c-0.2,9.4-7.4,17-16.9,17.2
					c-0.1,0-0.2,0-0.3,0C112.7,135,105.7,126.8,105.5,117.8 M99.5,117.8c-0.3,12.7,10.5,23,22.9,23.2c12.6,0.3,22.4-10.7,22.9-22.8
					c0-0.1,0-0.3,0-0.4c0-0.1,0-0.3,0-0.4c-0.5-12.5-10.2-22.5-22.9-22.8c-0.2,0-0.3,0-0.5,0C109.3,94.6,99.7,105.7,99.5,117.8"/>
			</defs>
			<clipPath id="SVGID_11_">
				<use xlink:href="#SVGID_10_"  style="overflow:visible;"/>
			</clipPath>
			
				<linearGradient id="SVGID_12_" gradientUnits="userSpaceOnUse" x1="-3413.3552" y1="2363.3428" x2="-3413.0254" y2="2363.3428" gradientTransform="matrix(138.8363 0 0 -138.8363 473997.1875 328235.7813)">
				<stop  offset="0" style="stop-color:#E300D6"/>
				<stop  offset="0.4662" style="stop-color:#4828BE"/>
				<stop  offset="1" style="stop-color:#4828BE"/>
			</linearGradient>
			<rect x="99.2" y="94.6" class="st6" width="46.1" height="46.7"/>
		</g>
		<g>
			<defs>
				<path id="SVGID_13_" d="M118.2,117.8c-0.3-5.1,7.4-5,7.7,0c-0.1,2.5-2,3.8-3.8,3.8S118.4,120.3,118.2,117.8 M112.2,117.8
					c-0.3,5.6,4.7,9.7,9.9,10c5.2,0.3,9.1-4.2,9.8-9c0.1-0.3,0.1-0.6,0.1-1c0-0.4,0-0.7-0.1-1c-0.7-5.1-4.5-8.7-9.8-9
					c-0.2,0-0.3,0-0.5,0C116.2,107.8,112.4,112.8,112.2,117.8"/>
			</defs>
			<clipPath id="SVGID_14_">
				<use xlink:href="#SVGID_13_"  style="overflow:visible;"/>
			</clipPath>
			
				<linearGradient id="SVGID_15_" gradientUnits="userSpaceOnUse" x1="-3412.938" y1="2346.7043" x2="-3412.6079" y2="2346.7043" gradientTransform="matrix(59.9845 0 0 -59.9845 204835.4844 140883.7969)">
				<stop  offset="0" style="stop-color:#E300D6"/>
				<stop  offset="0.4662" style="stop-color:#4828BE"/>
				<stop  offset="1" style="stop-color:#4828BE"/>
			</linearGradient>
			<rect x="111.9" y="107.8" class="st7" width="20.1" height="20.3"/>
		</g>
	</g>
</g>
</svg>
