<?xml version="1.0" encoding="utf-8"?>
<!-- Generator: Adobe Illustrator 19.1.0, SVG Export Plug-In . SVG Version: 6.00 Build 0)  -->
<svg version="1.1" id="Layer_1" xmlns="http://www.w3.org/2000/svg" xmlns:xlink="http://www.w3.org/1999/xlink" x="0px" y="0px"
	 viewBox="0 0 250 250" style="enable-background:new 0 0 250 250;" xml:space="preserve">
<style type="text/css">
	.st0{opacity:0.3;}
	.st1{fill:#FFFFFD;}
	.st2{fill:none;stroke:#F4EEE9;stroke-width:9.3745;stroke-linecap:round;stroke-miterlimit:10;}
	.st3{clip-path:url(#SVGID_2_);fill:url(#SVGID_3_);}
	.st4{clip-path:url(#SVGID_5_);fill:url(#SVGID_6_);}
	.st5{clip-path:url(#SVGID_8_);fill:url(#SVGID_9_);}
	.st6{clip-path:url(#SVGID_11_);fill:url(#SVGID_12_);}
	.st7{clip-path:url(#SVGID_14_);fill:url(#SVGID_15_);}
	.st8{clip-path:url(#SVGID_17_);fill:url(#SVGID_18_);}
	.st9{clip-path:url(#SVGID_20_);fill:url(#SVGID_21_);}
	.st10{clip-path:url(#SVGID_23_);fill:url(#SVGID_24_);}
	.st11{clip-path:url(#SVGID_26_);fill:url(#SVGID_27_);}
	.st12{clip-path:url(#SVGID_29_);fill:url(#SVGID_30_);}
	.st13{clip-path:url(#SVGID_32_);fill:url(#SVGID_33_);}
	.st14{clip-path:url(#SVGID_35_);fill:url(#SVGID_36_);}
</style>
<g>
	<g>
		<g>
			<g class="st0">
				<path d="M196.9,244.8H57.7c-23.4,0-42.4-19-42.4-42.4V61.7c0-23.4,19-42.4,42.4-42.4h139.2c23.4,0,42.4,19,42.4,42.4v140.6
					C239.4,225.8,220.4,244.8,196.9,244.8z"/>
			</g>
			<g>
				<path class="st1" d="M194.6,237.7H55.4c-23.4,0-42.4-19-42.4-42.4V54.7c0-23.4,19-42.4,42.4-42.4h139.2
					c23.4,0,42.4,19,42.4,42.4v140.6C237,218.7,218,237.7,194.6,237.7z"/>
			</g>
		</g>
		<path class="st2" d="M27.2,69c0-23.4,19-42.4,42.4-42.4h16.5"/>
		<path class="st2" d="M222.8,181c0,23.4-19,42.4-42.4,42.4"/>
		<line class="st2" x1="105.8" y1="26.6" x2="129.7" y2="26.6"/>
	</g>
	<g>
		<g>
			<defs>
				<path id="SVGID_1_" d="M144.9,148.9c9.1,4.1,18.1,4.1,27.1,0c-0.3,4.4-6.5,9.5-12.1,9.9c-0.4,0-0.7,0-1.1,0
					C152.2,158.9,146,154.6,144.9,148.9 M193.9,120.5c1-0.6,1.3-1.8,0.6-3.1c-1-2-2.7-2.9-4.9-3.3v-3c3.9,0.4,6.7,3.5,6.6,7.4
					c-0.1,3.8-3,6.8-6.9,7c0.1-2.3,0.2-4.6,0.4-7.2c0.5,0.6,0.9,0.9,1.2,1.3c0.6,0.7,1.2,1.1,1.9,1.1
					C193.2,120.9,193.5,120.8,193.9,120.5 M120.7,119.2c-0.3-4.1,2.3-7.4,6.6-8v2.7c-1.2,0.6-2.5,1.1-3.5,1.9
					c-0.7,0.5-1.2,1.4-1.6,2.2c-0.5,1.1-0.1,2.1,1,2.7c1.1,0.5,2,0.2,2.7-0.7c0.4-0.4,0.7-0.9,1.4-1.6c0.1,2.7,0.2,5,0.4,7.3
					c-0.1,0-0.1,0-0.2,0C124,125.6,121,122.7,120.7,119.2 M56.7,110.1c0-3.8,3.1-7.1,6.7-7.1c0,0.4,0,0.9,0,1.3
					c0.1,1.1-0.1,1.7-1.4,2c-1.7,0.3-2.9,1.5-3.7,3c-0.6,1.2-0.3,2.3,0.7,2.9c1,0.6,2.2,0.3,3-0.7c0.3-0.4,0.6-0.7,1-1.1
					c0.1,0.1,0.2,0.1,0.3,0.2v6.8C59.7,117.3,56.7,114,56.7,110.1 M125.7,102.9c0.6,0.1,1.1,0.2,1.6,0.3v3.5
					c-0.3,0.1-0.5,0.1-0.8,0.2c-0.2,0-0.5,0.1-0.8,0.1V102.9z M158.5,147.7c-12.7,0-24-9-26.1-21.3c-0.8-4.5-0.5-9.2-0.6-13.8
					c0-0.4,0.7-0.9,1.2-1.1c4.1-2,8.3-3.8,12.3-6.1c5.6-3.3,10.1-7.9,13.3-13.8c2.9,5.3,6.8,9.3,11.6,12.7c4.3,3,8.9,5.3,13.8,7.1
					c1.1,0.4,1.5,0.9,1.4,2.1c-0.3,4.3,0.1,8.7-0.7,13C182.4,138.7,171.1,147.7,158.5,147.7C158.5,147.7,158.5,147.7,158.5,147.7
					 M77.8,114.1c-1-2.2-2-4.5-2.8-6.8c-1.4-4.1-2.4-8.3-3.8-12.4c-0.6-1.8-1.9-3.3-2.9-4.9c-0.2-0.4-0.4-0.9-0.4-1.3
					c1.1-13.6,12.8-24.3,26.6-24.3c13.8,0,25.4,10.5,26.7,24.2c0,0.4,0,1-0.2,1.2c-2.3,2-3.1,4.8-4,7.6c-1.2,3.9-2.3,7.9-3.5,11.7
					c-0.6,1.8-1.5,3.5-2.4,5.2c-0.5,1-1.4,1.4-2.6,1.2c-1.5-0.4-3.2-0.6-4.6-1.2c-6.3-2.9-12.5-2.9-18.8,0c-1.3,0.6-2.9,0.8-4.3,1.2
					c-0.3,0.1-0.6,0.1-0.8,0.1C79,115.6,78.2,115.1,77.8,114.1 M157.6,64.2c4.9-0.3,9.5,2.1,11.8,6.3c-7.2-2.5-14.2-2.6-21.3-0.2
					C149.2,67.3,153.7,64.4,157.6,64.2 M142.4,71.9c-0.2,0.8-0.8,1.6-1.5,2.1c-6.2,4.4-10.5,10.3-12.5,17.7
					c-0.6,2.3-0.9,4.7-1.3,7.1c-0.5-0.1-1-0.1-1.6-0.2c0-2.1,0.1-4.3,0-6.4c-0.1-2.3-0.2-4.5-0.6-6.8c-2.8-16.4-19.6-28-35.9-24.9
					c-15.3,3-25.7,15.5-25.7,31.2c0,2.3,0,4.5,0,6.7c-6.9,1.5-10.8,5.5-11,11.2c-0.1,2.7,0.6,5.1,2.2,7.3c2.2,3,5.2,4.5,8.8,4.9
					c0.6,6.9,3.1,13,7.5,18.2c-0.2,0.3-0.3,0.5-0.4,0.6c-4.9,5.9-7.2,12.8-7.1,20.4c0,8.2,0,16.5,0,24.7c0,0.4,0,0.9,0,1.3
					c0.2,1.2,0.9,2,2.1,2c1.2,0,1.9-0.7,2.1-1.9c0.1-0.4,0-0.9,0-1.3c0-8.5,0-17,0-25.5c0-5.9,1.8-11.3,5.4-16
					c0.3-0.4,0.7-0.8,1-1.2c1.2,0.9,2.2,1.7,3.3,2.4c1,0.6,2.1,0.4,2.8-0.6c0.7-1,0.5-2-0.3-2.9c-0.2-0.2-0.5-0.3-0.7-0.5
					c-7.5-5.5-11.3-12.9-11.4-22.3c0-6.5,0-12.9,0-19.4v-1.2c0.4,0.4,0.5,0.7,0.6,1.1c0.9,3,1.6,6.1,2.7,9c1,2.8,2.2,5.5,3.7,8.1
					c1.3,2.2,3.5,3.3,6,2.7c2.5-0.5,5-1.1,7.3-2c4.4-1.7,8.6-1.8,12.9,0c1.8,0.8,3.7,1.4,5.6,1.8c4.3,0.9,6.6-0.2,8.7-4
					c0.5-0.9,1-1.8,1.3-2.7c0.9-2.7,1.8-5.4,2.6-8.1c0.6-2,1.2-4,1.8-6c0.3,3,0.2,6,0.3,9c0,0.9-0.3,1.4-0.9,1.9
					c-4.5,3.9-5.6,10.7-1.8,15.3c1.7,2.1,1.3,3.7,0.4,5.6c-0.3,0.7-0.7,1.4-1,2.1c-6,10.8-18.3,16-30.2,12.9
					c-2.1-0.5-3.2-0.1-3.5,1.3c-0.4,1.4,0.4,2.4,2.5,2.9c1.9,0.4,3.7,0.7,5.7,1.1v1.7c0,11.1,0,22.2,0,33.3c0,0.5,0,1,0,1.4
					c0.2,1.1,0.9,1.8,2.1,1.8c1.2,0,1.9-0.7,2.1-1.8c0.1-0.5,0-1,0-1.4c0-11.1,0-22.3,0-33.4v-1.7c7-0.6,13-3.1,18.3-7.6
					c4.1,5,6.3,10.5,6.3,16.7c0.1,8.8,0,17.7,0,26.5c0,1.8,0.8,2.8,2.2,2.8c1.3,0,2.1-1,2.1-2.7c0-8.8,0.1-17.7,0-26.5
					c-0.1-7-2.4-13.3-6.8-18.8c-0.3-0.3-0.5-0.7-0.5-0.7c2.1-3.7,4.1-7.3,6.1-10.8c1,0.1,2.2,0.2,3.4,0.5c0.5,0.1,1.1,0.5,1.3,1
					c1.4,3.6,3.2,7,5.8,9.9c1.2,1.3,2.6,2.5,3.9,3.7c-0.2,0.3-0.3,0.4-0.3,0.5c-0.2,0.2-0.4,0.3-0.5,0.5c-5.9,5.4-9.7,12-10.2,20
					c-0.5,6.7-0.2,13.5-0.3,20.2c0,0.5,0,1,0,1.4c0.2,1.1,0.9,1.8,2.1,1.8c1.2,0,1.9-0.7,2.1-1.8c0.1-0.4,0-0.9,0-1.3
					c0-5.9-0.1-11.9,0-17.8c0.1-7.1,2.9-13.2,7.8-18.3c0.2-0.2,0.4-0.3,0.7-0.5c3.1,8.4,8.9,13.5,18,13.6c9.3,0.1,15.3-5,18.4-13.6
					c0.3,0.3,0.6,0.5,0.9,0.8c4.9,5,7.5,11.1,7.6,18.1c0.1,6,0,12.1,0,18.1c0,1.8,0.8,2.8,2.2,2.8c1.3,0,2.1-1,2.1-2.7
					c0-6,0.1-12.1,0-18.1c-0.1-6.3-1.9-12.1-5.6-17.2c-1.6-2.2-3.6-4.2-5.5-6.4c0,0,0.2-0.2,0.4-0.4c4.2-3.7,7.2-8.1,9-13.4
					c0.3-0.8,0.7-0.9,1.5-1c5-0.3,8.6-2.8,10.5-7.5c0.3-0.8,0.5-1.6,0.8-2.5v-3.5c-0.2-0.4-0.3-0.9-0.5-1.3
					c-1.3-4.2-4.1-6.9-8.3-8.1c-0.7-0.2-1.4-0.3-2.2-0.4c0-2.3,0-4.6,0-6.8c0-3.5-0.5-7-1.7-10.4c-0.1-0.2-0.1-0.4-0.2-0.5
					c-0.6-1.6-1.6-2.2-2.8-1.7c-1.3,0.4-1.8,1.6-1.2,3.2c2.1,5.4,1.6,11.1,1.6,16.8c-5.1-1.9-9.8-4.2-14-7.5
					c-5.1-4-9.2-8.6-10.7-15.1c-0.2-1-1-1.7-2.1-1.7c-1.2,0-1.8,0.7-2.1,1.8c-0.5,1.6-1,3.4-1.8,4.9c-5,9.1-13.4,13.9-22.8,17.7
					c0-2.8,0-5.4,0-8c0.2-8.4,3.5-15.3,9.9-20.5c11.5-9.3,27.8-7.6,37.5,3.7c1.2,1.4,2.4,1.7,3.5,0.9c1.1-0.9,1.2-2.3-0.2-3.6
					c-2-2-4.2-3.8-6.2-5.8c-0.5-0.5-1.1-1.2-1.3-1.9c-2-7.1-8.7-12.2-16.1-12.3c0,0-0.1,0-0.1,0C151.3,59.9,144.6,64.8,142.4,71.9"
					/>
			</defs>
			<clipPath id="SVGID_2_">
				<use xlink:href="#SVGID_1_"  style="overflow:visible;"/>
			</clipPath>
			
				<linearGradient id="SVGID_3_" gradientUnits="userSpaceOnUse" x1="-3418.2588" y1="2375.1172" x2="-3417.9285" y2="2375.1172" gradientTransform="matrix(449.0141 0 0 -449.0141 1534898.625 1066584.25)">
				<stop  offset="0" style="stop-color:#E300D6"/>
				<stop  offset="0.4662" style="stop-color:#4828BE"/>
				<stop  offset="1" style="stop-color:#4828BE"/>
			</linearGradient>
			<rect x="52.3" y="57.4" class="st3" width="148.3" height="131.9"/>
		</g>
		<g>
			<defs>
				<path id="SVGID_4_" d="M73.6,163.9c0,7.6,0,15.1,0,22.7c0,1.7,0.9,2.7,2.2,2.6c1.3,0,2.1-1,2.1-2.6c0-3.8,0-7.5,0-11.3
					c0-3.8,0-7.6,0-11.4c0-1.7-0.8-2.7-2.1-2.7c0,0,0,0,0,0C74.5,161.2,73.6,162.2,73.6,163.9"/>
			</defs>
			<clipPath id="SVGID_5_">
				<use xlink:href="#SVGID_4_"  style="overflow:visible;"/>
			</clipPath>
			
				<linearGradient id="SVGID_6_" gradientUnits="userSpaceOnUse" x1="-3563.6658" y1="2353.4346" x2="-3563.3359" y2="2353.4346" gradientTransform="matrix(13.0637 0 0 -13.0637 46628.1836 30919.7324)">
				<stop  offset="0" style="stop-color:#E300D6"/>
				<stop  offset="0.4662" style="stop-color:#4828BE"/>
				<stop  offset="1" style="stop-color:#4828BE"/>
			</linearGradient>
			<rect x="73.6" y="161.2" class="st4" width="4.3" height="28"/>
		</g>
		<g>
			<defs>
				<path id="SVGID_7_" d="M113.2,161.2c-1.3,0-2.1,1-2.1,2.7c0,3.8,0,7.5,0,11.3c0,3.8,0,7.6,0,11.4c0,1.6,0.8,2.6,2.1,2.6
					c1.3,0,2.2-1,2.2-2.6c0-7.6,0-15.1,0-22.7C115.4,162.2,114.6,161.2,113.2,161.2C113.3,161.2,113.3,161.2,113.2,161.2"/>
			</defs>
			<clipPath id="SVGID_8_">
				<use xlink:href="#SVGID_7_"  style="overflow:visible;"/>
			</clipPath>
			
				<linearGradient id="SVGID_9_" gradientUnits="userSpaceOnUse" x1="-3569.3997" y1="2353.4487" x2="-3569.0698" y2="2353.4487" gradientTransform="matrix(13.0719 0 0 -13.0719 46769.8359 30939.1875)">
				<stop  offset="0" style="stop-color:#E300D6"/>
				<stop  offset="0.4662" style="stop-color:#4828BE"/>
				<stop  offset="1" style="stop-color:#4828BE"/>
			</linearGradient>
			<rect x="111.1" y="161.2" class="st5" width="4.3" height="28"/>
		</g>
		<g>
			<defs>
				<path id="SVGID_10_" d="M178.5,170.4c-1.3,0-2.1,0.9-2.2,2.5c0,4.6,0,9.2,0,13.9c0,1.6,0.9,2.5,2.2,2.5c1.2,0,2-1,2-2.5
					c0-2.3,0-4.6,0-6.9c0-2.3,0-4.6,0-6.9C180.6,171.2,179.9,170.4,178.5,170.4C178.5,170.4,178.5,170.4,178.5,170.4"/>
			</defs>
			<clipPath id="SVGID_11_">
				<use xlink:href="#SVGID_10_"  style="overflow:visible;"/>
			</clipPath>
			
				<linearGradient id="SVGID_12_" gradientUnits="userSpaceOnUse" x1="-3579.3362" y1="2354.1851" x2="-3579.0061" y2="2354.1851" gradientTransform="matrix(13.0872 0 0 -13.0872 47019.6836 30989.4043)">
				<stop  offset="0" style="stop-color:#E300D6"/>
				<stop  offset="0.4662" style="stop-color:#4828BE"/>
				<stop  offset="1" style="stop-color:#4828BE"/>
			</linearGradient>
			<rect x="176.3" y="170.4" class="st6" width="4.3" height="18.9"/>
		</g>
		<g>
			<defs>
				<path id="SVGID_13_" d="M136.3,172.9c0,2.3,0,4.5,0,6.8c0,2.3,0,4.6,0,6.9c0,1.6,0.8,2.6,2,2.6c1.3,0.1,2.2-0.9,2.2-2.6
					c0-4.6,0-9.1,0-13.7c0-1.6-0.8-2.5-2.1-2.5h0C137.1,170.4,136.3,171.2,136.3,172.9"/>
			</defs>
			<clipPath id="SVGID_14_">
				<use xlink:href="#SVGID_13_"  style="overflow:visible;"/>
			</clipPath>
			
				<linearGradient id="SVGID_15_" gradientUnits="userSpaceOnUse" x1="-3573.3938" y1="2354.1477" x2="-3573.0637" y2="2354.1477" gradientTransform="matrix(13.0648 0 0 -13.0648 46821.8555 30936.2129)">
				<stop  offset="0" style="stop-color:#E300D6"/>
				<stop  offset="0.4662" style="stop-color:#4828BE"/>
				<stop  offset="1" style="stop-color:#4828BE"/>
			</linearGradient>
			<rect x="136.3" y="170.4" class="st7" width="4.3" height="18.9"/>
		</g>
		<g>
			<defs>
				<path id="SVGID_16_" d="M86.5,121.8c-0.9,0.9-0.8,2.2,0.3,3.2c2.2,2.1,4.8,3.1,7.4,3.1c3.4-0.1,5.9-1.1,8-3.1
					c1-1,1.1-2.2,0.3-3.1c-0.8-0.9-2-0.9-3.1-0.1c-3.5,2.7-6.3,2.7-9.8,0c-0.5-0.4-1.1-0.6-1.6-0.6C87.5,121.1,87,121.3,86.5,121.8"
					/>
			</defs>
			<clipPath id="SVGID_17_">
				<use xlink:href="#SVGID_16_"  style="overflow:visible;"/>
			</clipPath>
			
				<linearGradient id="SVGID_18_" gradientUnits="userSpaceOnUse" x1="-3452.1821" y1="2368.3357" x2="-3451.8521" y2="2368.3357" gradientTransform="matrix(51.8642 0 0 -51.8642 179130.5 122956.1953)">
				<stop  offset="0" style="stop-color:#E300D6"/>
				<stop  offset="0.4662" style="stop-color:#4828BE"/>
				<stop  offset="1" style="stop-color:#4828BE"/>
			</linearGradient>
			<rect x="85.7" y="120.9" class="st8" width="17.6" height="7.1"/>
		</g>
		<g>
			<defs>
				<path id="SVGID_19_" d="M76.1,86.1c-1.4,0.8-1.8,2-1.1,3.1c0.7,1.1,1.9,1.4,3.3,0.6c7.3-4.1,15-4.9,23.1-3.5
					c3.4,0.6,6.6,1.8,9.6,3.5c0.7,0.4,1.8,0.3,2.5-0.1c0.5-0.3,0.9-1.4,0.8-2.1c-0.1-0.7-0.9-1.4-1.5-1.7
					c-5.6-3.3-11.7-4.5-18.2-4.5C88,81.5,81.8,82.7,76.1,86.1"/>
			</defs>
			<clipPath id="SVGID_20_">
				<use xlink:href="#SVGID_19_"  style="overflow:visible;"/>
			</clipPath>
			
				<linearGradient id="SVGID_21_" gradientUnits="userSpaceOnUse" x1="-3430.3394" y1="2372.0234" x2="-3430.0095" y2="2372.0234" gradientTransform="matrix(119.7958 0 0 -119.7958 411014.8125 284244.375)">
				<stop  offset="0" style="stop-color:#E300D6"/>
				<stop  offset="0.4662" style="stop-color:#4828BE"/>
				<stop  offset="1" style="stop-color:#4828BE"/>
			</linearGradient>
			<rect x="74.3" y="81.4" class="st9" width="40" height="9.2"/>
		</g>
		<g>
			<defs>
				<path id="SVGID_22_" d="M80.6,77.6c-1.7,0.6-2.3,1.7-1.8,3c0.5,1.2,1.6,1.6,3.3,1c4.7-1.8,9.6-2.4,14.6-2.1
					c3.6,0.2,7.1,0.9,10.6,2.2c1.9,0.7,3.6-0.4,3.1-2.1c-0.2-0.8-1.1-1.6-1.8-1.9c-4.5-1.8-9.2-2.6-13.7-2.5c-0.1,0-0.1,0-0.2,0
					C89.6,75.1,85,75.9,80.6,77.6"/>
			</defs>
			<clipPath id="SVGID_23_">
				<use xlink:href="#SVGID_22_"  style="overflow:visible;"/>
			</clipPath>
			
				<linearGradient id="SVGID_24_" gradientUnits="userSpaceOnUse" x1="-3434.3555" y1="2370.9106" x2="-3434.0256" y2="2370.9106" gradientTransform="matrix(96.5477 0 0 -96.5477 331657.6563 228984.6406)">
				<stop  offset="0" style="stop-color:#E300D6"/>
				<stop  offset="0.4662" style="stop-color:#4828BE"/>
				<stop  offset="1" style="stop-color:#4828BE"/>
			</linearGradient>
			<rect x="78.2" y="75.1" class="st10" width="32.6" height="7.3"/>
		</g>
		<g>
			<defs>
				<path id="SVGID_25_" d="M105,104.8c-0.1,0.9,0,1.7,0,2.6h0c0,1-0.1,2,0,3c0.1,1.2,0.8,1.9,2,1.9c1.2,0.1,2.1-0.6,2.2-1.8
					c0.1-2,0.1-3.9,0-5.9c-0.1-1.2-0.9-1.9-2.1-1.9c0,0,0,0-0.1,0C105.9,102.7,105.1,103.6,105,104.8"/>
			</defs>
			<clipPath id="SVGID_26_">
				<use xlink:href="#SVGID_25_"  style="overflow:visible;"/>
			</clipPath>
			
				<linearGradient id="SVGID_27_" gradientUnits="userSpaceOnUse" x1="-3569.6047" y1="2342.6909" x2="-3569.2747" y2="2342.6909" gradientTransform="matrix(12.9747 0 0 -12.9747 46419.4766 30503.2344)">
				<stop  offset="0" style="stop-color:#E300D6"/>
				<stop  offset="0.4662" style="stop-color:#4828BE"/>
				<stop  offset="1" style="stop-color:#4828BE"/>
			</linearGradient>
			<rect x="105" y="102.7" class="st11" width="4.3" height="9.7"/>
		</g>
		<g>
			<defs>
				<path id="SVGID_28_" d="M79.8,104.7c-0.1,1.9-0.1,3.7,0,5.6c0.1,1.3,1,2.1,2.2,2c1.2-0.1,2-0.8,2-2c0-0.9,0-1.8,0-2.7h0
					c0-0.9,0-1.8,0-2.7c-0.1-1.3-0.9-2.1-2-2.2c0,0,0,0-0.1,0C80.8,102.7,79.9,103.5,79.8,104.7"/>
			</defs>
			<clipPath id="SVGID_29_">
				<use xlink:href="#SVGID_28_"  style="overflow:visible;"/>
			</clipPath>
			
				<linearGradient id="SVGID_30_" gradientUnits="userSpaceOnUse" x1="-3565.4775" y1="2342.7292" x2="-3565.1475" y2="2342.7292" gradientTransform="matrix(12.99 0 0 -12.99 46395.3438 30539.6641)">
				<stop  offset="0" style="stop-color:#E300D6"/>
				<stop  offset="0.4662" style="stop-color:#4828BE"/>
				<stop  offset="1" style="stop-color:#4828BE"/>
			</linearGradient>
			<rect x="79.7" y="102.7" class="st12" width="4.3" height="9.8"/>
		</g>
		<g>
			<defs>
				<path id="SVGID_31_" d="M164.1,121.6c-1.3-1.3-1.2-3.3,0.4-4.8c1.3,1.3,2.5,1.1,3.7,0c1.6,1.5,1.8,3.3,0.4,4.7
					c-0.6,0.6-1.5,1-2.3,1C165.5,122.5,164.7,122.2,164.1,121.6 M148.5,121.7c-1.5-1.3-1.4-3.2,0.3-4.9c1.2,1.3,2.5,1.2,3.7,0.1
					c1.6,1.3,1.8,3.2,0.6,4.6c-0.6,0.7-1.5,1.1-2.4,1.1C149.8,122.5,149.1,122.3,148.5,121.7 M164.2,111.1c0,0.7-0.2,1.1-0.9,1.4
					c-1.8,0.7-3,2.1-3.8,3.8c-0.2,0.4-0.6,0.8-0.9,0.8c-0.4,0-0.8-0.5-1.1-0.8c-1.2-1.2-2.2-2.5-3.5-3.5c-0.7-0.6-1.3-0.9-1.3-1.9
					c0-1.3-1-2.1-2.2-2.1c-1.2,0-2.1,0.9-2.1,2.1c0,1-0.4,1.4-1.2,1.8c-3.2,1.5-4.8,5-4,8.5c0.8,3.3,3.9,5.7,7.3,5.7
					c3,0,5.4-1.6,6.9-4.5c0.2-0.4,0.6-0.8,0.9-0.8c0.4,0,0.9,0.5,1.1,0.8c1.6,3.3,4.7,4.9,8.2,4.3c3.1-0.5,5.6-3.1,6.1-6.2
					c0.5-3.5-1.1-6.5-4.3-8c-0.7-0.3-0.9-0.6-0.9-1.4c0-1.5-0.8-2.4-2.1-2.4c0,0,0,0,0,0C165.1,108.8,164.2,109.6,164.2,111.1"/>
			</defs>
			<clipPath id="SVGID_32_">
				<use xlink:href="#SVGID_31_"  style="overflow:visible;"/>
			</clipPath>
			
				<linearGradient id="SVGID_33_" gradientUnits="userSpaceOnUse" x1="-3436.53" y1="2371.5771" x2="-3436.2002" y2="2371.5771" gradientTransform="matrix(93.0445 0 0 -93.0445 319893.25 220780.1563)">
				<stop  offset="0" style="stop-color:#E300D6"/>
				<stop  offset="0.4662" style="stop-color:#4828BE"/>
				<stop  offset="1" style="stop-color:#4828BE"/>
			</linearGradient>
			<rect x="142.5" y="108.7" class="st13" width="31.7" height="18.5"/>
		</g>
		<g>
			<defs>
				<path id="SVGID_34_" d="M165.8,128.7c-3.9,3.9-10.6,4-14.7,0c-1.1-1.1-2.5-1-3.3,0c-0.8,1-0.7,2.1,0.4,3.2c2.8,2.7,6.2,4,9,4
					c5,0,8.8-1.5,11.4-4.1c1.1-1.1,1.2-2.2,0.3-3.2c-0.4-0.5-1-0.7-1.5-0.7C166.9,128,166.4,128.2,165.8,128.7"/>
			</defs>
			<clipPath id="SVGID_35_">
				<use xlink:href="#SVGID_34_"  style="overflow:visible;"/>
			</clipPath>
			
				<linearGradient id="SVGID_36_" gradientUnits="userSpaceOnUse" x1="-3445.1826" y1="2370.335" x2="-3444.8525" y2="2370.335" gradientTransform="matrix(67.5018 0 0 -67.5018 232703.4688 160133.8125)">
				<stop  offset="0" style="stop-color:#E300D6"/>
				<stop  offset="0.4662" style="stop-color:#4828BE"/>
				<stop  offset="1" style="stop-color:#4828BE"/>
			</linearGradient>
			<rect x="147" y="127.7" class="st14" width="22.9" height="8.3"/>
		</g>
	</g>
</g>
</svg>
