<?xml version="1.0" encoding="utf-8"?>
<!-- Generator: Adobe Illustrator 19.1.0, SVG Export Plug-In . SVG Version: 6.00 Build 0)  -->
<svg version="1.1" id="Layer_1" xmlns="http://www.w3.org/2000/svg" xmlns:xlink="http://www.w3.org/1999/xlink" x="0px" y="0px"
	 viewBox="0 0 250 250" style="enable-background:new 0 0 250 250;" xml:space="preserve">
<style type="text/css">
	.st0{opacity:0.3;}
	.st1{fill:#FFFFFD;}
	.st2{fill:none;stroke:#F4EEE9;stroke-width:9.3745;stroke-linecap:round;stroke-miterlimit:10;}
	.st3{clip-path:url(#SVGID_2_);fill:url(#SVGID_3_);}
	.st4{clip-path:url(#SVGID_5_);fill:url(#SVGID_6_);}
</style>
<g>
	<g>
		<g>
			<g class="st0">
				<path d="M196.9,244.8H57.7c-23.4,0-42.4-19-42.4-42.4V61.7c0-23.4,19-42.4,42.4-42.4h139.2c23.4,0,42.4,19,42.4,42.4v140.6
					C239.4,225.8,220.4,244.8,196.9,244.8z"/>
			</g>
			<g>
				<path class="st1" d="M194.6,237.7H55.4c-23.4,0-42.4-19-42.4-42.4V54.7c0-23.4,19-42.4,42.4-42.4h139.2
					c23.4,0,42.4,19,42.4,42.4v140.6C237,218.7,218,237.7,194.6,237.7z"/>
			</g>
		</g>
		<path class="st2" d="M27.2,69c0-23.4,19-42.4,42.4-42.4h16.5"/>
		<path class="st2" d="M222.8,181c0,23.4-19,42.4-42.4,42.4"/>
		<line class="st2" x1="105.8" y1="26.6" x2="129.7" y2="26.6"/>
	</g>
	<g>
		<g>
			<defs>
				<path id="SVGID_1_" d="M102.7,181.5h13c1.2,0,2.2,1,2.2,2.2c0,1.2-1,2.2-2.2,2.2h-13V181.5z M65.9,183.6c0-1.2,1-2.2,2.2-2.2
					c0.2,0,8.9-2.2,8.9-2.2h8.1c0,0,8.7,2.2,8.9,2.2c1.2,0,2.2,1,2.2,2.2c0,1.2-1,2.2-2.2,2.2c-0.8,0-1.5-0.4-1.9-1.1
					c-0.4-0.7-1.1-1.1-1.9-1.1H71.8c-0.8,0-1.5,0.4-1.9,1.1c-0.4,0.7-1.1,1.1-1.9,1.1C66.9,185.8,65.9,184.8,65.9,183.6 M78.9,164.2
					h17.3c1.2,0,2.2-1,2.2-2.2v-4.3h2.2c0.8,0,1.5-0.1,2.2-0.4l-4.3,21.5c-1.1-1-2.5-1.6-4.1-1.7l-6.8-1.7v-7h-4.3v6.5h-4.3V164.2z
					 M98.3,149h2.2c1.2,0,2.2,1,2.2,2.2c0,0.6-0.2,1.1-0.6,1.5c-0.4,0.4-1,0.6-1.5,0.6h-2.2V149z M98.3,136h11.2
					c2,0,3.8,0.8,5.2,2.2c1.4,1.4,2.2,3.2,2.2,5.2c0,0.5-0.1,1.1-0.2,1.6l-7.1,32.1h-6.4c0,0,5.9-29.7,6-29.9
					c0.3-1.3-0.8-2.6-2.1-2.6h-8.7V136z M74.5,123.6l8.7-16c0.3,2,1.3,4,2.8,5.4l17.7,15.9c1.4,1.2,3,2.2,4.8,2.8l0.2,0.1H98.3v-6.5
					H94v34.6H74.5V123.6z M114.9,119.7l16.7-14.6h5.7v4.3h-2.2c-0.6,0-1.2,0.3-1.6,0.7l-13.1,15c-1.1,1.2-2.5,2.1-4,2.7
					c-3.2,1.1-7.2,0.1-9.7-2.1l-7.2-6.5l5.7-6.4l6.8,6.8c0.4,0.4,1,0.6,1.5,0.6C114,120.2,114.5,120,114.9,119.7 M141.6,109.9v-5.3
					l4.3-1.1v7.4L141.6,109.9z M89,109.7c-2.7-2.4-1.6-7.3,1.9-8.2c1.5-0.4,3.1,0.1,4.2,1.2c0,0,7,7,7,7l-5.8,6.6
					C96.3,116.3,89,109.7,89,109.7 M100.8,98.8l1.3-3.9h4.9c0,2.4-1.9,4.3-4.3,4.3C102,99.3,101.3,99.1,100.8,98.8 M94,80.5V95
					c0,0.7,0.1,1.5,0.3,2.2h-5.9L94,80.5z M99.4,73.3h10.3l2.9,8.7h-1.3c-1.2,0-2.2,1-2.2,2.2v4.3c0,1.2-1,2.2-2.2,2.2h-6.5
					c-0.9,0-1.8,0.6-2.1,1.5l-0.1,0.3V79.8h-3.8L99.4,73.3z M100.5,60.3c-0.9,0-1.8,0.1-2.7,0.3l1.1,4.2c0.5-0.1,1.1-0.2,1.6-0.2
					h10.8c1.2,0,2.2,1,2.2,2.2c0,1.2-1,2.2-2.2,2.2h-13c-0.7,0-1.3,0.3-1.7,0.9L94,73.3v-2.2c0-1.6,0.6-3.1,1.6-4.3L92.4,64
					c-1.7,2-2.7,4.5-2.7,7.2v8.3l-6.3,18.9l-8.8,16.2v-4.5c0-1.7-0.7-3.4-1.9-4.6c-1.2-1.2-2.9-1.9-4.6-1.9c-3.6,0-6.5,2.9-6.5,6.5
					v4.3h4.3v-4.3c0-1.2,1-2.2,2.2-2.2c0.6,0,1.1,0.2,1.5,0.6c0.4,0.4,0.6,1,0.6,1.5v43.3h-2.2c-1.2,0-2.2-1-2.2-2.2v-32.4h-4.3
					v32.4c0,3.6,2.9,6.5,6.5,6.5h2.2v4.3c0,1.2,1,2.2,2.2,2.2h2.2v11.3l-6.8,1.7c-3.4,0.2-6.2,3-6.2,6.5c0,3.6,2.9,6.5,6.5,6.5
					c1.9,0,3.6-0.8,4.8-2.2h16.3c1.2,1.4,3,2.2,4.8,2.2c1.7,0,3.2-0.6,4.4-1.7c0.2,1,1.1,1.7,2.1,1.7h15.1c3.6,0,6.5-2.9,6.5-6.5
					c0-3.6-2.9-6.5-6.5-6.5H114l6.9-31.2c0.2-0.8,0.3-1.7,0.3-2.5c0-3.1-1.2-6.1-3.4-8.3c-1.1-1.1-2.5-2-3.9-2.6
					c1.3,0,2.6-0.3,3.9-0.7c0.8-0.3,1.5-0.6,2.2-1c7.8-0.8,14.3-6.2,16.6-13.8l1-3.4h1.6l8.4,2.1c0.6,0.2,1.3,0,1.9-0.4
					c0.5-0.4,0.8-1,0.8-1.7v-13c0-0.7-0.3-1.3-0.8-1.7c-0.5-0.4-1.2-0.6-1.9-0.4l-8.4,2.1h-8.4c-0.5,0-1,0.2-1.4,0.5l-15.8,13.8
					l-10.9-10.9v-0.6c4.8,0,8.7-3.9,8.7-8.7v-1.7c1.3-1.2,2.2-2.9,2.2-4.8v-2.2h2.2c0.7,0,1.3-0.3,1.8-0.9c0.4-0.6,0.5-1.3,0.3-1.9
					l-3.6-10.8c2.2-1,3.7-3.3,3.7-5.9c0-3.6-2.9-6.5-6.5-6.5H100.5z"/>
			</defs>
			<clipPath id="SVGID_2_">
				<use xlink:href="#SVGID_1_"  style="overflow:visible;"/>
			</clipPath>
			
				<linearGradient id="SVGID_3_" gradientUnits="userSpaceOnUse" x1="-3403.1333" y1="2372.0215" x2="-3402.8032" y2="2372.0215" gradientTransform="matrix(268.7113 0 0 -268.7113 914522.0625 637514.25)">
				<stop  offset="0" style="stop-color:#E300D6"/>
				<stop  offset="0.4662" style="stop-color:#4828BE"/>
				<stop  offset="1" style="stop-color:#4828BE"/>
			</linearGradient>
			<rect x="61.6" y="60.3" class="st3" width="88.7" height="129.8"/>
		</g>
		<g>
			<defs>
				<path id="SVGID_4_" d="M130.8,184.3c0-0.7,0.5-1.3,1.1-1.4l5.6-1.4h6.2v4.3h-11.5C131.4,185.8,130.8,185.1,130.8,184.3
					 M156.7,183.6c0-1.2,1-2.2,2.2-2.2c0.2,0,8.9-2.2,8.9-2.2h8.1c0,0,8.7,2.2,8.9,2.2c1.2,0,2.2,1,2.2,2.2c0,1.2-1,2.2-2.2,2.2
					c-0.8,0-1.5-0.4-1.9-1.1c-0.4-0.7-1.1-1.1-1.9-1.1h-18.5c-0.8,0-1.5,0.4-1.9,1.1c-0.4,0.7-1.1,1.1-1.9,1.1
					C157.7,185.8,156.7,184.8,156.7,183.6 M152.4,136h26c0,1.4,0.1,2.8-0.3,4.1c-0.8,2.6-3.3,4.6-6.2,4.6h-19.5V136z M152.4,127.4
					h2.2c0.1,0,15.4-2.2,15.4-2.2c1.1-0.2,1.9-1.1,1.9-2.1v-10.8h6.5v15.1c0,2.4-1.9,4.3-4.3,4.3h-27.7
					C147.2,129.2,149.6,127.4,152.4,127.4 M164,112c-0.3-1-0.2-2.2,0.4-3l3.2-4.7v10.2h-0.3C165.8,114.4,164.5,113.5,164,112
					 M171.9,100.4c0-1.8,1.5-3.2,3.2-3.2c1.8,0,3.2,1.5,3.2,3.2v7.6h-6.5V100.4z M177.3,80.6c0.4-0.3,0.8-0.6,1.1-0.9V82L177.3,80.6
					z M163.2,84.1v-4.3c0-0.6-0.2-1.1-0.6-1.5l-1.1-1.1c0,0,1.5-2.9,1.5-2.9c0.3-0.6,0.2-1.4,0.2-2c0-2,0.8-4,2.2-5.4l4.5,7.6
					c0.5,0.8,1.5,1.2,2.5,0.9c0.6-0.2,1.2-0.7,1.8-0.7c0.7,0,1.3,0.9,1,1.6c-0.2,0.5-0.6,0.8-1,1c-0.4,0.2-0.9,0.3-1.3,0.6
					c-1.1,0.7-1.5,2.1-0.7,3.2l6.1,8.1v4.3c-1-0.5-2.1-0.7-3.2-0.7c-1.2,0-2.3,0.3-3.2,0.7v-5.1c0-1.2-1-2.2-2.2-2.2h-4.3
					C164.2,86.3,163.2,85.3,163.2,84.1 M169.3,64.8C169.3,64.8,169.3,64.8,169.3,64.8c0.1,0,1.8-0.2,2.6-0.2c3.6,0,6.5,2.9,6.5,6.5
					v1.1c-0.5-0.6-1.2-1.1-2-1.4c-0.7-0.3-1.4-0.4-2.1-0.4c-0.5,0-1,0.1-1.5,0.2L169.3,64.8z M182.7,88.5V72.3v-1.2
					c0-2.4-0.8-4.7-2.2-6.5h0c1.7,0,3.4,0.7,4.6,1.9c1.2,1.2,1.9,2.9,1.9,4.6v23.4C184.5,93.7,182.7,91.3,182.7,88.5 M170.8,60.3
					c-2,0-4,0.5-5.7,1.5c0,0,0,0,0,0c-3.8,2.1-6.2,6.1-6.2,10.4v0.6l-1.9,3.9c-0.4,0.8-0.3,1.8,0.4,2.5l1.5,1.5v3.4
					c0,3.6,2.9,6.5,6.5,6.5h2.2v5.8c0,0-6.8,10.1-6.8,10.1c-1.3,2-1.7,4.6-0.9,6.8c0.8,2.5,2.8,4.3,5.3,5l-0.4,3.2l-10.3,1.5h-2
					c-5.3,0-9.7,3.8-10.6,8.8c-2.6,0.4-5,1.6-6.9,3.5c-2.7,2.7-4,6.4-3.6,10.2l4.3-0.5c-0.3-2.5,0.6-4.9,2.3-6.6
					c1.5-1.5,3.6-2.4,5.7-2.4h0.1h4.3v8.7h-2.2c-1.2,0-2.2,1-2.2,2.2v30.3h-4.6l-3.2-28.4l-4.3,0.5l3.2,28.4l-4.1,1
					c-2.6,0.6-4.4,3-4.4,5.6c0,3.2,2.6,5.8,5.8,5.8h13.7c1.2,0,2.2-1,2.2-2.2v-30.7c0.7,0.2,1.4,0.4,2.2,0.4h15.1v17.8l-6.8,1.7
					c-3.4,0.2-6.2,3-6.2,6.5c0,3.6,2.9,6.5,6.5,6.5c1.9,0,3.6-0.8,4.8-2.2H180c1.2,1.4,3,2.2,4.8,2.2c3.6,0,6.5-2.9,6.5-6.5
					c0-3.5-2.8-6.3-6.2-6.5l-6.8-1.7V162H174v13h-4.3v-17.3h15.1c3.6,0,6.5-2.9,6.5-6.5v-6.5H187v6.5c0,1.2-1,2.2-2.2,2.2h-34.6
					c-1.2,0-2.2-1-2.2-2.2c0-1.2,1-2.2,2.2-2.2h30.3c1.2,0,2.2-1,2.2-2.2v-36.8c0-1.2,1-2.2,2.2-2.2c1.2,0,2.2,1,2.2,2.2v30.3h4.3
					v-30.3c0-3.6-2.9-6.5-6.5-6.5c-0.8,0-1.5,0.1-2.2,0.4v-6.9c1.8,1.4,4.1,2.2,6.5,2.2c1.2,0,2.2-1,2.2-2.2v-26
					c0-2.9-1.1-5.6-3.2-7.6c-2-2-4.8-3.2-7.6-3.2H170.8z"/>
			</defs>
			<clipPath id="SVGID_5_">
				<use xlink:href="#SVGID_4_"  style="overflow:visible;"/>
			</clipPath>
			
				<linearGradient id="SVGID_6_" gradientUnits="userSpaceOnUse" x1="-3399.8188" y1="2370.5627" x2="-3399.4888" y2="2370.5627" gradientTransform="matrix(196.618 0 0 -196.618 668592.1875 466220.625)">
				<stop  offset="0" style="stop-color:#E300D6"/>
				<stop  offset="0.4662" style="stop-color:#4828BE"/>
				<stop  offset="1" style="stop-color:#4828BE"/>
			</linearGradient>
			<rect x="126.5" y="60.3" class="st4" width="64.9" height="129.8"/>
		</g>
	</g>
</g>
</svg>
