<?xml version="1.0" encoding="utf-8"?>
<!-- Generator: Adobe Illustrator 19.1.0, SVG Export Plug-In . SVG Version: 6.00 Build 0)  -->
<svg version="1.1" id="Layer_1" xmlns="http://www.w3.org/2000/svg" xmlns:xlink="http://www.w3.org/1999/xlink" x="0px" y="0px"
	 viewBox="0 0 250 250" style="enable-background:new 0 0 250 250;" xml:space="preserve">
<style type="text/css">
	.st0{opacity:0.3;}
	.st1{fill:#FFFFFD;}
	.st2{fill:none;stroke:#F4EEE9;stroke-width:9.3745;stroke-linecap:round;stroke-miterlimit:10;}
	.st3{clip-path:url(#SVGID_2_);fill:url(#SVGID_3_);}
	.st4{clip-path:url(#SVGID_5_);fill:url(#SVGID_6_);}
	.st5{clip-path:url(#SVGID_8_);fill:url(#SVGID_9_);}
	.st6{clip-path:url(#SVGID_11_);fill:url(#SVGID_12_);}
	.st7{clip-path:url(#SVGID_14_);fill:url(#SVGID_15_);}
	.st8{clip-path:url(#SVGID_17_);fill:url(#SVGID_18_);}
	.st9{clip-path:url(#SVGID_20_);fill:url(#SVGID_21_);}
</style>
<g>
	<g>
		<g>
			<g class="st0">
				<path d="M196.9,244.8H57.7c-23.4,0-42.4-19-42.4-42.4V61.7c0-23.4,19-42.4,42.4-42.4h139.2c23.4,0,42.4,19,42.4,42.4v140.6
					C239.4,225.8,220.4,244.8,196.9,244.8z"/>
			</g>
			<g>
				<path class="st1" d="M194.6,237.7H55.4c-23.4,0-42.4-19-42.4-42.4V54.7c0-23.4,19-42.4,42.4-42.4h139.2
					c23.4,0,42.4,19,42.4,42.4v140.6C237,218.7,218,237.7,194.6,237.7z"/>
			</g>
		</g>
		<path class="st2" d="M27.2,69c0-23.4,19-42.4,42.4-42.4h16.5"/>
		<path class="st2" d="M222.8,181c0,23.4-19,42.4-42.4,42.4"/>
		<line class="st2" x1="105.8" y1="26.6" x2="129.7" y2="26.6"/>
	</g>
	<g>
		<g>
			<defs>
				<path id="SVGID_1_" d="M129.7,121.8v2.7c0,1.9,0.5,3.8,1.5,5.4c0.3,0.5,0.7,1,1.1,1.5c0.3,0.4,0.7,0.7,1,1L123,149.6l-10.3-17.2
					c0.4-0.3,0.7-0.6,1-1c1.7-1.9,2.6-4.3,2.6-6.9v-2.7c2.1,0.7,4.4,1,6.7,1C125.3,122.8,127.5,122.4,129.7,121.8 M96.3,96.1
					c0-2.4,2-4.4,4.4-4.4v8.9C98.3,100.6,96.3,98.6,96.3,96.1 M145.2,91.7c2.4,0,4.4,2,4.4,4.4c0,2.4-2,4.4-4.4,4.4V91.7z
					 M115.1,116.5c-6.1-3-9.9-9.1-9.9-15.9v-9.9c10.7-3,23.1-11.8,28.1-15.5l7.4,14.9v10.6c0,6.8-3.8,12.9-9.9,15.9
					c-2.5,1.2-5.1,1.8-7.9,1.8C120.2,118.3,117.6,117.7,115.1,116.5 M147.4,107.2v-2.5c3.8-1,6.7-4.5,6.7-8.6c0-3.3-1.8-6.2-4.4-7.7
					v-5.6c0-5.8-2-11.2-5.6-15.5h1.1c7.3,0,13.3,6,13.3,13.3v39.8C152.2,119.3,147.4,113.8,147.4,107.2 M120.8,58.4
					c-6.4,0-12.5,2.5-17.1,7l3.1,3.2c3.8-3.7,8.7-5.7,14-5.7h4.4c4.4,0,8.5,1.4,12,4c5.1,3.8,8,9.6,8,16v4.4h-0.8l-8.3-16.5
					c-0.3-0.6-0.9-1-1.5-1.2c-0.7-0.1-1.3,0-1.9,0.4c-0.2,0.1-17.5,14-30.2,16.8c-0.6,0.1-1.2,0.2-1.7,0.3v-4.3
					c0-3.9,1.1-7.7,3.3-11l-3.7-2.4c-2.6,4-4,8.6-4,13.4v5.6c-2.7,1.5-4.4,4.4-4.4,7.7c0,4.9,4,8.9,8.9,8.9h0.4
					c1.2,6.2,5.1,11.6,10.7,14.8v4.7c0,2-1.2,4.1-3,5.1l-13.9,2.8c-5.7,1.1-9.8,6.2-9.8,12v47.3h4.4V165h4.6
					c-0.4,4.8,1,9.9,4.3,14.1v12.5h4.4v-13.3c0-0.5-0.2-1-0.5-1.4c-4.9-5.8-5.1-14-0.6-19.4l-3.4-2.9c-1.5,1.8-2.6,3.8-3.3,5.9h-5.5
					v-16.2c0-3.7,2.6-6.9,6.2-7.6l12.6-2.5l12.2,20.3v37.1h4.4v-37.1c4.1-6.8,8.2-13.6,12.2-20.4c3.2,1.3,6.7,1.2,10.1,1.9
					c3.4,0.6,6.9,2.2,8.2,5.4c1,2.5,0.4,5.3,0.6,8l4.4,0c0.3-4.4,0.1-9.3-2.7-12.8c-2.5-3.1-6.7-4.4-10.7-5.1
					c-3.6-0.6-10.2-0.5-12.4-4c-0.6-0.9-0.9-2-0.9-3.1v-4.7c4.1-2.3,7.2-5.8,9.1-9.9c1.3,8.5,8.7,15.1,17.6,15.1
					c1.2,0,2.2-1,2.2-2.2V80.6c0-9.8-8-17.8-17.8-17.8h-5.9c-4.1-2.9-9-4.4-14-4.4H120.8z"/>
			</defs>
			<clipPath id="SVGID_2_">
				<use xlink:href="#SVGID_1_"  style="overflow:visible;"/>
			</clipPath>
			
				<linearGradient id="SVGID_3_" gradientUnits="userSpaceOnUse" x1="-3422.4001" y1="2371.4595" x2="-3422.0703" y2="2371.4595" gradientTransform="matrix(235.5661 0 0 -235.5661 806286.6875 558760.375)">
				<stop  offset="0" style="stop-color:#E300D6"/>
				<stop  offset="0.4662" style="stop-color:#4828BE"/>
				<stop  offset="1" style="stop-color:#4828BE"/>
			</linearGradient>
			<rect x="85.2" y="58.4" class="st3" width="77.7" height="133.3"/>
		</g>
		<g>
			<defs>
				<path id="SVGID_4_" d="M156.3,153.9v6.7h-5.7c-0.7-2.1-1.8-4.1-3.3-5.9l-3.4,2.9c4.6,5.5,4.4,13.6-0.4,19.4
					c-0.3,0.4-0.5,0.9-0.5,1.4v13.3h4.4v-12.5c3.2-4.2,4.6-9.2,4.2-14.1h4.7v26.7h4.4v-37.8H156.3z"/>
			</defs>
			<clipPath id="SVGID_5_">
				<use xlink:href="#SVGID_4_"  style="overflow:visible;"/>
			</clipPath>
			
				<linearGradient id="SVGID_6_" gradientUnits="userSpaceOnUse" x1="-3452.9287" y1="2357.9353" x2="-3452.5986" y2="2357.9353" gradientTransform="matrix(53.8437 0 0 -53.8437 186061.3594 127132.6484)">
				<stop  offset="0" style="stop-color:#E300D6"/>
				<stop  offset="0.4662" style="stop-color:#4828BE"/>
				<stop  offset="1" style="stop-color:#4828BE"/>
			</linearGradient>
			<rect x="143" y="153.9" class="st4" width="17.8" height="37.8"/>
		</g>
		<g>
			<defs>
				<path id="SVGID_7_" d="M109.7,92.8c0,1.8,1.5,3.3,3.3,3.3s3.3-1.5,3.3-3.3c0-1.8-1.5-3.3-3.3-3.3S109.7,91,109.7,92.8"/>
			</defs>
			<clipPath id="SVGID_8_">
				<use xlink:href="#SVGID_7_"  style="overflow:visible;"/>
			</clipPath>
			
				<linearGradient id="SVGID_9_" gradientUnits="userSpaceOnUse" x1="-3514.4597" y1="2319.7874" x2="-3514.1296" y2="2319.7874" gradientTransform="matrix(20.1914 0 0 -20.1914 71071.4609 46932.5)">
				<stop  offset="0" style="stop-color:#E300D6"/>
				<stop  offset="0.4662" style="stop-color:#4828BE"/>
				<stop  offset="1" style="stop-color:#4828BE"/>
			</linearGradient>
			<rect x="109.7" y="89.5" class="st5" width="6.7" height="6.7"/>
		</g>
		<g>
			<defs>
				<path id="SVGID_10_" d="M129.7,92.8c0,1.8,1.5,3.3,3.3,3.3c1.8,0,3.3-1.5,3.3-3.3c0-1.8-1.5-3.3-3.3-3.3
					C131.2,89.5,129.7,91,129.7,92.8"/>
			</defs>
			<clipPath id="SVGID_11_">
				<use xlink:href="#SVGID_10_"  style="overflow:visible;"/>
			</clipPath>
			
				<linearGradient id="SVGID_12_" gradientUnits="userSpaceOnUse" x1="-3516.4697" y1="2319.7874" x2="-3516.1396" y2="2319.7874" gradientTransform="matrix(20.1914 0 0 -20.1914 71132.0313 46932.5)">
				<stop  offset="0" style="stop-color:#E300D6"/>
				<stop  offset="0.4662" style="stop-color:#4828BE"/>
				<stop  offset="1" style="stop-color:#4828BE"/>
			</linearGradient>
			<rect x="129.7" y="89.5" class="st6" width="6.7" height="6.7"/>
		</g>
		<g>
			<defs>
				<path id="SVGID_13_" d="M125.2,102.8c0,1.2-1,2.2-2.2,2.2c-1.2,0-2.2-1-2.2-2.2h-4.4c0,3.7,3,6.7,6.7,6.7c3.7,0,6.7-3,6.7-6.7
					H125.2z"/>
			</defs>
			<clipPath id="SVGID_14_">
				<use xlink:href="#SVGID_13_"  style="overflow:visible;"/>
			</clipPath>
			
				<linearGradient id="SVGID_15_" gradientUnits="userSpaceOnUse" x1="-3464.5649" y1="2348.5637" x2="-3464.2349" y2="2348.5637" gradientTransform="matrix(40.3828 0 0 -40.3828 140025.0156 94947.5938)">
				<stop  offset="0" style="stop-color:#E300D6"/>
				<stop  offset="0.4662" style="stop-color:#4828BE"/>
				<stop  offset="1" style="stop-color:#4828BE"/>
			</linearGradient>
			<rect x="116.3" y="102.8" class="st7" width="13.3" height="6.7"/>
		</g>
		<g>
			<defs>
				<rect id="SVGID_16_" x="114.1" y="156.1" width="4.4" height="4.4"/>
			</defs>
			<clipPath id="SVGID_17_">
				<use xlink:href="#SVGID_16_"  style="overflow:visible;"/>
			</clipPath>
			
				<linearGradient id="SVGID_18_" gradientUnits="userSpaceOnUse" x1="-3565.3596" y1="2301.5637" x2="-3565.0295" y2="2301.5637" gradientTransform="matrix(13.4609 0 0 -13.4609 48107.1289 31139.4766)">
				<stop  offset="0" style="stop-color:#E300D6"/>
				<stop  offset="0.4662" style="stop-color:#4828BE"/>
				<stop  offset="1" style="stop-color:#4828BE"/>
			</linearGradient>
			<rect x="114.1" y="156.1" class="st8" width="4.4" height="4.4"/>
		</g>
		<g>
			<defs>
				<rect id="SVGID_19_" x="114.1" y="173.9" width="4.4" height="4.4"/>
			</defs>
			<clipPath id="SVGID_20_">
				<use xlink:href="#SVGID_19_"  style="overflow:visible;"/>
			</clipPath>
			
				<linearGradient id="SVGID_21_" gradientUnits="userSpaceOnUse" x1="-3565.3596" y1="2304.2437" x2="-3565.0295" y2="2304.2437" gradientTransform="matrix(13.4609 0 0 -13.4609 48107.1289 31193.3203)">
				<stop  offset="0" style="stop-color:#E300D6"/>
				<stop  offset="0.4662" style="stop-color:#4828BE"/>
				<stop  offset="1" style="stop-color:#4828BE"/>
			</linearGradient>
			<rect x="114.1" y="173.9" class="st9" width="4.4" height="4.4"/>
		</g>
	</g>
</g>
</svg>
