<?xml version="1.0" encoding="utf-8"?>
<!-- Generator: Adobe Illustrator 19.1.0, SVG Export Plug-In . SVG Version: 6.00 Build 0)  -->
<svg version="1.1" id="Layer_1" xmlns="http://www.w3.org/2000/svg" xmlns:xlink="http://www.w3.org/1999/xlink" x="0px" y="0px"
	 viewBox="0 0 250 250" style="enable-background:new 0 0 250 250;" xml:space="preserve">
<style type="text/css">
	.st0{opacity:0.3;}
	.st1{fill:#FFFFFD;}
	.st2{fill:none;stroke:#F4EEE9;stroke-width:9.3745;stroke-linecap:round;stroke-miterlimit:10;}
	.st3{clip-path:url(#SVGID_2_);fill:url(#SVGID_3_);}
	.st4{clip-path:url(#SVGID_5_);fill:url(#SVGID_6_);}
	.st5{clip-path:url(#SVGID_8_);fill:url(#SVGID_9_);}
</style>
<g>
	<g>
		<g>
			<g class="st0">
				<path d="M196.9,244.8H57.7c-23.4,0-42.4-19-42.4-42.4V61.7c0-23.4,19-42.4,42.4-42.4h139.2c23.4,0,42.4,19,42.4,42.4v140.6
					C239.4,225.8,220.4,244.8,196.9,244.8z"/>
			</g>
			<g>
				<path class="st1" d="M194.6,237.7H55.4c-23.4,0-42.4-19-42.4-42.4V54.7c0-23.4,19-42.4,42.4-42.4h139.2
					c23.4,0,42.4,19,42.4,42.4v140.6C237,218.7,218,237.7,194.6,237.7z"/>
			</g>
		</g>
		<path class="st2" d="M27.2,69c0-23.4,19-42.4,42.4-42.4h16.5"/>
		<path class="st2" d="M222.8,181c0,23.4-19,42.4-42.4,42.4"/>
		<line class="st2" x1="105.8" y1="26.6" x2="129.7" y2="26.6"/>
	</g>
	<g>
		<g>
			<defs>
				<path id="SVGID_1_" d="M166.5,86.2c3.5,0,6.3-2.8,6.3-6.3v-2.7h6.7c0.2,0,0.4,0.2,0.4,0.4v12.1H72.3V77.6c0-0.2,0.2-0.4,0.4-0.4
					h6.7v2.7c0,3.5,2.8,6.3,6.3,6.3h1.8c3.5,0,6.3-2.8,6.3-6.3v-2.7h5.4v2.7c0,3.5,2.8,6.3,6.3,6.3h1.8c3.5,0,6.3-2.8,6.3-6.3v-2.7
					h5.4v2.7c0,3.5,2.8,6.3,6.3,6.3h1.8c3.5,0,6.3-2.8,6.3-6.3v-2.7h5.4v2.7c0,3.5,2.8,6.3,6.3,6.3h1.8c3.5,0,6.3-2.8,6.3-6.3v-2.7
					h5.4v2.7c0,3.5,2.8,6.3,6.3,6.3H166.5z M83,79.9v-5.4c0-1.5,1.2-2.7,2.7-2.7h1.8c1.5,0,2.7,1.2,2.7,2.7v5.4
					c0,1.5-1.2,2.7-2.7,2.7h-1.8C84.2,82.6,83,81.4,83,79.9 M102.8,79.9v-5.4c0-1.5,1.2-2.7,2.7-2.7h1.8c1.5,0,2.7,1.2,2.7,2.7v5.4
					c0,1.5-1.2,2.7-2.7,2.7h-1.8C104,82.6,102.8,81.4,102.8,79.9 M122.5,79.9v-5.4c0-1.5,1.2-2.7,2.7-2.7h1.8c1.5,0,2.7,1.2,2.7,2.7
					v5.4c0,1.5-1.2,2.7-2.7,2.7h-1.8C123.7,82.6,122.5,81.4,122.5,79.9 M142.2,79.9v-5.4c0-1.5,1.2-2.7,2.7-2.7h1.8
					c1.5,0,2.7,1.2,2.7,2.7v5.4c0,1.5-1.2,2.7-2.7,2.7h-1.8C143.4,82.6,142.2,81.4,142.2,79.9 M162,79.9v-5.4c0-1.5,1.2-2.7,2.7-2.7
					h1.8c1.5,0,2.7,1.2,2.7,2.7v5.4c0,1.5-1.2,2.7-2.7,2.7h-1.8C163.2,82.6,162,81.4,162,79.9 M164.7,68.2c-3.2,0-5.8,2.3-6.2,5.4
					h-5.5c-0.4-3-3.1-5.4-6.2-5.4h-1.8c-3.2,0-5.8,2.3-6.2,5.4h-5.5c-0.4-3-3.1-5.4-6.2-5.4h-1.8c-3.2,0-5.8,2.3-6.2,5.4h-5.5
					c-0.4-3-3.1-5.4-6.2-5.4h-1.8c-3.2,0-5.8,2.3-6.2,5.4h-5.5c-0.4-3-3.1-5.4-6.2-5.4h-1.8c-3.2,0-5.8,2.3-6.2,5.4h-6.8
					c-2.2,0-4,1.8-4,4v24.7h3.6v-9h107.7V179c0,0.2-0.2,0.4-0.4,0.4H72.7c-0.2,0-0.4-0.2-0.4-0.4v-73.1h-3.6V179c0,2.2,1.8,4,4,4
					h106.8c2.2,0,4-1.8,4-4V77.6c0-2.2-1.8-4-4-4h-6.8c-0.4-3-3.1-5.4-6.2-5.4H164.7z"/>
			</defs>
			<clipPath id="SVGID_2_">
				<use xlink:href="#SVGID_1_"  style="overflow:visible;"/>
			</clipPath>
			
				<linearGradient id="SVGID_3_" gradientUnits="userSpaceOnUse" x1="-3411.6304" y1="2376.7974" x2="-3411.3003" y2="2376.7974" gradientTransform="matrix(348.0341 0 0 -348.0341 1187432.5 827332.25)">
				<stop  offset="0" style="stop-color:#E300D6"/>
				<stop  offset="0.4662" style="stop-color:#4828BE"/>
				<stop  offset="1" style="stop-color:#4828BE"/>
			</linearGradient>
			<rect x="68.7" y="68.2" class="st3" width="114.9" height="114.9"/>
		</g>
		<g>
			<defs>
				<path id="SVGID_4_" d="M90.2,120.3h7.2c1,0,1.8-0.8,1.8-1.8v-7.2h3.6v7.2c0,1,0.8,1.8,1.8,1.8h7.2v3.6h-7.2
					c-1,0-1.8,0.8-1.8,1.8v7.2h-3.6v-7.2c0-1-0.8-1.8-1.8-1.8h-7.2V120.3z M97.4,107.7c-1,0-1.8,0.8-1.8,1.8v7.2h-7.2
					c-1,0-1.8,0.8-1.8,1.8v7.2c0,1,0.8,1.8,1.8,1.8h7.2v7.2c0,1,0.8,1.8,1.8,1.8h7.2c1,0,1.8-0.8,1.8-1.8v-7.2h7.2
					c1,0,1.8-0.8,1.8-1.8v-7.2c0-1-0.8-1.8-1.8-1.8h-7.2v-7.2c0-1-0.8-1.8-1.8-1.8H97.4z"/>
			</defs>
			<clipPath id="SVGID_5_">
				<use xlink:href="#SVGID_4_"  style="overflow:visible;"/>
			</clipPath>
			
				<linearGradient id="SVGID_6_" gradientUnits="userSpaceOnUse" x1="-3404.9404" y1="2379.1062" x2="-3404.6104" y2="2379.1062" gradientTransform="matrix(87.0085 0 0 -87.0085 296345.4688 207124.5938)">
				<stop  offset="0" style="stop-color:#E300D6"/>
				<stop  offset="0.4662" style="stop-color:#4828BE"/>
				<stop  offset="1" style="stop-color:#4828BE"/>
			</linearGradient>
			<rect x="86.6" y="107.7" class="st4" width="28.7" height="28.7"/>
		</g>
		<g>
			<defs>
				<path id="SVGID_7_" d="M79.4,159.7H101v10.8H79.4V159.7z M104.6,159.7h21.5v10.8h-21.5V159.7z M129.7,159.7h21.5v10.8h-21.5
					V159.7z M154.8,159.7h17.9v10.8h-17.9V159.7z M93.8,146.1c2.3,0.7,4.7,1,7.2,1c1.8,0,3.6-0.2,5.3-0.6l7.2,1.7v7.9H93.8V146.1z
					 M158.4,131h14.4v10.8h-14.4V131z M145.8,116.7h26.9v10.8h-26.9V116.7z M158.4,102.3h14.4v10.8h-14.4V102.3z M79.4,122.1
					c0-11.9,9.7-21.5,21.5-21.5c11.9,0,21.5,9.7,21.5,21.5c0,3.5-0.9,7-2.5,10.1c-0.2,0.4-0.3,0.8-0.2,1.1l2.3,13.3l-15.4-3.6
					c-0.1,0-0.3,0-0.4,0c-0.1,0-0.3,0-0.4,0c-1.6,0.4-3.3,0.6-4.9,0.6C89.1,143.6,79.4,133.9,79.4,122.1 M75.8,122.1
					c0,10,5.9,18.7,14.4,22.7v11.4H79.4v-14.4h-3.6v30.5c0,1,0.8,1.8,1.8,1.8h96.9c1,0,1.8-0.8,1.8-1.8v-19.7h-3.6v3.6h-26.9v-10.8
					h26.9v3.6h3.6v-48.5c0-1-0.8-1.8-1.8-1.8h-52v3.6h32.3v10.8h-25.1v3.6h12.6v10.8h-12.6v3.6h25.1v10.8h-25.1v3.6h12.6v10.8h-25.1
					v-7l6.8,1.6c0.1,0,0.3,0,0.4,0c0.5,0,0.9-0.2,1.2-0.5c0.4-0.4,0.6-1,0.5-1.6l-2.6-15.4c1.7-3.5,2.7-7.3,2.7-11.3
					c0-13.9-11.3-25.1-25.1-25.1C87.1,96.9,75.8,108.2,75.8,122.1"/>
			</defs>
			<clipPath id="SVGID_8_">
				<use xlink:href="#SVGID_7_"  style="overflow:visible;"/>
			</clipPath>
			
				<linearGradient id="SVGID_9_" gradientUnits="userSpaceOnUse" x1="-3411.3398" y1="2376.9773" x2="-3411.0098" y2="2376.9773" gradientTransform="matrix(304.5298 0 0 -304.5298 1038930.625 723996)">
				<stop  offset="0" style="stop-color:#E300D6"/>
				<stop  offset="0.4662" style="stop-color:#4828BE"/>
				<stop  offset="1" style="stop-color:#4828BE"/>
			</linearGradient>
			<rect x="75.8" y="96.9" class="st5" width="100.5" height="77.2"/>
		</g>
	</g>
</g>
</svg>
