<?xml version="1.0" encoding="utf-8"?>
<!-- Generator: Adobe Illustrator 19.1.0, SVG Export Plug-In . SVG Version: 6.00 Build 0)  -->
<svg version="1.1" id="Layer_1" xmlns="http://www.w3.org/2000/svg" xmlns:xlink="http://www.w3.org/1999/xlink" x="0px" y="0px"
	 viewBox="0 0 250 250" style="enable-background:new 0 0 250 250;" xml:space="preserve">
<style type="text/css">
	.st0{opacity:0.3;}
	.st1{fill:#FFFFFD;}
	.st2{fill:none;stroke:#F4EEE9;stroke-width:9.3745;stroke-linecap:round;stroke-miterlimit:10;}
	.st3{clip-path:url(#SVGID_2_);fill:url(#SVGID_3_);}
	.st4{clip-path:url(#SVGID_5_);fill:url(#SVGID_6_);}
	.st5{clip-path:url(#SVGID_8_);fill:url(#SVGID_9_);}
</style>
<g>
	<g>
		<g>
			<g class="st0">
				<path d="M196.9,244.8H57.7c-23.4,0-42.4-19-42.4-42.4V61.7c0-23.4,19-42.4,42.4-42.4h139.2c23.4,0,42.4,19,42.4,42.4v140.6
					C239.4,225.8,220.4,244.8,196.9,244.8z"/>
			</g>
			<g>
				<path class="st1" d="M194.6,237.7H55.4c-23.4,0-42.4-19-42.4-42.4V54.7c0-23.4,19-42.4,42.4-42.4h139.2
					c23.4,0,42.4,19,42.4,42.4v140.6C237,218.7,218,237.7,194.6,237.7z"/>
			</g>
		</g>
		<path class="st2" d="M27.2,69c0-23.4,19-42.4,42.4-42.4h16.5"/>
		<path class="st2" d="M222.8,181c0,23.4-19,42.4-42.4,42.4"/>
		<line class="st2" x1="105.8" y1="26.6" x2="129.7" y2="26.6"/>
	</g>
	<g>
		<g>
			<defs>
				<path id="SVGID_1_" d="M127.2,176.8c1.9-4.4,2.4-8.7,0.9-13.2c-2.5-7.5-7.9-11.7-15.7-12.8c-0.6-0.1-1.3-0.5-1.5-1
					c-3.8-7-9.5-11.5-17.2-13.3c-0.8-0.2-1.3-0.5-1.4-1.3c-5.2-24.9,6.2-50.4,28.7-62.9c0.2-0.1,0.4-0.2,0.7-0.3
					c-10.3,23.5-9.3,46.2,6.2,66.9c15.4,20.7,36.8,28.3,62.5,25c-7.9,7.8-16.9,13-27.4,15.5c-4.7,1.1-9.3,1.7-13.9,1.7
					C141.6,181.1,134.4,179.7,127.2,176.8 M127.6,62.8c-10.7,3.9-19.8,10-27.2,18.8C89.3,95,84.2,110.4,85.4,127.9
					c0.2,2.6,0.6,5.3,0.9,8c-0.3,0.1-0.4,0.1-0.5,0.2c-11.5,1.4-19.9,8.8-22.6,20c-0.2,0.9-0.6,1.1-1.4,1.4
					c-8.9,2.6-12.7,9.9-10.8,18.5c1.4,6.4,7.3,10.9,13.9,11.1c3.7,0.1,7.5,0,11.2,0c0.5,0,1.1-0.1,1.6-0.3c1.2-0.5,1.9-1.9,1.6-3.2
					c-0.3-1.4-1.5-2.4-3.1-2.4c-1.9,0-3.8,0-5.8,0c-1.4,0-2.9,0-4.3,0c-0.9,0-1.8,0-2.6-0.2c-4.5-1-7.4-5-7.1-9.6
					c0.3-4.4,3.8-7.9,8.3-8.4c3.3-0.3,3.8-0.8,4.1-4c0-0.2,0.1-0.5,0.1-0.7c1.6-8.9,8.6-15.3,17.9-16.3c8.2-0.9,16.5,4.3,19.8,12.3
					c0.9,2.2,1.5,2.6,3.9,2.6c7.1-0.1,12.7,5.1,12.8,11.9c0.1,7-5.3,12.3-12.5,12.4c-1.5,0-3,0-4.5,0c-1.9,0-3.8,0-5.7,0
					c-2,0-3.3,1.2-3.3,3c0,1.8,1.3,2.9,3.3,2.9c3.6,0,7.2,0,10.8,0c4.4,0,8.2-1.5,11.5-4.4c0.8-0.7,1.4-0.7,2.3-0.4
					c5,2.1,10.1,3.5,15.5,4.2c17.8,2.2,33.9-2.1,48.1-13.1c4.8-3.7,8.8-8,12.4-12.9c0.9-1.2,1.1-2.4,0.2-3.7c-0.9-1.2-2.1-1.5-3.5-1
					c-0.2,0.1-0.5,0.1-0.7,0.2c-10.1,3.2-20.4,3.7-30.8,1.4c-25.7-5.8-44.6-28.9-45.1-55.3c-0.2-12.6,3.2-24,10.3-34.4
					c1.2-1.7,1.3-3,0.3-4.2c-0.6-0.7-1.3-1.1-2.1-1.1C129,62.4,128.3,62.6,127.6,62.8"/>
			</defs>
			<clipPath id="SVGID_2_">
				<use xlink:href="#SVGID_1_"  style="overflow:visible;"/>
			</clipPath>
			
				<linearGradient id="SVGID_3_" gradientUnits="userSpaceOnUse" x1="-3419.759" y1="2375.1318" x2="-3419.429" y2="2375.1318" gradientTransform="matrix(458.4736 0 0 -458.4736 1567919.75 1089060.875)">
				<stop  offset="0" style="stop-color:#E300D6"/>
				<stop  offset="0.4662" style="stop-color:#4828BE"/>
				<stop  offset="1" style="stop-color:#4828BE"/>
			</linearGradient>
			<rect x="49" y="62.4" class="st3" width="153" height="126.2"/>
		</g>
		<g>
			<defs>
				<path id="SVGID_4_" d="M147.9,91.1c4.6-2.9,8.2-6.4,11-11.1c2.8,4.6,6.4,8.2,11,11c-4.6,2.8-8.2,6.4-11,11
					C156.1,97.6,152.5,93.9,147.9,91.1 M156,69.7c-0.2,0.9-0.2,1.8-0.3,2.6c-1.8,8-11.2,15.9-17.8,15.8c-1.6,0-2.7,1.3-2.7,2.9
					c0,1.7,1.2,2.7,3,3c1.8,0.3,3.7,0.6,5.2,1.4c6.7,3.6,11.8,8.7,12.7,16.8c0.2,1.6,1.5,2.7,3.1,2.6c1.5-0.1,2.6-1.2,2.8-2.7
					c1-9,9.1-17.1,18.1-18.1c1.6-0.2,2.8-1.4,2.8-2.9c0-1.5-1.2-2.9-2.8-2.9c-3.4-0.1-6.3-1.5-8.9-3.5c-5-3.8-8.8-8.3-9.3-15
					c-0.1-1.4-1.4-2.5-2.9-2.5h0C157.5,67.2,156.3,68.2,156,69.7"/>
			</defs>
			<clipPath id="SVGID_5_">
				<use xlink:href="#SVGID_4_"  style="overflow:visible;"/>
			</clipPath>
			
				<linearGradient id="SVGID_6_" gradientUnits="userSpaceOnUse" x1="-3433.4802" y1="2372.7749" x2="-3433.1501" y2="2372.7749" gradientTransform="matrix(144.3652 0 0 -144.3652 495810.3125 342637.3438)">
				<stop  offset="0" style="stop-color:#E300D6"/>
				<stop  offset="0.4662" style="stop-color:#4828BE"/>
				<stop  offset="1" style="stop-color:#4828BE"/>
			</linearGradient>
			<rect x="135.1" y="67.2" class="st4" width="47.7" height="47.7"/>
		</g>
		<g>
			<defs>
				<path id="SVGID_7_" d="M88.1,181.1c-1.6,0-2.9,1.4-2.9,3c0,1.6,1.3,2.9,2.9,2.9c1.6,0,2.9-1.3,3-2.9
					C91.1,182.5,89.7,181.1,88.1,181.1C88.1,181.1,88.1,181.1,88.1,181.1"/>
			</defs>
			<clipPath id="SVGID_8_">
				<use xlink:href="#SVGID_7_"  style="overflow:visible;"/>
			</clipPath>
			
				<linearGradient id="SVGID_9_" gradientUnits="userSpaceOnUse" x1="-3565.8059" y1="2360.4985" x2="-3565.4758" y2="2360.4985" gradientTransform="matrix(17.8575 0 0 -17.8575 63761.5391 42336.6523)">
				<stop  offset="0" style="stop-color:#E300D6"/>
				<stop  offset="0.4662" style="stop-color:#4828BE"/>
				<stop  offset="1" style="stop-color:#4828BE"/>
			</linearGradient>
			<rect x="85.2" y="181.1" class="st5" width="5.9" height="5.9"/>
		</g>
	</g>
</g>
</svg>
