<?xml version="1.0" encoding="utf-8"?>
<!-- Generator: Adobe Illustrator 19.1.0, SVG Export Plug-In . SVG Version: 6.00 Build 0)  -->
<svg version="1.1" id="Layer_1" xmlns="http://www.w3.org/2000/svg" xmlns:xlink="http://www.w3.org/1999/xlink" x="0px" y="0px"
	 viewBox="0 0 250 250" style="enable-background:new 0 0 250 250;" xml:space="preserve">
<style type="text/css">
	.st0{opacity:0.3;}
	.st1{fill:#FFFFFD;}
	.st2{fill:none;stroke:#F4EEE9;stroke-width:9.3745;stroke-linecap:round;stroke-miterlimit:10;}
	.st3{clip-path:url(#SVGID_2_);fill:url(#SVGID_3_);}
	.st4{clip-path:url(#SVGID_5_);fill:url(#SVGID_6_);}
	.st5{clip-path:url(#SVGID_8_);fill:url(#SVGID_9_);}
	.st6{clip-path:url(#SVGID_11_);fill:url(#SVGID_12_);}
	.st7{clip-path:url(#SVGID_14_);fill:url(#SVGID_15_);}
	.st8{clip-path:url(#SVGID_17_);fill:url(#SVGID_18_);}
	.st9{clip-path:url(#SVGID_20_);fill:url(#SVGID_21_);}
</style>
<g>
	<g>
		<g>
			<g class="st0">
				<path d="M196.9,244.8H57.7c-23.4,0-42.4-19-42.4-42.4V61.7c0-23.4,19-42.4,42.4-42.4h139.2c23.4,0,42.4,19,42.4,42.4v140.6
					C239.4,225.8,220.4,244.8,196.9,244.8z"/>
			</g>
			<g>
				<path class="st1" d="M194.6,237.7H55.4c-23.4,0-42.4-19-42.4-42.4V54.7c0-23.4,19-42.4,42.4-42.4h139.2
					c23.4,0,42.4,19,42.4,42.4v140.6C237,218.7,218,237.7,194.6,237.7z"/>
			</g>
		</g>
		<path class="st2" d="M27.2,69c0-23.4,19-42.4,42.4-42.4h16.5"/>
		<path class="st2" d="M222.8,181c0,23.4-19,42.4-42.4,42.4"/>
		<line class="st2" x1="105.8" y1="26.6" x2="129.7" y2="26.6"/>
	</g>
	<g>
		<g>
			<defs>
				<path id="SVGID_1_" d="M120.4,65.8c7.7-2,13.7,1.2,18.3,7.2c17.2-6.6,35,8.2,30.6,27.3c1.4,0.4,2.8,0.8,4.1,1.3
					c3.9,1.5,7.1,3.8,9.2,7.6c5.2,9.6-0.7,22.1-11.5,24c-1.4,0.2-2.8,0.3-4.2,0.3c-18.5,0-37,0-55.5,0c-1,0-1.6,0.2-2.1,1.1
					c-6.9,9.7-20.6,9.7-27.4,0c-0.6-0.8-1.2-1.1-2.1-1.2c-8.7-0.6-15.5-8.4-15.2-17c0.3-8.8,6.2-14,14-15.8c0.4-0.1,0.9-0.2,1.4-0.3
					c-2.2-7.9-0.7-14.8,6.1-19.6c7.4-5.2,14.6-3.6,21.6,1.5C108.5,74,112.2,67.9,120.4,65.8 M107.2,70.3c-1,1.6-1.8,3.4-2.7,5.1
					c-0.3-0.1-0.7-0.3-1.1-0.4c-5.6-2.2-11.1-2.1-16.5,0.3c-7.5,3.4-12.8,11.4-12,20.5c0.1,1.1-0.2,1.5-1.2,1.9
					c-5,1.9-8.8,5.3-11.1,10.1c-1,2.2-1.5,4.7-2.3,7.1v4.3c0.1,0.2,0.2,0.4,0.2,0.6c1.4,9.1,7.9,15.9,16.8,17.6
					c1,0.2,1.7,0.6,2.4,1.4c8.2,9.8,23.4,9.8,31.5,0c0.6-0.7,1.2-1,2.2-1c17.8,0,35.6,0,53.4,0c0.8,0,1.5,0,2.3-0.1
					c9.6-0.6,17.7-7.8,19.2-17.1c1.6-9.7-3.6-19-12.6-22.6c-1.4-0.6-1.7-1.2-1.7-2.6c0.3-9.2-3.3-16.8-10.6-22.4
					c-6.5-5-13.8-6.6-21.9-4.9c-0.8,0.2-1.5,0.3-2.2-0.5c-4.1-4.4-9.6-6.5-15-6.5C117.8,61,111.2,64.2,107.2,70.3"/>
			</defs>
			<clipPath id="SVGID_2_">
				<use xlink:href="#SVGID_1_"  style="overflow:visible;"/>
			</clipPath>
			
				<linearGradient id="SVGID_3_" gradientUnits="userSpaceOnUse" x1="-3420.845" y1="2373.1326" x2="-3420.5149" y2="2373.1326" gradientTransform="matrix(388.6886 0 0 -388.6886 1329703.75 922514.1875)">
				<stop  offset="0" style="stop-color:#E300D6"/>
				<stop  offset="0.4662" style="stop-color:#4828BE"/>
				<stop  offset="1" style="stop-color:#4828BE"/>
			</linearGradient>
			<rect x="60.4" y="61" class="st3" width="129.6" height="87.4"/>
		</g>
		<g>
			<defs>
				<path id="SVGID_4_" d="M145.8,184.2c-1.5-1.1-2-3.1-1.2-4.7c1.1-1.9,2.3-3.8,3.4-5.6c0.2,0,0.3,0,0.5,0c1.2,1.9,2.4,3.8,3.5,5.7
					c0.8,1.6,0.3,3.5-1.2,4.6c-0.7,0.6-1.7,0.9-2.6,0.9C147.4,185.1,146.5,184.8,145.8,184.2 M140.9,178.2c-1.4,2.8-0.8,5.3,0.9,7.7
					c1.3,1.8,3.2,2.7,5.3,3.3h2.5c0.5-0.2,1-0.3,1.5-0.5c3.9-1.3,6.5-6,5.2-9.5c-1.7-4.4-4.9-8-7.9-11.8
					C145.5,171,142.8,174.3,140.9,178.2"/>
			</defs>
			<clipPath id="SVGID_5_">
				<use xlink:href="#SVGID_4_"  style="overflow:visible;"/>
			</clipPath>
			
				<linearGradient id="SVGID_6_" gradientUnits="userSpaceOnUse" x1="-3470.3508" y1="2356.8083" x2="-3470.0208" y2="2356.8083" gradientTransform="matrix(50.0863 0 0 -50.0863 173956.9844 118222.1016)">
				<stop  offset="0" style="stop-color:#E300D6"/>
				<stop  offset="0.4662" style="stop-color:#4828BE"/>
				<stop  offset="1" style="stop-color:#4828BE"/>
			</linearGradient>
			<rect x="139.5" y="167.5" class="st4" width="18.1" height="21.7"/>
		</g>
		<g>
			<defs>
				<path id="SVGID_7_" d="M110.8,184.3c-1.4-1-2.2-2.9-1.5-4.3c1.1-2.1,2.4-4.2,3.6-6.2l0.5,0c1.2,2.1,2.5,4.1,3.6,6.2
					c0.7,1.4,0,3.3-1.5,4.3c-0.7,0.5-1.6,0.8-2.4,0.8C112.3,185.1,111.4,184.8,110.8,184.3 M105.6,178.4c-1,2.1-0.8,4.1,0.1,6.1
					c1.3,2.7,3.5,4,6.3,4.7h2.5c0.5-0.2,0.9-0.3,1.4-0.5c4.3-1.4,7-6.9,4.7-10.6c-1.7-2.8-3.6-5.5-5.4-8.2c-0.6-0.8-1.3-1.6-2-2.5
					C110.3,171.1,107.5,174.4,105.6,178.4"/>
			</defs>
			<clipPath id="SVGID_8_">
				<use xlink:href="#SVGID_7_"  style="overflow:visible;"/>
			</clipPath>
			
				<linearGradient id="SVGID_9_" gradientUnits="userSpaceOnUse" x1="-3469.0146" y1="2356.7771" x2="-3468.6846" y2="2356.7771" gradientTransform="matrix(50.005 0 0 -50.005 173572.8438 118028.9141)">
				<stop  offset="0" style="stop-color:#E300D6"/>
				<stop  offset="0.4662" style="stop-color:#4828BE"/>
				<stop  offset="1" style="stop-color:#4828BE"/>
			</linearGradient>
			<rect x="104.6" y="167.5" class="st5" width="18.3" height="21.7"/>
		</g>
		<g>
			<defs>
				<path id="SVGID_10_" d="M128.2,165.6c-1.4-1-2.1-2.9-1.4-4.3c1.1-2.1,2.4-4,3.6-6.1l0.5,0c1.2,2.1,2.5,4.1,3.6,6.2
					c0.7,1.4-0.1,3.2-1.5,4.3c-0.7,0.5-1.6,0.8-2.4,0.8C129.9,166.5,129,166.2,128.2,165.6 M122.9,160.6c-0.3,0.6-0.4,1.4-0.3,2.1
					c0.1,5.8,6.1,9.6,11.4,7.3c3.6-1.5,6-5.9,4.7-9.2c-1.7-4.5-4.9-8.1-8-11.9C127.7,152.6,124.7,156.2,122.9,160.6"/>
			</defs>
			<clipPath id="SVGID_11_">
				<use xlink:href="#SVGID_10_"  style="overflow:visible;"/>
			</clipPath>
			
				<linearGradient id="SVGID_12_" gradientUnits="userSpaceOnUse" x1="-3469.7124" y1="2356.0112" x2="-3469.3823" y2="2356.0112" gradientTransform="matrix(50.0199 0 0 -50.0199 173677.3125 118008.1172)">
				<stop  offset="0" style="stop-color:#E300D6"/>
				<stop  offset="0.4662" style="stop-color:#4828BE"/>
				<stop  offset="1" style="stop-color:#4828BE"/>
			</linearGradient>
			<rect x="122.5" y="148.9" class="st6" width="17.4" height="23.3"/>
		</g>
		<g>
			<defs>
				<path id="SVGID_13_" d="M163.4,165.6c-1.4-1.1-2-3-1.2-4.6c1.1-2,2.3-3.8,3.5-5.7c0.2,0,0.4,0,0.5,0c1.2,1.9,2.4,3.8,3.5,5.7
					c0.8,1.6,0.3,3.4-1.2,4.6c-0.7,0.6-1.7,0.9-2.6,0.9C165,166.5,164.1,166.2,163.4,165.6 M158,160.8c-0.2,0.5-0.3,1.1-0.3,1.7
					c0.1,5.7,5.9,9.6,11.3,7.6c3.9-1.5,6.3-6.1,4.9-9.6c-1.8-4.3-4.8-7.8-7.8-11.5C162.9,152.7,159.7,156.3,158,160.8"/>
			</defs>
			<clipPath id="SVGID_14_">
				<use xlink:href="#SVGID_13_"  style="overflow:visible;"/>
			</clipPath>
			
				<linearGradient id="SVGID_15_" gradientUnits="userSpaceOnUse" x1="-3471.0598" y1="2356.0398" x2="-3470.7297" y2="2356.0398" gradientTransform="matrix(50.0888 0 0 -50.0888 174018.9531 118171.7656)">
				<stop  offset="0" style="stop-color:#E300D6"/>
				<stop  offset="0.4662" style="stop-color:#4828BE"/>
				<stop  offset="1" style="stop-color:#4828BE"/>
			</linearGradient>
			<rect x="157.6" y="148.9" class="st7" width="17.6" height="23.2"/>
		</g>
		<g>
			<defs>
				<path id="SVGID_16_" d="M93,165.6c-1.5-1.2-2-3.1-1.1-4.7c1.1-1.9,2.3-3.8,3.4-5.6c0.2,0,0.3,0,0.5,0c1.1,1.8,2.3,3.6,3.4,5.5
					c0.9,1.7,0.4,3.6-1.1,4.8c-0.7,0.6-1.6,0.9-2.5,0.9C94.6,166.5,93.7,166.2,93,165.6 M87.8,160.4c-0.3,0.7-0.5,1.5-0.4,2.3
					c0.3,5.2,4.6,8.6,9.7,7.8c5.6-0.9,8.1-7.1,6-10.9c-2.1-3.8-4.7-7.2-7.4-10.6C93.1,151.4,89,157.4,87.8,160.4"/>
			</defs>
			<clipPath id="SVGID_17_">
				<use xlink:href="#SVGID_16_"  style="overflow:visible;"/>
			</clipPath>
			
				<linearGradient id="SVGID_18_" gradientUnits="userSpaceOnUse" x1="-3468.4929" y1="2355.9441" x2="-3468.1628" y2="2355.9441" gradientTransform="matrix(49.8279 0 0 -49.8279 172915.0781 117551.8984)">
				<stop  offset="0" style="stop-color:#E300D6"/>
				<stop  offset="0.4662" style="stop-color:#4828BE"/>
				<stop  offset="1" style="stop-color:#4828BE"/>
			</linearGradient>
			<rect x="87.3" y="149" class="st8" width="17.8" height="22.3"/>
		</g>
		<g>
			<defs>
				<path id="SVGID_19_" d="M147.4,75.7v3.9c8,0.4,13.9,6.1,14.4,14.3h3.9c0.3-9.8-8.3-18.3-17.6-18.3
					C147.8,75.7,147.6,75.7,147.4,75.7"/>
			</defs>
			<clipPath id="SVGID_20_">
				<use xlink:href="#SVGID_19_"  style="overflow:visible;"/>
			</clipPath>
			
				<linearGradient id="SVGID_21_" gradientUnits="userSpaceOnUse" x1="-3465.1831" y1="2355.2336" x2="-3464.8533" y2="2355.2336" gradientTransform="matrix(55.4315 0 0 -55.4315 192227.5469 130638.9063)">
				<stop  offset="0" style="stop-color:#E300D6"/>
				<stop  offset="0.4662" style="stop-color:#4828BE"/>
				<stop  offset="1" style="stop-color:#4828BE"/>
			</linearGradient>
			<rect x="147.4" y="75.7" class="st9" width="18.6" height="18.3"/>
		</g>
	</g>
</g>
</svg>
