<?xml version="1.0" encoding="utf-8"?>
<!-- Generator: Adobe Illustrator 19.1.0, SVG Export Plug-In . SVG Version: 6.00 Build 0)  -->
<svg version="1.1" id="Layer_1" xmlns="http://www.w3.org/2000/svg" xmlns:xlink="http://www.w3.org/1999/xlink" x="0px" y="0px"
	 viewBox="0 0 250 250" style="enable-background:new 0 0 250 250;" xml:space="preserve">
<style type="text/css">
	.st0{opacity:0.3;}
	.st1{fill:#FFFFFD;}
	.st2{fill:none;stroke:#F4EEE9;stroke-width:9.3745;stroke-linecap:round;stroke-miterlimit:10;}
	.st3{clip-path:url(#SVGID_2_);fill:url(#SVGID_3_);}
	.st4{clip-path:url(#SVGID_5_);fill:url(#SVGID_6_);}
	.st5{clip-path:url(#SVGID_8_);fill:url(#SVGID_9_);}
	.st6{clip-path:url(#SVGID_11_);fill:url(#SVGID_12_);}
	.st7{clip-path:url(#SVGID_14_);fill:url(#SVGID_15_);}
	.st8{clip-path:url(#SVGID_17_);fill:url(#SVGID_18_);}
	.st9{clip-path:url(#SVGID_20_);fill:url(#SVGID_21_);}
	.st10{clip-path:url(#SVGID_23_);fill:url(#SVGID_24_);}
	.st11{clip-path:url(#SVGID_26_);fill:url(#SVGID_27_);}
	.st12{clip-path:url(#SVGID_29_);fill:url(#SVGID_30_);}
	.st13{clip-path:url(#SVGID_32_);fill:url(#SVGID_33_);}
	.st14{clip-path:url(#SVGID_35_);fill:url(#SVGID_36_);}
	.st15{clip-path:url(#SVGID_38_);fill:url(#SVGID_39_);}
	.st16{clip-path:url(#SVGID_41_);fill:url(#SVGID_42_);}
	.st17{clip-path:url(#SVGID_44_);fill:url(#SVGID_45_);}
	.st18{clip-path:url(#SVGID_47_);fill:url(#SVGID_48_);}
	.st19{clip-path:url(#SVGID_50_);fill:url(#SVGID_51_);}
	.st20{clip-path:url(#SVGID_53_);fill:url(#SVGID_54_);}
	.st21{clip-path:url(#SVGID_56_);fill:url(#SVGID_57_);}
	.st22{clip-path:url(#SVGID_59_);fill:url(#SVGID_60_);}
</style>
<g>
	<g>
		<g>
			<g class="st0">
				<path d="M196.9,244.8H57.7c-23.4,0-42.4-19-42.4-42.4V61.7c0-23.4,19-42.4,42.4-42.4h139.2c23.4,0,42.4,19,42.4,42.4v140.6
					C239.4,225.8,220.4,244.8,196.9,244.8z"/>
			</g>
			<g>
				<path class="st1" d="M194.6,237.7H55.4c-23.4,0-42.4-19-42.4-42.4V54.7c0-23.4,19-42.4,42.4-42.4h139.2
					c23.4,0,42.4,19,42.4,42.4v140.6C237,218.7,218,237.7,194.6,237.7z"/>
			</g>
		</g>
		<path class="st2" d="M27.2,69c0-23.4,19-42.4,42.4-42.4h16.5"/>
		<path class="st2" d="M222.8,181c0,23.4-19,42.4-42.4,42.4"/>
		<line class="st2" x1="105.8" y1="26.6" x2="129.7" y2="26.6"/>
	</g>
	<g>
		<g>
			<defs>
				<path id="SVGID_1_" d="M71.7,68.1c-1,0-1.8,0.8-1.8,1.8v15.8h3.5v-14h105.1v52.5h-7v3.5h8.8c1,0,1.8-0.8,1.8-1.8v-56
					c0-1-0.8-1.8-1.8-1.8H71.7z"/>
			</defs>
			<clipPath id="SVGID_2_">
				<use xlink:href="#SVGID_1_"  style="overflow:visible;"/>
			</clipPath>
			
				<linearGradient id="SVGID_3_" gradientUnits="userSpaceOnUse" x1="-3409.5249" y1="2374.6694" x2="-3409.1948" y2="2374.6694" gradientTransform="matrix(339.5974 0 0 -339.5974 1157935.75 806529.4375)">
				<stop  offset="0" style="stop-color:#E300D6"/>
				<stop  offset="0.4662" style="stop-color:#4828BE"/>
				<stop  offset="1" style="stop-color:#4828BE"/>
			</linearGradient>
			<rect x="70" y="68.1" class="st3" width="112.1" height="59.5"/>
		</g>
		<g>
			<defs>
				<rect id="SVGID_4_" x="113.7" y="138.1" width="3.5" height="3.5"/>
			</defs>
			<clipPath id="SVGID_5_">
				<use xlink:href="#SVGID_4_"  style="overflow:visible;"/>
			</clipPath>
			
				<linearGradient id="SVGID_6_" gradientUnits="userSpaceOnUse" x1="-3279.1724" y1="2341.4619" x2="-3278.8425" y2="2341.4619" gradientTransform="matrix(10.6124 0 0 -10.6124 34913.6914 24988.4355)">
				<stop  offset="0" style="stop-color:#E300D6"/>
				<stop  offset="0.4662" style="stop-color:#4828BE"/>
				<stop  offset="1" style="stop-color:#4828BE"/>
			</linearGradient>
			<rect x="113.7" y="138.1" class="st4" width="3.5" height="3.5"/>
		</g>
		<g>
			<defs>
				<rect id="SVGID_7_" x="120.7" y="138.1" width="3.5" height="3.5"/>
			</defs>
			<clipPath id="SVGID_8_">
				<use xlink:href="#SVGID_7_"  style="overflow:visible;"/>
			</clipPath>
			
				<linearGradient id="SVGID_9_" gradientUnits="userSpaceOnUse" x1="-3280.5125" y1="2341.4619" x2="-3280.1826" y2="2341.4619" gradientTransform="matrix(10.6124 0 0 -10.6124 34934.918 24988.4355)">
				<stop  offset="0" style="stop-color:#E300D6"/>
				<stop  offset="0.4662" style="stop-color:#4828BE"/>
				<stop  offset="1" style="stop-color:#4828BE"/>
			</linearGradient>
			<rect x="120.7" y="138.1" class="st5" width="3.5" height="3.5"/>
		</g>
		<g>
			<defs>
				<rect id="SVGID_10_" x="127.7" y="138.1" width="3.5" height="3.5"/>
			</defs>
			<clipPath id="SVGID_11_">
				<use xlink:href="#SVGID_10_"  style="overflow:visible;"/>
			</clipPath>
			
				<linearGradient id="SVGID_12_" gradientUnits="userSpaceOnUse" x1="-3281.8525" y1="2341.4619" x2="-3281.5225" y2="2341.4619" gradientTransform="matrix(10.6124 0 0 -10.6124 34956.1406 24988.4355)">
				<stop  offset="0" style="stop-color:#E300D6"/>
				<stop  offset="0.4662" style="stop-color:#4828BE"/>
				<stop  offset="1" style="stop-color:#4828BE"/>
			</linearGradient>
			<rect x="127.7" y="138.1" class="st6" width="3.5" height="3.5"/>
		</g>
		<g>
			<defs>
				<rect id="SVGID_13_" x="134.8" y="138.1" width="3.5" height="3.5"/>
			</defs>
			<clipPath id="SVGID_14_">
				<use xlink:href="#SVGID_13_"  style="overflow:visible;"/>
			</clipPath>
			
				<linearGradient id="SVGID_15_" gradientUnits="userSpaceOnUse" x1="-3283.1924" y1="2341.4619" x2="-3282.8625" y2="2341.4619" gradientTransform="matrix(10.6124 0 0 -10.6124 34977.3672 24988.4355)">
				<stop  offset="0" style="stop-color:#E300D6"/>
				<stop  offset="0.4662" style="stop-color:#4828BE"/>
				<stop  offset="1" style="stop-color:#4828BE"/>
			</linearGradient>
			<rect x="134.8" y="138.1" class="st7" width="3.5" height="3.5"/>
		</g>
		<g>
			<defs>
				<rect id="SVGID_16_" x="164.5" y="162.6" width="3.5" height="17.5"/>
			</defs>
			<clipPath id="SVGID_17_">
				<use xlink:href="#SVGID_16_"  style="overflow:visible;"/>
			</clipPath>
			
				<linearGradient id="SVGID_18_" gradientUnits="userSpaceOnUse" x1="-3288.8875" y1="2347.4919" x2="-3288.5576" y2="2347.4919" gradientTransform="matrix(10.6124 0 0 -10.6124 35067.5703 25083.9473)">
				<stop  offset="0" style="stop-color:#E300D6"/>
				<stop  offset="0.4662" style="stop-color:#4828BE"/>
				<stop  offset="1" style="stop-color:#4828BE"/>
			</linearGradient>
			<rect x="164.5" y="162.6" class="st8" width="3.5" height="17.5"/>
		</g>
		<g>
			<defs>
				<path id="SVGID_19_" d="M94.9,152.1c-2.2,0-3.9,1.8-3.9,3.9v24.1h3.5v-24.1c0-0.2,0.2-0.4,0.4-0.4h62.2c0.2,0,0.4,0.2,0.4,0.4
					v24.1h3.5v-24.1c0-2.2-1.8-3.9-3.9-3.9H94.9z"/>
			</defs>
			<clipPath id="SVGID_20_">
				<use xlink:href="#SVGID_19_"  style="overflow:visible;"/>
			</clipPath>
			
				<linearGradient id="SVGID_21_" gradientUnits="userSpaceOnUse" x1="-3407.0408" y1="2374.5244" x2="-3406.7109" y2="2374.5244" gradientTransform="matrix(212.2484 0 0 -212.2484 723229.875 504155.0625)">
				<stop  offset="0" style="stop-color:#E300D6"/>
				<stop  offset="0.4662" style="stop-color:#4828BE"/>
				<stop  offset="1" style="stop-color:#4828BE"/>
			</linearGradient>
			<rect x="91" y="152.1" class="st9" width="70" height="28"/>
		</g>
		<g>
			<defs>
				<path id="SVGID_22_" d="M101.5,166.1c-1,0-1.8,0.8-1.8,1.8v12.3h3.5v-10.5h3.5v10.5h3.5v-12.3c0-1-0.8-1.8-1.8-1.8H101.5z"/>
			</defs>
			<clipPath id="SVGID_23_">
				<use xlink:href="#SVGID_22_"  style="overflow:visible;"/>
			</clipPath>
			
				<linearGradient id="SVGID_24_" gradientUnits="userSpaceOnUse" x1="-3368.1641" y1="2366.6089" x2="-3367.8342" y2="2366.6089" gradientTransform="matrix(31.8373 0 0 -31.8373 107332.8359 75519.4688)">
				<stop  offset="0" style="stop-color:#E300D6"/>
				<stop  offset="0.4662" style="stop-color:#4828BE"/>
				<stop  offset="1" style="stop-color:#4828BE"/>
			</linearGradient>
			<rect x="99.7" y="166.1" class="st10" width="10.5" height="14"/>
		</g>
		<g>
			<defs>
				<path id="SVGID_25_" d="M143.5,166.1c-1,0-1.8,0.8-1.8,1.8v12.3h3.5v-10.5h3.5v10.5h3.5v-12.3c0-1-0.8-1.8-1.8-1.8H143.5z"/>
			</defs>
			<clipPath id="SVGID_26_">
				<use xlink:href="#SVGID_25_"  style="overflow:visible;"/>
			</clipPath>
			
				<linearGradient id="SVGID_27_" gradientUnits="userSpaceOnUse" x1="-3370.8442" y1="2366.6089" x2="-3370.5142" y2="2366.6089" gradientTransform="matrix(31.8373 0 0 -31.8373 107460.1875 75519.4688)">
				<stop  offset="0" style="stop-color:#E300D6"/>
				<stop  offset="0.4662" style="stop-color:#4828BE"/>
				<stop  offset="1" style="stop-color:#4828BE"/>
			</linearGradient>
			<rect x="141.8" y="166.1" class="st11" width="10.5" height="14"/>
		</g>
		<g>
			<defs>
				<path id="SVGID_28_" d="M115.5,166.1c-1,0-1.8,0.8-1.8,1.8v12.3h3.5v-10.5h3.5v10.5h3.5v-12.3c0-1-0.8-1.8-1.8-1.8H115.5z"/>
			</defs>
			<clipPath id="SVGID_29_">
				<use xlink:href="#SVGID_28_"  style="overflow:visible;"/>
			</clipPath>
			
				<linearGradient id="SVGID_30_" gradientUnits="userSpaceOnUse" x1="-3369.0574" y1="2366.6089" x2="-3368.7275" y2="2366.6089" gradientTransform="matrix(31.8373 0 0 -31.8373 107375.2891 75519.4688)">
				<stop  offset="0" style="stop-color:#E300D6"/>
				<stop  offset="0.4662" style="stop-color:#4828BE"/>
				<stop  offset="1" style="stop-color:#4828BE"/>
			</linearGradient>
			<rect x="113.7" y="166.1" class="st12" width="10.5" height="14"/>
		</g>
		<g>
			<defs>
				<path id="SVGID_31_" d="M129.5,166.1c-1,0-1.8,0.8-1.8,1.8v12.3h3.5v-10.5h3.5v10.5h3.5v-12.3c0-1-0.8-1.8-1.8-1.8H129.5z"/>
			</defs>
			<clipPath id="SVGID_32_">
				<use xlink:href="#SVGID_31_"  style="overflow:visible;"/>
			</clipPath>
			
				<linearGradient id="SVGID_33_" gradientUnits="userSpaceOnUse" x1="-3369.9509" y1="2366.6089" x2="-3369.6208" y2="2366.6089" gradientTransform="matrix(31.8373 0 0 -31.8373 107417.7422 75519.4688)">
				<stop  offset="0" style="stop-color:#E300D6"/>
				<stop  offset="0.4662" style="stop-color:#4828BE"/>
				<stop  offset="1" style="stop-color:#4828BE"/>
			</linearGradient>
			<rect x="127.7" y="166.1" class="st13" width="10.5" height="14"/>
		</g>
		<g>
			<defs>
				<path id="SVGID_34_" d="M157.5,134.6v-19.3h7v19.3c0,1.9-1.6,3.5-3.5,3.5C159.1,138.1,157.5,136.5,157.5,134.6 M150.5,105.9
					v-2.8h21v2.8l-6,6h-9.1L150.5,105.9z M151.9,96.1h18.3l0.9,3.5h-20L151.9,96.1z M150.5,92.6c-0.8,0-1.5,0.5-1.7,1.3l-1.7,7
					c0,0.1-0.1,0.2-0.1,0.4c0,0,0,0,0,0c0,0,0,0,0,0v0c0,0,0,0,0,0v5.3c0,0.5,0.2,0.9,0.5,1.2l6.5,6.5v20.3c0,3.9,3.1,7,7,7
					c3.9,0,7-3.1,7-7v-20.3l6.5-6.5c0.3-0.3,0.5-0.8,0.5-1.2v-5.3c0,0,0,0,0,0c0,0,0,0,0,0c0,0,0,0,0,0c0,0,0,0,0,0
					c0-0.1,0-0.3-0.1-0.4l-1.7-7c-0.2-0.8-0.9-1.3-1.7-1.3H150.5z"/>
			</defs>
			<clipPath id="SVGID_35_">
				<use xlink:href="#SVGID_34_"  style="overflow:visible;"/>
			</clipPath>
			
				<linearGradient id="SVGID_36_" gradientUnits="userSpaceOnUse" x1="-3397.9421" y1="2371.1384" x2="-3397.6123" y2="2371.1384" gradientTransform="matrix(84.8994 0 0 -84.8994 288630.0938 201425.2031)">
				<stop  offset="0" style="stop-color:#E300D6"/>
				<stop  offset="0.4662" style="stop-color:#4828BE"/>
				<stop  offset="1" style="stop-color:#4828BE"/>
			</linearGradient>
			<rect x="147" y="92.6" class="st14" width="28" height="49"/>
		</g>
		<g>
			<defs>
				<rect id="SVGID_37_" x="159.3" y="120.6" width="3.5" height="7"/>
			</defs>
			<clipPath id="SVGID_38_">
				<use xlink:href="#SVGID_37_"  style="overflow:visible;"/>
			</clipPath>
			
				<linearGradient id="SVGID_39_" gradientUnits="userSpaceOnUse" x1="-3287.8826" y1="2338.447" x2="-3287.5525" y2="2338.447" gradientTransform="matrix(10.6124 0 0 -10.6124 35051.6523 24940.6797)">
				<stop  offset="0" style="stop-color:#E300D6"/>
				<stop  offset="0.4662" style="stop-color:#4828BE"/>
				<stop  offset="1" style="stop-color:#4828BE"/>
			</linearGradient>
			<rect x="159.3" y="120.6" class="st15" width="3.5" height="7"/>
		</g>
		<g>
			<defs>
				<rect id="SVGID_40_" x="99.7" y="89.1" width="7" height="3.5"/>
			</defs>
			<clipPath id="SVGID_41_">
				<use xlink:href="#SVGID_40_"  style="overflow:visible;"/>
			</clipPath>
			
				<linearGradient id="SVGID_42_" gradientUnits="userSpaceOnUse" x1="-3345.2463" y1="2354.041" x2="-3344.9163" y2="2354.041" gradientTransform="matrix(21.2248 0 0 -21.2248 71102.0391 50054.9688)">
				<stop  offset="0" style="stop-color:#E300D6"/>
				<stop  offset="0.4662" style="stop-color:#4828BE"/>
				<stop  offset="1" style="stop-color:#4828BE"/>
			</linearGradient>
			<rect x="99.7" y="89.1" class="st16" width="7" height="3.5"/>
		</g>
		<g>
			<defs>
				<path id="SVGID_43_" d="M105.7,134.8c0.1-0.1,0.2-0.2,0.3-0.2h39.8c0.1,0,0.3,0.1,0.3,0.2l7.7,10.3h-8.8v-7h-3.5v7h-31.5v-7
					h-3.5v7H98L105.7,134.8z M113.7,127.6h24.5v3.5h-24.5V127.6z M70,89.1v36.8c0,1,0.8,1.8,1.8,1.8h38.5v3.5h-4.2
					c-1.2,0-2.4,0.6-3.2,1.6l-9.3,12.4H78.7v3.5H84v31.5h3.5v-31.5h77v10.5h3.5v-10.5h5.3v-3.5h-14.9l-9.3-12.4
					c-0.7-1-1.9-1.6-3.2-1.6h-4.2v-3.5h8.8v-3.5h-77v-35H70z"/>
			</defs>
			<clipPath id="SVGID_44_">
				<use xlink:href="#SVGID_43_"  style="overflow:visible;"/>
			</clipPath>
			
				<linearGradient id="SVGID_45_" gradientUnits="userSpaceOnUse" x1="-3409.1458" y1="2374.7952" x2="-3408.8157" y2="2374.7952" gradientTransform="matrix(313.0664 0 0 -313.0664 1067358.875 743603.125)">
				<stop  offset="0" style="stop-color:#E300D6"/>
				<stop  offset="0.4662" style="stop-color:#4828BE"/>
				<stop  offset="1" style="stop-color:#4828BE"/>
			</linearGradient>
			<rect x="70" y="89.1" class="st17" width="103.3" height="91.1"/>
		</g>
		<g>
			<defs>
				<rect id="SVGID_46_" x="87.5" y="75.1" width="3.5" height="3.5"/>
			</defs>
			<clipPath id="SVGID_47_">
				<use xlink:href="#SVGID_46_"  style="overflow:visible;"/>
			</clipPath>
			
				<linearGradient id="SVGID_48_" gradientUnits="userSpaceOnUse" x1="-3274.1475" y1="2329.4021" x2="-3273.8174" y2="2329.4021" gradientTransform="matrix(10.6124 0 0 -10.6124 34834.0977 24797.4121)">
				<stop  offset="0" style="stop-color:#E300D6"/>
				<stop  offset="0.4662" style="stop-color:#4828BE"/>
				<stop  offset="1" style="stop-color:#4828BE"/>
			</linearGradient>
			<rect x="87.5" y="75.1" class="st18" width="3.5" height="3.5"/>
		</g>
		<g>
			<defs>
				<rect id="SVGID_49_" x="77" y="75.1" width="7" height="3.5"/>
			</defs>
			<clipPath id="SVGID_50_">
				<use xlink:href="#SVGID_49_"  style="overflow:visible;"/>
			</clipPath>
			
				<linearGradient id="SVGID_51_" gradientUnits="userSpaceOnUse" x1="-3343.0688" y1="2352.7009" x2="-3342.7388" y2="2352.7009" gradientTransform="matrix(21.2248 0 0 -21.2248 71033.0625 50012.5195)">
				<stop  offset="0" style="stop-color:#E300D6"/>
				<stop  offset="0.4662" style="stop-color:#4828BE"/>
				<stop  offset="1" style="stop-color:#4828BE"/>
			</linearGradient>
			<rect x="77" y="75.1" class="st19" width="7" height="3.5"/>
		</g>
		<g>
			<defs>
				<rect id="SVGID_52_" x="127.7" y="159.1" width="24.5" height="3.5"/>
			</defs>
			<clipPath id="SVGID_53_">
				<use xlink:href="#SVGID_52_"  style="overflow:visible;"/>
			</clipPath>
			
				<linearGradient id="SVGID_54_" gradientUnits="userSpaceOnUse" x1="-3395.1218" y1="2371.6404" x2="-3394.7917" y2="2371.6404" gradientTransform="matrix(74.2869 0 0 -74.2869 252340.9375 176342.75)">
				<stop  offset="0" style="stop-color:#E300D6"/>
				<stop  offset="0.4662" style="stop-color:#4828BE"/>
				<stop  offset="1" style="stop-color:#4828BE"/>
			</linearGradient>
			<rect x="127.7" y="159.1" class="st20" width="24.5" height="3.5"/>
		</g>
		<g>
			<defs>
				<rect id="SVGID_55_" x="99.7" y="159.1" width="24.5" height="3.5"/>
			</defs>
			<clipPath id="SVGID_56_">
				<use xlink:href="#SVGID_55_"  style="overflow:visible;"/>
			</clipPath>
			
				<linearGradient id="SVGID_57_" gradientUnits="userSpaceOnUse" x1="-3394.356" y1="2371.6404" x2="-3394.0261" y2="2371.6404" gradientTransform="matrix(74.2869 0 0 -74.2869 252256.0313 176342.75)">
				<stop  offset="0" style="stop-color:#E300D6"/>
				<stop  offset="0.4662" style="stop-color:#4828BE"/>
				<stop  offset="1" style="stop-color:#4828BE"/>
			</linearGradient>
			<rect x="99.7" y="159.1" class="st21" width="24.5" height="3.5"/>
		</g>
		<g>
			<defs>
				<path id="SVGID_58_" d="M114.4,114.6c1.3-2.1,3.1-3.4,5.4-3.9c0.8-0.2,1.4-0.9,1.4-1.7c0-3.2,1.1-6.5,2.9-9
					c1.8-2.4,4.2-3.9,6.5-3.9c6.8,0,9.4,4.4,9.4,15.6c0,0.9,0,1.8-0.1,2.5c-4.6,0.8-9.3,1.1-14,1.1
					C122.1,115.4,118.2,115.1,114.4,114.6 M87.8,106.4l12.7-25.5c4.3,2,8.7,3.6,13.2,4.5v2.4c0,5.1,2.9,9.4,6.9,11
					c-1.6,2.6-2.7,5.7-2.9,8.7c-3,1.1-5.4,3.2-7,6.4C102.8,112.6,95.1,110,87.8,106.4 M151.5,77c-15.9,8.3-35,8.3-50.9,0
					c-0.4-0.2-0.9-0.3-1.3-0.1c-0.4,0.1-0.8,0.5-1,0.9l-14.3,28.6c-0.4,0.9-0.1,1.9,0.8,2.3c12.9,6.7,27.1,10.1,41.4,10.1
					c7.8,0,15.6-1,23.2-3.1l-0.9-3.4c-1.6,0.4-3.2,0.8-4.8,1.1c0-0.6,0-1.2,0-1.9c0-6-0.7-10-2.2-13.1c-2.1-4-5.6-6-10.7-6
					c-2.7,0-5.4,1.2-7.6,3.4c-3.3-0.7-5.7-4.1-5.7-8.1v-1.8c11.5,1.7,23.5,0,34.2-5.1l4.5,8.9l3.1-1.6l-5.3-10.5
					c-0.2-0.4-0.6-0.7-1-0.9c-0.2-0.1-0.4-0.1-0.5-0.1C152,76.8,151.7,76.9,151.5,77"/>
			</defs>
			<clipPath id="SVGID_59_">
				<use xlink:href="#SVGID_58_"  style="overflow:visible;"/>
			</clipPath>
			
				<linearGradient id="SVGID_60_" gradientUnits="userSpaceOnUse" x1="-3407.4717" y1="2374.0229" x2="-3407.1416" y2="2374.0229" gradientTransform="matrix(228.5279 0 0 -228.5279 778785.9375 542628.25)">
				<stop  offset="0" style="stop-color:#E300D6"/>
				<stop  offset="0.4662" style="stop-color:#4828BE"/>
				<stop  offset="1" style="stop-color:#4828BE"/>
			</linearGradient>
			<rect x="83.4" y="76.8" class="st22" width="75.7" height="42.1"/>
		</g>
	</g>
</g>
</svg>
