<?xml version="1.0" encoding="utf-8"?>
<!-- Generator: Adobe Illustrator 19.1.0, SVG Export Plug-In . SVG Version: 6.00 Build 0)  -->
<svg version="1.1" id="Layer_1" xmlns="http://www.w3.org/2000/svg" xmlns:xlink="http://www.w3.org/1999/xlink" x="0px" y="0px"
	 viewBox="0 0 250 250" style="enable-background:new 0 0 250 250;" xml:space="preserve">
<style type="text/css">
	.st0{opacity:0.3;}
	.st1{fill:#FFFFFD;}
	.st2{fill:none;stroke:#F4EEE9;stroke-width:9.3745;stroke-linecap:round;stroke-miterlimit:10;}
	.st3{clip-path:url(#SVGID_2_);fill:url(#SVGID_3_);}
	.st4{clip-path:url(#SVGID_5_);fill:url(#SVGID_6_);}
	.st5{clip-path:url(#SVGID_8_);fill:url(#SVGID_9_);}
	.st6{clip-path:url(#SVGID_11_);fill:url(#SVGID_12_);}
	.st7{clip-path:url(#SVGID_14_);fill:url(#SVGID_15_);}
	.st8{clip-path:url(#SVGID_17_);fill:url(#SVGID_18_);}
	.st9{clip-path:url(#SVGID_20_);fill:url(#SVGID_21_);}
	.st10{clip-path:url(#SVGID_23_);fill:url(#SVGID_24_);}
	.st11{clip-path:url(#SVGID_26_);fill:url(#SVGID_27_);}
	.st12{clip-path:url(#SVGID_29_);fill:url(#SVGID_30_);}
	.st13{clip-path:url(#SVGID_32_);fill:url(#SVGID_33_);}
	.st14{clip-path:url(#SVGID_35_);fill:url(#SVGID_36_);}
	.st15{clip-path:url(#SVGID_38_);fill:url(#SVGID_39_);}
	.st16{clip-path:url(#SVGID_41_);fill:url(#SVGID_42_);}
	.st17{clip-path:url(#SVGID_44_);fill:url(#SVGID_45_);}
	.st18{clip-path:url(#SVGID_47_);fill:url(#SVGID_48_);}
	.st19{clip-path:url(#SVGID_50_);fill:url(#SVGID_51_);}
	.st20{clip-path:url(#SVGID_53_);fill:url(#SVGID_54_);}
</style>
<g>
	<g>
		<g>
			<g class="st0">
				<path d="M196.9,244.8H57.7c-23.4,0-42.4-19-42.4-42.4V61.7c0-23.4,19-42.4,42.4-42.4h139.2c23.4,0,42.4,19,42.4,42.4v140.6
					C239.4,225.8,220.4,244.8,196.9,244.8z"/>
			</g>
			<g>
				<path class="st1" d="M194.6,237.7H55.4c-23.4,0-42.4-19-42.4-42.4V54.7c0-23.4,19-42.4,42.4-42.4h139.2
					c23.4,0,42.4,19,42.4,42.4v140.6C237,218.7,218,237.7,194.6,237.7z"/>
			</g>
		</g>
		<path class="st2" d="M27.2,69c0-23.4,19-42.4,42.4-42.4h16.5"/>
		<path class="st2" d="M222.8,181c0,23.4-19,42.4-42.4,42.4"/>
		<line class="st2" x1="105.8" y1="26.6" x2="129.7" y2="26.6"/>
	</g>
	<g>
		<g>
			<defs>
				<path id="SVGID_1_" d="M70.2,95.4v75.3c0,5.8,4.7,10.5,10.5,10.5h50.8v-3.5H80.7c-3.9,0-7-3.1-7-7V95.4H70.2z"/>
			</defs>
			<clipPath id="SVGID_2_">
				<use xlink:href="#SVGID_1_"  style="overflow:visible;"/>
			</clipPath>
			
				<linearGradient id="SVGID_3_" gradientUnits="userSpaceOnUse" x1="-3405.8196" y1="2377.6331" x2="-3405.4897" y2="2377.6331" gradientTransform="matrix(185.7173 0 0 -185.7173 632590 441706)">
				<stop  offset="0" style="stop-color:#E300D6"/>
				<stop  offset="0.4662" style="stop-color:#4828BE"/>
				<stop  offset="1" style="stop-color:#4828BE"/>
			</linearGradient>
			<rect x="70.2" y="95.4" class="st3" width="61.3" height="85.8"/>
		</g>
		<g>
			<defs>
				<path id="SVGID_4_" d="M80.7,166.3v-5.3c0-1.4,1.2-2.6,2.6-2.6h19.3c1.4,0,2.6,1.2,2.6,2.6v5.3c0,1.4-1.2,2.6-2.6,2.6H83.3
					C81.9,169,80.7,167.8,80.7,166.3 M83.3,155c-3.4,0-6.1,2.7-6.1,6.1v5.3c0,3.4,2.7,6.1,6.1,6.1h19.3c3.4,0,6.1-2.7,6.1-6.1v-5.3
					c0-3.4-2.7-6.1-6.1-6.1H83.3z"/>
			</defs>
			<clipPath id="SVGID_5_">
				<use xlink:href="#SVGID_4_"  style="overflow:visible;"/>
			</clipPath>
			
				<linearGradient id="SVGID_6_" gradientUnits="userSpaceOnUse" x1="-3398.2427" y1="2379.7148" x2="-3397.9126" y2="2379.7148" gradientTransform="matrix(95.5118 0 0 -95.5118 324649.4063 227454.5)">
				<stop  offset="0" style="stop-color:#E300D6"/>
				<stop  offset="0.4662" style="stop-color:#4828BE"/>
				<stop  offset="1" style="stop-color:#4828BE"/>
			</linearGradient>
			<rect x="77.2" y="155" class="st4" width="31.5" height="17.5"/>
		</g>
		<g>
			<defs>
				<path id="SVGID_7_" d="M95.1,112.9h6.7c0.6,0,1.1-0.3,1.4-0.7l3.3-4.4l4.1,11c0.2,0.6,0.8,1,1.4,1.1c0.1,0,0.2,0,0.2,0
					c0.5,0,1.1-0.3,1.4-0.7l4.7-6.3h7.5l-15.4,16.7L95.1,112.9z M111.8,98.6l3.3-3.6c1.8-2,4.2-3,6.8-3c2.5,0,4.9,1.1,6.8,3
					c3.7,4,3.8,10.3,0.5,14.5h-11.6c-0.6,0-1.1,0.3-1.4,0.7l-3.3,4.4l-4.1-11c-0.2-0.6-0.8-1-1.4-1.1c-0.6-0.1-1.3,0.2-1.6,0.7
					l-4.7,6.3h-9c-3.3-4.2-3.2-10.5,0.5-14.5c1.8-2,4.2-3,6.8-3c2.5,0,4.9,1.1,6.8,3l3.3,3.6c0.3,0.4,0.8,0.6,1.3,0.6
					C111,99.1,111.4,98.9,111.8,98.6 M112.5,92.6l-2,2.2l-2-2.2c-2.5-2.7-5.8-4.2-9.3-4.2c-3.5,0-6.8,1.5-9.3,4.2
					c-4.2,4.6-4.9,11.5-2.1,16.8h-3.5v3.5h6.1l18.9,20.4c0.3,0.4,0.8,0.6,1.3,0.6c0.5,0,1-0.2,1.3-0.6l18.9-20.4h6.1v-3.5h-3.5
					c2.8-5.3,2.1-12.3-2.1-16.8c-2.5-2.7-5.8-4.2-9.3-4.2C118.3,88.4,115,89.9,112.5,92.6"/>
			</defs>
			<clipPath id="SVGID_8_">
				<use xlink:href="#SVGID_7_"  style="overflow:visible;"/>
			</clipPath>
			
				<linearGradient id="SVGID_9_" gradientUnits="userSpaceOnUse" x1="-3404.635" y1="2377.5588" x2="-3404.3049" y2="2377.5588" gradientTransform="matrix(159.1863 0 0 -159.1863 542055.4375 378585.9688)">
				<stop  offset="0" style="stop-color:#E300D6"/>
				<stop  offset="0.4662" style="stop-color:#4828BE"/>
				<stop  offset="1" style="stop-color:#4828BE"/>
			</linearGradient>
			<rect x="84.2" y="88.4" class="st5" width="52.5" height="45.5"/>
		</g>
		<g>
			<defs>
				<path id="SVGID_10_" d="M83.3,77.9c-3.4,0-6.1,2.7-6.1,6.1v57.8c0,3.4,2.7,6.1,6.1,6.1h49.9v-3.5H83.3c-1.4,0-2.6-1.2-2.6-2.6
					V84c0-1.4,1.2-2.6,2.6-2.6h54.3c1.4,0,2.6,1.2,2.6,2.6v27.1h3.5V84c0-3.4-2.7-6.1-6.1-6.1H83.3z"/>
			</defs>
			<clipPath id="SVGID_11_">
				<use xlink:href="#SVGID_10_"  style="overflow:visible;"/>
			</clipPath>
			
				<linearGradient id="SVGID_12_" gradientUnits="userSpaceOnUse" x1="-3406.5361" y1="2377.2483" x2="-3406.2061" y2="2377.2483" gradientTransform="matrix(201.636 0 0 -201.636 686957.4375 479451.7188)">
				<stop  offset="0" style="stop-color:#E300D6"/>
				<stop  offset="0.4662" style="stop-color:#4828BE"/>
				<stop  offset="1" style="stop-color:#4828BE"/>
			</linearGradient>
			<rect x="77.2" y="77.9" class="st6" width="66.5" height="70"/>
		</g>
		<g>
			<defs>
				<rect id="SVGID_13_" x="119.2" y="155" width="12.3" height="3.5"/>
			</defs>
			<clipPath id="SVGID_14_">
				<use xlink:href="#SVGID_13_"  style="overflow:visible;"/>
			</clipPath>
			
				<linearGradient id="SVGID_15_" gradientUnits="userSpaceOnUse" x1="-3375.7783" y1="2385.1697" x2="-3375.4482" y2="2385.1697" gradientTransform="matrix(37.1435 0 0 -37.1435 125507.3516 88750.1797)">
				<stop  offset="0" style="stop-color:#E300D6"/>
				<stop  offset="0.4662" style="stop-color:#4828BE"/>
				<stop  offset="1" style="stop-color:#4828BE"/>
			</linearGradient>
			<rect x="119.2" y="155" class="st7" width="12.3" height="3.5"/>
		</g>
		<g>
			<defs>
				<rect id="SVGID_16_" x="112.2" y="155" width="3.5" height="3.5"/>
			</defs>
			<clipPath id="SVGID_17_">
				<use xlink:href="#SVGID_16_"  style="overflow:visible;"/>
			</clipPath>
			
				<linearGradient id="SVGID_18_" gradientUnits="userSpaceOnUse" x1="-3278.8843" y1="2408.0942" x2="-3278.5544" y2="2408.0942" gradientTransform="matrix(10.6124 0 0 -10.6124 34909.1289 25712.4121)">
				<stop  offset="0" style="stop-color:#E300D6"/>
				<stop  offset="0.4662" style="stop-color:#4828BE"/>
				<stop  offset="1" style="stop-color:#4828BE"/>
			</linearGradient>
			<rect x="112.2" y="155" class="st8" width="3.5" height="3.5"/>
		</g>
		<g>
			<defs>
				<rect id="SVGID_19_" x="119.2" y="162" width="12.3" height="3.5"/>
			</defs>
			<clipPath id="SVGID_20_">
				<use xlink:href="#SVGID_19_"  style="overflow:visible;"/>
			</clipPath>
			
				<linearGradient id="SVGID_21_" gradientUnits="userSpaceOnUse" x1="-3375.7783" y1="2385.5527" x2="-3375.4482" y2="2385.5527" gradientTransform="matrix(37.1435 0 0 -37.1435 125507.3516 88771.4063)">
				<stop  offset="0" style="stop-color:#E300D6"/>
				<stop  offset="0.4662" style="stop-color:#4828BE"/>
				<stop  offset="1" style="stop-color:#4828BE"/>
			</linearGradient>
			<rect x="119.2" y="162" class="st9" width="12.3" height="3.5"/>
		</g>
		<g>
			<defs>
				<rect id="SVGID_22_" x="112.2" y="162" width="3.5" height="3.5"/>
			</defs>
			<clipPath id="SVGID_23_">
				<use xlink:href="#SVGID_22_"  style="overflow:visible;"/>
			</clipPath>
			
				<linearGradient id="SVGID_24_" gradientUnits="userSpaceOnUse" x1="-3278.8843" y1="2409.4343" x2="-3278.5544" y2="2409.4343" gradientTransform="matrix(10.6124 0 0 -10.6124 34909.1289 25733.6367)">
				<stop  offset="0" style="stop-color:#E300D6"/>
				<stop  offset="0.4662" style="stop-color:#4828BE"/>
				<stop  offset="1" style="stop-color:#4828BE"/>
			</linearGradient>
			<rect x="112.2" y="162" class="st10" width="3.5" height="3.5"/>
		</g>
		<g>
			<defs>
				<rect id="SVGID_25_" x="119.2" y="169" width="12.3" height="3.5"/>
			</defs>
			<clipPath id="SVGID_26_">
				<use xlink:href="#SVGID_25_"  style="overflow:visible;"/>
			</clipPath>
			
				<linearGradient id="SVGID_27_" gradientUnits="userSpaceOnUse" x1="-3375.7783" y1="2385.9355" x2="-3375.4482" y2="2385.9355" gradientTransform="matrix(37.1435 0 0 -37.1435 125507.3516 88792.6328)">
				<stop  offset="0" style="stop-color:#E300D6"/>
				<stop  offset="0.4662" style="stop-color:#4828BE"/>
				<stop  offset="1" style="stop-color:#4828BE"/>
			</linearGradient>
			<rect x="119.2" y="169" class="st11" width="12.3" height="3.5"/>
		</g>
		<g>
			<defs>
				<rect id="SVGID_28_" x="112.2" y="169" width="3.5" height="3.5"/>
			</defs>
			<clipPath id="SVGID_29_">
				<use xlink:href="#SVGID_28_"  style="overflow:visible;"/>
			</clipPath>
			
				<linearGradient id="SVGID_30_" gradientUnits="userSpaceOnUse" x1="-3278.8843" y1="2410.7742" x2="-3278.5544" y2="2410.7742" gradientTransform="matrix(10.6124 0 0 -10.6124 34909.1289 25754.8613)">
				<stop  offset="0" style="stop-color:#E300D6"/>
				<stop  offset="0.4662" style="stop-color:#4828BE"/>
				<stop  offset="1" style="stop-color:#4828BE"/>
			</linearGradient>
			<rect x="112.2" y="169" class="st12" width="3.5" height="3.5"/>
		</g>
		<g>
			<defs>
				<rect id="SVGID_31_" x="84.2" y="84.9" width="3.5" height="3.5"/>
			</defs>
			<clipPath id="SVGID_32_">
				<use xlink:href="#SVGID_31_"  style="overflow:visible;"/>
			</clipPath>
			
				<linearGradient id="SVGID_33_" gradientUnits="userSpaceOnUse" x1="-3273.5244" y1="2394.6941" x2="-3273.1943" y2="2394.6941" gradientTransform="matrix(10.6124 0 0 -10.6124 34824.2266 25500.1621)">
				<stop  offset="0" style="stop-color:#E300D6"/>
				<stop  offset="0.4662" style="stop-color:#4828BE"/>
				<stop  offset="1" style="stop-color:#4828BE"/>
			</linearGradient>
			<rect x="84.2" y="84.9" class="st13" width="3.5" height="3.5"/>
		</g>
		<g>
			<defs>
				<rect id="SVGID_34_" x="133.2" y="84.9" width="3.5" height="3.5"/>
			</defs>
			<clipPath id="SVGID_35_">
				<use xlink:href="#SVGID_34_"  style="overflow:visible;"/>
			</clipPath>
			
				<linearGradient id="SVGID_36_" gradientUnits="userSpaceOnUse" x1="-3282.9043" y1="2394.6941" x2="-3282.5742" y2="2394.6941" gradientTransform="matrix(10.6124 0 0 -10.6124 34972.8008 25500.1621)">
				<stop  offset="0" style="stop-color:#E300D6"/>
				<stop  offset="0.4662" style="stop-color:#4828BE"/>
				<stop  offset="1" style="stop-color:#4828BE"/>
			</linearGradient>
			<rect x="133.2" y="84.9" class="st14" width="3.5" height="3.5"/>
		</g>
		<g>
			<defs>
				<rect id="SVGID_37_" x="91.2" y="130.4" width="10.5" height="3.5"/>
			</defs>
			<clipPath id="SVGID_38_">
				<use xlink:href="#SVGID_37_"  style="overflow:visible;"/>
			</clipPath>
			
				<linearGradient id="SVGID_39_" gradientUnits="userSpaceOnUse" x1="-3367.6213" y1="2385.1348" x2="-3367.2915" y2="2385.1348" gradientTransform="matrix(31.8373 0 0 -31.8373 107307.0469 76068.3438)">
				<stop  offset="0" style="stop-color:#E300D6"/>
				<stop  offset="0.4662" style="stop-color:#4828BE"/>
				<stop  offset="1" style="stop-color:#4828BE"/>
			</linearGradient>
			<rect x="91.2" y="130.4" class="st15" width="10.5" height="3.5"/>
		</g>
		<g>
			<defs>
				<rect id="SVGID_40_" x="84.2" y="130.4" width="3.5" height="3.5"/>
			</defs>
			<clipPath id="SVGID_41_">
				<use xlink:href="#SVGID_40_"  style="overflow:visible;"/>
			</clipPath>
			
				<linearGradient id="SVGID_42_" gradientUnits="userSpaceOnUse" x1="-3273.5244" y1="2403.4043" x2="-3273.1943" y2="2403.4043" gradientTransform="matrix(10.6124 0 0 -10.6124 34824.2266 25638.125)">
				<stop  offset="0" style="stop-color:#E300D6"/>
				<stop  offset="0.4662" style="stop-color:#4828BE"/>
				<stop  offset="1" style="stop-color:#4828BE"/>
			</linearGradient>
			<rect x="84.2" y="130.4" class="st16" width="3.5" height="3.5"/>
		</g>
		<g>
			<defs>
				<rect id="SVGID_43_" x="96.5" y="137.4" width="8.8" height="3.5"/>
			</defs>
			<clipPath id="SVGID_44_">
				<use xlink:href="#SVGID_43_"  style="overflow:visible;"/>
			</clipPath>
			
				<linearGradient id="SVGID_45_" gradientUnits="userSpaceOnUse" x1="-3358.7478" y1="2387.4976" x2="-3358.4177" y2="2387.4976" gradientTransform="matrix(26.531 0 0 -26.531 89207.5703 63482.0117)">
				<stop  offset="0" style="stop-color:#E300D6"/>
				<stop  offset="0.4662" style="stop-color:#4828BE"/>
				<stop  offset="1" style="stop-color:#4828BE"/>
			</linearGradient>
			<rect x="96.5" y="137.4" class="st17" width="8.8" height="3.5"/>
		</g>
		<g>
			<defs>
				<rect id="SVGID_46_" x="84.2" y="137.4" width="8.8" height="3.5"/>
			</defs>
			<clipPath id="SVGID_47_">
				<use xlink:href="#SVGID_46_"  style="overflow:visible;"/>
			</clipPath>
			
				<linearGradient id="SVGID_48_" gradientUnits="userSpaceOnUse" x1="-3357.8098" y1="2387.4976" x2="-3357.4797" y2="2387.4976" gradientTransform="matrix(26.531 0 0 -26.531 89170.4297 63482.0117)">
				<stop  offset="0" style="stop-color:#E300D6"/>
				<stop  offset="0.4662" style="stop-color:#4828BE"/>
				<stop  offset="1" style="stop-color:#4828BE"/>
			</linearGradient>
			<rect x="84.2" y="137.4" class="st18" width="8.8" height="3.5"/>
		</g>
		<g>
			<defs>
				<path id="SVGID_49_" d="M157.8,148c0-3.9,3.1-7,7-7c3.9,0,7,3.1,7,7c0,3.9-3.1,7-7,7C160.9,155,157.8,151.8,157.8,148
					 M138.5,175.1v-54.3c0-1.4,1.2-2.6,2.6-2.6h7.7c-1,1.4-1.5,3-1.5,4.8v49.9c0,1.8,0.6,3.5,1.5,4.8h-7.7
					C139.7,177.7,138.5,176.5,138.5,175.1 M150.8,172.9V123c0-2.7,2.2-4.8,4.8-4.8h0.4v24c-1.1,1.7-1.8,3.7-1.8,5.8
					c0,2.1,0.6,4.1,1.8,5.8v24h-0.4C152.9,177.7,150.8,175.6,150.8,172.9 M150.8,84.9h11.8c5.1,0,9.2,4.1,9.2,9.2v20.6h-3.5V94.5
					c0-3.4-2.7-6.1-6.1-6.1h-11.4V84.9z M80.7,69.2c-5.8,0-10.5,4.7-10.5,10.5v12.3h3.5V79.7c0-3.9,3.1-7,7-7h59.5c3.9,0,7,3.1,7,7
					v31.5h3.5V91.9h11.4c1.4,0,2.6,1.2,2.6,2.6v20.1h-23.6c-3.4,0-6.1,2.7-6.1,6.1v54.3c0,3.4,2.7,6.1,6.1,6.1h35
					c3.4,0,6.1-2.7,6.1-6.1v-41.1h-3.5v41.1c0,1.4-1.2,2.6-2.6,2.6h-16.6V157c1.5,0.9,3.3,1.4,5.3,1.4c5.8,0,10.5-4.7,10.5-10.5
					c0-5.8-4.7-10.5-10.5-10.5c-1.9,0-3.7,0.5-5.3,1.4v-20.7h16.6c1.4,0,2.6,1.2,2.6,2.6v9.6h3.5v-9.6c0-3.4-2.7-6.1-6.1-6.1h-0.9
					V94.1c0-7-5.7-12.7-12.7-12.7h-11.8v-1.8c0-5.8-4.7-10.5-10.5-10.5H80.7z"/>
			</defs>
			<clipPath id="SVGID_50_">
				<use xlink:href="#SVGID_49_"  style="overflow:visible;"/>
			</clipPath>
			
				<linearGradient id="SVGID_51_" gradientUnits="userSpaceOnUse" x1="-3409.5264" y1="2376.8145" x2="-3409.1963" y2="2376.8145" gradientTransform="matrix(339.5974 0 0 -339.5974 1157936.5 807285.25)">
				<stop  offset="0" style="stop-color:#E300D6"/>
				<stop  offset="0.4662" style="stop-color:#4828BE"/>
				<stop  offset="1" style="stop-color:#4828BE"/>
			</linearGradient>
			<rect x="70.2" y="69.2" class="st19" width="112.1" height="112.1"/>
		</g>
		<g>
			<defs>
				<polygon id="SVGID_52_" points="163,142.7 163,146.2 159.5,146.2 159.5,149.7 163,149.7 163,153.2 166.5,153.2 166.5,149.7 
					170,149.7 170,146.2 166.5,146.2 166.5,142.7 				"/>
			</defs>
			<clipPath id="SVGID_53_">
				<use xlink:href="#SVGID_52_"  style="overflow:visible;"/>
			</clipPath>
			
				<linearGradient id="SVGID_54_" gradientUnits="userSpaceOnUse" x1="-3371.9763" y1="2386.1396" x2="-3371.6465" y2="2386.1396" gradientTransform="matrix(31.8373 0 0 -31.8373 107513.9922 76116.0938)">
				<stop  offset="0" style="stop-color:#E300D6"/>
				<stop  offset="0.4662" style="stop-color:#4828BE"/>
				<stop  offset="1" style="stop-color:#4828BE"/>
			</linearGradient>
			<rect x="159.5" y="142.7" class="st20" width="10.5" height="10.5"/>
		</g>
	</g>
</g>
</svg>
