<?xml version="1.0" encoding="utf-8"?>
<!-- Generator: Adobe Illustrator 19.1.0, SVG Export Plug-In . SVG Version: 6.00 Build 0)  -->
<svg version="1.1" id="Layer_1" xmlns="http://www.w3.org/2000/svg" xmlns:xlink="http://www.w3.org/1999/xlink" x="0px" y="0px"
	 viewBox="0 0 250 250" style="enable-background:new 0 0 250 250;" xml:space="preserve">
<style type="text/css">
	.st0{opacity:0.3;}
	.st1{fill:#FFFFFD;}
	.st2{fill:none;stroke:#F4EEE9;stroke-width:9.3745;stroke-linecap:round;stroke-miterlimit:10;}
	.st3{clip-path:url(#SVGID_2_);fill:url(#SVGID_3_);}
</style>
<g>
	<g>
		<g>
			<g class="st0">
				<path d="M196.9,244.8H57.7c-23.4,0-42.4-19-42.4-42.4V61.7c0-23.4,19-42.4,42.4-42.4h139.2c23.4,0,42.4,19,42.4,42.4v140.6
					C239.4,225.8,220.4,244.8,196.9,244.8z"/>
			</g>
			<g>
				<path class="st1" d="M194.6,237.7H55.4c-23.4,0-42.4-19-42.4-42.4V54.7c0-23.4,19-42.4,42.4-42.4h139.2
					c23.4,0,42.4,19,42.4,42.4v140.6C237,218.7,218,237.7,194.6,237.7z"/>
			</g>
		</g>
		<path class="st2" d="M27.2,69c0-23.4,19-42.4,42.4-42.4h16.5"/>
		<path class="st2" d="M222.8,181c0,23.4-19,42.4-42.4,42.4"/>
		<line class="st2" x1="105.8" y1="26.6" x2="129.7" y2="26.6"/>
	</g>
	<g>
		<g>
			<defs>
				<path id="SVGID_1_" d="M70.1,144.7h1H70.1z M82.3,154.6c-3.5-2-5.7-5.8-5.7-9.9c0-2.6,0.8-5,2.4-7c0.5-0.7,1-1.2,1.4-1.6
					c11.8-11.8,24.4-24.4,36.8-36.8c4.3-4.3,9.7-5.1,14.5-2.3c0.9,0.5,1.8,1.3,2.9,2.3c11.1,11,23.1,23,36.7,36.7
					c2.5,2.5,3.9,5.6,3.9,8.8c0,2.6-0.9,5.1-2.6,7.2c-3.7,4.6-10.8,5.4-15.5,1.9c-0.7-0.5-1.4-1.2-2.2-1.9
					c-6.9-6.9-13.9-13.9-20.8-20.8l-8.2-8.2c-3.4,3.4-6.8,6.8-10.3,10.3c-6.3,6.3-12.7,12.7-19,19c-2.6,2.6-5.6,3.9-8.6,3.9
					C86.1,156.2,84.2,155.7,82.3,154.6 M113.5,95.3c-9.8,9.7-19.7,19.6-29.2,29.2l-7.7,7.7c-0.5,0.5-1,1-1.4,1.5
					c-2.6,3-4,6.9-4,10.9c0,6,2.9,11.3,7.9,14.4c7,4.3,15.3,3.3,21.3-2.6c6.4-6.3,12.8-12.8,19-19l4-4c0.1-0.1,0.2-0.3,0.4-0.6
					c0.1-0.2,0.3-0.4,0.5-0.7l1.5-2l1.6,1.9c0.3,0.3,0.5,0.6,0.7,0.8c0.3,0.4,0.5,0.6,0.7,0.8c2.3,2.3,4.6,4.6,6.8,6.8
					c5.6,5.6,11.3,11.4,17.1,16.9c5.1,4.9,13.3,5.8,19.6,2.1c5.3-3.1,8.5-8.6,8.5-14.6c0-4.6-1.9-9-5.3-12.4
					c-12.2-12.3-24.6-24.6-37.2-37.2c-1.1-1.1-2.2-2-3.3-2.7c-2.9-1.8-6-2.7-9-2.7C121.5,89.9,117.1,91.7,113.5,95.3"/>
			</defs>
			<clipPath id="SVGID_2_">
				<use xlink:href="#SVGID_1_"  style="overflow:visible;"/>
			</clipPath>
			
				<linearGradient id="SVGID_3_" gradientUnits="userSpaceOnUse" x1="-3407.4688" y1="2378.8694" x2="-3407.1387" y2="2378.8694" gradientTransform="matrix(335.2129 0 0 -335.2129 1142297.5 797554.3125)">
				<stop  offset="0" style="stop-color:#E300D6"/>
				<stop  offset="0.4662" style="stop-color:#4828BE"/>
				<stop  offset="1" style="stop-color:#4828BE"/>
			</linearGradient>
			<rect x="70.1" y="89.9" class="st3" width="110.6" height="73.5"/>
		</g>
	</g>
</g>
</svg>
