<?xml version="1.0" encoding="utf-8"?>
<!-- Generator: Adobe Illustrator 19.1.0, SVG Export Plug-In . SVG Version: 6.00 Build 0)  -->
<svg version="1.1" id="Layer_1" xmlns="http://www.w3.org/2000/svg" xmlns:xlink="http://www.w3.org/1999/xlink" x="0px" y="0px"
	 viewBox="0 0 250 250" style="enable-background:new 0 0 250 250;" xml:space="preserve">
<style type="text/css">
	.st0{opacity:0.3;}
	.st1{fill:#FFFFFD;}
	.st2{fill:none;stroke:#F4EEE9;stroke-width:9.3745;stroke-linecap:round;stroke-miterlimit:10;}
	.st3{clip-path:url(#SVGID_2_);fill:url(#SVGID_3_);}
	.st4{clip-path:url(#SVGID_5_);fill:url(#SVGID_6_);}
	.st5{clip-path:url(#SVGID_8_);fill:url(#SVGID_9_);}
	.st6{clip-path:url(#SVGID_11_);fill:url(#SVGID_12_);}
	.st7{clip-path:url(#SVGID_14_);fill:url(#SVGID_15_);}
	.st8{clip-path:url(#SVGID_17_);fill:url(#SVGID_18_);}
	.st9{clip-path:url(#SVGID_20_);fill:url(#SVGID_21_);}
	.st10{clip-path:url(#SVGID_23_);fill:url(#SVGID_24_);}
	.st11{clip-path:url(#SVGID_26_);fill:url(#SVGID_27_);}
	.st12{clip-path:url(#SVGID_29_);fill:url(#SVGID_30_);}
</style>
<g>
	<g>
		<g>
			<g class="st0">
				<path d="M196.9,244.8H57.7c-23.4,0-42.4-19-42.4-42.4V61.7c0-23.4,19-42.4,42.4-42.4h139.2c23.4,0,42.4,19,42.4,42.4v140.6
					C239.4,225.8,220.4,244.8,196.9,244.8z"/>
			</g>
			<g>
				<path class="st1" d="M194.6,237.7H55.4c-23.4,0-42.4-19-42.4-42.4V54.7c0-23.4,19-42.4,42.4-42.4h139.2
					c23.4,0,42.4,19,42.4,42.4v140.6C237,218.7,218,237.7,194.6,237.7z"/>
			</g>
		</g>
		<path class="st2" d="M27.2,69c0-23.4,19-42.4,42.4-42.4h16.5"/>
		<path class="st2" d="M222.8,181c0,23.4-19,42.4-42.4,42.4"/>
		<line class="st2" x1="105.8" y1="26.6" x2="129.7" y2="26.6"/>
	</g>
	<g>
		<g>
			<defs>
				<path id="SVGID_1_" d="M85.2,178.8c-1.8,0-3.5-1.4-3.6-3.2c-0.1-2.5,0-5.1,0-7.7h7.2c0,2.6,0.1,5.2,0,7.8
					C88.8,177.5,87.1,178.8,85.2,178.8C85.3,178.8,85.2,178.8,85.2,178.8 M165.6,178.8c-2,0-3.6-1.6-3.6-3.7c0-2.4,0-4.8,0-7.3h7.2
					c0,0.3,0.1,0.6,0.1,1c0,2.1,0,4.2,0,6.3C169.2,177.2,167.6,178.8,165.6,178.8C165.6,178.8,165.6,178.8,165.6,178.8 M75.2,164.2
					c-2.2,0-2.7-0.5-2.7-2.7c0-0.9,0-1.8,0-2.6c0-1.3,0.7-1.9,2-2c0.3,0,0.6,0,0.9,0c33.4,0,66.7,0,100.1,0c2.5,0,2.9,0.4,2.9,2.9
					c0,0.8,0,1.6,0,2.4c0,1.3-0.7,1.9-2,2c-0.3,0-0.7,0-1,0c-16.7,0-33.3,0-50,0c-11.2,0-22.3,0-33.5,0
					C86.3,164.2,80.7,164.2,75.2,164.2 M76.2,152.3c0-4.1,0-8.1,0-12.2c0-6.9,5.5-12.3,12.4-12.3c24.6,0,49.1,0,73.7,0
					c7,0,12.4,5.4,12.4,12.3c0,4.1,0,8.1,0,12.2v1H76.2C76.2,152.9,76.2,152.6,76.2,152.3 M74.5,122.2c-1.2,0-1.9-0.8-1.9-1.8
					c0-1,0.8-1.8,1.9-1.8c0.9,0,1.8,0,2.7,0c0.8,0,1.6,0,2.4,0c1.2,0,2,0.6,1.8,1.4c-0.3,1.6-0.2,2.2-1.8,2.2c-0.8,0-1.6,0-2.4,0
					C76.3,122.2,75.4,122.2,74.5,122.2 M171.1,122.2c-1.4-0.1-1.4-0.6-1.6-2.2c-0.1-1,0.7-1.4,1.6-1.4c1.8-0.1,3.6,0,5.5,0
					c1.1,0,1.8,0.8,1.8,1.8c0,1-0.7,1.7-1.8,1.8c-0.1,0-0.2,0-0.2,0c-0.8,0-1.7,0-2.5,0v0c-0.6,0-1.1,0-1.7,0
					C171.8,122.2,171.4,122.2,171.1,122.2 M86.3,114.7c1-4.8,2.1-9.7,3.1-14.5c0.9-4.1,4.5-7.2,8.7-7.2c18.3,0,36.5,0,54.8,0
					c4.1,0,7.7,2.9,8.6,6.9c1.8,7.9,3.4,15.9,5.1,23.8c0,0.2,0.1,0.4,0.1,0.7c-4-0.5-7.9-0.5-11.8-0.4c-1.4,0-2.8,0-4.2,0
					c-17.9-0.1-35.8,0-53.6,0c-4.2,0-8.5,0.1-12.8,0.1C84.9,121.2,85.6,117.9,86.3,114.7 M146.7,72.9c1.9,0,2.5,0.6,2.5,2.4
					c0,3.9,0,7.8,0,11.6c0,1.7-0.6,2.4-2.3,2.4c-14.3,0-28.5,0-42.8,0c-1.7,0-2.4-0.6-2.4-2.3c0-3.9,0-7.8,0-11.8
					c0-1.8,0.6-2.4,2.4-2.4c7.1,0,14.2,0,21.3,0C132.6,72.9,139.6,72.9,146.7,72.9 M103.7,69.3c-3.1,0-5.5,2.2-5.6,5.2
					c-0.1,4.9,0,9.9,0,14.9c0,0-0.3,0-0.5,0c-5.8,0.4-10.5,4.4-11.8,10.1c-0.7,3.3-1.4,6.7-2.1,10c-0.4,2-0.9,4-1.3,5.9
					c-0.9-0.2-1.8-0.4-2.6-0.4c-1.9-0.1-3.7-0.1-5.6,0c-3,0.1-5.3,2.5-5.4,5.4c0,3,2.3,5.5,5.4,5.5c1,0,2.1,0,3.1,0
					c0.6,0,1.3,0,1.9,0c0.3,0,0.5,0.1,1.1,0.1c-0.4,0.4-0.7,0.6-0.9,0.8c-4.6,3.5-6.9,8.1-6.9,13.8c0,4,0,8,0,12
					c0,0.6-0.1,1-0.7,1.3c-1.9,1-2.9,2.6-2.9,4.8c0,1.1,0,2.2,0,3.3c0,3.5,2.3,5.8,5.8,5.8c1.1,0,2.2,0,3.3,0c0,2.6,0,5.1,0,7.6
					c0.1,3.7,3,6.7,6.7,7c3.6,0.3,7.1-2.1,7.7-5.7c0.4-2.5,0.2-5,0.2-7.5c0-0.4,0-0.9,0-1.3h65.7c0,2.5,0,5,0,7.4
					c0.1,4,3.4,7.1,7.3,7.1c4,0,7.2-3.2,7.3-7.1c0-2.5,0-4.9,0-7.5c1.3,0,2.6,0,3.8,0c2.9-0.1,5.3-2.4,5.4-5.3c0-1.3,0-2.6,0-3.9
					c-0.1-2.1-1-3.7-2.9-4.7c-0.6-0.3-0.8-0.7-0.8-1.3c0-4,0-8.1,0-12.1c0-5.7-2.3-10.3-6.9-13.7c-0.3-0.2-0.7-0.3-1-0.4
					c0.1-0.2,0.3-0.4,0.4-0.6c1.9,0,3.8,0,5.8,0c2.9-0.1,5.2-2.3,5.4-5.1c0.2-2.9-1.8-5.6-4.7-5.8c-2.9-0.2-5.8-0.5-8.8,0.4
					c-0.1-0.2-0.1-0.3-0.2-0.4c-1.1-5.1-2.1-10.3-3.3-15.4c-1.2-5.3-4.4-8.6-9.7-10c-0.9-0.2-1.9-0.3-2.8-0.4
					c0.1-0.9,0.2-1.7,0.2-2.5c0-3.8,0-7.7,0-11.5c0-3.8-2.2-6-6-6c-7.9,0-15.9,0-23.8,0c-3.7,0-7.4,0-11.1,0
					C109.1,69.3,106.4,69.3,103.7,69.3"/>
			</defs>
			<clipPath id="SVGID_2_">
				<use xlink:href="#SVGID_1_"  style="overflow:visible;"/>
			</clipPath>
			
				<linearGradient id="SVGID_3_" gradientUnits="userSpaceOnUse" x1="-3415.5679" y1="2376.8098" x2="-3415.2378" y2="2376.8098" gradientTransform="matrix(343.1097 0 0 -343.1097 1171983.25 815632.5625)">
				<stop  offset="0" style="stop-color:#E300D6"/>
				<stop  offset="0.4662" style="stop-color:#4828BE"/>
				<stop  offset="1" style="stop-color:#4828BE"/>
			</linearGradient>
			<rect x="68.8" y="69.3" class="st3" width="113.4" height="113.5"/>
		</g>
		<g>
			<defs>
				<path id="SVGID_4_" d="M107,137.1c0.8-0.2,1.6-0.2,2.4-0.2c10.7,0,21.4,0,32.2,0c6.1,0,10.2,4.8,9.4,10.9h-50.8
					C98.8,143.4,102.2,138.1,107,137.1 M108.7,133.2c-5.2,0-9.7,3.4-11.6,8.2c-0.9,2.4-0.9,4.9-0.8,7.4c0,2.1,0.5,2.6,2.6,2.6
					c8.8,0,17.6,0,26.5,0h7.4c2.2,0,4.3,0,6.5,0c4.3,0,8.7,0,13,0c1.8,0,2.4-0.6,2.4-2.4c0-1.1,0-2.3,0-3.4
					c-0.2-6.8-5.7-12.3-12.4-12.4c-5.3,0-10.5-0.1-15.8-0.1C120.5,133.1,114.6,133.2,108.7,133.2"/>
			</defs>
			<clipPath id="SVGID_5_">
				<use xlink:href="#SVGID_4_"  style="overflow:visible;"/>
			</clipPath>
			
				<linearGradient id="SVGID_6_" gradientUnits="userSpaceOnUse" x1="-3417.3518" y1="2377.7581" x2="-3417.0217" y2="2377.7581" gradientTransform="matrix(177.075 0 0 -177.075 605223.8125 421183.8438)">
				<stop  offset="0" style="stop-color:#E300D6"/>
				<stop  offset="0.4662" style="stop-color:#4828BE"/>
				<stop  offset="1" style="stop-color:#4828BE"/>
			</linearGradient>
			<rect x="96.1" y="133.1" class="st4" width="58.5" height="18.3"/>
		</g>
		<g>
			<defs>
				<path id="SVGID_7_" d="M165.5,147.8c-2,0-3.6-1.7-3.6-3.7c0-2,1.7-3.6,3.7-3.6c2,0,3.6,1.6,3.6,3.6
					C169.3,146.1,167.6,147.8,165.5,147.8C165.6,147.8,165.6,147.8,165.5,147.8 M158.3,144.1c0,4,3.2,7.3,7.2,7.3
					c4,0,7.4-3.2,7.4-7.2c0-4-3.2-7.4-7.2-7.4c0,0,0,0,0,0C161.6,136.8,158.3,140.1,158.3,144.1"/>
			</defs>
			<clipPath id="SVGID_8_">
				<use xlink:href="#SVGID_7_"  style="overflow:visible;"/>
			</clipPath>
			
				<linearGradient id="SVGID_9_" gradientUnits="userSpaceOnUse" x1="-3430.2642" y1="2383.1208" x2="-3429.9343" y2="2383.1208" gradientTransform="matrix(44.2422 0 0 -44.2422 151920.8594 105578.7422)">
				<stop  offset="0" style="stop-color:#E300D6"/>
				<stop  offset="0.4662" style="stop-color:#4828BE"/>
				<stop  offset="1" style="stop-color:#4828BE"/>
			</linearGradient>
			<rect x="158.3" y="136.8" class="st5" width="14.7" height="14.6"/>
		</g>
		<g>
			<defs>
				<path id="SVGID_10_" d="M81.6,144.2c0-2,1.6-3.7,3.7-3.7c2,0,3.6,1.6,3.6,3.6c0,2-1.6,3.6-3.6,3.7c0,0,0,0,0,0
					C83.3,147.8,81.7,146.2,81.6,144.2 M85.2,136.8c-4,0-7.3,3.3-7.3,7.4c0,4,3.3,7.2,7.3,7.2c4,0,7.3-3.3,7.3-7.3
					C92.6,140.1,89.3,136.8,85.2,136.8C85.2,136.8,85.2,136.8,85.2,136.8"/>
			</defs>
			<clipPath id="SVGID_11_">
				<use xlink:href="#SVGID_10_"  style="overflow:visible;"/>
			</clipPath>
			
				<linearGradient id="SVGID_12_" gradientUnits="userSpaceOnUse" x1="-3426.5759" y1="2383.1204" x2="-3426.2458" y2="2383.1204" gradientTransform="matrix(44.2481 0 0 -44.2481 151697.4844 105592.6953)">
				<stop  offset="0" style="stop-color:#E300D6"/>
				<stop  offset="0.4662" style="stop-color:#4828BE"/>
				<stop  offset="1" style="stop-color:#4828BE"/>
			</linearGradient>
			<rect x="77.9" y="136.8" class="st6" width="14.6" height="14.6"/>
		</g>
		<g>
			<defs>
				<path id="SVGID_13_" d="M120.9,79.7c0.3,0.9,0.5,1.5,0.8,2.3h-1.5C120.3,81.3,120.6,80.6,120.9,79.7 M120.8,74.8
					c-1.8,0-2.2,0.2-2.7,1.6c-1.1,3.3-2.2,6.5-3.3,9.8c-0.1,0.2-0.1,0.5-0.1,0.8c1.1,0.4,2.2,0.7,3.3,1.1c0.3-0.8,0.6-1.6,0.8-2.3h4
					c0.3,0.8,0.5,1.5,0.9,2.3c1.1-0.4,2.2-0.7,3.4-1.1c-1.2-3.6-2.4-7.1-3.5-10.6C123.2,75,122.8,74.8,120.8,74.8L120.8,74.8"/>
			</defs>
			<clipPath id="SVGID_14_">
				<use xlink:href="#SVGID_13_"  style="overflow:visible;"/>
			</clipPath>
			
				<linearGradient id="SVGID_15_" gradientUnits="userSpaceOnUse" x1="-3430.6858" y1="2380.9641" x2="-3430.3557" y2="2380.9641" gradientTransform="matrix(37.8186 0 0 -37.8186 129858.4453 90126.1563)">
				<stop  offset="0" style="stop-color:#E300D6"/>
				<stop  offset="0.4662" style="stop-color:#4828BE"/>
				<stop  offset="1" style="stop-color:#4828BE"/>
			</linearGradient>
			<rect x="114.7" y="74.8" class="st7" width="12.5" height="13.3"/>
		</g>
		<g>
			<defs>
				<path id="SVGID_16_" d="M129.5,75.8c1.3,1.8,2.5,3.6,3.8,5.3c-1.3,1.8-2.5,3.5-3.8,5.3c1,0.7,2,1.4,3,2.1c1.1-1.5,2-2.8,3.1-4.3
					c1.1,1.5,2.1,2.9,3.1,4.3c1-0.7,2-1.4,2.9-2.1c-1.3-1.8-2.5-3.5-3.8-5.3c1.3-1.8,2.5-3.5,3.8-5.3c-1-0.7-2-1.4-2.9-2.1
					c-1,1.4-2,2.8-3.1,4.3c-1.1-1.5-2.1-2.9-3.1-4.3C131.4,74.5,130.4,75.1,129.5,75.8"/>
			</defs>
			<clipPath id="SVGID_17_">
				<use xlink:href="#SVGID_16_"  style="overflow:visible;"/>
			</clipPath>
			
				<linearGradient id="SVGID_18_" gradientUnits="userSpaceOnUse" x1="-3432.0449" y1="2381.1101" x2="-3431.7148" y2="2381.1101" gradientTransform="matrix(36.6285 0 0 -36.6285 125839.9531 87297.5313)">
				<stop  offset="0" style="stop-color:#E300D6"/>
				<stop  offset="0.4662" style="stop-color:#4828BE"/>
				<stop  offset="1" style="stop-color:#4828BE"/>
			</linearGradient>
			<rect x="129.4" y="73.7" class="st8" width="12.1" height="14.9"/>
		</g>
		<g>
			<defs>
				<polygon id="SVGID_19_" points="103.6,74.8 103.6,78.4 107.2,78.4 107.2,87.5 110.9,87.5 110.9,78.4 114.4,78.4 114.4,74.8 				
					"/>
			</defs>
			<clipPath id="SVGID_20_">
				<use xlink:href="#SVGID_19_"  style="overflow:visible;"/>
			</clipPath>
			
				<linearGradient id="SVGID_21_" gradientUnits="userSpaceOnUse" x1="-3432.6064" y1="2381.7234" x2="-3432.2766" y2="2381.7234" gradientTransform="matrix(32.7035 0 0 -32.7035 112361.7422 77971.75)">
				<stop  offset="0" style="stop-color:#E300D6"/>
				<stop  offset="0.4662" style="stop-color:#4828BE"/>
				<stop  offset="1" style="stop-color:#4828BE"/>
			</linearGradient>
			<rect x="103.6" y="74.8" class="st9" width="10.8" height="12.7"/>
		</g>
		<g>
			<defs>
				<rect id="SVGID_22_" x="143.8" y="74.8" width="3.5" height="12.6"/>
			</defs>
			<clipPath id="SVGID_23_">
				<use xlink:href="#SVGID_22_"  style="overflow:visible;"/>
			</clipPath>
			
				<linearGradient id="SVGID_24_" gradientUnits="userSpaceOnUse" x1="-3478.8196" y1="2393.5781" x2="-3478.4897" y2="2393.5781" gradientTransform="matrix(10.646 0 0 -10.646 37179.1523 25563.0547)">
				<stop  offset="0" style="stop-color:#E300D6"/>
				<stop  offset="0.4662" style="stop-color:#4828BE"/>
				<stop  offset="1" style="stop-color:#4828BE"/>
			</linearGradient>
			<rect x="143.8" y="74.8" class="st10" width="3.5" height="12.6"/>
		</g>
		<g>
			<defs>
				<path id="SVGID_25_" d="M94.8,103.3c1.1-4.6,1.3-4.8,6-4.8c16.9,0,33.8,0,50.6,0c2.8,0,3.8,0.8,4.4,3.5
					c1.3,5.5,2.5,10.9,3.8,16.5H91.2C92.4,113.4,93.6,108.3,94.8,103.3 M98.8,94.8c-3.6,0-6.3,2.1-7.1,5.6
					c-1.5,6.2-2.9,12.5-4.3,18.8c-0.5,2.3,0.1,3,2.4,3c11.9,0,23.8,0,35.7,0c11.9,0,23.9,0,35.8,0c2.1,0,2.8-0.8,2.3-2.9
					c-1.4-6.3-2.9-12.6-4.4-18.9c-0.8-3.5-3.5-5.6-7.1-5.6c-8.9,0-17.8,0-26.7,0S107.6,94.8,98.8,94.8"/>
			</defs>
			<clipPath id="SVGID_26_">
				<use xlink:href="#SVGID_25_"  style="overflow:visible;"/>
			</clipPath>
			
				<linearGradient id="SVGID_27_" gradientUnits="userSpaceOnUse" x1="-3416.4792" y1="2377.0466" x2="-3416.1492" y2="2377.0466" gradientTransform="matrix(231.9792 0 0 -231.9792 792639.3125 551533.9375)">
				<stop  offset="0" style="stop-color:#E300D6"/>
				<stop  offset="0.4662" style="stop-color:#4828BE"/>
				<stop  offset="1" style="stop-color:#4828BE"/>
			</linearGradient>
			<rect x="86.8" y="94.8" class="st11" width="77.2" height="27.4"/>
		</g>
		<g>
			<defs>
				<rect id="SVGID_28_" x="105.4" y="142.4" width="40.1" height="3.5"/>
			</defs>
			<clipPath id="SVGID_29_">
				<use xlink:href="#SVGID_28_"  style="overflow:visible;"/>
			</clipPath>
			
				<linearGradient id="SVGID_30_" gradientUnits="userSpaceOnUse" x1="-3419.0427" y1="2378.5955" x2="-3418.7126" y2="2378.5955" gradientTransform="matrix(121.3997 0 0 -121.3997 415176.2188 288904.9688)">
				<stop  offset="0" style="stop-color:#E300D6"/>
				<stop  offset="0.4662" style="stop-color:#4828BE"/>
				<stop  offset="1" style="stop-color:#4828BE"/>
			</linearGradient>
			<rect x="105.4" y="142.4" class="st12" width="40.1" height="3.5"/>
		</g>
	</g>
</g>
</svg>
