<?xml version="1.0" encoding="utf-8"?>
<!-- Generator: Adobe Illustrator 19.1.0, SVG Export Plug-In . SVG Version: 6.00 Build 0)  -->
<svg version="1.1" id="Layer_1" xmlns="http://www.w3.org/2000/svg" xmlns:xlink="http://www.w3.org/1999/xlink" x="0px" y="0px"
	 viewBox="0 0 250 250" style="enable-background:new 0 0 250 250;" xml:space="preserve">
<style type="text/css">
	.st0{opacity:0.3;}
	.st1{fill:#FFFFFD;}
	.st2{fill:none;stroke:#F4EEE9;stroke-width:9.3745;stroke-linecap:round;stroke-miterlimit:10;}
	.st3{clip-path:url(#SVGID_2_);fill:url(#SVGID_3_);}
	.st4{clip-path:url(#SVGID_5_);fill:url(#SVGID_6_);}
	.st5{clip-path:url(#SVGID_8_);fill:url(#SVGID_9_);}
	.st6{clip-path:url(#SVGID_11_);fill:url(#SVGID_12_);}
	.st7{clip-path:url(#SVGID_14_);fill:url(#SVGID_15_);}
	.st8{clip-path:url(#SVGID_17_);fill:url(#SVGID_18_);}
	.st9{clip-path:url(#SVGID_20_);fill:url(#SVGID_21_);}
</style>
<g>
	<g>
		<g>
			<g class="st0">
				<path d="M196.9,244.8H57.7c-23.4,0-42.4-19-42.4-42.4V61.7c0-23.4,19-42.4,42.4-42.4h139.2c23.4,0,42.4,19,42.4,42.4v140.6
					C239.4,225.8,220.4,244.8,196.9,244.8z"/>
			</g>
			<g>
				<path class="st1" d="M194.6,237.7H55.4c-23.4,0-42.4-19-42.4-42.4V54.7c0-23.4,19-42.4,42.4-42.4h139.2
					c23.4,0,42.4,19,42.4,42.4v140.6C237,218.7,218,237.7,194.6,237.7z"/>
			</g>
		</g>
		<path class="st2" d="M27.2,69c0-23.4,19-42.4,42.4-42.4h16.5"/>
		<path class="st2" d="M222.8,181c0,23.4-19,42.4-42.4,42.4"/>
		<line class="st2" x1="105.8" y1="26.6" x2="129.7" y2="26.6"/>
	</g>
	<g>
		<g>
			<defs>
				<path id="SVGID_1_" d="M86.9,69.9c-1.5,0-2.7,1.2-2.7,2.7c0,1.5,1.2,2.7,2.7,2.7h1.3c1.5,0,2.7-1.2,2.7-2.7
					c0-1.5-1.2-2.7-2.7-2.7H86.9z"/>
			</defs>
			<clipPath id="SVGID_2_">
				<use xlink:href="#SVGID_1_"  style="overflow:visible;"/>
			</clipPath>
			
				<linearGradient id="SVGID_3_" gradientUnits="userSpaceOnUse" x1="-3408.1069" y1="2450.6631" x2="-3407.7771" y2="2450.6631" gradientTransform="matrix(20.4599 0 0 -20.4599 69813.6875 50212.9727)">
				<stop  offset="0" style="stop-color:#E300D6"/>
				<stop  offset="0.4662" style="stop-color:#4828BE"/>
				<stop  offset="1" style="stop-color:#4828BE"/>
			</linearGradient>
			<rect x="84.2" y="69.9" class="st3" width="6.8" height="5.5"/>
		</g>
		<g>
			<defs>
				<path id="SVGID_4_" d="M175.6,169.1C175.6,169.1,175.6,169.1,175.6,169.1C175.6,169.1,175.6,169.1,175.6,169.1 M73.8,173.9V169
					c0.1,0,0.2,0,0.4,0h0.3H76h0.8h5.2h20.8h52.1h5.1h9.8h2h3c0.2,0,0.3,0,0.4,0v0.7v5.3c-0.1,0-0.3,0-0.4,0h-0.3h-1.6h-6.1h-21h-52
					H77h-2.9c-0.2,0-0.3,0-0.4,0V173.9z M76.8,163.5C76.6,163.5,76.6,163.5,76.8,163.5 M76.6,159c-0.2-1.9-0.1-3.8-0.1-5.7v-44.7
					v-1.4c0-1.3,0.1-2.7,0.3-4c0.1-0.7,0.3-1.5,0.6-2.2c0.1-0.2,0.1-0.3,0.1-0.4h2h17.2h23.1v63h-9.8H92.7H78h-0.6
					C76.7,162.4,76.6,160,76.6,159 M125.2,100.6h23.3h18.4h3.1c0,0.1,0.1,0.2,0.2,0.4c0.3,0.7,0.4,1.5,0.6,2.2
					c0.3,1.5,0.3,3,0.3,4.6v43.9v5.4c0,1.9-0.2,3.7-0.7,5.5c-0.2,0.6-0.3,0.9-0.4,1h-0.1h-5.3h-3.8h-16.6h-18.9V100.6z M77.6,100.3
					C77.7,100.3,77.7,100.3,77.6,100.3 M69,73c-1.6,2.4-0.7,7.4-0.7,10c0,4.9-1.5,13.5,4.4,15.1c-1.5,2.8-1.7,7-1.7,10v20.3v24.1
					c0,2.7-0.3,7.6,0.6,11.3c-1.8,0.6-3.4,1.8-3.4,4v5.4c0,1.8-0.3,3.8,0.9,5.2c2.3,2.8,7.9,1.9,11.2,1.9h90.2c3.3,0,8.3,0.6,9.8-3
					c0.1-0.2,0.2-0.5,0.3-0.8c0,0,0,0,0,0c0,0,0-0.1,0-0.1c0-0.2,0-0.3,0-0.5c0-3,0.6-6.5-0.2-9.3c-0.6-2.1-2.7-2.8-4.7-3.1
					c0.6-2.1,0.7-4.6,0.8-6.6v-41c0-5.4,0.9-12.6-1.5-17.7c2.6-0.3,4.6-1.7,5.5-4.4c0.4-1,0.2-2.4,0.2-3.5v-6.4v-6
					c0-1.1,0.2-2.8-0.2-3.9c-1.1-3.1-3.5-4.4-6.6-4.4h-15.7h-50.5H96.2c-3.5,0-3.5,5.5,0,5.5h77.4c1.5,0,1.6,0.1,1.6,1.7v12.2
					c0,1,0.6,3.6-0.8,3.6h-4.2h-44.6H79.9H75c-1.4,0-1.2-0.7-1.2-2V78.6v-2.8c0-0.8,4.6-0.4,5.1-0.4h0.9c3.5,0,3.5-5.5,0-5.5
					c-1.1,0-2.3-0.1-3.4-0.1C73.5,69.8,70.7,70.2,69,73"/>
			</defs>
			<clipPath id="SVGID_5_">
				<use xlink:href="#SVGID_4_"  style="overflow:visible;"/>
			</clipPath>
			
				<linearGradient id="SVGID_6_" gradientUnits="userSpaceOnUse" x1="-3413.5518" y1="2380.7793" x2="-3413.2217" y2="2380.7793" gradientTransform="matrix(341.8992 0 0 -341.8992 1167158.625 814112.125)">
				<stop  offset="0" style="stop-color:#E300D6"/>
				<stop  offset="0.4662" style="stop-color:#4828BE"/>
				<stop  offset="1" style="stop-color:#4828BE"/>
			</linearGradient>
			<rect x="66.8" y="69.8" class="st4" width="114.4" height="111.5"/>
		</g>
		<g>
			<defs>
				<path id="SVGID_7_" d="M96.8,85.2h2.4c0.5,0,0.9,0,1.2,0.1c0.2,0.1,0.5,0.2,0.6,0.3c0.2,0.1,0.3,0.3,0.4,0.5
					c0.1,0.2,0.1,0.4,0.1,0.7c0,0.3-0.1,0.6-0.2,0.8c-0.1,0.2-0.2,0.4-0.4,0.6c-0.2,0.1-0.4,0.2-0.8,0.3c-0.3,0.1-0.7,0.1-1.3,0.1
					h-2.2L96.8,85.2z M97.1,78.9h2.1c0.6,0,1.1,0.1,1.4,0.2c0.3,0.1,0.5,0.3,0.7,0.5c0.1,0.2,0.2,0.5,0.2,0.8c0,0.2,0,0.4-0.1,0.6
					c-0.1,0.2-0.2,0.4-0.3,0.5c-0.2,0.2-0.3,0.3-0.6,0.3c-0.2,0.1-0.4,0.1-0.7,0.1c-0.2,0-0.6,0-1.1,0h-1.6L97.1,78.9z M97.8,75.9
					c-1.1,0-2.1,0.1-2.9,0.1c-0.6,0-1.4,0-2.4,0c0,0.6,0,1.1,0,1.4c0,0.9,0,2.6-0.1,4.9c-0.1,2.3-0.1,4.1-0.2,5.4
					c-0.1,1-0.2,2.3-0.3,4l2.2,0l3,0c1.2,0,2.3,0,3.4,0c1.1,0,1.8-0.1,2.2-0.1c0.5-0.1,1-0.2,1.4-0.5c0.5-0.2,0.8-0.5,1.1-0.8
					c0.3-0.4,0.6-0.8,0.8-1.3c0.2-0.5,0.3-1.1,0.3-1.6c0-0.4-0.1-0.8-0.2-1.2c-0.1-0.4-0.3-0.7-0.5-1c-0.2-0.3-0.5-0.6-0.8-0.8
					c-0.3-0.2-0.5-0.3-0.8-0.4c-0.2-0.1-0.6-0.2-1-0.2c0.4-0.1,0.7-0.2,1-0.3c0.2-0.1,0.5-0.3,0.7-0.5c0.3-0.2,0.5-0.5,0.7-0.8
					c0.2-0.3,0.4-0.7,0.5-1.1c0.1-0.4,0.2-0.8,0.2-1.3c0-0.6-0.1-1.1-0.3-1.6c-0.2-0.4-0.4-0.8-0.7-1.1c-0.3-0.3-0.6-0.5-1-0.7
					c-0.4-0.2-0.9-0.3-1.4-0.4c-0.4-0.1-1.1-0.1-2.1-0.1C99.9,75.8,98.9,75.8,97.8,75.9"/>
			</defs>
			<clipPath id="SVGID_8_">
				<use xlink:href="#SVGID_7_"  style="overflow:visible;"/>
			</clipPath>
			
				<linearGradient id="SVGID_9_" gradientUnits="userSpaceOnUse" x1="-3411.6077" y1="2411.2935" x2="-3411.2776" y2="2411.2935" gradientTransform="matrix(43.9204 0 0 -43.9204 149931.0625 105988.7813)">
				<stop  offset="0" style="stop-color:#E300D6"/>
				<stop  offset="0.4662" style="stop-color:#4828BE"/>
				<stop  offset="1" style="stop-color:#4828BE"/>
			</linearGradient>
			<rect x="91.8" y="75.8" class="st5" width="14.5" height="15.8"/>
		</g>
		<g>
			<defs>
				<path id="SVGID_10_" d="M116.2,82.1c0.4-0.7,0.8-1.6,1.3-2.8c0.1,0.3,0.6,1.8,1.5,4.5h-3.6L116.2,82.1z M117.7,75.9
					c-0.6,0-1.6,0-3,0c-0.3,0.7-0.6,1.2-0.8,1.6l-0.6,1.3l-6,11.2l-1,1.7c1.3,0,2.2,0,2.8,0c0.3,0,1.2,0,2.6,0
					c0.7-1.6,1.4-3.1,2.1-4.5h5.8c0.6,1.7,1.1,3.2,1.5,4.5c1.3,0,2.2,0,2.9,0c0.3,0,1.1,0,2.4,0l-0.7-1.7l-3.4-9.2l-1.7-4.8
					C119.8,75.9,118.8,75.9,117.7,75.9"/>
			</defs>
			<clipPath id="SVGID_11_">
				<use xlink:href="#SVGID_10_"  style="overflow:visible;"/>
			</clipPath>
			
				<linearGradient id="SVGID_12_" gradientUnits="userSpaceOnUse" x1="-3412.7615" y1="2401.4814" x2="-3412.4314" y2="2401.4814" gradientTransform="matrix(60.8354 0 0 -60.8354 207723 146178.75)">
				<stop  offset="0" style="stop-color:#E300D6"/>
				<stop  offset="0.4662" style="stop-color:#4828BE"/>
				<stop  offset="1" style="stop-color:#4828BE"/>
			</linearGradient>
			<rect x="106.4" y="75.9" class="st6" width="20.1" height="15.7"/>
		</g>
		<g>
			<defs>
				<path id="SVGID_13_" d="M142.7,75.9c-0.6,0-1.3,0-2.3,0c0,0.9,0,2.5-0.1,4.8c-0.1,2.3-0.2,4.1-0.3,5.4l-0.7-1.3l-4.9-9
					c-1.2,0-2.1,0-2.8,0c-0.9,0-2,0-3.2,0v1.8l-0.1,3.3l-0.4,8.2l-0.2,2.4c1.2,0,2,0,2.4,0c0.5,0,1.2,0,2.2,0l0.1-4.6l0.2-5.5
					c0.4,0.7,0.7,1.4,1.1,2.1c0.5,1,1.1,2,1.8,3.1l1.9,3.3c0.2,0.3,0.5,0.9,0.9,1.6c1.3,0,2.3,0,3,0c0.9,0,1.8,0,2.8,0l0.1-2.8
					l0.5-9.5l0.3-3.4C143.7,75.9,143,75.9,142.7,75.9"/>
			</defs>
			<clipPath id="SVGID_14_">
				<use xlink:href="#SVGID_13_"  style="overflow:visible;"/>
			</clipPath>
			
				<linearGradient id="SVGID_15_" gradientUnits="userSpaceOnUse" x1="-3413.3862" y1="2405.6362" x2="-3413.0562" y2="2405.6362" gradientTransform="matrix(52.3068 0 0 -52.3068 178671.0469 125914.9063)">
				<stop  offset="0" style="stop-color:#E300D6"/>
				<stop  offset="0.4662" style="stop-color:#4828BE"/>
				<stop  offset="1" style="stop-color:#4828BE"/>
			</linearGradient>
			<rect x="127.7" y="75.9" class="st7" width="17.3" height="15.7"/>
		</g>
		<g>
			<defs>
				<path id="SVGID_16_" d="M161.1,75.9c-0.5,0-1.5,0-2.9,0l-0.6,1l-2.1,2.9l-2.6,3.5c2.3,3.7,3.9,6.4,4.9,8.3c1.5,0,2.5,0,3.1,0
					l2.8,0l-4.8-7l-0.9-1.4L159,82l4.9-6.1C162.1,75.9,161.2,75.9,161.1,75.9"/>
			</defs>
			<clipPath id="SVGID_17_">
				<use xlink:href="#SVGID_16_"  style="overflow:visible;"/>
			</clipPath>
			
				<linearGradient id="SVGID_18_" gradientUnits="userSpaceOnUse" x1="-3414.5691" y1="2422.5994" x2="-3414.239" y2="2422.5994" gradientTransform="matrix(33.2659 0 0 -33.2659 113741.6563 80673.7734)">
				<stop  offset="0" style="stop-color:#E300D6"/>
				<stop  offset="0.4662" style="stop-color:#4828BE"/>
				<stop  offset="1" style="stop-color:#4828BE"/>
			</linearGradient>
			<rect x="152.9" y="75.9" class="st8" width="11" height="15.7"/>
		</g>
		<g>
			<defs>
				<path id="SVGID_19_" d="M150.6,75.9c-0.5,0-1.4,0-2.6,0v1c0,0.8,0,2.3-0.1,4.3c-0.1,2.9-0.3,5.2-0.4,6.9
					c-0.1,0.9-0.2,2.1-0.3,3.6c1.4,0,2.3,0,2.6,0l2.5,0l0.3-7.1l0.5-8.6C151.7,75.9,150.9,75.9,150.6,75.9"/>
			</defs>
			<clipPath id="SVGID_20_">
				<use xlink:href="#SVGID_19_"  style="overflow:visible;"/>
			</clipPath>
			
				<linearGradient id="SVGID_21_" gradientUnits="userSpaceOnUse" x1="-3414.3987" y1="2461.8101" x2="-3414.0688" y2="2461.8101" gradientTransform="matrix(18.0652 0 0 -18.0652 61828.7813 44556.7852)">
				<stop  offset="0" style="stop-color:#E300D6"/>
				<stop  offset="0.4662" style="stop-color:#4828BE"/>
				<stop  offset="1" style="stop-color:#4828BE"/>
			</linearGradient>
			<rect x="147.1" y="75.9" class="st9" width="6" height="15.7"/>
		</g>
	</g>
</g>
</svg>
