<?xml version="1.0" encoding="utf-8"?>
<!-- Generator: Adobe Illustrator 19.1.0, SVG Export Plug-In . SVG Version: 6.00 Build 0)  -->
<svg version="1.1" id="Layer_1" xmlns="http://www.w3.org/2000/svg" xmlns:xlink="http://www.w3.org/1999/xlink" x="0px" y="0px"
	 viewBox="0 0 250 250" style="enable-background:new 0 0 250 250;" xml:space="preserve">
<style type="text/css">
	.st0{opacity:0.3;}
	.st1{fill:#FFFFFD;}
	.st2{fill:none;stroke:#F4EEE9;stroke-width:9.3745;stroke-linecap:round;stroke-miterlimit:10;}
	.st3{clip-path:url(#SVGID_2_);fill:url(#SVGID_3_);}
	.st4{clip-path:url(#SVGID_5_);fill:url(#SVGID_6_);}
	.st5{clip-path:url(#SVGID_8_);fill:url(#SVGID_9_);}
	.st6{clip-path:url(#SVGID_11_);fill:url(#SVGID_12_);}
	.st7{clip-path:url(#SVGID_14_);fill:url(#SVGID_15_);}
	.st8{clip-path:url(#SVGID_17_);fill:url(#SVGID_18_);}
	.st9{clip-path:url(#SVGID_20_);fill:url(#SVGID_21_);}
	.st10{clip-path:url(#SVGID_23_);fill:url(#SVGID_24_);}
	.st11{clip-path:url(#SVGID_26_);fill:url(#SVGID_27_);}
	.st12{clip-path:url(#SVGID_29_);fill:url(#SVGID_30_);}
	.st13{clip-path:url(#SVGID_32_);fill:url(#SVGID_33_);}
	.st14{clip-path:url(#SVGID_35_);fill:url(#SVGID_36_);}
	.st15{clip-path:url(#SVGID_38_);fill:url(#SVGID_39_);}
	.st16{clip-path:url(#SVGID_41_);fill:url(#SVGID_42_);}
	.st17{clip-path:url(#SVGID_44_);fill:url(#SVGID_45_);}
	.st18{clip-path:url(#SVGID_47_);fill:url(#SVGID_48_);}
	.st19{clip-path:url(#SVGID_50_);fill:url(#SVGID_51_);}
	.st20{clip-path:url(#SVGID_53_);fill:url(#SVGID_54_);}
	.st21{clip-path:url(#SVGID_56_);fill:url(#SVGID_57_);}
	.st22{clip-path:url(#SVGID_59_);fill:url(#SVGID_60_);}
	.st23{clip-path:url(#SVGID_62_);fill:url(#SVGID_63_);}
	.st24{clip-path:url(#SVGID_65_);fill:url(#SVGID_66_);}
</style>
<g>
	<g>
		<g>
			<g class="st0">
				<path d="M196.9,244.8H57.7c-23.4,0-42.4-19-42.4-42.4V61.7c0-23.4,19-42.4,42.4-42.4h139.2c23.4,0,42.4,19,42.4,42.4v140.6
					C239.4,225.8,220.4,244.8,196.9,244.8z"/>
			</g>
			<g>
				<path class="st1" d="M194.6,237.7H55.4c-23.4,0-42.4-19-42.4-42.4V54.7c0-23.4,19-42.4,42.4-42.4h139.2
					c23.4,0,42.4,19,42.4,42.4v140.6C237,218.7,218,237.7,194.6,237.7z"/>
			</g>
		</g>
		<path class="st2" d="M27.2,69c0-23.4,19-42.4,42.4-42.4h16.5"/>
		<path class="st2" d="M222.8,181c0,23.4-19,42.4-42.4,42.4"/>
		<line class="st2" x1="105.8" y1="26.6" x2="129.7" y2="26.6"/>
	</g>
	<g>
		<g>
			<defs>
				<path id="SVGID_1_" d="M179.9,159.2v25.3h-58.5v3.9h60.4c1.1,0,1.9-0.9,1.9-1.9v-27.3H179.9z"/>
			</defs>
			<clipPath id="SVGID_2_">
				<use xlink:href="#SVGID_1_"  style="overflow:visible;"/>
			</clipPath>
			
				<linearGradient id="SVGID_3_" gradientUnits="userSpaceOnUse" x1="-3406.511" y1="2385.1709" x2="-3406.1809" y2="2385.1709" gradientTransform="matrix(188.9633 0 0 -188.9633 643827.0625 450883.5938)">
				<stop  offset="0" style="stop-color:#E300D6"/>
				<stop  offset="0.4662" style="stop-color:#4828BE"/>
				<stop  offset="1" style="stop-color:#4828BE"/>
			</linearGradient>
			<rect x="121.5" y="159.2" class="st3" width="62.4" height="29.2"/>
		</g>
		<g>
			<defs>
				<path id="SVGID_4_" d="M96.1,63.7c-1.1,0-1.9,0.9-1.9,1.9V91h3.9V67.6h81.8v87.7h3.9V65.6c0-1.1-0.9-1.9-1.9-1.9H96.1z"/>
			</defs>
			<clipPath id="SVGID_5_">
				<use xlink:href="#SVGID_4_"  style="overflow:visible;"/>
			</clipPath>
			
				<linearGradient id="SVGID_6_" gradientUnits="userSpaceOnUse" x1="-3408.5862" y1="2381.8992" x2="-3408.2563" y2="2381.8992" gradientTransform="matrix(271.6348 0 0 -271.6348 925984.6875 647116.0625)">
				<stop  offset="0" style="stop-color:#E300D6"/>
				<stop  offset="0.4662" style="stop-color:#4828BE"/>
				<stop  offset="1" style="stop-color:#4828BE"/>
			</linearGradient>
			<rect x="94.2" y="63.7" class="st4" width="89.6" height="91.6"/>
		</g>
		<g>
			<defs>
				<path id="SVGID_7_" d="M140.9,77.8c0-0.3,0.2-0.5,0.5-0.5h6.8c0.3,0,0.5,0.2,0.5,0.5v4.9c0,0.3-0.2,0.5-0.5,0.5h-7.3V77.8z
					 M141.4,73.4c-2.4,0-4.4,2-4.4,4.4v19h3.9v-9.2l6.7,5.4c0.7,0.6,1.1,1.4,1.1,2.3v1.6h3.9v-1.6c0-2.1-0.9-4-2.6-5.3l-3.6-2.9h1.8
					c2.4,0,4.4-2,4.4-4.4v-4.9c0-2.4-2-4.4-4.4-4.4H141.4z"/>
			</defs>
			<clipPath id="SVGID_8_">
				<use xlink:href="#SVGID_7_"  style="overflow:visible;"/>
			</clipPath>
			
				<linearGradient id="SVGID_9_" gradientUnits="userSpaceOnUse" x1="-3384.7134" y1="2408.8728" x2="-3384.3835" y2="2408.8728" gradientTransform="matrix(47.2408 0 0 -47.2408 160033.7188 113882.2734)">
				<stop  offset="0" style="stop-color:#E300D6"/>
				<stop  offset="0.4662" style="stop-color:#4828BE"/>
				<stop  offset="1" style="stop-color:#4828BE"/>
			</linearGradient>
			<rect x="137" y="73.4" class="st5" width="15.6" height="23.4"/>
		</g>
		<g>
			<defs>
				<path id="SVGID_10_" d="M168.2,73.4v3.2l-3.9,5.2l-3.9-5.2v-3.2h-3.9v3.9c0,0.4,0.1,0.8,0.4,1.2l5,6.6l-5,6.6
					c-0.3,0.3-0.4,0.7-0.4,1.2v3.9h3.9v-3.2l3.9-5.2l3.9,5.2v3.2h3.9v-3.9c0-0.4-0.1-0.8-0.4-1.2l-5-6.6l5-6.6
					c0.3-0.3,0.4-0.7,0.4-1.2v-3.9H168.2z"/>
			</defs>
			<clipPath id="SVGID_11_">
				<use xlink:href="#SVGID_10_"  style="overflow:visible;"/>
			</clipPath>
			
				<linearGradient id="SVGID_12_" gradientUnits="userSpaceOnUse" x1="-3385.551" y1="2408.8728" x2="-3385.2209" y2="2408.8728" gradientTransform="matrix(47.2408 0 0 -47.2408 160092.7656 113882.2734)">
				<stop  offset="0" style="stop-color:#E300D6"/>
				<stop  offset="0.4662" style="stop-color:#4828BE"/>
				<stop  offset="1" style="stop-color:#4828BE"/>
			</linearGradient>
			<rect x="156.5" y="73.4" class="st6" width="15.6" height="23.4"/>
		</g>
		<g>
			<defs>
				<path id="SVGID_13_" d="M129.3,102.7v3.9h40.9V165h-48.7v3.9h50.7c1.1,0,1.9-0.9,1.9-1.9v-62.4c0-1.1-0.9-1.9-1.9-1.9H129.3z"/>
			</defs>
			<clipPath id="SVGID_14_">
				<use xlink:href="#SVGID_13_"  style="overflow:visible;"/>
			</clipPath>
			
				<linearGradient id="SVGID_15_" gradientUnits="userSpaceOnUse" x1="-3405.124" y1="2386.3853" x2="-3404.7939" y2="2386.3853" gradientTransform="matrix(159.4378 0 0 -159.4378 543026.875 380615.7813)">
				<stop  offset="0" style="stop-color:#E300D6"/>
				<stop  offset="0.4662" style="stop-color:#4828BE"/>
				<stop  offset="1" style="stop-color:#4828BE"/>
			</linearGradient>
			<rect x="121.5" y="102.7" class="st7" width="52.6" height="66.3"/>
		</g>
		<g>
			<defs>
				<rect id="SVGID_16_" x="160.4" y="174.8" width="11.7" height="3.9"/>
			</defs>
			<clipPath id="SVGID_17_">
				<use xlink:href="#SVGID_16_"  style="overflow:visible;"/>
			</clipPath>
			
				<linearGradient id="SVGID_18_" gradientUnits="userSpaceOnUse" x1="-3376.2913" y1="2425.0786" x2="-3375.9612" y2="2425.0786" gradientTransform="matrix(35.4306 0 0 -35.4306 119784.5313 86098.7656)">
				<stop  offset="0" style="stop-color:#E300D6"/>
				<stop  offset="0.4662" style="stop-color:#4828BE"/>
				<stop  offset="1" style="stop-color:#4828BE"/>
			</linearGradient>
			<rect x="160.4" y="174.8" class="st8" width="11.7" height="3.9"/>
		</g>
		<g>
			<defs>
				<rect id="SVGID_19_" x="129.3" y="174.8" width="27.3" height="3.9"/>
			</defs>
			<clipPath id="SVGID_20_">
				<use xlink:href="#SVGID_19_"  style="overflow:visible;"/>
			</clipPath>
			
				<linearGradient id="SVGID_21_" gradientUnits="userSpaceOnUse" x1="-3397.0735" y1="2397.0337" x2="-3396.7434" y2="2397.0337" gradientTransform="matrix(82.6714 0 0 -82.6714 280970.2188 198342.9688)">
				<stop  offset="0" style="stop-color:#E300D6"/>
				<stop  offset="0.4662" style="stop-color:#4828BE"/>
				<stop  offset="1" style="stop-color:#4828BE"/>
			</linearGradient>
			<rect x="129.3" y="174.8" class="st9" width="27.3" height="3.9"/>
		</g>
		<g>
			<defs>
				<rect id="SVGID_22_" x="154.6" y="116.3" width="11.7" height="3.9"/>
			</defs>
			<clipPath id="SVGID_23_">
				<use xlink:href="#SVGID_22_"  style="overflow:visible;"/>
			</clipPath>
			
				<linearGradient id="SVGID_24_" gradientUnits="userSpaceOnUse" x1="-3375.9563" y1="2421.7288" x2="-3375.6262" y2="2421.7288" gradientTransform="matrix(35.4306 0 0 -35.4306 119766.8203 85921.6094)">
				<stop  offset="0" style="stop-color:#E300D6"/>
				<stop  offset="0.4662" style="stop-color:#4828BE"/>
				<stop  offset="1" style="stop-color:#4828BE"/>
			</linearGradient>
			<rect x="154.6" y="116.3" class="st10" width="11.7" height="3.9"/>
		</g>
		<g>
			<defs>
				<rect id="SVGID_25_" x="129.3" y="116.3" width="21.4" height="3.9"/>
			</defs>
			<clipPath id="SVGID_26_">
				<use xlink:href="#SVGID_25_"  style="overflow:visible;"/>
			</clipPath>
			
				<linearGradient id="SVGID_27_" gradientUnits="userSpaceOnUse" x1="-3392.457" y1="2400.9429" x2="-3392.127" y2="2400.9429" gradientTransform="matrix(64.9561 0 0 -64.9561 220490.1719 156074.2344)">
				<stop  offset="0" style="stop-color:#E300D6"/>
				<stop  offset="0.4662" style="stop-color:#4828BE"/>
				<stop  offset="1" style="stop-color:#4828BE"/>
			</linearGradient>
			<rect x="129.3" y="116.3" class="st11" width="21.4" height="3.9"/>
		</g>
		<g>
			<defs>
				<rect id="SVGID_28_" x="154.6" y="126" width="11.7" height="3.9"/>
			</defs>
			<clipPath id="SVGID_29_">
				<use xlink:href="#SVGID_28_"  style="overflow:visible;"/>
			</clipPath>
			
				<linearGradient id="SVGID_30_" gradientUnits="userSpaceOnUse" x1="-3375.9563" y1="2422.2871" x2="-3375.6262" y2="2422.2871" gradientTransform="matrix(35.4306 0 0 -35.4306 119766.8203 85951.1328)">
				<stop  offset="0" style="stop-color:#E300D6"/>
				<stop  offset="0.4662" style="stop-color:#4828BE"/>
				<stop  offset="1" style="stop-color:#4828BE"/>
			</linearGradient>
			<rect x="154.6" y="126" class="st12" width="11.7" height="3.9"/>
		</g>
		<g>
			<defs>
				<rect id="SVGID_31_" x="129.3" y="126" width="21.4" height="3.9"/>
			</defs>
			<clipPath id="SVGID_32_">
				<use xlink:href="#SVGID_31_"  style="overflow:visible;"/>
			</clipPath>
			
				<linearGradient id="SVGID_33_" gradientUnits="userSpaceOnUse" x1="-3392.457" y1="2401.2476" x2="-3392.127" y2="2401.2476" gradientTransform="matrix(64.9561 0 0 -64.9561 220490.1719 156103.7656)">
				<stop  offset="0" style="stop-color:#E300D6"/>
				<stop  offset="0.4662" style="stop-color:#4828BE"/>
				<stop  offset="1" style="stop-color:#4828BE"/>
			</linearGradient>
			<rect x="129.3" y="126" class="st13" width="21.4" height="3.9"/>
		</g>
		<g>
			<defs>
				<rect id="SVGID_34_" x="162.4" y="139.7" width="3.9" height="3.9"/>
			</defs>
			<clipPath id="SVGID_35_">
				<use xlink:href="#SVGID_34_"  style="overflow:visible;"/>
			</clipPath>
			
				<linearGradient id="SVGID_36_" gradientUnits="userSpaceOnUse" x1="-3301.209" y1="2517.2063" x2="-3300.8789" y2="2517.2063" gradientTransform="matrix(11.8102 0 0 -11.8102 39150.3438 29870.3652)">
				<stop  offset="0" style="stop-color:#E300D6"/>
				<stop  offset="0.4662" style="stop-color:#4828BE"/>
				<stop  offset="1" style="stop-color:#4828BE"/>
			</linearGradient>
			<rect x="162.4" y="139.7" class="st14" width="3.9" height="3.9"/>
		</g>
		<g>
			<defs>
				<rect id="SVGID_37_" x="150.7" y="139.7" width="7.8" height="3.9"/>
			</defs>
			<clipPath id="SVGID_38_">
				<use xlink:href="#SVGID_37_"  style="overflow:visible;"/>
			</clipPath>
			
				<linearGradient id="SVGID_39_" gradientUnits="userSpaceOnUse" x1="-3356.5994" y1="2446.603" x2="-3356.2695" y2="2446.603" gradientTransform="matrix(23.6204 0 0 -23.6204 79434.9609 57931.418)">
				<stop  offset="0" style="stop-color:#E300D6"/>
				<stop  offset="0.4662" style="stop-color:#4828BE"/>
				<stop  offset="1" style="stop-color:#4828BE"/>
			</linearGradient>
			<rect x="150.7" y="139.7" class="st15" width="7.8" height="3.9"/>
		</g>
		<g>
			<defs>
				<rect id="SVGID_40_" x="162.4" y="147.5" width="3.9" height="3.9"/>
			</defs>
			<clipPath id="SVGID_41_">
				<use xlink:href="#SVGID_40_"  style="overflow:visible;"/>
			</clipPath>
			
				<linearGradient id="SVGID_42_" gradientUnits="userSpaceOnUse" x1="-3301.209" y1="2518.5461" x2="-3300.8789" y2="2518.5461" gradientTransform="matrix(11.8102 0 0 -11.8102 39150.3438 29893.9863)">
				<stop  offset="0" style="stop-color:#E300D6"/>
				<stop  offset="0.4662" style="stop-color:#4828BE"/>
				<stop  offset="1" style="stop-color:#4828BE"/>
			</linearGradient>
			<rect x="162.4" y="147.5" class="st16" width="3.9" height="3.9"/>
		</g>
		<g>
			<defs>
				<rect id="SVGID_43_" x="150.7" y="147.5" width="7.8" height="3.9"/>
			</defs>
			<clipPath id="SVGID_44_">
				<use xlink:href="#SVGID_43_"  style="overflow:visible;"/>
			</clipPath>
			
				<linearGradient id="SVGID_45_" gradientUnits="userSpaceOnUse" x1="-3356.5994" y1="2447.2732" x2="-3356.2695" y2="2447.2732" gradientTransform="matrix(23.6204 0 0 -23.6204 79434.9609 57955.0391)">
				<stop  offset="0" style="stop-color:#E300D6"/>
				<stop  offset="0.4662" style="stop-color:#4828BE"/>
				<stop  offset="1" style="stop-color:#4828BE"/>
			</linearGradient>
			<rect x="150.7" y="147.5" class="st17" width="7.8" height="3.9"/>
		</g>
		<g>
			<defs>
				<rect id="SVGID_46_" x="150.7" y="155.3" width="15.6" height="3.9"/>
			</defs>
			<clipPath id="SVGID_47_">
				<use xlink:href="#SVGID_46_"  style="overflow:visible;"/>
			</clipPath>
			
				<linearGradient id="SVGID_48_" gradientUnits="userSpaceOnUse" x1="-3385.2998" y1="2411.9714" x2="-3384.9697" y2="2411.9714" gradientTransform="matrix(47.2408 0 0 -47.2408 160075.0625 114100.7656)">
				<stop  offset="0" style="stop-color:#E300D6"/>
				<stop  offset="0.4662" style="stop-color:#4828BE"/>
				<stop  offset="1" style="stop-color:#4828BE"/>
			</linearGradient>
			<rect x="150.7" y="155.3" class="st18" width="15.6" height="3.9"/>
		</g>
		<g>
			<defs>
				<path id="SVGID_49_" d="M125.4,149.4c0-4.3,3.5-7.8,7.8-7.8c4.3,0,7.8,3.5,7.8,7.8c0,4.3-3.5,7.8-7.8,7.8
					C128.9,157.2,125.4,153.7,125.4,149.4 M121.5,149.4c0,6.4,5.2,11.7,11.7,11.7c6.4,0,11.7-5.2,11.7-11.7
					c0-6.4-5.2-11.7-11.7-11.7C126.7,137.7,121.5,143,121.5,149.4"/>
			</defs>
			<clipPath id="SVGID_50_">
				<use xlink:href="#SVGID_49_"  style="overflow:visible;"/>
			</clipPath>
			
				<linearGradient id="SVGID_51_" gradientUnits="userSpaceOnUse" x1="-3394.0291" y1="2399.7578" x2="-3393.699" y2="2399.7578" gradientTransform="matrix(70.8612 0 0 -70.8612 240626.5781 170199.25)">
				<stop  offset="0" style="stop-color:#E300D6"/>
				<stop  offset="0.4662" style="stop-color:#4828BE"/>
				<stop  offset="1" style="stop-color:#4828BE"/>
			</linearGradient>
			<rect x="121.5" y="137.7" class="st19" width="23.4" height="23.4"/>
		</g>
		<g>
			<defs>
				<path id="SVGID_52_" d="M74.7,181.6v-12.7h39v12.7c0,1.6-1.3,2.9-2.9,2.9H77.6C76,184.5,74.7,183.2,74.7,181.6 M74.7,141.6h39
					V165h-39V141.6z M74.7,126h39v11.7h-39V126z M70.8,121.7v-3.4h46.8v3.4c0,0.3-0.2,0.5-0.5,0.5H71.3
					C71,122.2,70.8,121.9,70.8,121.7 M105.9,83.2h5.8c1.1,0,1.9-0.9,1.9-1.9v-5.8h3.9v5.8c0,1.1,0.9,1.9,1.9,1.9h5.8v3.9h-5.8
					c-1.1,0-1.9,0.9-1.9,1.9v5.8h-3.9V89c0-1.1-0.9-1.9-1.9-1.9h-5.8V83.2z M111.7,71.5c-1.1,0-1.9,0.9-1.9,1.9v5.8h-5.8
					c-1.1,0-1.9,0.9-1.9,1.9V89c0,1.1,0.9,1.9,1.9,1.9h5.8v3.9H82.5v3.9h36.1c1.6,0,2.9,1.3,2.9,2.9v12.7H66.9v-12.7
					c0-1.6,1.3-2.9,2.9-2.9h8.8v-3.9h-8.8c-3.8,0-6.8,3.1-6.8,6.8v14.6c0,1.1,0.9,1.9,1.9,1.9h1.9v3.4c0,2.3,1.7,4.1,3.9,4.4v55.6
					c0,3.8,3.1,6.8,6.8,6.8h33.1c3.8,0,6.8-3.1,6.8-6.8V126c2.2-0.2,3.9-2.1,3.9-4.4v-3.4h1.9c1.1,0,1.9-0.9,1.9-1.9v-14.6
					c0-2.7-1.6-5.1-3.9-6.2V91h5.8c1.1,0,1.9-0.9,1.9-1.9v-7.8c0-1.1-0.9-1.9-1.9-1.9h-5.8v-5.8c0-1.1-0.9-1.9-1.9-1.9H111.7z"/>
			</defs>
			<clipPath id="SVGID_53_">
				<use xlink:href="#SVGID_52_"  style="overflow:visible;"/>
			</clipPath>
			
				<linearGradient id="SVGID_54_" gradientUnits="userSpaceOnUse" x1="-3406.3601" y1="2384.188" x2="-3406.0303" y2="2384.188" gradientTransform="matrix(200.7735 0 0 -200.7735 683969.9375 478811.75)">
				<stop  offset="0" style="stop-color:#E300D6"/>
				<stop  offset="0.4662" style="stop-color:#4828BE"/>
				<stop  offset="1" style="stop-color:#4828BE"/>
			</linearGradient>
			<rect x="63" y="71.5" class="st20" width="66.3" height="116.9"/>
		</g>
		<g>
			<defs>
				<rect id="SVGID_55_" x="100" y="147.5" width="9.7" height="3.9"/>
			</defs>
			<clipPath id="SVGID_56_">
				<use xlink:href="#SVGID_55_"  style="overflow:visible;"/>
			</clipPath>
			
				<linearGradient id="SVGID_57_" gradientUnits="userSpaceOnUse" x1="-3364.5955" y1="2433.0186" x2="-3364.2656" y2="2433.0186" gradientTransform="matrix(29.5255 0 0 -29.5255 99441.4531 71985.5625)">
				<stop  offset="0" style="stop-color:#E300D6"/>
				<stop  offset="0.4662" style="stop-color:#4828BE"/>
				<stop  offset="1" style="stop-color:#4828BE"/>
			</linearGradient>
			<rect x="100" y="147.5" class="st21" width="9.7" height="3.9"/>
		</g>
		<g>
			<defs>
				<rect id="SVGID_58_" x="78.6" y="147.5" width="17.5" height="3.9"/>
			</defs>
			<clipPath id="SVGID_59_">
				<use xlink:href="#SVGID_58_"  style="overflow:visible;"/>
			</clipPath>
			
				<linearGradient id="SVGID_60_" gradientUnits="userSpaceOnUse" x1="-3385.7341" y1="2407.677" x2="-3385.4043" y2="2407.677" gradientTransform="matrix(53.1459 0 0 -53.1459 180016.5781 128107.6641)">
				<stop  offset="0" style="stop-color:#E300D6"/>
				<stop  offset="0.4662" style="stop-color:#4828BE"/>
				<stop  offset="1" style="stop-color:#4828BE"/>
			</linearGradient>
			<rect x="78.6" y="147.5" class="st22" width="17.5" height="3.9"/>
		</g>
		<g>
			<defs>
				<rect id="SVGID_61_" x="92.2" y="155.3" width="17.5" height="3.9"/>
			</defs>
			<clipPath id="SVGID_62_">
				<use xlink:href="#SVGID_61_"  style="overflow:visible;"/>
			</clipPath>
			
				<linearGradient id="SVGID_63_" gradientUnits="userSpaceOnUse" x1="-3386.2554" y1="2407.9746" x2="-3385.9253" y2="2407.9746" gradientTransform="matrix(53.1459 0 0 -53.1459 180057.9219 128131.2891)">
				<stop  offset="0" style="stop-color:#E300D6"/>
				<stop  offset="0.4662" style="stop-color:#4828BE"/>
				<stop  offset="1" style="stop-color:#4828BE"/>
			</linearGradient>
			<rect x="92.2" y="155.3" class="st23" width="17.5" height="3.9"/>
		</g>
		<g>
			<defs>
				<rect id="SVGID_64_" x="78.6" y="155.3" width="9.7" height="3.9"/>
			</defs>
			<clipPath id="SVGID_65_">
				<use xlink:href="#SVGID_64_"  style="overflow:visible;"/>
			</clipPath>
			
				<linearGradient id="SVGID_66_" gradientUnits="userSpaceOnUse" x1="-3363.1216" y1="2433.5544" x2="-3362.7915" y2="2433.5544" gradientTransform="matrix(29.5255 0 0 -29.5255 99376.4922 72009.1875)">
				<stop  offset="0" style="stop-color:#E300D6"/>
				<stop  offset="0.4662" style="stop-color:#4828BE"/>
				<stop  offset="1" style="stop-color:#4828BE"/>
			</linearGradient>
			<rect x="78.6" y="155.3" class="st24" width="9.7" height="3.9"/>
		</g>
	</g>
</g>
</svg>
