<?xml version="1.0" encoding="utf-8"?>
<!-- Generator: Adobe Illustrator 19.1.0, SVG Export Plug-In . SVG Version: 6.00 Build 0)  -->
<svg version="1.1" id="Layer_1" xmlns="http://www.w3.org/2000/svg" xmlns:xlink="http://www.w3.org/1999/xlink" x="0px" y="0px"
	 viewBox="0 0 250 250" style="enable-background:new 0 0 250 250;" xml:space="preserve">
<style type="text/css">
	.st0{opacity:0.3;}
	.st1{fill:#FFFFFD;}
	.st2{fill:none;stroke:#F4EEE9;stroke-width:9.3745;stroke-linecap:round;stroke-miterlimit:10;}
	.st3{clip-path:url(#SVGID_2_);fill:url(#SVGID_3_);}
	.st4{clip-path:url(#SVGID_5_);fill:url(#SVGID_6_);}
	.st5{clip-path:url(#SVGID_8_);fill:url(#SVGID_9_);}
</style>
<g>
	<g>
		<g>
			<g class="st0">
				<path d="M196.9,244.8H57.7c-23.4,0-42.4-19-42.4-42.4V61.7c0-23.4,19-42.4,42.4-42.4h139.2c23.4,0,42.4,19,42.4,42.4v140.6
					C239.4,225.8,220.4,244.8,196.9,244.8z"/>
			</g>
			<g>
				<path class="st1" d="M194.6,237.7H55.4c-23.4,0-42.4-19-42.4-42.4V54.7c0-23.4,19-42.4,42.4-42.4h139.2
					c23.4,0,42.4,19,42.4,42.4v140.6C237,218.7,218,237.7,194.6,237.7z"/>
			</g>
		</g>
		<path class="st2" d="M27.2,69c0-23.4,19-42.4,42.4-42.4h16.5"/>
		<path class="st2" d="M222.8,181c0,23.4-19,42.4-42.4,42.4"/>
		<line class="st2" x1="105.8" y1="26.6" x2="129.7" y2="26.6"/>
	</g>
	<g>
		<g>
			<defs>
				<path id="SVGID_1_" d="M173.9,176.4h7.3v3.6h-7.3V176.4z M145,176.4h3.6v3.6H145V176.4z M69.2,176.4h7.2v3.6h-7.2V176.4z
					 M101.7,176.4h3.6v3.6h-3.6V176.4z M123.4,176.4h3.6v3.6h-3.6V176.4z M123.3,152.9h3.6v12.6h-3.6V152.9z M108.9,152.9h10.8v12.7
					h-10.8V152.9z M80,152.9H98v12.7H80V152.9z M152.3,152.9h18.1v12.7h-18.1V152.9z M174,152.9h7.2v12.7H174V152.9z M130.6,152.9
					h10.8v12.7h-10.8V152.9z M101.7,152.9h3.6v12.7h-3.6V152.9z M145,152.9h3.6v12.7H145V152.9z M69.2,152.9h7.2v12.7h-7.2V152.9z
					 M69.2,145.7h112v3.6h-112V145.7z M80,105.9h18V142H80V105.9z M69.2,105.9h7.2v36.2h-7.2V105.9z M174,105.9h7.2v36.2H174V105.9z
					 M130.6,105.9h10.8v36.2h-10.8V105.9z M145.1,105.9h3.6v1.2c0,3.6,0,7.1,0,10.7c0,0.7,0.4,1.6,0.9,2c1.1,0.9,2.5-0.1,2.6-1.7
					c0-3.6,0-7.2,0-10.8c0-0.5,0-0.9,0-1.4h18.1v36.1h-18.1v-1.2c0-4.8,0-9.7,0-14.5c0-0.8-0.2-1.6-1.1-1.8
					c-0.5-0.1-1.4-0.1-1.7,0.2c-0.4,0.4-0.7,1.2-0.7,1.8c-0.1,4.7,0,9.5,0,14.2v1.3h-3.6V105.9z M101.7,105.9h3.5V142h-3.5V105.9z
					 M108.9,105.9h10.8V142h-10.8V105.9z M123.4,105.9h3.5V142h-3.5V105.9z M69.1,98.7h112.1v3.6H69.1V98.7z M173.9,82.4h7.2v12.6
					h-7.2V82.4z M152.2,82.4h18.1v12.6h-18.1V82.4z M123.3,82.4h3.6v12.6h-3.6V82.4z M130.6,82.4h10.8v12.7h-10.8V82.4z M69.1,82.4
					h7.2V95h-7.2V82.4z M145,82.4h3.6v12.7H145V82.4z M101.7,82.4h3.6V95h-3.6V82.4z M108.9,82.4h10.8V95h-10.8V82.4z M70.2,78.8
					c-0.3,0-0.7,0-1.1,0v-3.6h112.1v3.7h-1.5c-29,0-58,0-87,0c-0.4,0-0.8,0-1.2,0c-1.1,0.1-1.8,0.9-1.7,1.8c0.1,0.9,0.8,1.6,1.8,1.6
					c2.1,0,4.3,0,6.5,0V95H80V82.3c1.2,0,2.3,0,3.4,0c1.5,0,2.2-0.6,2.2-1.8c0-1.1-0.8-1.7-2.2-1.7c-2.8,0-5.6,0-8.3,0
					C73.5,78.8,71.8,78.8,70.2,78.8 M123.4,68h3.6v3.6h-3.6V68z M174,68h7.2v3.6H174V68z M145,68h3.6v3.6H145V68z M101.7,67.9h3.6
					v3.6h-3.6V67.9z M69.1,67.9h7.2v3.6h-7.2V67.9z M182.3,64.4c-2.1,0-4.2,0-6.4,0c-1.1,0-2.2,0-3.3,0c-1.6,0-2.2,0.6-2.2,2.3
					c0,1.6,0,3.2,0,4.9h-18.2c0-1.6,0-3.1,0-4.7c0-2-0.5-2.5-2.5-2.5c-2.1,0-4.1,0-6.2,0c-1.4,0-2,0.7-2.1,2.1c0,1.7,0,3.3,0,5.1
					h-11c0-1.7,0-3.3,0-5c0-1.6-0.6-2.2-2.2-2.2c-2.1,0-4.3,0-6.4,0c-1.5,0-2.1,0.6-2.1,2.1c0,1.7,0,3.3,0,5h-11c0-1.5,0-3.1,0-4.7
					c0-1.9-0.5-2.5-2.5-2.5c-2.1,0-4.1,0-6.2,0c-1.4,0-2,0.6-2.1,2.1c0,1.7,0,3.3,0,5.1H79.9c0-1.5,0-3.1,0-4.6c0-2-0.5-2.5-2.5-2.5
					c-3.2,0-6.4,0-9.5,0c-1.7,0-2.3,0.6-2.3,2.2c0,38.2,0,76.5,0,114.7c0,1,0.4,1.7,1.2,2.2h12.1c0.9-0.6,1.1-1.6,1.1-2.6
					c-0.1-1.5,0-2.9,0-4.5h18.2c0,1.6,0,3.2,0,4.8c0,1,0.3,1.8,1.2,2.3h8.4c0.9-0.6,1.2-1.4,1.2-2.5c-0.1-1.5,0-3.1,0-4.7h11
					c0,1.6,0.1,3.1,0,4.7c0,1.1,0.3,1.9,1.2,2.4h8.4c0.9-0.6,1.2-1.4,1.2-2.4c-0.1-1.5,0-3.1,0-4.7h11c0,1.5,0,3.1,0,4.7
					c0,1.1,0.3,1.9,1.2,2.5h8.4c0.9-0.5,1.3-1.3,1.2-2.3c-0.1-1.6,0-3.2,0-4.9c1.4,0,2.8,0,4.1,0c1.7,0,2.5-0.6,2.4-1.8
					c0-1.1-0.8-1.7-2.4-1.7c-28.5,0-57.1,0-85.6,0h-1.6v-3.7h112v3.7H180h-14.2c-0.2,0-0.5,0-0.7,0c-1.4,0-2.2,0.7-2.2,1.7
					c0,1.1,0.8,1.8,2.1,1.8c1.4,0,2.7,0,4.1,0c0.4,0,0.8,0,1.3,0c0,1.6,0,3.1,0,4.6c0,1.1,0.2,2,1.1,2.6h13.3v-118
					C184.2,64.7,183.4,64.4,182.3,64.4C182.3,64.4,182.3,64.4,182.3,64.4"/>
			</defs>
			<clipPath id="SVGID_2_">
				<use xlink:href="#SVGID_1_"  style="overflow:visible;"/>
			</clipPath>
			
				<linearGradient id="SVGID_3_" gradientUnits="userSpaceOnUse" x1="-3411.6987" y1="2371.1687" x2="-3411.3689" y2="2371.1687" gradientTransform="matrix(361.1096 0 0 -361.1096 1232062.875 856375.75)">
				<stop  offset="0" style="stop-color:#E300D6"/>
				<stop  offset="0.4662" style="stop-color:#4828BE"/>
				<stop  offset="1" style="stop-color:#4828BE"/>
			</linearGradient>
			<rect x="65.6" y="64.4" class="st3" width="119.2" height="119.2"/>
		</g>
		<g>
			<defs>
				<path id="SVGID_4_" d="M87.2,115c0-1.1,0.8-1.9,1.9-1.9c1,0,1.8,0.9,1.8,1.9c0,1-0.8,1.8-1.8,1.8c0,0,0,0,0,0
					C88,116.8,87.2,116,87.2,115 M88.3,109.6c-2.7,0.4-4.5,2.6-4.6,5.2c0,1.6,0.5,3.2,1.8,4.1c1.4,0.9,1.9,1.8,1.8,3.4
					c-0.1,1,0.9,1.7,1.8,1.6c0.9,0,1.6-0.7,1.7-1.8c0-0.2,0-0.5,0-0.7c-0.1-0.9,0.1-1.5,1.1-2c2.3-1.3,3.1-4,2.2-6.4
					c-0.8-2.1-2.8-3.4-4.9-3.4C88.8,109.6,88.5,109.6,88.3,109.6"/>
			</defs>
			<clipPath id="SVGID_5_">
				<use xlink:href="#SVGID_4_"  style="overflow:visible;"/>
			</clipPath>
			
				<linearGradient id="SVGID_6_" gradientUnits="userSpaceOnUse" x1="-3389.4817" y1="2321.6873" x2="-3389.1516" y2="2321.6873" gradientTransform="matrix(32.3926 0 0 -32.3926 109877.6328 75322.1328)">
				<stop  offset="0" style="stop-color:#E300D6"/>
				<stop  offset="0.4662" style="stop-color:#4828BE"/>
				<stop  offset="1" style="stop-color:#4828BE"/>
			</linearGradient>
			<rect x="83.7" y="109.6" class="st4" width="11.3" height="14.4"/>
		</g>
		<g>
			<defs>
				<path id="SVGID_7_" d="M87.9,127.7c-0.6,0-1.5,0.5-1.7,1c-0.2,0.5,0.2,1.3,0.4,2c0.2,0.5,0.6,0.9,0.6,1.3c0.1,1.5,0,3,0,4.5
					c0,1.1,0.8,1.8,1.8,1.8c1,0,1.7-0.8,1.7-1.8c0-1,0-2,0-3h0c0-1,0-2,0-3c-0.1-1.5-1.2-2.8-2.6-2.8C88,127.7,88,127.7,87.9,127.7"
					/>
			</defs>
			<clipPath id="SVGID_8_">
				<use xlink:href="#SVGID_7_"  style="overflow:visible;"/>
			</clipPath>
			
				<linearGradient id="SVGID_9_" gradientUnits="userSpaceOnUse" x1="-3357.3584" y1="2252.1084" x2="-3357.0283" y2="2252.1084" gradientTransform="matrix(13.9331 0 0 -13.9331 46864.6875 31512.002)">
				<stop  offset="0" style="stop-color:#E300D6"/>
				<stop  offset="0.4662" style="stop-color:#4828BE"/>
				<stop  offset="1" style="stop-color:#4828BE"/>
			</linearGradient>
			<rect x="86" y="127.7" class="st5" width="4.8" height="10.7"/>
		</g>
	</g>
</g>
</svg>
