<?xml version="1.0" encoding="utf-8"?>
<!-- Generator: Adobe Illustrator 19.1.0, SVG Export Plug-In . SVG Version: 6.00 Build 0)  -->
<svg version="1.1" id="Layer_1" xmlns="http://www.w3.org/2000/svg" xmlns:xlink="http://www.w3.org/1999/xlink" x="0px" y="0px"
	 viewBox="0 0 250 250" style="enable-background:new 0 0 250 250;" xml:space="preserve">
<style type="text/css">
	.st0{opacity:0.3;}
	.st1{fill:#FFFFFD;}
	.st2{fill:none;stroke:#F4EEE9;stroke-width:9.3745;stroke-linecap:round;stroke-miterlimit:10;}
	.st3{clip-path:url(#SVGID_2_);fill:url(#SVGID_3_);}
	.st4{clip-path:url(#SVGID_5_);fill:url(#SVGID_6_);}
	.st5{clip-path:url(#SVGID_8_);fill:url(#SVGID_9_);}
	.st6{clip-path:url(#SVGID_11_);fill:url(#SVGID_12_);}
	.st7{clip-path:url(#SVGID_14_);fill:url(#SVGID_15_);}
	.st8{clip-path:url(#SVGID_17_);fill:url(#SVGID_18_);}
	.st9{clip-path:url(#SVGID_20_);fill:url(#SVGID_21_);}
	.st10{clip-path:url(#SVGID_23_);fill:url(#SVGID_24_);}
	.st11{clip-path:url(#SVGID_26_);fill:url(#SVGID_27_);}
	.st12{clip-path:url(#SVGID_29_);fill:url(#SVGID_30_);}
</style>
<g>
	<g>
		<g>
			<g class="st0">
				<path d="M196.9,244.8H57.7c-23.4,0-42.4-19-42.4-42.4V61.7c0-23.4,19-42.4,42.4-42.4h139.2c23.4,0,42.4,19,42.4,42.4v140.6
					C239.4,225.8,220.4,244.8,196.9,244.8z"/>
			</g>
			<g>
				<path class="st1" d="M194.6,237.7H55.4c-23.4,0-42.4-19-42.4-42.4V54.7c0-23.4,19-42.4,42.4-42.4h139.2
					c23.4,0,42.4,19,42.4,42.4v140.6C237,218.7,218,237.7,194.6,237.7z"/>
			</g>
		</g>
		<path class="st2" d="M27.2,69c0-23.4,19-42.4,42.4-42.4h16.5"/>
		<path class="st2" d="M222.8,181c0,23.4-19,42.4-42.4,42.4"/>
		<line class="st2" x1="105.8" y1="26.6" x2="129.7" y2="26.6"/>
	</g>
	<g>
		<g>
			<defs>
				<path id="SVGID_1_" d="M89.2,179.9c-0.6,0-1.7-0.8-1.8-1.3c-0.2-2.3-0.1-4.6-0.1-6.7h12c0,2.3,0.1,4.4,0,6.5
					c-0.1,1-0.9,1.6-1.9,1.6c-1.4,0-2.8,0-4.3,0C91.8,180,90.5,180,89.2,179.9 M156.5,179.9c-0.6,0-1.6-0.8-1.6-1.4
					c-0.2-2.2-0.1-4.4-0.1-6.7h11.9c0,2.2,0.1,4.4-0.1,6.6c0,0.5-1,1.4-1.6,1.4c-1.5,0.1-2.9,0.1-4.4,0.1
					C159.3,180,157.9,180,156.5,179.9 M174.6,106.6V94.7c2.2,0,4.4-0.1,6.6,0.1c0.5,0,1.3,1.1,1.3,1.7c0.1,2.8,0.1,5.5,0,8.3
					c0,1.1-0.7,1.8-1.8,1.9c-0.8,0-1.7,0-2.5,0C177.1,106.6,175.9,106.6,174.6,106.6 M72.8,106.5c-0.5,0-1.3-1.1-1.4-1.8
					c-0.2-2.8-0.1-5.5,0-8.3c0-1.1,0.8-1.8,1.9-1.9c2,0,4,0,6.1,0v12c-1.2,0-2.4,0-3.6,0C74.9,106.6,73.8,106.6,72.8,106.5
					 M83.4,84.7h41.7v57.6c-0.5,0-0.9,0-1.4,0c-5.1,0-10.2,0-15.4,0c-0.3,0-0.7,0-1,0c-1.1,0.1-2,1-1.9,1.9c0,0.9,0.9,1.7,2,1.9
					c0.3,0,0.6,0,0.9,0c0.1,0,0.2,0,0.4,0c20.1,0,40.2,0,60.3,0c0.5,0,1.1,0,1.7,0c0,0.5,0.1,0.9,0.1,1.2c0,4.8,0,9.7,0,14.5
					c0,3.7-2.5,6.2-6.2,6.2c-25,0-50,0-75,0c-3.7,0-6.2-2.5-6.2-6.2c0-4.8,0-9.6,0-14.4v-1.4c0.6,0,1.1,0,1.7,0c0.8,0,1.5,0,2.3,0
					c1.8,0,3.7,0,5.5,0c1.4,0,2.4-0.8,2.4-1.8c0-1.1-1-1.9-2.4-1.9c-3.1,0-6.2,0-9.4,0V84.7z M129,84.7h41.6v57.5H129V84.7z
					 M174.6,80.7c0.8,0,1.5-0.1,2.1,0c1.1,0.1,1.8,0.8,1.9,1.9c0,2.6,0,5.3,0,8h-4V80.7z M75.4,86.8c0-1.2,0-2.4,0-3.6
					c0-1.9,0.7-2.5,2.5-2.5c0.5,0,1,0,1.5,0v10h-4.1V86.8z M115.1,76.8h23.8v4h-23.8V76.8z M156.7,65c-1.4,0-2.2,1.4-1.6,2.6
					c0.4,0.9,1.2,1.2,2.1,1.2c0.9,0,1.7,0,2.6,0c1.6,0,3.3,0,4.9,0c2.6,0,5.1,1.5,5.5,3.9c0.5,2.6,0.4,5.3,0.6,8h-28.1
					c0-1.2,0-2.3,0-3.4c0-2.8-1.6-4.4-4.5-4.4c-7.5,0-15,0-22.6,0c-2.9,0-4.5,1.6-4.5,4.5c0,1.1,0,2.2,0,3.3h-28
					c0-1.8,0.1-3.6,0-5.3c-0.3-4,3-6.8,6.6-6.7c5.7,0.1,11.3,0.1,17,0.1c2.3,0,4.7,0,7,0c9.5,0,18.9,0,28.4,0c1.5,0,2.4-0.8,2.4-1.9
					c0-1.1-0.9-1.9-2.3-1.9c-17.6,0-35.2,0-52.8,0c-5.3,0-9.1,3.4-9.9,8.7c-0.2,1-0.2,2-0.3,3.2c-0.7,0-1.2,0-1.7,0
					c-3.2,0.1-5.5,1.9-5.9,5.1c-0.3,2.6-0.2,5.2-0.2,7.8c0,0.9-0.1,1.5-1.1,2c-1.6,0.8-2.6,2.2-2.7,4c-0.2,3-0.2,6.1-0.1,9.1
					c0.1,2.3,1.3,4.1,3.5,5c0.9,0.4,2,0.5,3,0.5c1.7,0.1,3.4,0,5.3,0v1.8c0,16.4,0,32.7,0,49.1c0,3.2,0.9,5.9,3.3,8.1
					c0.3,0.3,0.6,0.9,0.6,1.4c0.1,2.3,0,4.5,0,6.8c0,3.3,1.9,5.7,5.2,6.1c2.7,0.3,5.4,0.2,8.2,0.2c3.5,0,5.9-2.1,6.3-5.6
					c0.1-0.9,0-1.9,0-2.8c0-1.1,0-2.3,0-3.4h47.8c0,1.9,0,3.8,0,5.6c0,3.6,2.5,6.2,6.1,6.2c2.4,0,4.9,0,7.3,0c3.7,0,6.2-2.5,6.2-6.3
					c0-2.2,0-4.5,0-6.7c0-0.4,0.1-1,0.4-1.3c2.6-2.3,3.5-5.2,3.5-8.6c0-16.3,0-32.5,0-48.8v-1.6c2.1,0,3.9,0,5.8,0
					c3.6,0,6.1-2.5,6.1-6.1c0-2.5,0-5,0-7.6c0-2.3-1-4.2-3.1-5.3c-0.7-0.4-0.9-0.8-0.9-1.6c0-2.4,0-4.7,0-7.1c-0.1-3.5-2.6-6-6-6
					c-0.6,0-1.2,0-1.9,0c0-0.7,0-1.3,0-1.8c-0.1-5.2-3.4-9.3-8.6-9.9c-1.5-0.2-3.1-0.2-4.6-0.2C159.8,64.9,158.3,65,156.7,65"/>
			</defs>
			<clipPath id="SVGID_2_">
				<use xlink:href="#SVGID_1_"  style="overflow:visible;"/>
			</clipPath>
			
				<linearGradient id="SVGID_3_" gradientUnits="userSpaceOnUse" x1="-3415.4875" y1="2374.8945" x2="-3415.1572" y2="2374.8945" gradientTransform="matrix(360.0746 0 0 -360.0746 1229897.875 855263.625)">
				<stop  offset="0" style="stop-color:#E300D6"/>
				<stop  offset="0.4662" style="stop-color:#4828BE"/>
				<stop  offset="1" style="stop-color:#4828BE"/>
			</linearGradient>
			<rect x="67.6" y="64.9" class="st3" width="118.9" height="119"/>
		</g>
		<g>
			<defs>
				<path id="SVGID_4_" d="M149,65c-1.2,0.1-2,0.9-2,1.9c0,1,0.9,1.8,2.1,1.9c0.2,0,0.3,0,0.5,0c0.1,0,0.2,0,0.2,0
					c0.2,0,0.5,0,0.7,0c1.3-0.1,2.2-0.8,2.2-1.9c0-1.1-0.9-1.9-2.2-1.9c-0.3,0-0.5,0-0.8,0C149.5,65,149.2,65,149,65"/>
			</defs>
			<clipPath id="SVGID_5_">
				<use xlink:href="#SVGID_4_"  style="overflow:visible;"/>
			</clipPath>
			
				<linearGradient id="SVGID_6_" gradientUnits="userSpaceOnUse" x1="-3453.9976" y1="2346.4431" x2="-3453.6677" y2="2346.4431" gradientTransform="matrix(17.4145 0 0 -17.4145 60296.6406 40929.0273)">
				<stop  offset="0" style="stop-color:#E300D6"/>
				<stop  offset="0.4662" style="stop-color:#4828BE"/>
				<stop  offset="1" style="stop-color:#4828BE"/>
			</linearGradient>
			<rect x="147" y="65" class="st4" width="5.8" height="3.8"/>
		</g>
		<g>
			<defs>
				<path id="SVGID_7_" d="M115.1,154.1h23.8v6h-23.8V154.1z M115.5,150.3c-2.6,0-4.2,1.7-4.3,4.3c0,1.6,0,3.2,0,4.8
					c0,3,1.6,4.6,4.6,4.6c3.7,0,7.4,0,11.1,0v0c3.8,0,7.6,0,11.4,0c2.8,0,4.4-1.6,4.4-4.4c0-1.7,0-3.4,0-5.1c0-2.6-1.7-4.3-4.3-4.3
					c-3.3,0-6.5,0-9.8,0C124.4,150.2,120,150.2,115.5,150.3"/>
			</defs>
			<clipPath id="SVGID_8_">
				<use xlink:href="#SVGID_7_"  style="overflow:visible;"/>
			</clipPath>
			
				<linearGradient id="SVGID_9_" gradientUnits="userSpaceOnUse" x1="-3420.5225" y1="2372.5347" x2="-3420.1924" y2="2372.5347" gradientTransform="matrix(95.6742 0 0 -95.6742 327366.875 227147.375)">
				<stop  offset="0" style="stop-color:#E300D6"/>
				<stop  offset="0.4662" style="stop-color:#4828BE"/>
				<stop  offset="1" style="stop-color:#4828BE"/>
			</linearGradient>
			<rect x="111.2" y="150.2" class="st5" width="31.6" height="13.7"/>
		</g>
		<g>
			<defs>
				<path id="SVGID_10_" d="M153.1,160.1c-1.6,0-2.3-0.7-2.3-2.4c0-0.5,0-1,0-1.5c0-1.5,0.8-2.2,2.3-2.3c1.2,0,2.4,0,3.6,0v0
					c1.3,0,2.6,0,4,0c1.4,0,2.1,0.8,2.2,2.2c0,0.2,0,0.4,0,0.6c0,2.9-0.4,3.3-3.3,3.3c-1.4,0-2.8,0-4.1,0
					C154.6,160.2,153.9,160.1,153.1,160.1 M152.9,150.2c-2.7,0.1-5.1,1.8-5.6,4.2c-0.3,1.5-0.3,3-0.1,4.5c0.4,2.7,2.1,4.4,4.8,4.8
					c1.6,0.2,3.2,0.2,4.8,0.2c0,0,0,0,0-0.1c1.3,0,2.6,0,4,0c2.8-0.1,5.2-1.8,5.7-4.3c0.3-1.5,0.3-3,0.1-4.5c-0.4-3-2.8-4.8-5.8-4.9
					c-1.3,0-2.5,0-3.8,0C155.5,150.2,154.2,150.2,152.9,150.2"/>
			</defs>
			<clipPath id="SVGID_11_">
				<use xlink:href="#SVGID_10_"  style="overflow:visible;"/>
			</clipPath>
			
				<linearGradient id="SVGID_12_" gradientUnits="userSpaceOnUse" x1="-3425.7412" y1="2370.4126" x2="-3425.4114" y2="2370.4126" gradientTransform="matrix(59.3292 0 0 -59.3292 203393.4375 140791.7656)">
				<stop  offset="0" style="stop-color:#E300D6"/>
				<stop  offset="0.4662" style="stop-color:#4828BE"/>
				<stop  offset="1" style="stop-color:#4828BE"/>
			</linearGradient>
			<rect x="146.9" y="150.2" class="st6" width="19.7" height="13.8"/>
		</g>
		<g>
			<defs>
				<path id="SVGID_13_" d="M93.5,160.2c-1.5,0-2.2-0.7-2.3-2.2c-0.1-3.1-0.1-4.2,3.8-4c0.7,0,1.5,0,2.2,0c0.4,0,0.9,0,1.3,0
					c0.8,0,1.7,0,2.5,0c1.4,0,2.2,0.7,2.2,2.1c0.1,3.1,0.2,4.2-3.9,4c-1.2-0.1-2.5,0-3.7,0c-0.5,0-1.1,0-1.6,0
					C93.9,160.2,93.7,160.2,93.5,160.2 M92.8,150.4c-2.5,0.1-4.3,1.6-5,4c-0.4,1.4-0.4,3-0.2,4.5c0.4,3.1,2.7,5,5.9,5.1
					c0.8,0,1.7,0,2.5,0c0.4,0,0.8,0,1.2,0c1.2,0,2.5,0,3.7,0c2.8-0.1,5.2-1.7,5.8-4.1c0.3-1.3,0.4-2.8,0.2-4.2
					c-0.4-3.1-2.2-5-5.3-5.3c-1.3-0.1-2.7-0.2-4-0.2C96,150.2,94.4,150.3,92.8,150.4"/>
			</defs>
			<clipPath id="SVGID_14_">
				<use xlink:href="#SVGID_13_"  style="overflow:visible;"/>
			</clipPath>
			
				<linearGradient id="SVGID_15_" gradientUnits="userSpaceOnUse" x1="-3423.7134" y1="2370.4067" x2="-3423.3833" y2="2370.4067" gradientTransform="matrix(59.2829 0 0 -59.2829 203055.125 140681.625)">
				<stop  offset="0" style="stop-color:#E300D6"/>
				<stop  offset="0.4662" style="stop-color:#4828BE"/>
				<stop  offset="1" style="stop-color:#4828BE"/>
			</linearGradient>
			<rect x="87.4" y="150.2" class="st7" width="19.7" height="13.8"/>
		</g>
		<g>
			<defs>
				<path id="SVGID_16_" d="M117.3,97.8c-9.6,9.6-19.2,19.2-28.7,28.8c-0.3,0.3-0.6,0.7-0.9,1c-0.6,1.2,0.3,2.7,2,2.6
					c0.4-0.3,1.1-0.7,1.6-1.2c8.9-8.9,17.8-17.7,26.7-26.6c0.8-0.8,1.6-1.6,2.4-2.4c0.6-0.7,0.9-1.4,0.4-2.3
					c-0.4-0.6-0.9-0.9-1.4-0.9C118.7,96.8,118,97.1,117.3,97.8"/>
			</defs>
			<clipPath id="SVGID_17_">
				<use xlink:href="#SVGID_16_"  style="overflow:visible;"/>
			</clipPath>
			
				<linearGradient id="SVGID_18_" gradientUnits="userSpaceOnUse" x1="-3419.6858" y1="2371.8523" x2="-3419.356" y2="2371.8523" gradientTransform="matrix(101.2768 0 0 -101.2768 346422.4688 240327.2031)">
				<stop  offset="0" style="stop-color:#E300D6"/>
				<stop  offset="0.4662" style="stop-color:#4828BE"/>
				<stop  offset="1" style="stop-color:#4828BE"/>
			</linearGradient>
			<rect x="87.1" y="96.8" class="st8" width="34.1" height="33.5"/>
		</g>
		<g>
			<defs>
				<path id="SVGID_19_" d="M103.4,97.8c-3.7,3.6-7.3,7.3-10.9,10.9c-0.3,0.3-0.8,0.8-0.8,1.2c0,0.6,0.1,1.4,0.4,1.7
					c0.4,0.4,1.2,0.5,1.7,0.4c0.5-0.1,0.9-0.5,1.3-0.9c3.6-3.6,7.2-7.2,10.8-10.8c0.3-0.3,0.7-0.5,0.7-0.8c0.1-0.6,0.3-1.4,0.1-2
					c-0.2-0.5-0.9-0.7-1.5-1.1C104.5,97.1,103.9,97.4,103.4,97.8"/>
			</defs>
			<clipPath id="SVGID_20_">
				<use xlink:href="#SVGID_19_"  style="overflow:visible;"/>
			</clipPath>
			
				<linearGradient id="SVGID_21_" gradientUnits="userSpaceOnUse" x1="-3426.7229" y1="2366.4482" x2="-3426.3928" y2="2366.4482" gradientTransform="matrix(45.918 0 0 -45.918 157439.7969 108766.8984)">
				<stop  offset="0" style="stop-color:#E300D6"/>
				<stop  offset="0.4662" style="stop-color:#4828BE"/>
				<stop  offset="1" style="stop-color:#4828BE"/>
			</linearGradient>
			<rect x="91.6" y="96.6" class="st9" width="15.3" height="15.6"/>
		</g>
		<g>
			<defs>
				<path id="SVGID_22_" d="M100.5,142.3c-0.1,0-0.1,0-0.2,0c-1.9,0-2.9,0.7-2.9,1.9c0.1,1.2,1.1,1.8,2.9,1.8c0.1,0,0.1,0,0.2,0
					c0.1,0,0.2,0,0.3,0c1.4,0,2.3-0.8,2.3-1.9c0-1.1-0.9-1.8-2.3-1.9c-0.1,0-0.1,0-0.2,0C100.6,142.3,100.5,142.3,100.5,142.3"/>
			</defs>
			<clipPath id="SVGID_23_">
				<use xlink:href="#SVGID_22_"  style="overflow:visible;"/>
			</clipPath>
			
				<linearGradient id="SVGID_24_" gradientUnits="userSpaceOnUse" x1="-3448.5608" y1="2355.2549" x2="-3448.2307" y2="2355.2549" gradientTransform="matrix(17.2427 0 0 -17.2427 59559.8008 40755.0859)">
				<stop  offset="0" style="stop-color:#E300D6"/>
				<stop  offset="0.4662" style="stop-color:#4828BE"/>
				<stop  offset="1" style="stop-color:#4828BE"/>
			</linearGradient>
			<rect x="97.4" y="142.3" class="st10" width="5.7" height="3.8"/>
		</g>
		<g>
			<defs>
				<path id="SVGID_25_" d="M164,96.9c-0.4,0.2-0.8,0.6-1.2,0.9c-9.5,9.5-19.1,19.1-28.6,28.6c-0.2,0.2-0.4,0.3-0.5,0.5
					c-0.8,0.9-0.8,1.9,0,2.7c0.8,0.7,1.7,0.7,2.7-0.1c0.3-0.3,0.6-0.6,0.9-0.9c6.3-6.3,12.6-12.6,18.9-18.9c3.2-3.1,6.3-6.3,9.4-9.5
					c0.5-0.5,0.8-1.1,1-1.5c0-1.3-0.9-2.1-1.9-2.1C164.5,96.8,164.2,96.8,164,96.9"/>
			</defs>
			<clipPath id="SVGID_26_">
				<use xlink:href="#SVGID_25_"  style="overflow:visible;"/>
			</clipPath>
			
				<linearGradient id="SVGID_27_" gradientUnits="userSpaceOnUse" x1="-3420.592" y1="2371.8562" x2="-3420.262" y2="2371.8562" gradientTransform="matrix(101.4004 0 0 -101.4004 346982.6563 240620.8594)">
				<stop  offset="0" style="stop-color:#E300D6"/>
				<stop  offset="0.4662" style="stop-color:#4828BE"/>
				<stop  offset="1" style="stop-color:#4828BE"/>
			</linearGradient>
			<rect x="132.9" y="96.8" class="st11" width="33.7" height="33.6"/>
		</g>
		<g>
			<defs>
				<path id="SVGID_28_" d="M149.4,97.4c-3.9,3.8-7.8,7.7-11.7,11.6c-0.9,0.9-0.9,1.9-0.1,2.7c0.8,0.8,1.8,0.8,2.7-0.1
					c3.9-3.8,7.7-7.7,11.6-11.6c0.4-0.4,0.6-1,1-1.6c-0.5-0.5-0.8-1.3-1.4-1.5c-0.2,0-0.3-0.1-0.5-0.1
					C150.4,97,149.8,97.1,149.4,97.4"/>
			</defs>
			<clipPath id="SVGID_29_">
				<use xlink:href="#SVGID_28_"  style="overflow:visible;"/>
			</clipPath>
			
				<linearGradient id="SVGID_30_" gradientUnits="userSpaceOnUse" x1="-3428.0928" y1="2366.8726" x2="-3427.7627" y2="2366.8726" gradientTransform="matrix(47.9974 0 0 -47.9974 164676.7031 113708.5625)">
				<stop  offset="0" style="stop-color:#E300D6"/>
				<stop  offset="0.4662" style="stop-color:#4828BE"/>
				<stop  offset="1" style="stop-color:#4828BE"/>
			</linearGradient>
			<rect x="136.8" y="97" class="st12" width="16.1" height="15.6"/>
		</g>
	</g>
</g>
</svg>
