<?xml version="1.0" encoding="utf-8"?>
<!-- Generator: Adobe Illustrator 19.1.0, SVG Export Plug-In . SVG Version: 6.00 Build 0)  -->
<svg version="1.1" id="Layer_1" xmlns="http://www.w3.org/2000/svg" xmlns:xlink="http://www.w3.org/1999/xlink" x="0px" y="0px"
	 viewBox="0 0 250 250" style="enable-background:new 0 0 250 250;" xml:space="preserve">
<style type="text/css">
	.st0{opacity:0.3;}
	.st1{fill:#FFFFFD;}
	.st2{fill:none;stroke:#F4EEE9;stroke-width:9.3745;stroke-linecap:round;stroke-miterlimit:10;}
	.st3{clip-path:url(#SVGID_2_);fill:url(#SVGID_3_);}
	.st4{clip-path:url(#SVGID_5_);fill:url(#SVGID_6_);}
	.st5{clip-path:url(#SVGID_8_);fill:url(#SVGID_9_);}
	.st6{clip-path:url(#SVGID_11_);fill:url(#SVGID_12_);}
	.st7{clip-path:url(#SVGID_14_);fill:url(#SVGID_15_);}
	.st8{clip-path:url(#SVGID_17_);fill:url(#SVGID_18_);}
	.st9{clip-path:url(#SVGID_20_);fill:url(#SVGID_21_);}
	.st10{clip-path:url(#SVGID_23_);fill:url(#SVGID_24_);}
	.st11{clip-path:url(#SVGID_26_);fill:url(#SVGID_27_);}
	.st12{clip-path:url(#SVGID_29_);fill:url(#SVGID_30_);}
</style>
<g>
	<g>
		<g>
			<g class="st0">
				<path d="M196.9,244.8H57.7c-23.4,0-42.4-19-42.4-42.4V61.7c0-23.4,19-42.4,42.4-42.4h139.2c23.4,0,42.4,19,42.4,42.4v140.6
					C239.4,225.8,220.4,244.8,196.9,244.8z"/>
			</g>
			<g>
				<path class="st1" d="M194.6,237.7H55.4c-23.4,0-42.4-19-42.4-42.4V54.7c0-23.4,19-42.4,42.4-42.4h139.2
					c23.4,0,42.4,19,42.4,42.4v140.6C237,218.7,218,237.7,194.6,237.7z"/>
			</g>
		</g>
		<path class="st2" d="M27.2,69c0-23.4,19-42.4,42.4-42.4h16.5"/>
		<path class="st2" d="M222.8,181c0,23.4-19,42.4-42.4,42.4"/>
		<line class="st2" x1="105.8" y1="26.6" x2="129.7" y2="26.6"/>
	</g>
	<g>
		<g>
			<defs>
				<path id="SVGID_1_" d="M118.7,173.2c3.3-0.7,4.5-2.9,4.2-5.7h9.6c0.6,4.1,0.8,4.4,4.2,5.7c-2.2,2.6-5,4-8.3,4.2
					c-0.3,0-0.5,0-0.8,0C124.2,177.5,121.3,176.1,118.7,173.2 M146.2,149.7c0.6-0.1,1-0.2,1.4-0.3c4.4-1.1,6.5-6.2,3.9-9.9
					c-0.9-1.3-1.2-2.5-1.2-4c0-0.5,0-1,0-1.3c2.7,0.5,5.4,1.3,8.1,1.5c2.7,0.2,5.5-0.3,8.4-0.5c0,2.2-0.4,5,1.8,6.8
					c1.9,1.5,4.3,2.5,6.5,3.8c-1.5,5.6-7.1,10.4-13,11.1c-0.8,0.1-1.6,0.1-2.4,0.1C154.2,157,149.7,154.5,146.2,149.7 M81.6,141.1
					c-2.6-2.3-4.5-5.1-5.6-8.4c-0.2-0.5-0.3-1-0.4-1.6c1.7-0.5,3.2-1,4.9-1.5c1.7,5.9,5.3,9.7,11.5,10.6c5.8,0.8,10.1-1.7,13.4-6.6
					c0,1.5,0,2.7,0,4c0,0.3-0.2,0.5-0.4,0.8c-0.6,1.3-1.2,2.6-1.8,3.9c-0.2,0.4-0.4,0.8-0.8,1c-2.6,1.5-5.6,2.2-8.6,2.2
					C89.3,145.6,84.8,144,81.6,141.1 M103,122.5c-0.1,3.2,0.4,6.3-1.2,9.2c-2,3.5-6.2,5.5-10.2,4.6c-4-0.9-7.1-4.4-7.4-8.5
					c-0.1-1.7,0-3.4,0-5.2c3.1,1.3,6.2,2,9.3,2C96.7,124.5,99.8,123.8,103,122.5 M115.8,126.2c3.6-1.8,7.2-3.6,10.8-5.4
					c0.9-0.4,1.5-0.4,2.3,0c3.5,1.8,7.1,3.6,10.7,5.4c1.2,0.6,2.4,1,3.5-0.2c2.3,3.5,3.2,7.3,3.1,11.3c0,1.6,0.1,3,1.5,4.1
					c1.5,1.1,0.7,3.6-1.1,4.1c-0.8,0.2-1.8,0.1-2.6,0.2c-1.5,0.1-2.2,0.8-2.3,2.3c-0.1,1.8-0.1,3.8-0.5,5.5
					c-1.7,6.8-8.2,11-15.2,10.3c-6.5-0.7-12-6.7-12.2-13.4c0-0.9,0-1.8,0-2.7c-0.1-1.2-0.8-1.9-2-2c-0.3,0-0.7,0-1,0
					c-0.4,0-0.7,0-1.1,0c-1.6-0.1-2.6-1.2-2.6-2.6c0-1.3,1.2-2.5,2.7-2.6c7.2-0.3,14.3-1.2,21.2-3.3c3-0.9,5.9-2.2,8.7-3.5
					c1.5-0.6,1.8-1.8,1.3-2.9c-0.6-1.1-1.7-1.4-3.1-0.6c-6.5,3.4-13.6,4.8-20.8,5.7c-2.5,0.3-5.1,0.5-7.8,0.7
					c0.1-4,1.1-7.4,3.2-10.6c0.5,0.6,1,0.8,1.6,0.8C114.6,126.7,115.2,126.5,115.8,126.2 M107,120.5c0-0.3,0.2-0.6,0.4-0.8
					c1.5-1.5,3.1-2.9,4.7-4.4c0,1.3,0,2.8,0,4.2c0,0.2-0.1,0.5-0.3,0.7c-1.6,2.2-3.3,4.3-4.9,6.5C107,124.8,107,122.6,107,120.5
					 M116.2,114.4c2.4,1.2,4.6,2.3,7.1,3.6c-2.5,1.2-4.7,2.4-7.1,3.6V114.4z M132.3,117.9c2.5-1.2,4.7-2.4,7.1-3.6v7.1
					C137,120.3,134.8,119.2,132.3,117.9 M136.4,108.8c0.2-4.2,0.1-8.4,0.6-12.6c1.1-9.7,9.5-17.9,19.2-19.3
					c12.5-1.7,23.5,5.8,26.1,18.1c0.6,3,0.5,6.1,0.7,9.1c0.6,8.4,1.2,16.8,1.9,25.2c0.1,1-0.1,1.6-1,2.1c-4,2.2-8.3,3.7-12.8,4.7
					c-0.5-2.5-0.4-2.8,1.5-4.1c7.3-5.4,10.6-12.6,9.5-21.7c-0.6-4.8-3.5-7.8-8-9.2c-3.5-1.1-7.2-1.9-10.8-2.7
					c-4-0.9-7.9-2.1-11.2-4.6c-1.5-1.1-3-0.5-3.3,1.4c-0.5,3.4-2.7,5.4-5.7,6.6c-0.7,0.3-1.4,0.4-2,0.7c-1.2,0.5-1.7,1.5-1.3,2.6
					c0.3,1,1.4,1.5,2.6,1.2c4.2-1.2,7.7-3.3,9.6-7.6c1.4,0.6,2.7,1.4,4.1,1.8c4.6,1.2,9.3,2.3,13.9,3.5c1.3,0.3,2.6,0.8,3.9,1.4
					c2.7,1.2,4,3.4,4.4,6.3c1.1,9.1-5.5,18.2-14.5,20c-5,1-9.7,0.2-14-2.6c-0.4-0.3-0.8-0.8-1.1-1.3c-1.5-2.3-3-4.6-4.5-6.9
					c-0.3-0.5-0.6-1.2-0.6-1.8c-0.1-2.4,0-4.8,0-7.2c0-2.4-1.3-3.2-3.5-2.1c-1.1,0.6-2.3,1.1-3.6,1.7
					C136.4,110.4,136.4,109.6,136.4,108.8 M72.9,79.6c0.8-7.1,6.7-12,14.1-12.2c5.8-0.1,11.6,0,17.4,0c2.9,0,4.3,1.2,5.3,3.9
					c0.3,0.8,1,1.6,1.7,2.1c1.7,1.4,2.8,3.1,2.9,5.3c0.1,3.9,0,7.9,0,12.1c-0.8,0-1.5,0-2.2,0c-1.4,0.1-2.3,0.9-2.3,2.1
					c0.1,1.1,0.9,1.8,2.3,1.9c0.9,0,1.8,0,2.6,0.2c1.2,0.2,1.8,1.2,1.8,2.3c0,1.2-0.6,2.1-1.8,2.5c-2.6,0.8-2.6,0.8-2.8,3.5
					c-0.8,9.6-8.3,16.7-18.1,17.2c-8.9,0.4-17.2-6.5-18.6-15.7c-0.1-0.7-0.1-1.3-0.2-2c-0.2-2.2-0.4-2.4-2.5-2.9
					c-1.9-0.5-2.8-2.6-1.5-4c0.6-0.6,1.6-0.9,2.5-1c1.2-0.2,2.4-0.1,3.6,0c1.4,0.1,2.1-0.6,2.5-1.9c0.4-1.3,0.9-2.6,1.3-3.9
					c0.2-0.9,0.7-1.2,1.6-1.2c6.1-0.2,12.2-0.7,18.2-2.2c2.4-0.6,4.7-1.5,7-2.4c1.3-0.5,1.8-1.6,1.3-2.6c-0.5-1.1-1.5-1.6-2.9-1
					c-6,2.6-12.4,3.4-18.8,3.9c-2.3,0.2-4.7,0.3-7,0.4c-1.4,0-2.2,0.7-2.6,2c-0.3,1.2-0.9,2.4-1.2,3.7c-0.2,1-0.7,1.3-1.7,1.2
					c-0.6-0.1-1.3,0-2,0C72.9,86.9,72.5,83.2,72.9,79.6 M86,63.6C75.7,64.1,68.8,71.7,68.8,82c0,3.1,0,6.2,0,9.3
					c0,0.6-0.2,1.2-0.6,1.7c-2.9,3.5-2,8.2,2.1,10.3c0.4,0.2,0.9,0.8,0.9,1.2c0.8,6,3.5,11,8.2,14.9c0.3,0.3,0.7,0.7,0.7,1.1
					c0.1,1.6,0,3.3,0,4.9c-0.5,0.2-0.9,0.3-1.3,0.4c-5,1.5-9.9,3-14.9,4.5c-4,1.2-6.5,4.2-6.6,8.1c-0.1,7.5-0.1,15,0,22.5
					c0,0.7,0.6,1.8,1.2,2c1.1,0.4,1,1,1,1.8c0,6.8,0,13.7,0,20.5c0,2.1,0.6,3,1.9,3c1.4,0,2.1-0.9,2.1-3.1c0-6.8,0-13.6,0-20.4
					c0-0.5,0.1-1,0.1-1.5H71v1.7c0,6.7,0,13.5,0,20.2c0,0.6,0,1.3,0.2,1.8c0.3,0.9,1.1,1.5,2,1.2c0.7-0.2,1.2-0.8,1.7-1.4
					c0.2-0.2,0.1-0.8,0.1-1.2c0-11.1,0-22.3,0-33.4c0-1.5-0.3-3.1-1-4.3c-1.1-2.1-2.5-4-3.8-5.9c-0.7-1.1-1.9-1.2-2.8-0.6
					c-0.9,0.6-1.2,1.7-0.5,2.8c0.9,1.5,2,2.9,2.9,4.5c0.4,0.7,1,1.5,1,2.3c0.1,2.7,0,5.5,0,8.3h-9.4c-0.1-0.1-0.1-0.2-0.1-0.3
					c0-6.7-0.1-13.3,0-20c0-2.1,1.2-3.7,3.2-4.4c2.3-0.8,4.6-1.4,7-2.2c0.2,0.5,0.3,0.8,0.4,1.2c1.7,5.3,4.8,9.6,9.5,12.5
					c6.9,4.3,14.2,4.7,21.6,1.4c0.4-0.2,1.1-0.4,1.3-0.3c1.4,1.6,3.3,2.3,5.4,2.5c0,0.4,0.1,0.6,0.1,0.8c0.3,5.7,2.7,10.5,7.4,13.8
					c1.4,1,1.9,2,1.8,3.6c-0.1,0.8-0.3,1.3-1.1,1.5c-2.4,0.7-4.7,1.5-7,2.4c-2.7,1-4.7,2.9-5.1,5.7c-0.5,3-0.4,6.2-0.4,9.3
					c0,1,0.8,1.6,1.8,1.6c1,0,1.7-0.5,2-1.4c0.1-0.5,0.1-1.1,0.1-1.6c0.1-2.2-0.1-4.4,0.2-6.5c0.3-2.4,2.4-3.3,4.5-4
					c1.6-0.5,1.7,1.1,2.3,1.7c6.9,7.1,17.8,6.6,24-1.2c0.2-0.3,0.7-0.6,1-0.6c3,0.3,5,2.6,5.1,5.7c0,1.9,0,3.8,0,5.7
					c0,1.4,0.8,2.2,2,2.2c1.2,0,1.9-0.8,2-2.2c0-2,0-3.9,0-5.9c0-4.4-2.2-7.4-6.3-8.8c-2-0.7-4-1.3-6-2.1c-0.5-0.2-1.2-0.7-1.2-1
					c0.1-1.1-0.7-2.4,0.7-3.4c1.5-1.1,3-2.3,4.1-3.7c1.5-1.9,2.5-4.1,3.8-6.2c5.2,4.9,11.6,7,18.9,5.4c7.4-1.7,12.2-6.4,14.8-13.5
					c2.6,1.1,5.1,2,7.6,3.1c1.7,0.7,2.8,2,2.9,3.8c0.1,3.3,0,6.5,0,9.8h-7.4c0-0.9,0-1.7,0-2.5c-0.1-1.1-0.7-1.8-1.9-1.9
					c-1.1-0.1-1.8,0.6-2.1,1.7c-0.1,0.3-0.1,0.6-0.1,0.9c0,7.9,0,15.9,0,23.8c0,0.4,0.1,0.9,0.2,1.3c0.3,0.9,1,1.3,2,1.2
					c1-0.1,1.5-0.6,1.7-1.6c0.1-0.4,0.1-0.9,0.1-1.3c0-5.3,0-10.7,0-16v-1.5h5.1v1.5c0,5.3,0,10.6,0,15.8c0,0.5,0,1.1,0.1,1.6
					c0.2,1,0.9,1.5,1.9,1.5c1,0,1.7-0.6,1.8-1.6c0.1-0.5,0.1-1,0.1-1.5c0-5.4,0-10.7,0-16.1c0-0.5,0.3-1,0.6-1.4
					c0.5-0.5,1.1-0.9,1.7-1.4v-13.3c-1-4.1-3.7-6.3-7.6-7.6c-4.2-1.5-8.2-3.3-12.4-4.9c-0.4-0.2-0.8-0.4-1.4-0.6
					c0.7-0.2,1.1-0.3,1.6-0.4c4.6-1.2,9-2.9,13.1-5.4c1.2-0.8,2.2-1.6,2-3.3c-0.7-8.4-1.4-16.8-2.1-25.2c-0.2-3.2,0-6.5-0.5-9.7
					c-2.1-15.1-15.6-25.1-30.6-23.1c-12.9,1.8-22.8,12.8-23.2,25.8c-0.1,3.8-0.4,7.5-0.3,11.3c0.1,2.8-0.9,4.4-3.6,5.2
					c-0.8,0.2-1.3,0.4-2.1,0c-3.6-1.8-7.2-3.6-10.8-5.4c-0.3-0.2-0.7-0.4-0.9-0.5c0.3-1.5,0.7-3,0.9-4.4c0.1-0.8,0.4-1.2,1.1-1.6
					c3.9-1.9,4.9-6.8,2.1-10.1c-0.4-0.5-0.7-1.2-0.7-1.8c-0.1-4.1,0-8.3,0-12.4c0-3.4-1.5-6.1-4-8.4c-0.5-0.4-0.9-1.1-1.2-1.7
					c-1.4-3.1-3.8-5.2-7.2-5.3c-3.9-0.1-7.9-0.2-11.8-0.2C91.4,63.4,88.7,63.4,86,63.6"/>
			</defs>
			<clipPath id="SVGID_2_">
				<use xlink:href="#SVGID_1_"  style="overflow:visible;"/>
			</clipPath>
			
				<linearGradient id="SVGID_3_" gradientUnits="userSpaceOnUse" x1="-3418.6509" y1="2376.6724" x2="-3418.3208" y2="2376.6724" gradientTransform="matrix(413.2823 0 0 -413.2823 1412925.125 982362.5)">
				<stop  offset="0" style="stop-color:#E300D6"/>
				<stop  offset="0.4662" style="stop-color:#4828BE"/>
				<stop  offset="1" style="stop-color:#4828BE"/>
			</linearGradient>
			<rect x="57.3" y="63.4" class="st3" width="136.4" height="125.2"/>
		</g>
		<g>
			<defs>
				<path id="SVGID_4_" d="M162.8,118.9c-2.6,2.1-3.6,2.1-6.2,0c-1-0.8-2.1-0.8-2.9,0c-0.8,0.8-0.8,1.9,0.1,2.9
					c1.5,1.7,3.4,2.7,6.2,2.8c1.9,0,4-1,5.6-2.8c0.8-0.9,0.8-2.1,0-2.9c-0.4-0.4-0.8-0.6-1.3-0.6
					C163.9,118.2,163.4,118.5,162.8,118.9"/>
			</defs>
			<clipPath id="SVGID_5_">
				<use xlink:href="#SVGID_4_"  style="overflow:visible;"/>
			</clipPath>
			
				<linearGradient id="SVGID_6_" gradientUnits="userSpaceOnUse" x1="-3467.488" y1="2382.7954" x2="-3467.158" y2="2382.7954" gradientTransform="matrix(39.576 0 0 -39.576 137382.6094 94422.8281)">
				<stop  offset="0" style="stop-color:#E300D6"/>
				<stop  offset="0.4662" style="stop-color:#4828BE"/>
				<stop  offset="1" style="stop-color:#4828BE"/>
			</linearGradient>
			<rect x="153" y="118" class="st4" width="13.5" height="6.4"/>
		</g>
		<g>
			<defs>
				<path id="SVGID_7_" d="M150.6,106.8c-1.1,0-1.8,0.8-1.9,2c0,0.4,0,0.9,0,1.3c0,1.9,0.7,2.9,2,2.9c1.3,0,2-1,2-2.9
					c0,0,0-0.1,0-0.1c0,0,0,0,0,0c0-0.4,0.1-0.9,0-1.3C152.4,107.6,151.6,106.8,150.6,106.8C150.6,106.8,150.6,106.8,150.6,106.8"/>
			</defs>
			<clipPath id="SVGID_8_">
				<use xlink:href="#SVGID_7_"  style="overflow:visible;"/>
			</clipPath>
			
				<linearGradient id="SVGID_9_" gradientUnits="userSpaceOnUse" x1="-3587.8628" y1="2396.2671" x2="-3587.533" y2="2396.2671" gradientTransform="matrix(12.1219 0 0 -12.1219 43640.2461 29157.1875)">
				<stop  offset="0" style="stop-color:#E300D6"/>
				<stop  offset="0.4662" style="stop-color:#4828BE"/>
				<stop  offset="1" style="stop-color:#4828BE"/>
			</linearGradient>
			<rect x="148.6" y="106.8" class="st5" width="4" height="6.3"/>
		</g>
		<g>
			<defs>
				<path id="SVGID_10_" d="M166.9,109.9c0,2.1,0.7,3.2,2.1,3.1c1.3,0,1.9-1,1.9-3.1c0-2.2-0.6-3.2-1.9-3.2c0,0,0,0-0.1,0
					C167.5,106.8,166.9,107.9,166.9,109.9"/>
			</defs>
			<clipPath id="SVGID_11_">
				<use xlink:href="#SVGID_10_"  style="overflow:visible;"/>
			</clipPath>
			
				<linearGradient id="SVGID_12_" gradientUnits="userSpaceOnUse" x1="-3591.0957" y1="2396.2866" x2="-3590.7654" y2="2396.2866" gradientTransform="matrix(12.1095 0 0 -12.1095 43653.1328 29127.7266)">
				<stop  offset="0" style="stop-color:#E300D6"/>
				<stop  offset="0.4662" style="stop-color:#4828BE"/>
				<stop  offset="1" style="stop-color:#4828BE"/>
			</linearGradient>
			<rect x="166.9" y="106.8" class="st6" width="4" height="6.3"/>
		</g>
		<g>
			<defs>
				<path id="SVGID_13_" d="M87.6,107.5c-0.7,0.8-0.7,1.9,0,2.8c1.6,1.8,3.5,2.7,6,2.9c2.3-0.1,4.3-1,5.9-2.8c0.8-0.9,0.8-2.1,0-2.9
					c-0.8-0.8-1.9-0.7-2.9,0.1c-2.4,2.1-3.7,2.1-6.2,0c-0.5-0.4-1-0.6-1.5-0.6C88.5,106.8,88,107,87.6,107.5"/>
			</defs>
			<clipPath id="SVGID_14_">
				<use xlink:href="#SVGID_13_"  style="overflow:visible;"/>
			</clipPath>
			
				<linearGradient id="SVGID_15_" gradientUnits="userSpaceOnUse" x1="-3464.1296" y1="2382.2153" x2="-3463.7996" y2="2382.2153" gradientTransform="matrix(39.5471 0 0 -39.5471 137083.4844 94319.6719)">
				<stop  offset="0" style="stop-color:#E300D6"/>
				<stop  offset="0.4662" style="stop-color:#4828BE"/>
				<stop  offset="1" style="stop-color:#4828BE"/>
			</linearGradient>
			<rect x="86.9" y="106.6" class="st7" width="13.5" height="6.5"/>
		</g>
		<g>
			<defs>
				<path id="SVGID_16_" d="M100.7,98.5c0,0.4,0,0.9,0,1.3c0.1,1.1,0.8,1.7,1.8,1.8c1.1,0.1,1.8-0.5,2-1.5c0.1-0.5,0.1-1.1,0.1-1.6
					c0-2-0.6-3-2-3.1c0,0-0.1,0-0.1,0C101.3,95.4,100.7,96.4,100.7,98.5"/>
			</defs>
			<clipPath id="SVGID_17_">
				<use xlink:href="#SVGID_16_"  style="overflow:visible;"/>
			</clipPath>
			
				<linearGradient id="SVGID_18_" gradientUnits="userSpaceOnUse" x1="-3580.7004" y1="2394.4473" x2="-3580.3704" y2="2394.4473" gradientTransform="matrix(12.0592 0 0 -12.0592 43280.9961 28973.6074)">
				<stop  offset="0" style="stop-color:#E300D6"/>
				<stop  offset="0.4662" style="stop-color:#4828BE"/>
				<stop  offset="1" style="stop-color:#4828BE"/>
			</linearGradient>
			<rect x="100.7" y="95.4" class="st8" width="4" height="6.3"/>
		</g>
		<g>
			<defs>
				<path id="SVGID_19_" d="M82.5,97.3c-0.1,0.7-0.1,1.3,0,2c0.1,1.4,0.9,2.4,2,2.4c1.2,0,1.9-0.9,2-2.4c0-0.3,0-0.5,0-0.8h0
					c0-0.4,0-0.7,0-1.1c-0.1-1.2-0.8-2-1.9-2c0,0,0,0-0.1,0C83.4,95.4,82.6,96.2,82.5,97.3"/>
			</defs>
			<clipPath id="SVGID_20_">
				<use xlink:href="#SVGID_19_"  style="overflow:visible;"/>
			</clipPath>
			
				<linearGradient id="SVGID_21_" gradientUnits="userSpaceOnUse" x1="-3576.3259" y1="2394.3074" x2="-3575.9961" y2="2394.3074" gradientTransform="matrix(12.1549 0 0 -12.1549 43552.2656 29201.1016)">
				<stop  offset="0" style="stop-color:#E300D6"/>
				<stop  offset="0.4662" style="stop-color:#4828BE"/>
				<stop  offset="1" style="stop-color:#4828BE"/>
			</linearGradient>
			<rect x="82.4" y="95.4" class="st9" width="4" height="6.2"/>
		</g>
		<g>
			<defs>
				<path id="SVGID_22_" d="M131,153c-2.9,2.3-3.6,2.3-6.4,0c-0.9-0.8-2-0.8-2.8,0c-0.8,0.8-0.8,1.9-0.1,2.8c1.6,1.8,3.6,2.8,6,2.9
					c2.4-0.1,4.4-1.1,6-2.9c0.7-0.9,0.7-2.1-0.2-2.7c-0.4-0.3-0.9-0.5-1.3-0.5C131.9,152.5,131.5,152.7,131,153"/>
			</defs>
			<clipPath id="SVGID_23_">
				<use xlink:href="#SVGID_22_"  style="overflow:visible;"/>
			</clipPath>
			
				<linearGradient id="SVGID_24_" gradientUnits="userSpaceOnUse" x1="-3465.7429" y1="2384.5342" x2="-3465.4131" y2="2384.5342" gradientTransform="matrix(39.6564 0 0 -39.6564 137560.1094 94717.5234)">
				<stop  offset="0" style="stop-color:#E300D6"/>
				<stop  offset="0.4662" style="stop-color:#4828BE"/>
				<stop  offset="1" style="stop-color:#4828BE"/>
			</linearGradient>
			<rect x="121" y="152.3" class="st10" width="13.5" height="6.4"/>
		</g>
		<g>
			<defs>
				<path id="SVGID_25_" d="M121,143.4c-1.1,0-1.9,0.8-1.9,1.9c0,1.1,0.9,2,2,2c1.1,0,1.9-0.9,1.9-2
					C122.9,144.2,122.1,143.4,121,143.4L121,143.4"/>
			</defs>
			<clipPath id="SVGID_26_">
				<use xlink:href="#SVGID_25_"  style="overflow:visible;"/>
			</clipPath>
			
				<linearGradient id="SVGID_27_" gradientUnits="userSpaceOnUse" x1="-3587.9875" y1="2402.9785" x2="-3587.6575" y2="2402.9785" gradientTransform="matrix(11.7679 0 0 -11.7679 42342.0195 28423.2832)">
				<stop  offset="0" style="stop-color:#E300D6"/>
				<stop  offset="0.4662" style="stop-color:#4828BE"/>
				<stop  offset="1" style="stop-color:#4828BE"/>
			</linearGradient>
			<rect x="119" y="143.4" class="st11" width="3.9" height="3.9"/>
		</g>
		<g>
			<defs>
				<path id="SVGID_28_" d="M132.7,145.1c-0.1,1.2,0.7,2.1,1.8,2.1c1.1,0.1,2-0.7,2-1.8c0.1-1.1-0.7-2-1.8-2.1c-0.1,0-0.1,0-0.2,0
					C133.6,143.4,132.7,144.1,132.7,145.1"/>
			</defs>
			<clipPath id="SVGID_29_">
				<use xlink:href="#SVGID_28_"  style="overflow:visible;"/>
			</clipPath>
			
				<linearGradient id="SVGID_30_" gradientUnits="userSpaceOnUse" x1="-3590.7122" y1="2403.0366" x2="-3590.3821" y2="2403.0366" gradientTransform="matrix(11.7426 0 0 -11.7426 42296.8125 28363.1719)">
				<stop  offset="0" style="stop-color:#E300D6"/>
				<stop  offset="0.4662" style="stop-color:#4828BE"/>
				<stop  offset="1" style="stop-color:#4828BE"/>
			</linearGradient>
			<rect x="132.5" y="143.4" class="st12" width="4" height="3.9"/>
		</g>
	</g>
</g>
</svg>
