<?xml version="1.0" encoding="utf-8"?>
<!-- Generator: Adobe Illustrator 19.1.0, SVG Export Plug-In . SVG Version: 6.00 Build 0)  -->
<svg version="1.1" id="Layer_1" xmlns="http://www.w3.org/2000/svg" xmlns:xlink="http://www.w3.org/1999/xlink" x="0px" y="0px"
	 viewBox="0 0 250 250" style="enable-background:new 0 0 250 250;" xml:space="preserve">
<style type="text/css">
	.st0{opacity:0.3;}
	.st1{fill:#FFFFFD;}
	.st2{fill:none;stroke:#F4EEE9;stroke-width:9.3745;stroke-linecap:round;stroke-miterlimit:10;}
	.st3{clip-path:url(#SVGID_2_);fill:url(#SVGID_3_);}
	.st4{clip-path:url(#SVGID_5_);fill:url(#SVGID_6_);}
	.st5{clip-path:url(#SVGID_8_);fill:url(#SVGID_9_);}
	.st6{clip-path:url(#SVGID_11_);fill:url(#SVGID_12_);}
</style>
<g>
	<g>
		<g>
			<g class="st0">
				<path d="M196.9,244.8H57.7c-23.4,0-42.4-19-42.4-42.4V61.7c0-23.4,19-42.4,42.4-42.4h139.2c23.4,0,42.4,19,42.4,42.4v140.6
					C239.4,225.8,220.4,244.8,196.9,244.8z"/>
			</g>
			<g>
				<path class="st1" d="M194.6,237.7H55.4c-23.4,0-42.4-19-42.4-42.4V54.7c0-23.4,19-42.4,42.4-42.4h139.2
					c23.4,0,42.4,19,42.4,42.4v140.6C237,218.7,218,237.7,194.6,237.7z"/>
			</g>
		</g>
		<path class="st2" d="M27.2,69c0-23.4,19-42.4,42.4-42.4h16.5"/>
		<path class="st2" d="M222.8,181c0,23.4-19,42.4-42.4,42.4"/>
		<line class="st2" x1="105.8" y1="26.6" x2="129.7" y2="26.6"/>
	</g>
	<g>
		<g>
			<defs>
				<path id="SVGID_1_" d="M149.7,179.3c0-6.3,5-11.3,11.3-11.3c6.2,0,11.3,5,11.3,11.2c0,6.2-5.1,11.4-11.3,11.4
					C154.8,190.6,149.8,185.5,149.7,179.3 M125.8,142.2c-2.1-2.6-4.3-5.1-6.4-7.5c0,0,0.3-0.1,0.6-0.1c11.6,0,23.1,0,34.7,0
					c2.7,0,4.4,1.7,4.5,4.4c0,1.3,0,2.6,0,4.1c-2.2,0-4.3,0-6.4,0c-2.4,0-4.8,0-7.2,0c-1.5,0-2.3,0.7-2.4,1.8c0,1.2,0.9,1.9,2.4,1.9
					c4,0,8,0,12,0h1.5v8.4h-27.7c-0.9-2.8-1.7-5.5-2.6-8.4c2.1,0,4.2,0,6.4,0c0.5,0,0.9,0,1.4,0c1.1-0.1,1.8-0.8,1.8-1.9
					c0-1.1-0.7-1.8-1.9-1.9c-2.9,0-5.8,0-8.7,0c0,0,0,0,0,0C126.8,143.1,126.4,142.8,125.8,142.2 M98.1,190.8
					c-16.5,0-29.8-13.4-29.8-29.9c0.1-16.5,13.5-29.9,29.9-29.8c16.4,0.1,29.7,13.5,29.7,29.9C128,177.4,114.5,190.8,98.1,190.8
					C98.1,190.8,98.1,190.8,98.1,190.8 M83.3,113.7h2.2c1.7,0,3.5,0,5.2,0c0.4,0,1,0.4,1,0.7c0.8,4.2,1.6,8.5,2.3,12.7
					c0,0.1,0,0.2,0,0.4c-2.7,0.7-5.2,1.3-7.9,2C85.2,124.4,84.2,119.2,83.3,113.7 M78.9,110c-2,0-3.3-1.1-3.3-2.8
					c0-1.7,1.3-2.7,3.3-2.7c18.6,0,37.2,0,55.8,0c1.8,0,2.9,0.7,3.2,2c0.5,1.9-0.8,3.5-2.9,3.5c-3.7,0-7.3,0-11,0
					c-1.5,0-2.9,0-4.4,0c-0.3,0-0.7,0-1,0c-1.3,0.1-2,0.8-2,1.9c0,1.1,0.7,1.8,2,1.8c5.7,0,11.4,0.1,17.1,0c2.5,0,4.4-1.5,5.4-3.7
					c0.3-0.6,0.6-0.9,1.3-0.8c0.3,0,0.6,0,0.9,0c0.3,0,0.5,0,0.8,0c1.8,0.1,3.3,1.5,3.3,3.3c0.1,6.1,0,12.1,0,18.4h-1.4
					c-10.7,0-21.5,0-32.2,0c-0.7,0-1.4-0.2-2-0.4c-4.1-1.8-8.3-2.8-12.8-2.9c-0.9,0-1.3-0.3-1.4-1.2c-0.6-3.9-1.4-7.8-2.1-11.7
					c0-0.2,0-0.5,0-0.9H97c4,0,8,0,12,0c0.1,0,0.1,0,0.2,0c0.3,0,0.7,0,1,0c0.9-0.1,1.5-0.7,1.6-1.7c0.1-0.9-0.4-1.6-1.3-1.9
					c-0.5-0.1-1-0.1-1.5-0.1c-9.6,0-19.3,0-28.9,0c-0.2,0-0.4,0-0.6,0C79.2,110,79.1,110,78.9,110 M78.4,86.6
					c-0.8-4.7-1.7-9.3-2.5-14.2c2.3,0,4.5-0.1,6.7,0c1.6,0.1,2,1.6,2.2,2.9c0.5,2.6,0.9,5.2,1.4,7.8c1,5.8,2.1,11.5,3.1,17.4h-8.4
					C80.1,96,79.2,91.3,78.4,86.6 M60.3,68.7c-1.1,0-1.9,0.8-1.9,1.7c0,1,0.6,1.8,1.7,1.9c0.3,0,0.6,0,0.9,0c0.1,0,0.2,0,0.2,0
					c3.2,0,6.3,0,9.5,0c0.4,0,0.9,0,1.3,0c1.7,9.6,3.4,19,5.1,28.3c-0.1,0.2-0.1,0.2-0.2,0.2c-3.8,1-5.4,4.4-5,7.1
					c0.5,3.4,2.8,5.5,6.7,5.7c0.7,0,0.9,0.4,1,1c0.9,5,1.7,10,2.7,15c0.3,1.3-0.1,1.9-1.2,2.5c-12.5,7.2-19,21.9-15.9,35.8
					c4,18,20.6,29.2,38.9,26.1c13.7-2.3,25.2-14.1,27.1-27.8c0.3-2.3,0.4-4.7,0.6-7.1h27.3v5.2c-3.9,0.6-7.3,2.4-9.8,5.5
					c-2.6,3.1-3.7,6.8-3.3,10.8c0.7,7.2,6.4,13,13.3,13.6c3.6,0.3,7-0.4,10.1-2.5c3.8-2.5,5.9-6.1,6.6-10.6c2.5,0,4.9,0,7.3,0
					c1.1,0,2.1-0.2,2.8-1.1v-1.5c-0.7-1-1.7-1.2-2.8-1.2c-1.1,0.1-2.2,0-3.2,0c-1.4,0-2.7,0-4,0c-1.5-7.4-5.9-11.7-13.1-13.1v-1.4
					c0-7.9,0-15.9,0-23.8c0-4.7-3.4-8.1-8.1-8.1c-1.2,0-2.3,0-3.6,0c0-0.6,0-1,0-1.5c0-5.6,0-11.1,0-16.7c0-3.5-2.4-6.4-5.8-7.1
					c-1-0.2-2-0.1-3-0.2c-0.4,0-0.9-0.3-1-0.6c-1.4-2.9-3.7-4.1-6.8-4.1c-13.3,0-26.6,0-39.9,0h-1.5c-0.4-2.1-0.7-4-1.1-5.9
					c-1.2-6.9-2.4-13.8-3.8-20.7c-0.7-3.6-3.1-5.4-6.7-5.4c-5.7,0-11.5,0-17.2,0c-0.4,0-0.8,0-1.1,0c-0.4,0-0.7,0-1.1,0
					C61.5,68.6,60.9,68.7,60.3,68.7"/>
			</defs>
			<clipPath id="SVGID_2_">
				<use xlink:href="#SVGID_1_"  style="overflow:visible;"/>
			</clipPath>
			
				<linearGradient id="SVGID_3_" gradientUnits="userSpaceOnUse" x1="-3417.1401" y1="2375.0068" x2="-3416.8101" y2="2375.0068" gradientTransform="matrix(387.2136 0 0 -387.2136 1323221.375 919767.6875)">
				<stop  offset="0" style="stop-color:#E300D6"/>
				<stop  offset="0.4662" style="stop-color:#4828BE"/>
				<stop  offset="1" style="stop-color:#4828BE"/>
			</linearGradient>
			<rect x="58.3" y="68.6" class="st3" width="127.8" height="128.4"/>
		</g>
		<g>
			<defs>
				<path id="SVGID_4_" d="M76.8,161c0-11.8,9.6-21.4,21.3-21.4c11.7,0,21.4,9.6,21.4,21.4c0,11.8-9.6,21.3-21.4,21.3
					C86.3,182.3,76.8,172.8,76.8,161 M73,160.9c-0.1,13.9,11.1,25.2,25.1,25.2c13.8,0,25.1-11.2,25.1-25c0-13.8-11.2-25.1-25-25.2
					c0,0-0.1,0-0.1,0C84.3,135.9,73.1,147.1,73,160.9"/>
			</defs>
			<clipPath id="SVGID_5_">
				<use xlink:href="#SVGID_4_"  style="overflow:visible;"/>
			</clipPath>
			
				<linearGradient id="SVGID_6_" gradientUnits="userSpaceOnUse" x1="-3422.1931" y1="2373.8713" x2="-3421.863" y2="2373.8713" gradientTransform="matrix(152.0398 0 0 -152.0398 520382.5625 361083.9375)">
				<stop  offset="0" style="stop-color:#E300D6"/>
				<stop  offset="0.4662" style="stop-color:#4828BE"/>
				<stop  offset="1" style="stop-color:#4828BE"/>
			</linearGradient>
			<rect x="73" y="135.9" class="st4" width="50.2" height="50.2"/>
		</g>
		<g>
			<defs>
				<path id="SVGID_7_" d="M161,182c-1.5,0-2.6-1.3-2.6-2.8c0-1.4,1.2-2.6,2.7-2.6c1.5,0,2.7,1.2,2.7,2.7
					C163.7,180.8,162.5,182,161,182C161,182,161,182,161,182 M154.6,179.3c0,3.5,2.9,6.4,6.4,6.5c3.5,0,6.4-2.9,6.4-6.4
					c0-3.5-2.9-6.4-6.4-6.4C157.5,172.8,154.6,175.7,154.6,179.3"/>
			</defs>
			<clipPath id="SVGID_8_">
				<use xlink:href="#SVGID_7_"  style="overflow:visible;"/>
			</clipPath>
			
				<linearGradient id="SVGID_9_" gradientUnits="userSpaceOnUse" x1="-3450.3628" y1="2368.6187" x2="-3450.0327" y2="2368.6187" gradientTransform="matrix(38.8135 0 0 -38.8135 134075.1719 92113.5781)">
				<stop  offset="0" style="stop-color:#E300D6"/>
				<stop  offset="0.4662" style="stop-color:#4828BE"/>
				<stop  offset="1" style="stop-color:#4828BE"/>
			</linearGradient>
			<rect x="154.6" y="172.8" class="st5" width="12.8" height="12.9"/>
		</g>
		<g>
			<defs>
				<path id="SVGID_10_" d="M92.9,161c0-2.9,2.4-5.2,5.3-5.2c2.9,0,5.2,2.4,5.2,5.3c0,2.8-2.4,5.1-5.2,5.2c0,0,0,0,0,0
					C95.3,166.2,92.9,163.8,92.9,161 M89.1,161c0,4.9,4,9,8.9,9c4.9,0,9-4,9-8.9c0-5-4-9-8.9-9c0,0,0,0,0,0
					C93.2,152.1,89.2,156,89.1,161"/>
			</defs>
			<clipPath id="SVGID_11_">
				<use xlink:href="#SVGID_10_"  style="overflow:visible;"/>
			</clipPath>
			
				<linearGradient id="SVGID_12_" gradientUnits="userSpaceOnUse" x1="-3437.5535" y1="2370.0383" x2="-3437.2234" y2="2370.0383" gradientTransform="matrix(54.2745 0 0 -54.2745 186660.5781 128793.6563)">
				<stop  offset="0" style="stop-color:#E300D6"/>
				<stop  offset="0.4662" style="stop-color:#4828BE"/>
				<stop  offset="1" style="stop-color:#4828BE"/>
			</linearGradient>
			<rect x="89.1" y="152.1" class="st6" width="18" height="18"/>
		</g>
	</g>
</g>
</svg>
