<?xml version="1.0" encoding="utf-8"?>
<!-- Generator: Adobe Illustrator 19.1.0, SVG Export Plug-In . SVG Version: 6.00 Build 0)  -->
<svg version="1.1" id="Layer_1" xmlns="http://www.w3.org/2000/svg" xmlns:xlink="http://www.w3.org/1999/xlink" x="0px" y="0px"
	 viewBox="0 0 250 250" style="enable-background:new 0 0 250 250;" xml:space="preserve">
<style type="text/css">
	.st0{opacity:0.3;}
	.st1{fill:#FFFFFD;}
	.st2{fill:none;stroke:#F4EEE9;stroke-width:9.3745;stroke-linecap:round;stroke-miterlimit:10;}
	.st3{clip-path:url(#SVGID_2_);fill:url(#SVGID_3_);}
</style>
<g>
	<g>
		<g>
			<g class="st0">
				<path d="M196.9,244.8H57.7c-23.4,0-42.4-19-42.4-42.4V61.7c0-23.4,19-42.4,42.4-42.4h139.2c23.4,0,42.4,19,42.4,42.4v140.6
					C239.4,225.8,220.4,244.8,196.9,244.8z"/>
			</g>
			<g>
				<path class="st1" d="M194.6,237.7H55.4c-23.4,0-42.4-19-42.4-42.4V54.7c0-23.4,19-42.4,42.4-42.4h139.2
					c23.4,0,42.4,19,42.4,42.4v140.6C237,218.7,218,237.7,194.6,237.7z"/>
			</g>
		</g>
		<path class="st2" d="M27.2,69c0-23.4,19-42.4,42.4-42.4h16.5"/>
		<path class="st2" d="M222.8,181c0,23.4-19,42.4-42.4,42.4"/>
		<line class="st2" x1="105.8" y1="26.6" x2="129.7" y2="26.6"/>
	</g>
	<g>
		<g>
			<defs>
				<path id="SVGID_1_" d="M103.4,171.3v-4c1.4,0.8,2.3,2.3,2.3,4c0,2.6-2.1,4.7-4.7,4.7c-2.6,0-4.7-2.1-4.7-4.7
					c0-1.7,0.9-3.2,2.3-4v4H103.4z M123.3,164.6l1-6.9c0-0.1,0-0.2,0-0.3c0,0.1,0,0.2,0,0.3l1,6.9l-1,3.3L123.3,164.6z M123.6,155.7
					l-3.4-3.4l4.1-6.8l4.1,6.8l-3.4,3.4c-0.4,0.4-0.7,1-0.7,1.6C124.3,156.7,124.1,156.2,123.6,155.7 M110.5,133.9l0.8-2.5l10,10
					l-2.9,4.8l-1,1.6L110.5,133.9z M130.2,146.3l-2.9-4.8l10-10l0.8,2.5l-7,14L130.2,146.3z M107.1,129.5l-0.9,2.7l-2.7,0.9
					C103.8,131.3,105.3,129.9,107.1,129.5 M142.5,132.2l-0.9-2.7c1.8,0.4,3.3,1.8,3.6,3.6L142.5,132.2z M136,121.4v4.7l-11.7,11.7
					l-11.7-11.7v-4.7c3.5,2.1,7.5,3.3,11.7,3.3C128.5,124.7,132.5,123.6,136,121.4 M96.4,92.1c0-2.6,2.1-4.7,4.7-4.7v4.2
					c0,1.4,0.2,5,0.2,5.1H101C98.5,96.8,96.4,94.7,96.4,92.1 M147.6,87.5c2.6,0,4.7,2.1,4.7,4.7c0,2.6-2.1,4.7-4.7,4.7h-0.2
					C147.5,96.7,147.6,87.5,147.6,87.5 M134.6,71.7c2.1,5.3,4.7,9.7,8.4,14.2c0,6.7-0.1,13.4-1.4,20c-1.6,8.1-9,14.1-17.2,14.1
					c-4.6,0-9-1.8-12.3-5.1c-4.3-4.3-5.3-10.2-5.9-16.1C106,98,105.7,86,105.7,86c3.7-4.5,6.3-8.9,8.4-14.2c3.3,1,6.8,1.5,10.3,1.5
					C127.8,73.2,131.3,72.7,134.6,71.7 M122.5,54.8c-6.3,0-10.9,1.8-13.9,5.4l-2.1,2.1c-1,0.7-1.8,1.6-2.6,2.5l3.6,3
					c0.6-0.7,1.2-1.3,1.9-1.8c0.1-0.1,0.2-0.1,0.2-0.2l2.3-2.3c0.1-0.1,0.1-0.1,0.2-0.2c2.1-2.6,5.3-3.8,10.3-3.8h3.7
					c5,0,8.2,1.2,10.3,3.8c0.1,0.1,0.1,0.1,0.2,0.2l2.3,2.3c0.2,0.2,0.4,0.3,0.6,0.4c3,1.5,4.5,4.9,4.5,10.1c0,1.1-0.1,2.2-0.2,3.2
					c-2.4-3.5-4.2-7.2-5.8-11.5c-0.2-0.6-0.7-1.1-1.2-1.3c-0.6-0.3-1.2-0.3-1.8-0.1c-6.7,2.5-15,2.5-21.6,0
					c-0.6-0.2-1.2-0.2-1.8,0.1c-0.6,0.3-1,0.7-1.2,1.3c-1.6,4.4-3.4,8-5.8,11.6c-0.2-2.5-0.2-5.6,0.9-8.4l-4.4-1.7
					c-1.9,4.9-1.4,10.1-0.8,13.3c-4.8,0.3-8.7,4.4-8.7,9.3c0,5.1,4.2,9.3,9.3,9.3h0.6c0.2,1.8,0.5,3.6,0.9,5.4
					c0.8,4,2.7,7.7,5.5,10.7v7.1c-5.1,0-9.3,4.2-9.3,9.3v0.6l-13.3,4c-5.9,1.8-10,7.3-10,13.4v42.6h4.7v-38.5l8.5,3.4l1.7-4.3
					l-10.1-4.1c0.4-3.7,3-6.9,6.6-8l12-3.6v22.8c-4,1-7,4.7-7,9c0,5.1,4.2,9.3,9.3,9.3c5.1,0,9.3-4.2,9.3-9.3c0-4.3-3-8-7-9v-24.2
					l3.5-1.2l8.3,16.7l6.8,22.8v18.4h4.7v-18.4l6.8-22.8l8.3-16.7l3.5,1.2v14.8c-6.6,1.1-11.7,6.9-11.7,13.8v14c0,1.3,1,2.3,2.3,2.3
					h4.7v-4.7h-2.3v-11.7c0-5.1,4.2-9.3,9.3-9.3c5.1,0,9.3,4.2,9.3,9.3v11.7h-2.3v4.7h4.7c1.3,0,2.3-1,2.3-2.3v-14
					c0-6.9-5-12.7-11.7-13.8v-13.4l12,3.6c3.7,1.1,6.4,4.5,6.6,8.3l-5.9,4l2.6,3.9l3.4-2.2v7.3h4.7v-12.3c0-6.1-4.1-11.6-10-13.4
					l-13.3-4v-0.6c0-5.1-4.2-9.3-9.3-9.3v-7.1c2.8-3,4.7-6.7,5.5-10.7c0.4-1.8,0.7-3.6,0.9-5.4h0.6c5.1,0,9.3-4.2,9.3-9.3
					c0-4.9-3.9-9-8.8-9.3c1-5.3,1.8-16.3-6.2-20.6l-2-2c-3-3.7-7.5-5.4-13.9-5.4H122.5z"/>
			</defs>
			<clipPath id="SVGID_2_">
				<use xlink:href="#SVGID_1_"  style="overflow:visible;"/>
			</clipPath>
			
				<linearGradient id="SVGID_3_" gradientUnits="userSpaceOnUse" x1="-3404.2476" y1="2370.1233" x2="-3403.9175" y2="2370.1233" gradientTransform="matrix(296.5988 0 0 -296.5988 1009771.0625 703100.4375)">
				<stop  offset="0" style="stop-color:#E300D6"/>
				<stop  offset="0.4662" style="stop-color:#4828BE"/>
				<stop  offset="1" style="stop-color:#4828BE"/>
			</linearGradient>
			<rect x="75.4" y="54.8" class="st3" width="97.9" height="139.9"/>
		</g>
	</g>
</g>
</svg>
